<svg id="Grupo_1071242" data-name="Grupo 1071242" xmlns="http://www.w3.org/2000/svg" xmlns:xlink="http://www.w3.org/1999/xlink" width="295" height="196.811" viewBox="0 0 295 196.811">
  <defs>
    <clipPath id="clip-path">
      <rect id="Rectángulo_377420" data-name="Rectángulo 377420" width="295" height="196.811" fill="none"/>
    </clipPath>
  </defs>
  <g id="Grupo_1071227" data-name="Grupo 1071227" clip-path="url(#clip-path)">
    <path id="Trazado_608692" data-name="Trazado 608692" d="M80.867,189.467c42.321,10.619,111.5,11.8,158.2-10.549,43.133-20.645,52.011-96.549,22.409-139.6-21.037-30.6-61.342-42.8-99.989-38.466-45.6,5.116-57.7,36.65-87.961,59.307C54.7,74.252,16.239,70.783,8.976,111.914c-8.271,46.877,42.671,70.219,71.89,77.552" transform="translate(-4.309 0)" fill="#e4efed"/>
    <path id="Trazado_608693" data-name="Trazado 608693" d="M481.26,289.372c5.428-94.174,46.391-105.768,52.823-97.842,13.475,16.6-33.313,68.562-52.823,97.842" transform="translate(-256.627 -101.04)" fill="#70a8c4"/>
    <path id="Trazado_608694" data-name="Trazado 608694" d="M530.89,201.848a220.651,220.651,0,0,0-47.25,93.366" transform="translate(-257.896 -107.633)" fill="none" stroke="#f2cdbf" stroke-linecap="round" stroke-miterlimit="10" stroke-width="1"/>
    <path id="Trazado_608695" data-name="Trazado 608695" d="M558.98,203.578a41.287,41.287,0,0,1,2.147,12.248,68.036,68.036,0,0,1,13.326-1.517" transform="translate(-298.07 -108.556)" fill="none" stroke="#f2cdbf" stroke-linecap="round" stroke-miterlimit="10" stroke-width="1"/>
    <path id="Trazado_608696" data-name="Trazado 608696" d="M525.2,238.548a52.066,52.066,0,0,1,5.625,14.367,72.7,72.7,0,0,1,15.856-1.61" transform="translate(-280.057 -127.203)" fill="none" stroke="#f2cdbf" stroke-linecap="round" stroke-miterlimit="10" stroke-width="1"/>
    <path id="Trazado_608697" data-name="Trazado 608697" d="M501.92,289.258a68.718,68.718,0,0,1,5.531,10.6,39.726,39.726,0,0,1,15.921-2.871" transform="translate(-267.644 -154.244)" fill="none" stroke="#f2cdbf" stroke-linecap="round" stroke-miterlimit="10" stroke-width="1"/>
    <path id="Trazado_608698" data-name="Trazado 608698" d="M508.559,330.121a33.762,33.762,0,0,0-9.877.737,31.715,31.715,0,0,0-3.543-7.58" transform="translate(-264.028 -172.385)" fill="none" stroke="#f2cdbf" stroke-linecap="round" stroke-miterlimit="10" stroke-width="1"/>
    <path id="Trazado_608699" data-name="Trazado 608699" d="M481.26,342.685c30.106-47.936,68.539-63.731,70.285-46.41,2.423,23.987-49.5,39.642-70.285,46.41" transform="translate(-256.627 -154.353)" fill="#70a8c4"/>
    <path id="Trazado_608700" data-name="Trazado 608700" d="M547.608,307.688a254.8,254.8,0,0,0-64.758,44.333" transform="translate(-257.475 -164.071)" fill="none" stroke="#f2cdbf" stroke-linecap="round" stroke-miterlimit="10" stroke-width="1"/>
    <path id="Trazado_608701" data-name="Trazado 608701" d="M602.252,296.968a40.145,40.145,0,0,1-.952,9.961,17.1,17.1,0,0,1,9.046,3.692" transform="translate(-320.637 -158.355)" fill="none" stroke="#f2cdbf" stroke-linecap="round" stroke-miterlimit="10" stroke-width="1"/>
    <path id="Trazado_608702" data-name="Trazado 608702" d="M568.96,312.848a50.206,50.206,0,0,1,.728,10.679,27.085,27.085,0,0,1,12.509,4.42" transform="translate(-303.392 -166.823)" fill="none" stroke="#f2cdbf" stroke-linecap="round" stroke-miterlimit="10" stroke-width="1"/>
    <path id="Trazado_608703" data-name="Trazado 608703" d="M536.42,336.518a19.679,19.679,0,0,1,1.671,8.817,26.529,26.529,0,0,1,11.678,3.776" transform="translate(-286.04 -179.445)" fill="none" stroke="#f2cdbf" stroke-linecap="round" stroke-miterlimit="10" stroke-width="1"/>
    <rect id="Rectángulo_377402" data-name="Rectángulo 377402" width="66.747" height="7.001" transform="translate(171.824 113.1)" fill="#f2cdbf"/>
    <path id="Trazado_608704" data-name="Trazado 608704" d="M435.142,257.308v68.231h-5.914V321.8H378.22v3.734H372.33V257.308Z" transform="translate(-198.541 -137.207)" fill="#f2cdbf"/>
    <rect id="Rectángulo_377403" data-name="Rectángulo 377403" width="62.807" height="1.4" transform="translate(173.789 120.101)" fill="#d4a59b"/>
    <rect id="Rectángulo_377404" data-name="Rectángulo 377404" width="50.06" height="15.17" transform="translate(180.071 126.216)" fill="#d4a59b"/>
    <rect id="Rectángulo_377405" data-name="Rectángulo 377405" width="51.087" height="15.17" transform="translate(179.558 124.815)" fill="#faded2"/>
    <rect id="Rectángulo_377406" data-name="Rectángulo 377406" width="50.06" height="15.17" transform="translate(180.071 145.353)" fill="#d4a59b"/>
    <rect id="Rectángulo_377407" data-name="Rectángulo 377407" width="51.087" height="15.17" transform="translate(179.558 143.953)" fill="#faded2"/>
    <rect id="Rectángulo_377408" data-name="Rectángulo 377408" width="50.06" height="15.17" transform="translate(180.071 164.49)" fill="#d4a59b"/>
    <rect id="Rectángulo_377409" data-name="Rectángulo 377409" width="51.087" height="15.17" transform="translate(179.558 163.09)" fill="#faded2"/>
    <path id="Trazado_608705" data-name="Trazado 608705" d="M403.2,222.887V212.268h2.917v10.619a1.283,1.283,0,0,1-1.284,1.284h-.35a1.283,1.283,0,0,1-1.284-1.284" transform="translate(-215.002 -113.19)" fill="#fff"/>
    <path id="Trazado_608706" data-name="Trazado 608706" d="M402.07,211.164h0a.338.338,0,0,1,.336-.336h3.3a.336.336,0,0,1,0,.672h-3.3a.341.341,0,0,1-.336-.336" transform="translate(-214.4 -112.422)" fill="#fff"/>
    <path id="Trazado_608707" data-name="Trazado 608707" d="M404.2,226.713v-6.945h1.984v6.945a.992.992,0,0,1-1.984,0" transform="translate(-215.535 -117.189)" fill="#f0d3d8"/>
    <path id="Trazado_608708" data-name="Trazado 608708" d="M415.7,222.887V212.268h2.917v10.619a1.283,1.283,0,0,1-1.284,1.284h-.35a1.283,1.283,0,0,1-1.284-1.284" transform="translate(-221.668 -113.19)" fill="#fff"/>
    <path id="Trazado_608709" data-name="Trazado 608709" d="M414.57,211.164h0a.338.338,0,0,1,.336-.336h3.3a.336.336,0,1,1,0,.672h-3.3a.341.341,0,0,1-.336-.336" transform="translate(-221.065 -112.422)" fill="#fff"/>
    <path id="Trazado_608710" data-name="Trazado 608710" d="M416.7,226.713v-6.945h1.984v6.945a.992.992,0,0,1-1.984,0" transform="translate(-222.201 -117.189)" fill="#f0d3d8"/>
    <path id="Trazado_608711" data-name="Trazado 608711" d="M428.95,222.887V212.268h2.917v10.619a1.283,1.283,0,0,1-1.284,1.284h-.35a1.283,1.283,0,0,1-1.284-1.284" transform="translate(-228.733 -113.19)" fill="#fff"/>
    <path id="Trazado_608712" data-name="Trazado 608712" d="M427.82,211.164h0a.338.338,0,0,1,.336-.336h3.3a.336.336,0,1,1,0,.672h-3.3a.341.341,0,0,1-.336-.336" transform="translate(-228.131 -112.422)" fill="#fff"/>
    <path id="Trazado_608713" data-name="Trazado 608713" d="M429.95,226.713v-6.945h1.984v6.945a.992.992,0,0,1-1.984,0" transform="translate(-229.266 -117.189)" fill="#f0d3d8"/>
    <path id="Trazado_608714" data-name="Trazado 608714" d="M442.45,222.887V212.268h2.917v10.619a1.283,1.283,0,0,1-1.284,1.284h-.35a1.283,1.283,0,0,1-1.284-1.284" transform="translate(-235.932 -113.19)" fill="#fff"/>
    <path id="Trazado_608715" data-name="Trazado 608715" d="M441.32,211.164h0a.338.338,0,0,1,.336-.336h3.3a.336.336,0,0,1,0,.672h-3.3a.341.341,0,0,1-.336-.336" transform="translate(-235.329 -112.422)" fill="#fff"/>
    <path id="Trazado_608716" data-name="Trazado 608716" d="M443.45,226.713v-6.945h1.984v6.945a.992.992,0,0,1-1.984,0" transform="translate(-236.465 -117.189)" fill="#f0d3d8"/>
    <path id="Trazado_608717" data-name="Trazado 608717" d="M456.95,222.887V212.268h2.917v10.619a1.283,1.283,0,0,1-1.284,1.284h-.35a1.283,1.283,0,0,1-1.284-1.284" transform="translate(-243.664 -113.19)" fill="#fff"/>
    <path id="Trazado_608718" data-name="Trazado 608718" d="M455.82,211.164h0a.338.338,0,0,1,.336-.336h3.3a.336.336,0,1,1,0,.672h-3.3a.341.341,0,0,1-.336-.336" transform="translate(-243.061 -112.422)" fill="#fff"/>
    <path id="Trazado_608719" data-name="Trazado 608719" d="M457.95,226.713v-6.945h1.984v6.945a.992.992,0,0,1-1.984,0" transform="translate(-244.197 -117.189)" fill="#f0d3d8"/>
    <rect id="Rectángulo_377410" data-name="Rectángulo 377410" width="35.941" height="0.934" transform="translate(185.313 99.69)" fill="#a7c2d9"/>
    <rect id="Rectángulo_377411" data-name="Rectángulo 377411" width="40.141" height="2.334" transform="translate(183.432 110.766)" fill="#d49ba0"/>
    <rect id="Rectángulo_377412" data-name="Rectángulo 377412" width="1.022" height="13.522" transform="translate(185.024 98.406)" fill="#d49ba0"/>
    <rect id="Rectángulo_377413" data-name="Rectángulo 377413" width="1.022" height="13.522" transform="translate(220.642 98.406)" fill="#d49ba0"/>
    <path id="Trazado_608720" data-name="Trazado 608720" d="M70.859,230.1A53.343,53.343,0,0,0,82.136,192.11a52.955,52.955,0,0,0-18.782-35.282,263.188,263.188,0,0,1-1.237,29.9c-.929,9.447-2.357,19.109-.1,28.332a29.006,29.006,0,0,0,8.84,15.044" transform="translate(-32.426 -83.627)" fill="#70a8c4"/>
    <path id="Trazado_608721" data-name="Trazado 608721" d="M75.931,249.059c0-33.387,8.859-44.165-4.121-79.4" transform="translate(-38.292 -90.468)" fill="none" stroke="#f2cdbf" stroke-linecap="round" stroke-miterlimit="10" stroke-width="1"/>
    <path id="Trazado_608722" data-name="Trazado 608722" d="M76.049,182.068q-1.358,2.9-2.717,5.8a14.133,14.133,0,0,0-5.162-1.41" transform="translate(-36.351 -97.086)" fill="none" stroke="#f2cdbf" stroke-linecap="round" stroke-miterlimit="10" stroke-width="1"/>
    <path id="Trazado_608723" data-name="Trazado 608723" d="M65.68,220.848a22.767,22.767,0,0,1,9.769,2.656,31.6,31.6,0,0,1,7-6.376" transform="translate(-35.023 -115.781)" fill="none" stroke="#f2cdbf" stroke-linecap="round" stroke-miterlimit="10" stroke-width="1"/>
    <path id="Trazado_608724" data-name="Trazado 608724" d="M64.85,254.034a15.614,15.614,0,0,1,9.783,2.5,43.259,43.259,0,0,1,9.466-7.548" transform="translate(-34.581 -132.77)" fill="none" stroke="#f2cdbf" stroke-linecap="round" stroke-miterlimit="10" stroke-width="1"/>
    <path id="Trazado_608725" data-name="Trazado 608725" d="M68.16,284.741a10.927,10.927,0,0,1,6.763,3.379,29.361,29.361,0,0,1,6.679-6.572" transform="translate(-36.346 -150.133)" fill="none" stroke="#f2cdbf" stroke-linecap="round" stroke-miterlimit="10" stroke-width="1"/>
    <path id="Trazado_608726" data-name="Trazado 608726" d="M92.339,238.877a39.436,39.436,0,0,1,2.021-32.935c5.088-9.508,16.08-21.079,29.789-30.755,0,0-6.525,35.52-14.633,50.373a26.4,26.4,0,0,1-17.177,13.317" transform="translate(-47.815 -93.417)" fill="#82ced8"/>
    <path id="Trazado_608727" data-name="Trazado 608727" d="M116.079,189.918c-14.162,22.75-24.244,47.572-32.239,73.109" transform="translate(-44.707 -101.272)" fill="none" stroke="#f2cdbf" stroke-linecap="round" stroke-miterlimit="10" stroke-width="1"/>
    <path id="Trazado_608728" data-name="Trazado 608728" d="M133.61,201.988a37.822,37.822,0,0,1,2.03,6.124,58.709,58.709,0,0,1,7.277-.915" transform="translate(-71.246 -107.708)" fill="none" stroke="#f2cdbf" stroke-linecap="round" stroke-miterlimit="10" stroke-width="1"/>
    <path id="Trazado_608729" data-name="Trazado 608729" d="M109.51,232.568a38.553,38.553,0,0,1,4.766,9.139,40.561,40.561,0,0,1,11.907-3.613" transform="translate(-58.395 -124.014)" fill="none" stroke="#f2cdbf" stroke-linecap="round" stroke-miterlimit="10" stroke-width="1"/>
    <path id="Trazado_608730" data-name="Trazado 608730" d="M95.34,258.428a32.023,32.023,0,0,1,5.41,10.474,65.062,65.062,0,0,1,13.135-3.963" transform="translate(-50.839 -137.804)" fill="none" stroke="#f2cdbf" stroke-linecap="round" stroke-miterlimit="10" stroke-width="1"/>
    <path id="Trazado_608731" data-name="Trazado 608731" d="M91.5,289.548a56.873,56.873,0,0,1,3.935,4.915,42.77,42.77,0,0,1,9.685-2.7" transform="translate(-48.791 -154.398)" fill="none" stroke="#f2cdbf" stroke-linecap="round" stroke-miterlimit="10" stroke-width="1"/>
    <path id="Trazado_608732" data-name="Trazado 608732" d="M30.97,249.862s6.231-8.836,1.624-24.16C26.283,204.708,0,189.818,0,189.818s7.048,28.724,12.547,43.035c5.568,14.479,18.423,17.009,18.423,17.009" transform="translate(0 -101.218)" fill="#82ced8"/>
    <path id="Trazado_608733" data-name="Trazado 608733" d="M36.572,262.16S32.987,233.268,7.46,198.438" transform="translate(-3.978 -105.815)" fill="none" stroke="#f2cdbf" stroke-linecap="round" stroke-miterlimit="10" stroke-width="1"/>
    <path id="Trazado_608734" data-name="Trazado 608734" d="M19.308,211.488a20.1,20.1,0,0,0-1.48,5.447,20.066,20.066,0,0,0-5.5-.756" transform="translate(-6.575 -112.774)" fill="none" stroke="#f2cdbf" stroke-linecap="round" stroke-miterlimit="10" stroke-width="1"/>
    <path id="Trazado_608735" data-name="Trazado 608735" d="M20.06,244.306a23.811,23.811,0,0,1,10.46.733,18.9,18.9,0,0,1,4.224-8.49" transform="translate(-10.697 -126.137)" fill="none" stroke="#f2cdbf" stroke-linecap="round" stroke-miterlimit="10" stroke-width="1"/>
    <path id="Trazado_608736" data-name="Trazado 608736" d="M49.5,266.078a27.346,27.346,0,0,0-5.447,8.985,15.808,15.808,0,0,0-10.563-.672" transform="translate(-17.858 -141.883)" fill="none" stroke="#f2cdbf" stroke-linecap="round" stroke-miterlimit="10" stroke-width="1"/>
    <path id="Trazado_608737" data-name="Trazado 608737" d="M49.41,302.8a20.871,20.871,0,0,1,6.9-.093,15.965,15.965,0,0,1,3.342-4.91" transform="translate(-26.347 -158.798)" fill="none" stroke="#f2cdbf" stroke-linecap="round" stroke-miterlimit="10" stroke-width="1"/>
    <path id="Trazado_608738" data-name="Trazado 608738" d="M78.513,323.668l-.985,5.554-1.078,6.11-.569,3.2L74.8,344.648l-2.875,16.276H50.932L48,344.648l-1.1-6.115-.574-3.2-1.106-6.11-1-5.554Z" transform="translate(-23.58 -172.592)" fill="#d49ba0"/>
    <path id="Trazado_608739" data-name="Trazado 608739" d="M78.669,335.568l-1.078,6.11H47.466l-1.106-6.11Z" transform="translate(-24.721 -178.938)" fill="#faded2"/>
    <path id="Trazado_608740" data-name="Trazado 608740" d="M78.941,355.518l-1.078,6.115h-26.8l-1.1-6.115Z" transform="translate(-26.641 -189.576)" fill="#faded2"/>
    <rect id="Rectángulo_377414" data-name="Rectángulo 377414" width="34.386" height="3.197" transform="translate(58.76 179.814)" fill="#326894"/>
    <path id="Trazado_608741" data-name="Trazado 608741" d="M128.176,319.635a2.124,2.124,0,0,1-.019.243l-.532,4.406-4.756,39.259a1.872,1.872,0,0,1-2.086,1.666,1.9,1.9,0,0,1-1.643-1.9,2.126,2.126,0,0,1,.019-.243l4.7-38.783.588-4.878a1.872,1.872,0,0,1,3.734.229" transform="translate(-63.53 -169.423)" fill="#4d8ab3"/>
    <path id="Trazado_608742" data-name="Trazado 608742" d="M133.568,319.635a2.128,2.128,0,0,1-.019.243l-.532,4.406H129.25l.588-4.878a1.87,1.87,0,0,1,3.729.229" transform="translate(-68.921 -169.423)" fill="#326894"/>
    <path id="Trazado_608743" data-name="Trazado 608743" d="M163.474,318.911v44a1.89,1.89,0,0,1-1.867,1.918,1.838,1.838,0,0,1-1.321-.565,1.935,1.935,0,0,1-.546-1.358v-44a1.893,1.893,0,0,1,1.867-1.918,1.822,1.822,0,0,1,1.321.565,1.96,1.96,0,0,1,.546,1.358" transform="translate(-85.18 -169.031)" fill="#4d8ab3"/>
    <path id="Trazado_608744" data-name="Trazado 608744" d="M162.913,317.568a1.923,1.923,0,0,1,.546,1.358V323.9H159.72v-4.976a1.893,1.893,0,0,1,1.867-1.918,1.8,1.8,0,0,1,1.326.56" transform="translate(-85.169 -169.041)" fill="#326894"/>
    <path id="Trazado_608745" data-name="Trazado 608745" d="M197.682,363.291a1.9,1.9,0,0,1-1.638,1.9,1.879,1.879,0,0,1-2.086-1.666L189.2,324.27l-.532-4.406a2.123,2.123,0,0,1-.019-.243,1.908,1.908,0,0,1,1.643-1.9,1.881,1.881,0,0,1,2.086,1.666l.588,4.878,4.7,38.783a1.492,1.492,0,0,1,.019.243" transform="translate(-100.596 -169.414)" fill="#4d8ab3"/>
    <path id="Trazado_608746" data-name="Trazado 608746" d="M192.978,324.27h-3.767l-.532-4.406a2.123,2.123,0,0,1-.019-.243,1.908,1.908,0,0,1,1.643-1.9,1.881,1.881,0,0,1,2.086,1.666Z" transform="translate(-100.601 -169.414)" fill="#326894"/>
    <path id="Trazado_608747" data-name="Trazado 608747" d="M165.944,305.972v1.246A3.942,3.942,0,0,1,162,311.163H126.694a3.942,3.942,0,0,1-3.944-3.944v-1.246a3.942,3.942,0,0,1,3.944-3.944H162a3.939,3.939,0,0,1,3.944,3.944" transform="translate(-65.455 -161.053)" fill="#994403"/>
    <path id="Trazado_608748" data-name="Trazado 608748" d="M169.666,305.972v1.246a3.942,3.942,0,0,1-3.944,3.944H133.674a3.942,3.942,0,0,1-3.944-3.944v-1.246a3.942,3.942,0,0,1,3.944-3.944h32.048a3.939,3.939,0,0,1,3.944,3.944" transform="translate(-69.177 -161.053)" fill="#852e03"/>
    <path id="Trazado_608749" data-name="Trazado 608749" d="M126.942,137.015c-.443.906-.892,1.816-1.288,2.689a19.619,19.619,0,0,0,0,4.738,13.456,13.456,0,0,1-.266,4.719,5.287,5.287,0,0,1-3,3.547c-.99.378-2.17.406-2.936,1.125a3.3,3.3,0,0,0-.49,3.319A5.157,5.157,0,0,0,120.4,159.7a2.615,2.615,0,0,0,2.782.611,2.008,2.008,0,0,1,2.478.588c.588.719.864,1.648,1.442,2.376a4.677,4.677,0,0,0,3.547,1.606,7.144,7.144,0,0,0,3.687-.719c1.928-1.209,4.332-2.012,6.306-.878a22.983,22.983,0,0,0,2.987,1.979,3.671,3.671,0,0,0,2.973-.182c.9-.476,1.246-1.494,1.811-2.273,1.036-1.428,3.547-.275,5.284-.747a3.811,3.811,0,0,0,2.675-4.374c-.434-1.825-2.455-2.474-4.257-2.745-1.237-.187-1.746-1.76-2.03-2.936a13.062,13.062,0,0,1-.182-3.622c.107-2.469,1.232-8.229.518-9a11.954,11.954,0,0,0-2.282-1.662q-3.515-1.6-7.029-3.211c-2.133-.976-4.369-1.97-6.726-1.9a8.217,8.217,0,0,0-7.445,4.411" transform="translate(-63.322 -70.708)" fill="#732d02"/>
    <path id="Trazado_608750" data-name="Trazado 608750" d="M140.414,189.687s-10.4,1.643-11.5,5.326,5.214,29.453,5.214,29.453l23.366-1.428s1.7-29.7-2.016-31.567-15.062-1.783-15.062-1.783" transform="translate(-68.673 -101.149)" fill="#ebf5ff"/>
    <path id="Trazado_608751" data-name="Trazado 608751" d="M158.231,183.842s-1.517,5.167-4.271,6.3-8.77-5.76-8.77-5.76c1.214-.77,1.671-2.623,1.82-4.313a18.8,18.8,0,0,0-.019-3.258l8.355,1.606c-.215,2.586.546,3.944,1.344,4.658a3.051,3.051,0,0,0,1.54.77" transform="translate(-77.421 -94.281)" fill="#fbbd9a"/>
    <path id="Trazado_608752" data-name="Trazado 608752" d="M158.749,183.082c-3.967.523-7.562-1.466-9.681-3.006a18.794,18.794,0,0,0-.019-3.258l8.355,1.606c-.219,2.581.546,3.944,1.344,4.658" transform="translate(-79.479 -94.286)" fill="#f0997f"/>
    <path id="Trazado_608753" data-name="Trazado 608753" d="M202.717,381.243c-.9,1.5-16.537-8.14-16.537-9.8,0-1.083,2.04-2.651,3.459-3.6.761-.513,1.34-.854,1.34-.854l3.65-1.676,1.643.882a90.784,90.784,0,0,1,5.825,11.417c.681,1.764.957,3.081.621,3.636" transform="translate(-99.279 -194.797)" fill="#d43226"/>
    <path id="Trazado_608754" data-name="Trazado 608754" d="M206.058,377.6c-4.481.187-10.4-7.062-12.458-9.769.761-.513,1.34-.854,1.34-.854l3.65-1.676,1.643.882a90.163,90.163,0,0,1,5.825,11.417" transform="translate(-103.235 -194.791)" fill="#f0997f"/>
    <path id="Trazado_608755" data-name="Trazado 608755" d="M176.832,265.858s28.463,3.6,29.429,10.89-17.854,39.437-17.854,39.437l-6.768-1.764,8.831-28.743-22.661-9.615,4.514-10.2Z" transform="translate(-89.483 -141.766)" fill="#002a42"/>
    <path id="Trazado_608756" data-name="Trazado 608756" d="M187.9,383.023c-.9,1.5-16.537-8.14-16.537-9.8,0-1.083,2.04-2.651,3.459-3.6.761-.513,1.34-.854,1.34-.854l3.65-1.676,1.643.882a90.792,90.792,0,0,1,5.825,11.417c.681,1.764.957,3.081.621,3.636" transform="translate(-91.376 -195.746)" fill="#eb4a2a"/>
    <path id="Trazado_608757" data-name="Trazado 608757" d="M191.238,379.377c-4.481.187-10.4-7.062-12.458-9.769.761-.513,1.34-.854,1.34-.854l3.65-1.676,1.643.882a90.158,90.158,0,0,1,5.825,11.417" transform="translate(-95.333 -195.741)" fill="#fbbd9a"/>
    <path id="Trazado_608758" data-name="Trazado 608758" d="M132.521,257.887s-9.863,19.5,7.492,21.606c12.607,1.531,20.962,1.223,21.224,1.923.429,1.125-8.2,28.356-8.2,28.356l8.5,2.689s17.592-37.784,16.635-41.075c-.789-2.707-25.065-6.838-25.065-6.838,2.044-.971,3.547-4.5,3.328-9.06Z" transform="translate(-69.177 -136.236)" fill="#06384f"/>
    <path id="Trazado_608759" data-name="Trazado 608759" d="M138.273,257.008s-5.657,12.449-1.13,17.5c5.335,5.951,28.668,4.033,30.293,6.138,1.3,1.685-9.013,29.21-9.013,29.21" transform="translate(-72.194 -137.047)" fill="none" stroke="#27788f" stroke-linecap="round" stroke-miterlimit="10" stroke-width="1"/>
    <line id="Línea_158" data-name="Línea 158" x2="8.224" y2="2.507" transform="translate(84.544 172.392)" fill="none" stroke="#27788f" stroke-linecap="round" stroke-miterlimit="10" stroke-width="1"/>
    <path id="Trazado_608760" data-name="Trazado 608760" d="M177.868,157.556c2.006-.227,3.766.776,3.932,2.241s-1.325,2.837-3.331,3.064-3.766-.776-3.932-2.241,1.325-2.837,3.331-3.064" transform="translate(-93.064 -83.998)" fill="#f0997f"/>
    <path id="Trazado_608761" data-name="Trazado 608761" d="M139.15,143.021c0-6.922,4.4-12.533,10.3-12.533s10.693,5.61,10.693,12.533-3.02,12.878-8.579,13.093c-5.6.215-12.416-6.175-12.416-13.093" transform="translate(-74.2 -69.581)" fill="#fbbd9a"/>
    <path id="Trazado_608762" data-name="Trazado 608762" d="M140.38,146.039a12.463,12.463,0,0,0,6.511-6.852,10.6,10.6,0,0,0,6.049,3.137,32.085,32.085,0,0,0,6.791.285,4.107,4.107,0,0,1,1.372,2.366,13.935,13.935,0,0,0-.639-6.129q-8.822-2.689-17.536-5.708c-.868,4.14-1.736,8.28-2.549,12.9" transform="translate(-74.856 -70.994)" fill="#f0997f"/>
    <path id="Trazado_608763" data-name="Trazado 608763" d="M150.944,131.587a10.606,10.606,0,0,0,6.283,4.794,29.27,29.27,0,0,0,8.042,1.032,18.132,18.132,0,0,1,.518,4.8,16.7,16.7,0,0,0,1.517-5.858c.023-.523.023-1.055.009-1.615a9.222,9.222,0,0,0-3.827-7.6,11.976,11.976,0,0,0-7.389-2.315c-2.637,0-4.313.6-5.316,1.638a4.026,4.026,0,0,0-.821,1.26c-.429,1.008.051,2.105.985,3.86" transform="translate(-79.879 -66.563)" fill="#8c4206"/>
    <path id="Trazado_608764" data-name="Trazado 608764" d="M133.332,144.781c-.089-3.384-.3-9.176,1.06-11.944a6.3,6.3,0,0,1,4.579-3.589,4.26,4.26,0,0,1,4.677,2.936,23.561,23.561,0,0,1-6.4,11.991,6.457,6.457,0,0,1-3.911.607" transform="translate(-71.062 -68.901)" fill="#8c4206"/>
    <path id="Trazado_608765" data-name="Trazado 608765" d="M151.89,126.476a13.4,13.4,0,0,1,11.4,2.3,14.705,14.705,0,0,1,5.13,7.594c.023-.523.023-1.055.009-1.615a9.222,9.222,0,0,0-3.827-7.6,11.976,11.976,0,0,0-7.389-2.315c-2.642,0-4.318.6-5.321,1.638" transform="translate(-80.994 -66.569)" fill="#a66317"/>
    <path id="Trazado_608766" data-name="Trazado 608766" d="M130.666,160.7c.365-1.428,2.247-2.181,4.2-1.68s3.244,2.064,2.879,3.493-2.247,2.181-4.2,1.68-3.244-2.064-2.879-3.493" transform="translate(-69.643 -84.712)" fill="#fbbd9a"/>
    <path id="Trazado_608767" data-name="Trazado 608767" d="M161.435,162.838c.307,0,.555.4.555.887s-.249.887-.555.887-.555-.4-.555-.887.249-.887.555-.887" transform="translate(-85.788 -86.832)" fill="#2f344d"/>
    <path id="Trazado_608768" data-name="Trazado 608768" d="M177.985,162.848c.307,0,.555.4.555.887s-.249.887-.555.887-.555-.4-.555-.887.249-.887.555-.887" transform="translate(-94.613 -86.837)" fill="#2f344d"/>
    <path id="Trazado_608769" data-name="Trazado 608769" d="M175.14,155.674a3.882,3.882,0,0,1,3.244.392" transform="translate(-93.392 -82.912)" fill="none" stroke="#8c4206" stroke-linecap="round" stroke-miterlimit="10" stroke-width="2"/>
    <path id="Trazado_608770" data-name="Trazado 608770" d="M158.691,155.376a3.691,3.691,0,0,0-3.851.663" transform="translate(-82.567 -82.712)" fill="none" stroke="#8c4206" stroke-linecap="round" stroke-miterlimit="10" stroke-width="2"/>
    <path id="Trazado_608771" data-name="Trazado 608771" d="M170.268,163.588a4.884,4.884,0,0,1-.238,2.852" transform="translate(-90.667 -87.232)" fill="none" stroke="#d45e4e" stroke-linecap="round" stroke-miterlimit="10" stroke-width="2"/>
    <path id="Trazado_608772" data-name="Trazado 608772" d="M164.46,173.877c-1.232.243-3.463-.462-4.07-1.489" transform="translate(-85.526 -91.924)" fill="none" stroke="#d45e4e" stroke-linecap="round" stroke-miterlimit="10" stroke-width="2"/>
    <path id="Trazado_608773" data-name="Trazado 608773" d="M178.62,195.744l4.168-2.516s3.515.3,5.9,4.672c2.366,4.35,6.824,18.414,8.229,19.034s18.53.84,18.53.84l.233,5.018s-20.976,3.328-23.478,1.951-10.6-17.6-10.6-17.6Z" transform="translate(-95.247 -103.037)" fill="#fbbd9a"/>
    <path id="Trazado_608774" data-name="Trazado 608774" d="M178.07,194.2l.8-2.81s4.6.2,6.955,2.04,4.28,6.857,4.28,6.857l-5.984,9.662Z" transform="translate(-94.954 -102.056)" fill="#3d43af"/>
    <path id="Trazado_608775" data-name="Trazado 608775" d="M193.28,230.947s6.427-5.55,7.417-6.936c.49-.686,3.967,7.393,3.379,8.383-.938,1.578-6.8,5.368-7.123,5.148s-3.673-6.6-3.673-6.6" transform="translate(-103.065 -119.429)" fill="#163649"/>
    <path id="Trazado_608776" data-name="Trazado 608776" d="M189.287,216.9q2.906-4.614,5.806-9.223a1.467,1.467,0,0,1,.387-.457,1.007,1.007,0,0,1,1.377.616,2.862,2.862,0,0,1-.093,1.708,1.225,1.225,0,0,1,1.256,1.13,3.105,3.105,0,0,1-.485,1.792,16.73,16.73,0,0,1-8.346,7.585c-.163-1.055-.485-2.226.1-3.151" transform="translate(-100.757 -110.434)" fill="#3d43af"/>
    <path id="Trazado_608777" data-name="Trazado 608777" d="M251.84,241.435c2.4-1.685,7.039-5.027,7.389-5.186a12.641,12.641,0,0,1,4.766.261,5.283,5.283,0,0,1,3.519,3.034c.154.425.2.99-.177,1.237a.8.8,0,0,1-.831-.042,3.122,3.122,0,0,1-.639-.6,4.647,4.647,0,0,0-3.641-1.648,4.585,4.585,0,0,1,3.865,3.477c.117.387.163.878-.149,1.13a.782.782,0,0,1-.887-.028,3.05,3.05,0,0,1-.649-.691,6.8,6.8,0,0,0-2.81-2.105,4.98,4.98,0,0,1,2.913,3.79,1.355,1.355,0,0,1-.042.723.56.56,0,0,1-.569.364.851.851,0,0,1-.448-.322,11.841,11.841,0,0,0-2.591-2.609c1.008,1.344,1.858,3.529,1.648,4.1-.065.173-.495.471-.976,0-.546-.546-.929-1.48-1.778-2.52a6.26,6.26,0,0,1-5.914,1.9c-.686-1.438-1.358-2.88-2-4.252" transform="translate(-134.291 -125.912)" fill="#fbbd9a"/>
    <path id="Trazado_608778" data-name="Trazado 608778" d="M261.17,241.038a49.036,49.036,0,0,1,5.2-1.554,2.067,2.067,0,0,1,.714-.084.733.733,0,0,1,.583.369.709.709,0,0,1-.107.7,1.881,1.881,0,0,1-.569.476,24,24,0,0,1-2.362,1.251,3.443,3.443,0,0,1-2.278,2.763" transform="translate(-139.266 -127.653)" fill="#fbbd9a"/>
    <path id="Trazado_608779" data-name="Trazado 608779" d="M261.17,241.038a49.036,49.036,0,0,1,5.2-1.554,2.067,2.067,0,0,1,.714-.084.733.733,0,0,1,.583.369.709.709,0,0,1-.107.7,1.881,1.881,0,0,1-.569.476,24,24,0,0,1-2.362,1.251,3.443,3.443,0,0,1-2.278,2.763" transform="translate(-139.266 -127.653)" fill="none" stroke="#d45e4e" stroke-linecap="round" stroke-miterlimit="10" stroke-width="1"/>
    <path id="Trazado_608780" data-name="Trazado 608780" d="M170.118,190.333c1,.868,1.648,5.76,2.161,8.868.77,4.658,4.691,24.911,4.924,26.344.415,2.53,8.425,2.357,8.747,1.036.061-.243-2.338-1.358-2.721-2.973-.341-1.447-3-29.644-4.285-31.128-1.694-1.96-9.148-2.427-8.826-2.147" transform="translate(-90.708 -101.453)" fill="#3d43af"/>
    <path id="Trazado_608781" data-name="Trazado 608781" d="M135.228,190.416c.836.3,3.459,5.872,4.7,10.974,2.6,10.656,1.055,26.479,0,28.57s-11.277,3.011-13.013,2.455c-1.008-.322-2.105-32.22-1.41-36.225.467-2.67,9.466-5.863,9.718-5.774" transform="translate(-66.81 -101.536)" fill="#3d43af"/>
    <path id="Trazado_608782" data-name="Trazado 608782" d="M178.819,264.077c2.156-.789,8.4-2.432,9.261-2.343a3.224,3.224,0,0,1,2.315,1.13,4.937,4.937,0,0,1,.686,1.634l.8,2.8a2.471,2.471,0,0,1,.14,1,.76.76,0,0,1-.6.7c-.448.037-.728-.5-.892-.952-.42-1.162-.84-2.324-1.256-3.463.275,1.433.546,2.871.822,4.3a2.469,2.469,0,0,1,.051,1.027.765.765,0,0,1-.663.644c-.476-.009-.7-.621-.812-1.125a30.994,30.994,0,0,0-.849-3.356,9.578,9.578,0,0,1,.205,4.924,1.453,1.453,0,0,1-.3.686.471.471,0,0,1-.644.075.825.825,0,0,1-.182-.532c-.145-1.447-.289-2.9-.434-4.346a12.254,12.254,0,0,1-.154,4.56,1.492,1.492,0,0,1-.369.7.537.537,0,0,1-.7.065.968.968,0,0,1-.224-.719c-.033-.91-.065-1.82-.07-2.885a5.146,5.146,0,0,1-3.085,1.746,7.894,7.894,0,0,1-3.552-.457c.1-1.694.2-3.393.5-5.816" transform="translate(-95.087 -139.565)" fill="#fbbd9a"/>
    <path id="Trazado_608783" data-name="Trazado 608783" d="M133.219,202.786c-.653-3.02-3.361-7.916-5.568-6.9-1.265.583-4.91,1.8-4.91,9.788,0,10.8,1.419,24.981,4.91,27.357,1.774,1.209,21.172,2.394,21.172,2.394l1.419-6.95s-14.3-2.651-14.955-4.612c-.929-2.768-.331-13.041-2.068-21.074" transform="translate(-65.45 -104.38)" fill="#3d43af"/>
    <path id="Trazado_608784" data-name="Trazado 608784" d="M141.57,207.278c2.4,8.112,2.9,21.914,3.258,22.745.322.756,2.147,1.074,3.58,1.564" transform="translate(-75.491 -110.529)" fill="none" stroke="#838bd6" stroke-miterlimit="10" stroke-width="1"/>
    <path id="Trazado_608785" data-name="Trazado 608785" d="M136.727,269.9c-2.661-.266-5.965-.784-6.7-1.335-.868-.649-1.928-3.823-2.675-5.989" transform="translate(-67.908 -140.017)" fill="none" stroke="#838bd6" stroke-miterlimit="10" stroke-width="1"/>
    <path id="Trazado_608786" data-name="Trazado 608786" d="M146.61,229.618c.957-1.2,1.349-3.188,1.428-5.61" transform="translate(-78.178 -119.45)" fill="none" stroke="#838bd6" stroke-miterlimit="10" stroke-width="1"/>
    <rect id="Rectángulo_377415" data-name="Rectángulo 377415" width="34.386" height="3.113" transform="translate(139.267 178.983)" fill="#326894"/>
    <path id="Trazado_608787" data-name="Trazado 608787" d="M300.666,319.554a2.043,2.043,0,0,1-.019.238l-.532,4.29-4.756,38.232a1.872,1.872,0,0,1-3.729-.224,2.042,2.042,0,0,1,.019-.238l4.7-37.775.588-4.752a1.875,1.875,0,0,1,3.734.229" transform="translate(-155.509 -169.403)" fill="#4d8ab3"/>
    <path id="Trazado_608788" data-name="Trazado 608788" d="M306.058,319.559a2.044,2.044,0,0,1-.019.238l-.532,4.29H301.74l.588-4.752a1.872,1.872,0,0,1,3.729.224" transform="translate(-160.9 -169.408)" fill="#326894"/>
    <path id="Trazado_608789" data-name="Trazado 608789" d="M335.954,318.865v42.849a1.867,1.867,0,1,1-3.734,0V318.865A1.867,1.867,0,0,1,334.087,317a1.865,1.865,0,0,1,1.867,1.867" transform="translate(-177.153 -169.036)" fill="#4d8ab3"/>
    <path id="Trazado_608790" data-name="Trazado 608790" d="M335.4,317.544a1.851,1.851,0,0,1,.546,1.321v4.85H332.21v-4.85a1.871,1.871,0,0,1,3.193-1.321" transform="translate(-177.148 -169.036)" fill="#326894"/>
    <path id="Trazado_608791" data-name="Trazado 608791" d="M370.172,362.1a1.87,1.87,0,0,1-3.725.233L361.691,324.1l-.532-4.29a2.044,2.044,0,0,1-.019-.238,1.872,1.872,0,0,1,3.729-.224l.588,4.752,4.7,37.775a1.21,1.21,0,0,1,.019.224" transform="translate(-192.574 -169.413)" fill="#4d8ab3"/>
    <path id="Trazado_608792" data-name="Trazado 608792" d="M365.467,324.087H361.7l-.532-4.29a2.044,2.044,0,0,1-.019-.238,1.872,1.872,0,0,1,3.729-.224Z" transform="translate(-192.579 -169.408)" fill="#326894"/>
    <path id="Trazado_608793" data-name="Trazado 608793" d="M338.434,305.972v1.246a3.942,3.942,0,0,1-3.944,3.944H299.184a3.942,3.942,0,0,1-3.944-3.944v-1.246a3.942,3.942,0,0,1,3.944-3.944H334.49a3.939,3.939,0,0,1,3.944,3.944" transform="translate(-157.434 -161.053)" fill="#994403"/>
    <path id="Trazado_608794" data-name="Trazado 608794" d="M342.161,305.972v1.246a3.942,3.942,0,0,1-3.944,3.944H306.174a3.942,3.942,0,0,1-3.944-3.944v-1.246a3.942,3.942,0,0,1,3.944-3.944h32.043a3.939,3.939,0,0,1,3.944,3.944" transform="translate(-161.161 -161.053)" fill="#852e03"/>
    <path id="Trazado_608795" data-name="Trazado 608795" d="M278.474,180.372c.71-1.162.019-2.675.243-4.019a1.588,1.588,0,0,1,.513-.99.811.811,0,0,1,1.041,0c.331.322.219.864.215,1.326a11.3,11.3,0,0,0,.56,2.413c.42,1.97-.625,3.589-1.624,5.288a9.725,9.725,0,0,1-4,1.582c-.663.065-4.056-1.806-5.382-5.83-.668-2.016-.588-2.852-.364-3.127a.725.725,0,0,1,.948-.191,1.07,1.07,0,0,1,.322.541c.425,1.209.845,2.418,1.26,3.673a7.773,7.773,0,0,1-2.422-6.045c.023-.429.154-.948.565-1.074a.773.773,0,0,1,.751.233,2.35,2.35,0,0,1,.434.7c.588,1.274,1.181,2.544,2.007,4.056a5.884,5.884,0,0,1-1.606-5.671c.089-.336.289-.728.639-.733s.565.387.691.723q.9,2.4,1.792,4.808a6.807,6.807,0,0,1-1.008-4.537c.075-.569.364-1.256.943-1.279a.952.952,0,0,1,.8.49,3.179,3.179,0,0,1,.322.929c.448,1.83,1.26,3.566,2.357,6.735" transform="translate(-143.716 -91.833)" fill="#fdbd9b"/>
    <path id="Trazado_608796" data-name="Trazado 608796" d="M270.63,182.117c.532-.145.906.042,1.111.812.289,1.088,1.06,3.608,1.853,4.168" transform="translate(-144.311 -97.088)" fill="none" stroke="#b0514a" stroke-linecap="round" stroke-miterlimit="10" stroke-width="0.5"/>
    <path id="Trazado_608797" data-name="Trazado 608797" d="M284.8,196.158l1.956,4.56-5.172,3.132-2.3-6.087Z" transform="translate(-148.923 -104.599)" fill="#fdbd9b"/>
    <path id="Trazado_608798" data-name="Trazado 608798" d="M281.51,180.147a4.482,4.482,0,0,0-3.743-3.8l-.028-.145s-.938.168-1.251.238c-2.044.457-3.309,2.749-2.889,5.12s2.4,4.079,4.481,3.8c.317-.042,1.256-.21,1.256-.21l-.028-.145a4.462,4.462,0,0,0,2.2-4.859" transform="translate(-145.851 -93.956)" fill="#316382"/>
    <path id="Trazado_608799" data-name="Trazado 608799" d="M278.7,176.164a4.587,4.587,0,1,1-3.153,5.185,4.308,4.308,0,0,1,3.153-5.185" transform="translate(-146.89 -93.908)" fill="#407c91"/>
    <path id="Trazado_608800" data-name="Trazado 608800" d="M283.585,181.3a3.321,3.321,0,0,0-3.659-2.9.6.6,0,0,0-.089.019,3.538,3.538,0,0,0,1.232,6.885.584.584,0,0,0,.089-.014,3.311,3.311,0,0,0,2.427-3.986" transform="translate(-147.94 -95.107)" fill="#ebf5ff"/>
    <path id="Trazado_608801" data-name="Trazado 608801" d="M299.431,190.78l-3.183-2.422a8.5,8.5,0,0,0-3.183,3.636c-1.106,2.46-2.572,10.67-2.572,10.67l-5.947-9.877-7.576,5.377s8.4,21.266,13.461,21.522,8.621-4.43,8.621-4.43Z" transform="translate(-147.691 -100.44)" fill="#fff"/>
    <path id="Trazado_608802" data-name="Trazado 608802" d="M271.33,389.878l.966,6.091,3.986,1.62,4.579-2.189-.831-6Z" transform="translate(-144.684 -207.642)" fill="#fbbd9a"/>
    <path id="Trazado_608803" data-name="Trazado 608803" d="M273.417,409.682l-20.663-.3a5.253,5.253,0,0,1-.2-1.05,3.721,3.721,0,0,1,1.279-3.37c1.736-1.349,4.495-1.536,6.287-2.231a3.993,3.993,0,0,0,1.722-1.475l2.941.168s.243,1.638,1.335,1.54a26.715,26.715,0,0,0,4.7-1.867,18.178,18.178,0,0,1,2.563,7.235,7.414,7.414,0,0,1,.033,1.349" transform="translate(-134.663 -213.881)" fill="#502202"/>
    <path id="Trazado_608804" data-name="Trazado 608804" d="M273.44,417.947l-20.663-.3a5.254,5.254,0,0,1-.2-1.05H273.4a7.223,7.223,0,0,1,.037,1.349" transform="translate(-134.686 -222.147)" fill="#855321"/>
    <path id="Trazado_608805" data-name="Trazado 608805" d="M324.27,389.878l.966,6.091,3.986,1.62L333.8,395.4l-.831-6Z" transform="translate(-172.914 -207.642)" fill="#fbbd9a"/>
    <path id="Trazado_608806" data-name="Trazado 608806" d="M326.357,409.682l-20.663-.3a5.256,5.256,0,0,1-.2-1.05,3.721,3.721,0,0,1,1.279-3.37c1.736-1.349,4.495-1.536,6.287-2.231a3.993,3.993,0,0,0,1.722-1.475l2.941.168s.243,1.638,1.335,1.54a26.715,26.715,0,0,0,4.7-1.867,18.178,18.178,0,0,1,2.563,7.235,7.413,7.413,0,0,1,.033,1.349" transform="translate(-162.892 -213.881)" fill="#502202"/>
    <path id="Trazado_608807" data-name="Trazado 608807" d="M326.38,417.947l-20.663-.3a5.258,5.258,0,0,1-.2-1.05h20.822a7.223,7.223,0,0,1,.037,1.349" transform="translate(-162.915 -222.147)" fill="#855321"/>
    <path id="Trazado_608808" data-name="Trazado 608808" d="M290.869,261.428l-3.384,5.484s-19.375,2.95-22.512,7.7c-2.894,4.378,1.027,48.758,1.027,48.758h13.307s-1.018-32.781,0-35.815,31.53-2.861,33.28-6.978,2.334-18.563,2.334-18.563" transform="translate(-140.726 -139.404)" fill="#112c45"/>
    <path id="Trazado_608809" data-name="Trazado 608809" d="M337.517,266.829s.751,11.879-3.151,14.722c-3.389,2.469-12.005,3.113-12.005,3.113l1.662,36.949-12.724.831s-6.32-43.124-6.021-47.259,12.537-7.127,11.7-7.716c0,0-9.433-3.2-5.937-6.721.079-.079.168-.163.257-.243.812-.719,10.749.023,10.749.023l9.163-.84,3.627,4.112Z" transform="translate(-162.781 -138.476)" fill="#163a4a"/>
    <path id="Trazado_608810" data-name="Trazado 608810" d="M343.59,270.586c-.079.583-.168,1.209-.261,1.844-1.568-1.993-4.1-4.91-6.339-6.138-4.635-2.548-19.45-4.29-19.45-4.29l.056-1.265c.079-.079.168-.163.257-.243.812-.719,10.75.023,10.75.023l9.162-.84,3.627,4.112Z" transform="translate(-169.325 -138.471)" fill="#112c45"/>
    <path id="Trazado_608811" data-name="Trazado 608811" d="M343.168,172.256s-5.456,7.048-8.854,6.689-6.054-4.121-6.054-4.121a3.776,3.776,0,0,0,1.951-2.731,12.34,12.34,0,0,0-.163-5.807l10.1-1.5a13.989,13.989,0,0,0,.378,3.5,5.8,5.8,0,0,0,2.642,3.967" transform="translate(-175.041 -87.872)" fill="#fdbd9b"/>
    <path id="Trazado_608812" data-name="Trazado 608812" d="M332.253,172.1a12.34,12.34,0,0,0-.163-5.807l10.1-1.5a13.988,13.988,0,0,0,.378,3.5,17.151,17.151,0,0,1-10.315,3.8" transform="translate(-177.084 -87.877)" fill="#f0997f"/>
    <path id="Trazado_608813" data-name="Trazado 608813" d="M312.2,152.778c.154-1.365,1.8-2.3,3.665-2.088s3.26,1.49,3.106,2.856-1.8,2.3-3.666,2.088-3.26-1.49-3.105-2.856" transform="translate(-166.469 -80.338)" fill="#f0997f"/>
    <path id="Trazado_608814" data-name="Trazado 608814" d="M318.057,155.008v-.037a.813.813,0,0,0-.812-.812h-.453a.813.813,0,0,0-.812.812v.037a.813.813,0,0,0,.812.812h.453a.813.813,0,0,0,.812-.812" transform="translate(-168.493 -82.203)" fill="#4b8394"/>
    <rect id="Rectángulo_377416" data-name="Rectángulo 377416" width="0.681" height="1.867" transform="translate(147.487 72.786)" fill="#4b8394"/>
    <path id="Trazado_608815" data-name="Trazado 608815" d="M338.28,134.281c0-6.451-4.462-11.683-9.97-11.683s-9.97,3.445-9.97,11.683c0,6.451,2.5,12.047,8.43,12.439,5.494.359,11.51-5.984,11.51-12.439" transform="translate(-169.752 -65.374)" fill="#fdbd9b"/>
    <path id="Trazado_608816" data-name="Trazado 608816" d="M336.869,139.929a14.023,14.023,0,0,1-3.841-6.493,3.041,3.041,0,0,1-2.675-.406,7.417,7.417,0,0,1-6.264-.359,5.218,5.218,0,0,1-4.644-.145A9.908,9.908,0,0,0,317.9,135.7q.21-3.333.429-6.67,7.891-1.113,15.851-1.55a1.731,1.731,0,0,1,.887.107,1.711,1.711,0,0,1,.7,1.1,25.322,25.322,0,0,1,1.1,11.244" transform="translate(-169.517 -67.97)" fill="#f0997f"/>
    <path id="Trazado_608817" data-name="Trazado 608817" d="M338.5,120.927c-.219,3.314-.434,7.59-.653,10.862-.308,1.125-1.274,1.083-2.586,1.5a32.438,32.438,0,0,1-2.418-8.85,6.426,6.426,0,0,1-3.958-.261,8.445,8.445,0,0,1-6.166-.014,7.116,7.116,0,0,1-4.584.084,28.6,28.6,0,0,0-.938,5.839c-.187-1.592-.8-6.516-.957-9.891a11.393,11.393,0,0,1,.117-3.1c.625-1.834,2.651-1.242,3.193-.611a3.036,3.036,0,0,1,2.058-1.718,3.339,3.339,0,0,1,2.726.649,3.479,3.479,0,0,1,2.927-1.8,2.9,2.9,0,0,1,2.805,1.792,6.109,6.109,0,0,1,1.76-.709,2.566,2.566,0,0,1,1.839.285,1.984,1.984,0,0,1,.644.686,2.83,2.83,0,0,1,.359,1.05,1.862,1.862,0,0,1,2.329-.434,3.033,3.033,0,0,1,1.428,2.063,8.82,8.82,0,0,1,.075,2.577" transform="translate(-168.612 -60.585)" fill="#502202"/>
    <path id="Trazado_608818" data-name="Trazado 608818" d="M334.3,115.666a3.442,3.442,0,0,0-2.119-.205,3.164,3.164,0,0,0-2.128,1.634,2.909,2.909,0,0,0-2.787-1.839,3.394,3.394,0,0,0-2.838,2.338,3.081,3.081,0,0,0-2.661-1.05,2.933,2.933,0,0,0-2.334,1.736,1.327,1.327,0,0,0-1.452-.294,2.563,2.563,0,0,0-1.167,1.027,5.656,5.656,0,0,0-.588,1.176,11.392,11.392,0,0,1,.117-3.1c.625-1.834,2.651-1.242,3.193-.611a3.036,3.036,0,0,1,2.058-1.718,3.339,3.339,0,0,1,2.726.649,3.479,3.479,0,0,1,2.927-1.8,2.9,2.9,0,0,1,2.805,1.792,6.11,6.11,0,0,1,1.76-.709,2.566,2.566,0,0,1,1.839.285,2.008,2.008,0,0,1,.649.691" transform="translate(-168.606 -60.58)" fill="#6b4019"/>
    <path id="Trazado_608819" data-name="Trazado 608819" d="M324.1,146.471a3.243,3.243,0,0,0-2.535.462" transform="translate(-171.474 -78.059)" fill="none" stroke="#502202" stroke-linecap="round" stroke-miterlimit="10" stroke-width="2"/>
    <path id="Trazado_608820" data-name="Trazado 608820" d="M341.11,146.652a3.071,3.071,0,0,1,2.913.285" transform="translate(-181.893 -78.071)" fill="none" stroke="#502202" stroke-linecap="round" stroke-miterlimit="10" stroke-width="2"/>
    <path id="Trazado_608821" data-name="Trazado 608821" d="M332.55,154.568a19.447,19.447,0,0,0,.271,2.754" transform="translate(-177.329 -82.422)" fill="none" stroke="#b0514a" stroke-linecap="round" stroke-miterlimit="10" stroke-width="2"/>
    <path id="Trazado_608822" data-name="Trazado 608822" d="M335.34,164.667a4.347,4.347,0,0,0,3.076-1.139" transform="translate(-178.817 -87.2)" fill="none" stroke="#b0514a" stroke-linecap="round" stroke-miterlimit="10" stroke-width="2"/>
    <path id="Trazado_608823" data-name="Trazado 608823" d="M341.422,154.122c.282-.049.563.209.628.576a.614.614,0,0,1-.393.757c-.281.049-.562-.209-.627-.576a.614.614,0,0,1,.393-.757" transform="translate(-181.843 -82.181)" fill="#2d3a5e"/>
    <path id="Trazado_608824" data-name="Trazado 608824" d="M324.681,154.351c.282-.049.563.209.628.576a.614.614,0,0,1-.393.757c-.281.049-.562-.209-.627-.576a.613.613,0,0,1,.393-.757" transform="translate(-172.916 -82.303)" fill="#2d3a5e"/>
    <path id="Trazado_608825" data-name="Trazado 608825" d="M355.73,150.672c1.864-.257,3.527.638,3.715,2s-1.171,2.673-3.035,2.93-3.527-.638-3.715-2,1.171-2.673,3.035-2.93" transform="translate(-188.061 -80.321)" fill="#fdbd9b"/>
    <path id="Trazado_608826" data-name="Trazado 608826" d="M358.99,155.008v-.037a.813.813,0,0,1,.812-.812h.453a.813.813,0,0,1,.812.812v.037a.813.813,0,0,1-.812.812H359.8a.813.813,0,0,1-.812-.812" transform="translate(-191.428 -82.203)" fill="#4b8394"/>
    <rect id="Rectángulo_377417" data-name="Rectángulo 377417" width="0.681" height="1.867" transform="translate(168.958 72.786)" fill="#4b8394"/>
    <path id="Trazado_608827" data-name="Trazado 608827" d="M336.568,177.478s-5.531,3.342-6.493,4.542a7.234,7.234,0,0,0-1.256,2.847,25.623,25.623,0,0,0-1.624-3.029c-.3-.233-2.618-2.432-2.618-2.432l-2.721,2.063-3.645,1.9.154,35.016,24.654,1.671.635-38Z" transform="translate(-169.682 -94.638)" fill="#69c5c9"/>
    <path id="Trazado_608828" data-name="Trazado 608828" d="M338.1,193.748c-1.167,9.821.859,26.983-2.432,33.649" transform="translate(-178.993 -103.314)" fill="none" stroke="#3e7c8a" stroke-linecap="round" stroke-miterlimit="10" stroke-width="0.5"/>
    <path id="Trazado_608829" data-name="Trazado 608829" d="M341.9,183.314A5.109,5.109,0,0,1,343.272,181c.957-.765,5.891-3.669,6.021-3.7s2.553,1.657,2.553,1.657l-3.659,5.2s-3.753-2.637-4.63-2.413c-.84.219-1.657,1.578-1.657,1.578" transform="translate(-182.315 -94.542)" fill="#9bebe7"/>
    <path id="Trazado_608830" data-name="Trazado 608830" d="M332.4,185.089a5.465,5.465,0,0,0-.784-1.708,20.769,20.769,0,0,0-2.689-2.763,6.942,6.942,0,0,0-2.483,1.881c-.345.7-.149,4.037-.149,4.037s3.277-3.118,4.556-2.763a3.494,3.494,0,0,1,1.55,1.316" transform="translate(-173.965 -96.313)" fill="#9bebe7"/>
    <path id="Trazado_608831" data-name="Trazado 608831" d="M356.144,179.548s-4.28,4.023-4.924,8.108-.4,25.574,3.566,32.725c3.435,6.2,3.762,25.961,3.762,35.133l12.024-4.145s-.051-16.453-3.935-31.688c-3.011-11.809-.121-33.387-1.844-35.5-1.2-1.475-8.649-4.635-8.649-4.635" transform="translate(-187.139 -95.742)" fill="#fff"/>
    <path id="Trazado_608832" data-name="Trazado 608832" d="M350.694,201.841s-.994-11.352-.033-15.006,3.743-8.3,4.495-8.462c1.242-.266,4.019,1.886,4.019,1.886a27.413,27.413,0,0,0-2.913,9.8c-.061.532-4.472,2.161-4.472,2.161s3.445,2.521,3.4,2.768-4.495,6.857-4.495,6.857" transform="translate(-186.763 -95.103)" fill="#dae8f7"/>
    <path id="Trazado_608833" data-name="Trazado 608833" d="M328.962,263.888c2.58,0,4.672,1.3,4.672,2.908s-2.092,2.908-4.672,2.908-4.672-1.3-4.672-2.908,2.092-2.908,4.672-2.908" transform="translate(-172.924 -140.716)" fill="#407c91"/>
    <path id="Trazado_608834" data-name="Trazado 608834" d="M337.635,261.179l-4.761-.63a2.293,2.293,0,0,0-1.27.075,1.713,1.713,0,0,0-.831,1.5c.793.07,1.587.135,2.39.266a15.663,15.663,0,0,1-3.5,3.477,3.843,3.843,0,0,0-.836.714,1.132,1.132,0,0,0-.238,1.032,1.08,1.08,0,0,0,.826.649,9.18,9.18,0,0,0,1.158.033,1.263,1.263,0,0,0,.611,1.377,1.517,1.517,0,0,0,1.587-.205,1.69,1.69,0,0,0,1.228.864,3.764,3.764,0,0,0,1.508-.238,1.992,1.992,0,0,0,1.517.681,2.524,2.524,0,0,0,1.6-.7,12.279,12.279,0,0,0,3.179-4.467,34.075,34.075,0,0,1-4.164-4.434" transform="translate(-175.193 -138.907)" fill="#fbbd9a"/>
    <path id="Trazado_608835" data-name="Trazado 608835" d="M353.3,190.726c-.117-2.254,1.027-6.5,2.651-6.941,2.53-.686,6.829,3.113,7.958,6.138s4.542,21.56,3.585,24.085c-1.312,3.445-18.633,12.71-18.633,12.71l-5.368-7.846s12.01-6.516,12.724-8.588c.443-1.3-2.642-14.269-2.917-19.557" transform="translate(-183.162 -97.958)" fill="#fff"/>
    <path id="Trazado_608836" data-name="Trazado 608836" d="M365.752,190.428a12.333,12.333,0,0,0-1.937,7.1c0,4.565,1.12,15.375.859,15.772s-8.724,5.886-8.724,5.886" transform="translate(-189.807 -101.544)" fill="none" stroke="#b8c8e3" stroke-linecap="round" stroke-miterlimit="10" stroke-width="1"/>
    <path id="Trazado_608837" data-name="Trazado 608837" d="M370.178,214.517a11.866,11.866,0,0,1-2.558-5.139" transform="translate(-196.03 -111.649)" fill="none" stroke="#b8c8e3" stroke-linecap="round" stroke-miterlimit="10" stroke-width="1"/>
    <path id="Trazado_608838" data-name="Trazado 608838" d="M363.25,265.3a72.279,72.279,0,0,0,9.121-5.746" transform="translate(-193.699 -138.407)" fill="none" stroke="#b8c8e3" stroke-linecap="round" stroke-miterlimit="10" stroke-width="1"/>
    <path id="Trazado_608839" data-name="Trazado 608839" d="M312.517,181.258a33.55,33.55,0,0,0-.728,7.669c0,8.168-1.064,30.881-5.363,34.237-3.379,2.637-7.613,2.469-9.536,2.469,0,0,4-2.128,5.494-4.6,1.662-2.745,1.942-11.468,2.161-16.015.233-4.817.667-18.092,1.218-19.249,1.195-2.5,6.754-4.514,6.754-4.514" transform="translate(-158.314 -96.654)" fill="#fff"/>
    <path id="Trazado_608840" data-name="Trazado 608840" d="M321.84,203.741a129.432,129.432,0,0,0,.976-13.032,47.829,47.829,0,0,1,.985-10.1s-3.4,1.078-3.771,1.629-2.133,3.711-3.034,9.7c-.149.99,3.865,1.806,3.865,1.806s-3.095,2.4-3.095,3.006c0,1.167,4.075,6.992,4.075,6.992" transform="translate(-169.032 -96.307)" fill="#dae8f7"/>
    <path id="Trazado_608841" data-name="Trazado 608841" d="M313.5,196.018a194.811,194.811,0,0,1-1.75,27.058" transform="translate(-166.237 -104.525)" fill="none" stroke="#b8c8e3" stroke-linecap="round" stroke-miterlimit="10" stroke-width="1"/>
    <path id="Trazado_608842" data-name="Trazado 608842" d="M311.54,206.018a11,11,0,0,0,1.648,4.276" transform="translate(-166.125 -109.857)" fill="none" stroke="#b8c8e3" stroke-linecap="round" stroke-miterlimit="10" stroke-width="1"/>
    <path id="Trazado_608843" data-name="Trazado 608843" d="M316.68,159.851s.639,15.025,9.648,15.6c7.6.485,11.823-8.859,11.823-15.622" transform="translate(-168.866 -85.227)" fill="none" stroke="#163649" stroke-miterlimit="10" stroke-width="1"/>
    <path id="Trazado_608844" data-name="Trazado 608844" d="M272.134,193.7s-5.54,20.248-20.911,23.907c-18.81,4.481-37.243-.555-37.243-.555" transform="translate(-114.103 -103.287)" fill="none" stroke="#163649" stroke-linecap="round" stroke-miterlimit="10" stroke-width="1"/>
    <path id="Trazado_608845" data-name="Trazado 608845" d="M247.293,194.928s2.124,12.276-7.393,18.633c-8.43,5.634-25.919,3.893-25.919,3.893" transform="translate(-114.103 -103.943)" fill="none" stroke="#163649" stroke-linecap="round" stroke-miterlimit="10" stroke-width="1"/>
    <path id="Trazado_608846" data-name="Trazado 608846" d="M265.514,255.971s-34.475.07-52.044-12.243" transform="translate(-113.831 -129.965)" fill="none" stroke="#163649" stroke-linecap="round" stroke-miterlimit="10" stroke-width="1"/>
    <path id="Trazado_608847" data-name="Trazado 608847" d="M479.587,75.146a8,8,0,0,1,15.24-3.846c1.335,2.857.877,6.2.233,9.293s-1.438,6.287-.7,9.354c.621,2.581,2.287,4.859,2.618,7.492a7.869,7.869,0,0,1-5.629,8.3c-2,.518-4.579-.121-5.214-2.086-.588-1.82.756-3.757.485-5.648-.229-1.587-1.522-2.763-2.586-3.958-3.921-4.416-3.977-10.777-4.444-18.9" transform="translate(-255.729 -35.57)" fill="#381b07"/>
    <path id="Trazado_608848" data-name="Trazado 608848" d="M402.574,165.305a14.715,14.715,0,0,1-3.095-6.95,12.185,12.185,0,0,1,.28-4.327,10.852,10.852,0,0,1,1.078-1.979c.462-.723.92-1.447,1.382-2.17a1.46,1.46,0,0,1,.751-.709c.574-.154,1.1.495,1.074,1.092a2.332,2.332,0,0,1-1.1,1.624,6.438,6.438,0,0,1,1.573-2.917.869.869,0,0,1,.761-.364c.471.112.457.784.331,1.251-.317,1.172-.63,2.343-.882,3.351,1,1.9.91,4.164.929,6.311s.229,4.472,1.648,6.087c-1.363.6-2.969-1.783-4.728-.3" transform="translate(-212.99 -79.235)" fill="#db8e62"/>
    <path id="Trazado_608849" data-name="Trazado 608849" d="M405.73,177.667s4.738,16.187,8.318,16.519c4.332.406,7.851-3.6,7.851-3.6l2.829-14.5-6.413-3.841-3.538,11.618-5.05-5.708Z" transform="translate(-216.351 -91.849)" fill="#db8e62"/>
    <path id="Trazado_608850" data-name="Trazado 608850" d="M439.335,163.545c-3.529-1.335-7.071-2.642-10.6-4,.962-4.607,2.3-10.129,3.463-11.893a7.832,7.832,0,0,1,5.713-3.468l1.61,4.766-.191,14.493v.1" transform="translate(-228.621 -76.887)" fill="#1d9fb3"/>
    <path id="Trazado_608851" data-name="Trazado 608851" d="M418.235,175.284l-10.315-26.666L395.27,151.9l11.706,29.691Z" transform="translate(-210.774 -79.249)" fill="#b23f37"/>
    <path id="Trazado_608852" data-name="Trazado 608852" d="M418.389,175.492,409.1,151.758l-10.315,2.8,10.161,25.971Z" transform="translate(-212.645 -80.923)" fill="#ebf5ff"/>
    <path id="Trazado_608853" data-name="Trazado 608853" d="M409.066,150.378l.644,1.722-4.047,1.125-.724-1.76Z" transform="translate(-215.93 -80.187)" fill="#678ca8"/>
    <path id="Trazado_608854" data-name="Trazado 608854" d="M431.41,400.981c.037,1.75,18.4,1.158,19.221-.285.537-.943-.453-3.314-1.209-4.85-.4-.826-.737-1.41-.737-1.41l-2.334-3.267-1.862-.051a89.992,89.992,0,0,0-10.731,7.011c-1.466,1.2-2.362,2.2-2.348,2.852" transform="translate(-230.045 -208.56)" fill="#136d94"/>
    <path id="Trazado_608855" data-name="Trazado 608855" d="M436.44,398.139c3.795,2.39,12.537-.952,15.664-2.282-.4-.826-.737-1.41-.737-1.41l-2.334-3.267-1.862-.051a89.613,89.613,0,0,0-10.731,7.011" transform="translate(-232.727 -208.565)" fill="#db8e62"/>
    <path id="Trazado_608856" data-name="Trazado 608856" d="M448.51,374.375l.649,7.155.233,2.567.163,1.764,7.426-.78.061-1.246v0l.061-1.307.411-8.458.042-.85-4.523.579Z" transform="translate(-239.163 -199.014)" fill="#db8e62"/>
    <path id="Trazado_608857" data-name="Trazado 608857" d="M448.51,375.036l.649,7.155,3.715.462h0l3.132.4,1.092.135.411-8.458-4.481-.271Z" transform="translate(-239.163 -199.676)" fill="#cf6e4a"/>
    <path id="Trazado_608858" data-name="Trazado 608858" d="M434.248,222.318a59.965,59.965,0,0,0-2.562,21.387c.63,12.556,5.923,56.343,5.923,56.343l13.191-.621L448.541,242.9l-3.183-17.5" transform="translate(-230.148 -118.549)" fill="#1d9fb3"/>
    <path id="Trazado_608859" data-name="Trazado 608859" d="M501.755,392.277c1.162,1.307,14.75-11.053,14.446-12.682-.2-1.064-2.492-2.226-4.065-2.9-.84-.364-1.475-.593-1.475-.593l-3.9-.971-1.452,1.167a89.732,89.732,0,0,0-3.617,12.294c-.341,1.858-.369,3.2.061,3.687" transform="translate(-267.386 -200.033)" fill="#136d94"/>
    <path id="Trazado_608860" data-name="Trazado 608860" d="M501.99,388.579c4.439-.644,8.924-8.859,10.441-11.9-.84-.364-1.475-.593-1.475-.593l-3.9-.971-1.452,1.167a89.551,89.551,0,0,0-3.617,12.294" transform="translate(-267.681 -200.028)" fill="#db8e62"/>
    <path id="Trazado_608861" data-name="Trazado 608861" d="M491.43,365.247l3.085,3.02,3.888,3.8,1.27,1.237,5.148-5.405-.765-.994-2.226-2.885-4.266-5.526Z" transform="translate(-262.05 -191.165)" fill="#db8e62"/>
    <path id="Trazado_608862" data-name="Trazado 608862" d="M491.43,365.247l3.085,3.02,7.314-4.243-4.266-5.526Z" transform="translate(-262.05 -191.165)" fill="#cf6e4a"/>
    <path id="Trazado_608863" data-name="Trazado 608863" d="M433.35,227.37c1.284,3.566,10.95,9.849,10.95,9.849s-.093,24.892.266,31.166,13.359,26.755,13.359,26.755l12.182-10.815s-9.443-15.79-10.091-19.5,3.435-23.226,3.435-31.17a30.669,30.669,0,0,0-.359-4.486,55.954,55.954,0,0,0-2.17-8.957c-.779-2.4-1.438-3.981-1.438-3.981a120.1,120.1,0,0,0-13.228,2.81c-6.049,1.69-12.075,4.131-12.995,7.244a1.757,1.757,0,0,0,.089,1.088" transform="translate(-231.005 -115.301)" fill="#25b2c2"/>
    <path id="Trazado_608864" data-name="Trazado 608864" d="M433.352,230.58a78.479,78.479,0,0,0,10.031,5,15.078,15.078,0,0,1,.728-1.722c.3.658.611,1.307.985,2.2,5.956-1.494,11.968-2.759,18-3.683a55.952,55.952,0,0,0-2.17-8.957q-7.323-.686-14.666-1.172c-6.049,1.69-12.075,4.131-12.995,7.244a1.72,1.72,0,0,0,.084,1.088" transform="translate(-231.006 -118.511)" fill="#1d9fb3"/>
    <path id="Trazado_608865" data-name="Trazado 608865" d="M464.781,145.507c-.462-2.8-11.062-6.4-14.666-6.073-7.739.7-13.345,2.11-15.109,3.216s-3.375,11.44-3.375,14.32c0,3.407,1.172,10.1.859,12.794-.607,5.232-3.781,16.313-3.781,16.313l11.664,4.089,1.447-2.549,1.321,3.23,19.277-4.42s-1.475-15.352-1.475-18.045c0-2.581,4.434-19.263,3.837-22.876" transform="translate(-228.605 -74.341)" fill="#27b8c1"/>
    <path id="Trazado_608866" data-name="Trazado 608866" d="M461.731,156.388c-3.874,20.178-4.089,25.957-4.971,40.132" transform="translate(-243.563 -83.392)" fill="none" stroke="#51dbdb" stroke-linecap="round" stroke-miterlimit="10" stroke-width="1"/>
    <path id="Trazado_608867" data-name="Trazado 608867" d="M467.769,163.558a.649.649,0,1,1-.649.649.649.649,0,0,1,.649-.649" transform="translate(-249.087 -87.216)" fill="#136d94"/>
    <path id="Trazado_608868" data-name="Trazado 608868" d="M464.289,182.468a.649.649,0,1,1-.649.649.649.649,0,0,1,.649-.649" transform="translate(-247.231 -97.299)" fill="#136d94"/>
    <path id="Trazado_608869" data-name="Trazado 608869" d="M461.609,202.4a.649.649,0,1,1-.649.649.649.649,0,0,1,.649-.649" transform="translate(-245.802 -107.927)" fill="#136d94"/>
    <path id="Trazado_608870" data-name="Trazado 608870" d="M460.219,225.248a.649.649,0,1,1-.649.649.649.649,0,0,1,.649-.649" transform="translate(-245.061 -120.111)" fill="#136d94"/>
    <path id="Trazado_608871" data-name="Trazado 608871" d="M419.21,176.367l1.932.154.149.014,12.957-3.4a1.421,1.421,0,0,0,.826-1.792,1.467,1.467,0,0,0-1.872-.822l-12.36,4.369-.126.112Z" transform="translate(-223.539 -90.881)" fill="#136d94"/>
    <path id="Trazado_608872" data-name="Trazado 608872" d="M419.21,181.586l.532.042,1.4.112a.9.9,0,0,1-.126-.107.64.64,0,0,1-.191-.625c.028-.093.084-.191.047-.28a.45.45,0,0,0-.084-.1.465.465,0,0,1-.075-.406l-1.106,1.008Z" transform="translate(-223.539 -96.099)" fill="#d68a5a"/>
    <path id="Trazado_608873" data-name="Trazado 608873" d="M419.21,182.737l.532.042a.518.518,0,0,1-.117-.21.524.524,0,0,1-.019-.191Z" transform="translate(-223.539 -97.251)" fill="#24151a"/>
    <path id="Trazado_608874" data-name="Trazado 608874" d="M438.447,179.138c-1.274-2.362-2.544-4.724-3.9-7.09a12.848,12.848,0,0,0-3.3-1.82,9.183,9.183,0,0,0-3.748,2.385c-.261.275-.537.663-.415,1.032a.6.6,0,0,0,.63.383,1.8,1.8,0,0,0,.733-.294c.7-.411,1.41-.826,2.226-1.223a5.977,5.977,0,0,1,.63.593,5.34,5.34,0,0,0-1.522.177,24,24,0,0,0-2.665,1.47.976.976,0,0,0-.537.667.62.62,0,0,0,.331.588,1.158,1.158,0,0,0,.653.093,4.312,4.312,0,0,0,2.287-.854,3,3,0,0,1,.747.289,3.8,3.8,0,0,0-1.027.294,1.427,1.427,0,0,0-.672,2.026.54.54,0,0,0-.28.532,1.5,1.5,0,0,0,.2.6,11.94,11.94,0,0,0,.658,1.144,2.092,2.092,0,0,0,.85.826.839.839,0,0,0,1.069-.406A4.764,4.764,0,0,0,435.9,183a14.467,14.467,0,0,0,2.549-3.865" transform="translate(-227.467 -90.772)" fill="#db8e62"/>
    <path id="Trazado_608875" data-name="Trazado 608875" d="M438.452,176.616a5.1,5.1,0,0,0-1.452-.308" transform="translate(-233.026 -94.014)" fill="none" stroke="#a8473e" stroke-linecap="round" stroke-miterlimit="10" stroke-width="0.5"/>
    <path id="Trazado_608876" data-name="Trazado 608876" d="M436.644,181.314a5.338,5.338,0,0,0-1.274.037" transform="translate(-232.157 -96.673)" fill="none" stroke="#a8473e" stroke-linecap="round" stroke-miterlimit="10" stroke-width="0.5"/>
    <path id="Trazado_608877" data-name="Trazado 608877" d="M431.69,185.694a4.619,4.619,0,0,1,2.46-.471" transform="translate(-230.194 -98.756)" fill="none" stroke="#a8473e" stroke-linecap="round" stroke-miterlimit="10" stroke-width="0.5"/>
    <path id="Trazado_608878" data-name="Trazado 608878" d="M435.868,190.478a4.957,4.957,0,0,1-.518-1.4" transform="translate(-232.146 -100.824)" fill="none" stroke="#a8473e" stroke-linecap="round" stroke-miterlimit="10" stroke-width="0.5"/>
    <path id="Trazado_608879" data-name="Trazado 608879" d="M434.71,190.708a4.214,4.214,0,0,1-.84.065" transform="translate(-231.357 -101.693)" fill="none" stroke="#a8473e" stroke-linecap="round" stroke-miterlimit="10" stroke-width="0.5"/>
    <path id="Trazado_608880" data-name="Trazado 608880" d="M444.87,184.5s16.131,13.681,20.486,12.14c1.732-.616,3.449-5.638,4.7-10.315,1.148-4.3,1.9-8.3,1.9-8.3l-9.139-3.86s-.611,4.145-1.228,7.515c-.406,2.273-.817,4.192-1.036,4.248-.934.261-12.775-5.008-12.775-5.008Z" transform="translate(-237.222 -92.873)" fill="#db8e62"/>
    <path id="Trazado_608881" data-name="Trazado 608881" d="M480.67,181.693a51.349,51.349,0,0,0,8.467,4.644c1.148-4.3,1.9-8.3,1.9-8.3l-9.139-3.86s-.607,4.145-1.223,7.515" transform="translate(-256.312 -92.879)" fill="#cf6e4a"/>
    <path id="Trazado_608882" data-name="Trazado 608882" d="M490.307,167.995a68.02,68.02,0,0,1-11-2.787c.541-4.49,1.806-12.612,2.833-15.114.728-1.774,3.589-4.892,6.815-3.543s4.462,3.477,4.121,9.092c-.126,2-2.026,8.285-2.773,12.35" transform="translate(-255.587 -77.972)" fill="#32c9cf"/>
    <path id="Trazado_608883" data-name="Trazado 608883" d="M461.09,132.741s.938,4.248,2.749,5.489,8.668-6.395,8.668-6.395c-1.181-1.1-1.466-3.263-1.452-5.176a22.179,22.179,0,0,1,.341-3.631l-8.355,2.413a16.765,16.765,0,0,1-.345,4.621c-.569,2.32-1.606,2.679-1.606,2.679" transform="translate(-245.871 -65.603)" fill="#db8e62"/>
    <path id="Trazado_608884" data-name="Trazado 608884" d="M464.54,130.062c3.851.817,6.8-1.634,8.355-3.4a22.175,22.175,0,0,1,.341-3.631l-8.355,2.413a16.6,16.6,0,0,1-.341,4.621" transform="translate(-247.711 -65.603)" fill="#cf6e4a"/>
    <path id="Trazado_608885" data-name="Trazado 608885" d="M467.624,145.705a10.765,10.765,0,0,1,.7-3.132c.271-.247,6.857-6.017,7.249-5.8a7.775,7.775,0,0,1,1.522,2.138,24.126,24.126,0,0,1-3.907,3.907c-1.755,1.424-4.556,3.062-5.564,2.889" transform="translate(-249.348 -72.929)" fill="#136d94"/>
    <path id="Trazado_608886" data-name="Trazado 608886" d="M463.432,146.871a11.884,11.884,0,0,0-.317-3.249,11.034,11.034,0,0,1-1.47-4.644s-1.662.63-1.867.994.7,3.062,1.4,4.346c1.181,2.161,2.142,2.67,2.259,2.553" transform="translate(-245.156 -74.109)" fill="#136d94"/>
    <path id="Trazado_608887" data-name="Trazado 608887" d="M443.2,110.885c.158-1.393,1.833-2.348,3.741-2.131s3.327,1.521,3.169,2.914-1.833,2.347-3.741,2.131-3.327-1.521-3.169-2.914" transform="translate(-236.325 -57.976)" fill="#cf6e4a"/>
    <path id="Trazado_608888" data-name="Trazado 608888" d="M469.792,92.014c0-6.581-4.551-11.916-10.166-11.916S449.46,85.433,449.46,92.014s2.805,13.125,8.5,12.892c5.606-.233,11.837-6.311,11.837-12.892" transform="translate(-239.67 -42.711)" fill="#db8e62"/>
    <path id="Trazado_608889" data-name="Trazado 608889" d="M467.535,95.281a11.13,11.13,0,0,1-2.11-4.738,5.561,5.561,0,0,1-3.183-2.871c-1.722,1.722-8.266,2.693-10.451,2.124-1.554,1.918-1.6,2.871-2.152,5.321a26.8,26.8,0,0,1,.462-8.985,96.3,96.3,0,0,0,11.982-4.77,2.3,2.3,0,0,1,2.091-.266A2.468,2.468,0,0,1,465,82.221a14.276,14.276,0,0,0,3.669,4.663c.4.331.85.7.868,1.218a1.849,1.849,0,0,1-.327.938c-.733,1.349-.607,4.593-1.676,6.241" transform="translate(-239.667 -43.154)" fill="#cf6e4a"/>
    <path id="Trazado_608890" data-name="Trazado 608890" d="M445.76,83.458c-.033,2.493,2,7.669,2,7.669s.014-4.262,1.956-7.029c4.019,0,8.472-.187,10.936-2.474a5.457,5.457,0,0,0,3.421,3.361c-.047,2.259.99,4.374,1.638,6.273,1.265-.77,2.217-.443,3.249-1.662a27.145,27.145,0,0,0,1.05-7.79,10.739,10.739,0,0,0-1.55-4.9,7.593,7.593,0,0,0-.747-.985,6.08,6.08,0,0,0-5.783-2,6.645,6.645,0,0,0-4.691-2.3,9.327,9.327,0,0,0-5.078,1.34,12.02,12.02,0,0,0-6.133,8.052,12.823,12.823,0,0,0-.266,2.441" transform="translate(-237.696 -38.187)" fill="#412408"/>
    <path id="Trazado_608891" data-name="Trazado 608891" d="M445.76,83.452a9.8,9.8,0,0,1,.3-.952,13.549,13.549,0,0,1,2.581-4.1,12.784,12.784,0,0,1,6.007-4.121,7.26,7.26,0,0,1,6.908,1.47,6.851,6.851,0,0,1,6.894,1.148,7.593,7.593,0,0,0-.747-.985,6.08,6.08,0,0,0-5.783-2,6.645,6.645,0,0,0-4.691-2.3,9.327,9.327,0,0,0-5.078,1.34,12.02,12.02,0,0,0-6.133,8.052,13.3,13.3,0,0,0-.261,2.446" transform="translate(-237.697 -38.182)" fill="#664216"/>
    <path id="Trazado_608892" data-name="Trazado 608892" d="M488.5,108.846c1.861-.476,3.651.239,4,1.6s-.879,2.846-2.739,3.322-3.651-.239-4-1.6.878-2.846,2.739-3.322" transform="translate(-258.994 -57.962)" fill="#db8e62"/>
    <path id="Trazado_608893" data-name="Trazado 608893" d="M472.213,113.548c.245,0,.443.318.443.709s-.2.709-.443.709-.443-.318-.443-.709.2-.709.443-.709" transform="translate(-251.566 -60.548)" fill="#411f00"/>
    <path id="Trazado_608894" data-name="Trazado 608894" d="M454.763,113.548c.245,0,.443.318.443.709s-.2.709-.443.709-.443-.318-.443-.709.2-.709.443-.709" transform="translate(-242.261 -60.548)" fill="#411f00"/>
    <path id="Trazado_608895" data-name="Trazado 608895" d="M455.079,105.656a3.306,3.306,0,0,0-2.619.21" transform="translate(-241.27 -56.246)" fill="none" stroke="#412408" stroke-linecap="round" stroke-miterlimit="10" stroke-width="2"/>
    <path id="Trazado_608896" data-name="Trazado 608896" d="M471.24,106.366a3.13,3.13,0,0,1,2.969.289" transform="translate(-251.284 -56.587)" fill="none" stroke="#412408" stroke-linecap="round" stroke-miterlimit="10" stroke-width="2"/>
    <path id="Trazado_608897" data-name="Trazado 608897" d="M461.739,116.228a8.622,8.622,0,0,0,.009,1.993" transform="translate(-246.189 -61.977)" fill="none" stroke="#a8473e" stroke-linecap="round" stroke-miterlimit="10" stroke-width="2"/>
    <path id="Trazado_608898" data-name="Trazado 608898" d="M462.87,123.817a2.561,2.561,0,0,0,3.2-.789" transform="translate(-246.821 -65.603)" fill="none" stroke="#a8473e" stroke-linecap="round" stroke-miterlimit="10" stroke-width="2"/>
    <path id="Trazado_608899" data-name="Trazado 608899" d="M135.885,19.748A17.125,17.125,0,1,1,118.76,36.873a17.126,17.126,0,0,1,17.125-17.125" transform="translate(-63.328 -10.53)" fill="#82ced8"/>
    <path id="Trazado_608900" data-name="Trazado 608900" d="M130.952,41.144c3.748-6.983,11.16,2.39,11.16,2.39s7.426-8.01,11.16-2.805c3.879,5.4-11.16,17.98-11.16,17.98s-14.348-11.622-11.16-17.564" transform="translate(-69.582 -20.561)" fill="#b82621"/>
    <path id="Trazado_608901" data-name="Trazado 608901" d="M128.83,50.831l5.2.056,1.615-6.32,3.328,12.014L141.6,42.028l2.861,13.107,1.708-9.5L148,50.616l5.68.154" transform="translate(-68.697 -22.411)" fill="none" stroke="#fff" stroke-linecap="round" stroke-miterlimit="10" stroke-width="1"/>
    <path id="Trazado_608902" data-name="Trazado 608902" d="M237.013,76.118a17.5,17.5,0,1,1-17.5,17.5,17.5,17.5,0,0,1,17.5-17.5" transform="translate(-117.051 -40.589)" fill="#82ced8"/>
    <path id="Trazado_608903" data-name="Trazado 608903" d="M252.626,103.939l-13.4,7.674a5.315,5.315,0,1,1-5.284-9.223l13.4-7.674a5.313,5.313,0,0,1,7.767,6.007,5.264,5.264,0,0,1-2.483,3.216" transform="translate(-123.324 -50.132)" fill="#fff"/>
    <path id="Trazado_608904" data-name="Trazado 608904" d="M263.326,103.939l-6.7,3.837-5.284-9.223,6.7-3.837a5.313,5.313,0,0,1,7.767,6.007,5.264,5.264,0,0,1-2.483,3.216" transform="translate(-134.024 -50.132)" fill="#b82621"/>
    <path id="Trazado_608905" data-name="Trazado 608905" d="M332.815,7.748A17.125,17.125,0,1,1,315.69,24.873,17.126,17.126,0,0,1,332.815,7.748" transform="translate(-168.338 -4.132)" fill="#82ced8"/>
    <path id="Trazado_608906" data-name="Trazado 608906" d="M351.132,23.191V34.93a8.5,8.5,0,0,1-3.874,7.118L342.4,44.882l-4.453-2.889a8.522,8.522,0,0,1-4.28-7.37V23.191l8.672-2.483.061.019Z" transform="translate(-177.926 -11.042)" fill="#fff"/>
    <path id="Trazado_608907" data-name="Trazado 608907" d="M361.108,23.212V34.952a8.5,8.5,0,0,1-3.874,7.118L352.38,44.9V20.748Z" transform="translate(-187.903 -11.064)" fill="#f2e4e5"/>
    <rect id="Rectángulo_377418" data-name="Rectángulo 377418" width="4.028" height="13.265" transform="translate(162.461 15.117)" fill="#b82621"/>
    <rect id="Rectángulo_377419" data-name="Rectángulo 377419" width="13.265" height="4.028" transform="translate(157.84 19.737)" fill="#b82621"/>
  </g>
</svg>
