<svg xmlns="http://www.w3.org/2000/svg" xmlns:xlink="http://www.w3.org/1999/xlink" width="323.6" height="204.267" viewBox="0 0 323.6 204.267">
  <defs>
    <clipPath id="clip-path">
      <rect id="Rectángulo_377421" data-name="Rectángulo 377421" width="323.6" height="204.267" fill="none"/>
    </clipPath>
    <clipPath id="clip-path-2">
      <rect id="Rectángulo_377422" data-name="Rectángulo 377422" width="323.6" height="189.291" fill="none"/>
    </clipPath>
  </defs>
  <g id="Grupo_1071235" data-name="Grupo 1071235" transform="translate(0 -0.004)">
    <g id="Grupo_1071230" data-name="Grupo 1071230" transform="translate(0 0.004)">
      <g id="Grupo_1071229" data-name="Grupo 1071229" transform="translate(0 0)" clip-path="url(#clip-path)">
        <path id="Trazado_608908" data-name="Trazado 608908" d="M139.136,383.428c27.119-11.158,53.8-55.849,41.342-92.314-21.618-63.281,62.269-101.631,107.064-56.837,28.418,28.418,97.151-15.861,129.534,32.384,17.305,25.781-7.707,66.874-6.666,86.81.985,18.863,26.105,29.958,26.105,29.958Z" transform="translate(-125.191 -193.308)" fill="#d9f3ff"/>
        <path id="Trazado_608909" data-name="Trazado 608909" d="M463.628,1890.615H170.275a.514.514,0,0,1,0-1.025H463.628a.514.514,0,0,1,0,1.025" transform="translate(-152.78 -1700.209)"/>
      </g>
    </g>
    <g id="Grupo_1071232" data-name="Grupo 1071232" transform="translate(0 0.004)">
      <g id="Grupo_1071231" data-name="Grupo 1071231" transform="translate(0 0)" clip-path="url(#clip-path-2)">
        <path id="Trazado_608910" data-name="Trazado 608910" d="M2388.288,963.376l-6,6.623-10.514-11.406,7.116-2.711Z" transform="translate(-2134.07 -860.08)" fill="#ffa46e"/>
        <path id="Trazado_608911" data-name="Trazado 608911" d="M2297.58,824.592l-.365.19-3.632,1.895a2.011,2.011,0,0,1-2.721-.822,93.82,93.82,0,0,0-11.348-21.186,2.01,2.01,0,0,1,.823-2.72l3.795-1.981.2-.105a2.009,2.009,0,0,1,2.72.823,107.34,107.34,0,0,1,11.348,21.185,2.011,2.011,0,0,1-.822,2.721" transform="translate(-2050.838 -719.484)" fill="#545454"/>
        <path id="Trazado_608912" data-name="Trazado 608912" d="M2280.7,806.388l-4.628,2.424a1.824,1.824,0,0,1-2.469-.746l-1.586-2.96a1.824,1.824,0,0,1,.747-2.469l4.628-2.424a1.824,1.824,0,0,1,2.469.747l1.585,2.96a1.823,1.823,0,0,1-.746,2.469" transform="translate(-2044.114 -719.818)" fill="#333"/>
        <path id="Trazado_608913" data-name="Trazado 608913" d="M2284.244,813.438l-3.63,1.889a1.572,1.572,0,0,1-2.128-.643l-1.428-2.666a1.572,1.572,0,0,1,.644-2.128l3.63-1.889a1.572,1.572,0,0,1,2.128.643l1.428,2.666a1.572,1.572,0,0,1-.643,2.128" transform="translate(-2048.675 -726.852)" fill="#6e6e6e"/>
        <path id="Trazado_608914" data-name="Trazado 608914" d="M2379.978,991.718l-4.628,2.424a1.823,1.823,0,0,1-2.469-.747l-1.586-2.96a1.824,1.824,0,0,1,.747-2.469l4.628-2.424a1.824,1.824,0,0,1,2.469.747l1.585,2.96a1.824,1.824,0,0,1-.746,2.469" transform="translate(-2133.442 -886.574)" fill="#333"/>
        <path id="Trazado_608915" data-name="Trazado 608915" d="M2383.867,999.414l-3.631,1.889a1.572,1.572,0,0,1-2.128-.643l-1.428-2.666a1.572,1.572,0,0,1,.644-2.128l3.631-1.889a1.572,1.572,0,0,1,2.128.644l1.428,2.665a1.572,1.572,0,0,1-.644,2.128" transform="translate(-2138.314 -894.19)" fill="#6e6e6e"/>
        <path id="Trazado_608916" data-name="Trazado 608916" d="M2356.02,948.982c-.362-.081-3.663-2.013-.765-7.085,2.093-.161,2.319,2.524,1.932,3.22a8.348,8.348,0,0,0-1.167,3.864" transform="translate(-2118.14 -847.492)" fill="#ffa46e"/>
        <path id="Trazado_608917" data-name="Trazado 608917" d="M2341.178,824.592l-.365.19c.079-.195.3-.729.51-1.349.273-.782-3.2-6.123-3.2-6.123a7.758,7.758,0,0,1-5.443-3.913,8.549,8.549,0,0,1-.375-6.668s-1.8-3.163-2.619-4.966a3.525,3.525,0,0,0-1.96-1.795l.2-.105a2.009,2.009,0,0,1,2.72.823A107.328,107.328,0,0,1,2342,821.871a2.01,2.01,0,0,1-.822,2.721" transform="translate(-2094.436 -719.484)" fill="#333"/>
        <path id="Trazado_608918" data-name="Trazado 608918" d="M2381.25,874.847c.977.515,2.023-.2,2.9,0,.45.1.534.786.926,1.047,1.972-2.778-1.829-9.843-5.117-11.368-.214-.1-2.475.118-2.357,3.6.074,2.18,2.673,6.212,3.65,6.726" transform="translate(-2139.305 -777.865)" fill="#ffa46e"/>
        <path id="Trazado_608919" data-name="Trazado 608919" d="M2330.577,1145.624s0,.005,0,.007a6.879,6.879,0,0,1-.469,1.541c-1.026,2.348-3.486,4.352-8.054,5.118-7.083.537-17.449.975-26.672,1.634-2.651.19-5.208.4-7.564.631-9.757-2.517-15.612-17.427-4.176-20.589,1.293-.358,6.654-.461,13.222-.289,11.944.311,27.881,1.531,30.63,3.777a9,9,0,0,1,3.085,8.169" transform="translate(-2049.111 -1019.984)" fill="#fff"/>
        <path id="Trazado_608920" data-name="Trazado 608920" d="M2124.768,1016.087c-5.841,4.71-14.1,5.951-20.242.4.06-3.08.913-12.26.7-15.255l19.042,2.568c.146,3.611.349,8.663.5,12.289" transform="translate(-1893.603 -900.884)" fill="#ffa46e"/>
        <path id="Trazado_608921" data-name="Trazado 608921" d="M2137.412,1027.675c-.011-.276-.021-.559-.031-.82h-14.062l-4.251.9a26.582,26.582,0,0,0,18.758,11.415c-.151-4.2-.336-9.356-.414-11.49" transform="translate(-1906.688 -923.94)" fill="#d46c42"/>
        <path id="Trazado_608922" data-name="Trazado 608922" d="M2304.737,850.51c.082,1.639,1.2,2.915,2.489,2.851s2.275-1.445,2.193-3.084-1.2-2.915-2.489-2.851-2.275,1.445-2.193,3.083" transform="translate(-2073.744 -762.492)" fill="#ffa46e"/>
        <path id="Trazado_608923" data-name="Trazado 608923" d="M2057.2,721.238c-.094.323,4.007,15.072,3.5,18.755-4.279,11.037-11.515,14.975-23.278,6.572-1.733-2.015-7.1-13.228-7.2-13.334-7.813-15.142,21.127-27.879,26.974-11.994" transform="translate(-1825.555 -642.369)" fill="#ffa46e"/>
        <path id="Trazado_608924" data-name="Trazado 608924" d="M2036.51,692.9c2.522.59,3.4,7.383,4.133,9.455l.138-.393c.635-28.293-46.409-14.178-27.2,8.892,1.392.85,2.888,3.647,3.729,5.669-.225-1.376,1.394-5.576.826-8.688,0,0-3.339-4.218-2.313-8.268.628-2.482,5.946-1.726,10.472-3.374,4.606-1.677,8.407-3.977,10.219-3.294" transform="translate(-1807.621 -617.45)"/>
        <path id="Trazado_608925" data-name="Trazado 608925" d="M2158.849,892.587c.568,1.568-1.052,2.162-1.633.6s1.052-2.162,1.633-.6" transform="translate(-1940.905 -802.305)"/>
        <path id="Trazado_608926" data-name="Trazado 608926" d="M2285.7,846.594c.568,1.568-1.052,2.162-1.633.6s1.052-2.162,1.633-.6" transform="translate(-2055.046 -760.921)"/>
        <path id="Trazado_608927" data-name="Trazado 608927" d="M2233.5,890.053c3.173-1.012-1.358-4.668-2.293-5.613l-.766-2.087a.268.268,0,0,0-.5.184l.813,2.214c1.447,1.26,3.493,3.434,3.353,4.157-.336,1.194-3.363.68-3.249,1.24-.022.532,1.668.194,2.645-.1" transform="translate(-2006.434 -793.763)" fill="#c75038"/>
        <path id="Trazado_608928" data-name="Trazado 608928" d="M2180.751,1000.254c.839-.308,1.4-.556,1.479-.593a.268.268,0,0,0-.22-.488c-.074.033-7.417,3.3-10.293,1.153a.268.268,0,0,0-.375.054c1.173,2.457,7.408.622,9.409-.127" transform="translate(-1953.723 -899.008)" fill="#c75038"/>
        <path id="Trazado_608929" data-name="Trazado 608929" d="M2129.46,862.907c-2.379-.094,1.64-3.709,4-2.814a.535.535,0,1,1-.213,1.049c-2.742-.414-3.218,1.505-3.785,1.765" transform="translate(-1915.384 -773.764)"/>
        <path id="Trazado_608930" data-name="Trazado 608930" d="M2254.144,817.563c-2.076.084.78-3.41,4.057-2.649a.535.535,0,1,1-.212,1.049c-2.735-.427-3.308,1.355-3.845,1.6" transform="translate(-2027.591 -733.143)"/>
        <path id="Trazado_608931" data-name="Trazado 608931" d="M2015.32,644.063s5.465-11.88,16.478-14.838,8.68,4.035,8.68,4.035c11.576-1.813-6.006,10.831-10.645,11.769-4.188,1.151-14.771,2.505-14.514-.966" transform="translate(-1813.333 -565.506)"/>
        <path id="Trazado_608932" data-name="Trazado 608932" d="M2041.249,920.848c1.45,1.892,1.415,4.353-.078,5.5s-3.878.537-5.328-1.356-1.415-4.353.078-5.5,3.878-.537,5.328,1.356" transform="translate(-1830.846 -826.818)" fill="#ffa46e"/>
        <path id="Trazado_608933" data-name="Trazado 608933" d="M2050,951a.3.3,0,0,1-.371-.143c-1.093-2.079-1.917-2.461-2.31-2.5a.769.769,0,0,0-.65.239.3.3,0,0,1-.469-.38,1.378,1.378,0,0,1,1.167-.461c.917.088,1.859,1.039,2.8,2.825a.3.3,0,0,1-.126.408L2050,951" transform="translate(-1841.059 -852.755)" fill="#c75038"/>
        <path id="Trazado_608934" data-name="Trazado 608934" d="M1907.659,1213.084c-.25,2.926-.506,5.983-.753,9.036H1954l.339-88.683c-2.41-.51-5.645-1.759-8.917-2.03-2.054,2.2-3.289,3.743-6.785,3.821a9.361,9.361,0,0,1-7.453-4c-16.778,1.653-25.49,7.528-25.49,7.528l7.737,53.735a63.591,63.591,0,0,0-5.775,20.593" transform="translate(-1714.701 -1017.853)" fill="#9eddff"/>
        <path id="Trazado_608935" data-name="Trazado 608935" d="M2190.816,1179.689l3.049-3.935-4.926-3.5-5.275,3.363,3.116,4.069Z" transform="translate(-1964.81 -1054.77)" fill="#3086b3"/>
        <path id="Trazado_608936" data-name="Trazado 608936" d="M2227.585,1280.876l-6.117,10.066-5.865-9.748c1.4-17.965.759-41.154-.439-60.05l4.17.028c3.947,19.221,7.235,41.977,8.251,59.7" transform="translate(-1993.152 -1098.758)" fill="#3086b3"/>
        <path id="Trazado_608937" data-name="Trazado 608937" d="M2245.432,1115.777l-2.177-2.265c-.185,2.3-4.447,5.28-6.956,5.888a27.336,27.336,0,0,1,6.268,6.88Z" transform="translate(-2012.17 -1001.912)" fill="#5bb9eb"/>
        <path id="Trazado_608938" data-name="Trazado 608938" d="M2077.694,1102.559l3.274-4.131a69.755,69.755,0,0,0,12.621,7.4c-2.712,2.043-3.95,4.145-5.576,6.879Z" transform="translate(-1869.46 -988.34)" fill="#5bb9eb"/>
        <path id="Trazado_608939" data-name="Trazado 608939" d="M1886.167,1231.489h26.491c3.547-31.106.021-61.146-7.672-89.848-14.587,2.179-16.978,6.484-16.978,6.484l6.3,54.925Z" transform="translate(-1697.129 -1027.222)" fill="#fff"/>
        <path id="Trazado_608940" data-name="Trazado 608940" d="M2329.861,1224.5h13.7L2340,1185.78l-2.359-47.6c-6.686-3.2-8.807-3.559-12.379-4.3,4.889,31.678,6.595,61.708,4.6,90.626" transform="translate(-2092.217 -1020.237)" fill="#fff"/>
        <path id="Trazado_608941" data-name="Trazado 608941" d="M2074.066,1722.077l.038-.009c3.077-.745.75-16.465.75-16.465-4.715.993-9.882,16.465-9.882,16.465l.074.009Z" transform="translate(-1858.012 -1534.662)" fill="#276c9c"/>
        <path id="Trazado_608942" data-name="Trazado 608942" d="M1824.186,1296.646l-7.658,25.758,18.392,10.616c-7.885,2.282-10.749,10.162-14,17.612l-22.271-17.792,13.677-41.7Z" transform="translate(-1618.383 -1161.741)" fill="#d9f1ff"/>
        <path id="Trazado_608943" data-name="Trazado 608943" d="M2100.848,1781.281l-17.73-.049-4.761-.014c-1.163-2.489-1.8-5.174,1.243-9.226,0,0,.75-.072,1.9-.172,2.624-.229,7.332-.605,9.984-.62,6.157-.035,9.361,10.08,9.361,10.08" transform="translate(-1869.19 -1593.686)" fill="#ffa46e"/>
        <path id="Trazado_608944" data-name="Trazado 608944" d="M2083.119,1786.8l-4.761-.014c-1.164-2.489-1.8-5.174,1.243-9.225,0,0,.751-.072,1.9-.172-.248,1.573-.808,6.617,1.616,9.411" transform="translate(-1869.191 -1599.252)" fill="#d17743"/>
        <path id="Trazado_608945" data-name="Trazado 608945" d="M2223.158,1771.263c.188,0,5.529-.314,7.351,1.068a17.059,17.059,0,0,1,3.518,4.586s-.314.691-1.822.189-2.953-2.827-2.953-2.827l-5.4-.377Z" transform="translate(-2000.345 -1593.713)" fill="#ffa46e"/>
        <path id="Trazado_608946" data-name="Trazado 608946" d="M2236.714,1808.812a.057.057,0,0,1-.055-.046,8.629,8.629,0,0,0-5.776-6.881.057.057,0,0,1,.028-.11,8.746,8.746,0,0,1,5.86,6.969.057.057,0,0,1-.045.066h-.01" transform="translate(-2007.257 -1621.195)" fill="#d66d2d"/>
        <path id="Trazado_608947" data-name="Trazado 608947" d="M2218.408,1834.385a.056.056,0,0,1-.053-.036c-.918-2.356-5.111-3.992-5.153-4.008a.056.056,0,0,1,.041-.105c.042.016,4.282,1.67,5.218,4.073a.057.057,0,0,1-.032.073.058.058,0,0,1-.021,0" transform="translate(-1991.355 -1646.8)" fill="#d66d2d"/>
        <path id="Trazado_608948" data-name="Trazado 608948" d="M1714.593,1202.43c-.384.118-27.951,40.691-19.573,53.418,3.041,4.619,38.562,14.373,38.562,14.373-1.661-4.6.05-10.365,7-17.955-.663,0-23.947-8.589-23.947-8.589s13.75-26,13.971-32.855-8.16-10.816-16.016-8.392" transform="translate(-1523.714 -1081.275)" fill="#fff"/>
        <path id="Trazado_608949" data-name="Trazado 608949" d="M2452,992.75s26.1,16.079,28.333,20.15c2.724,4.96.332,12.626-8.876,12.019s-26.718-21.009-26.718-21.009Z" transform="translate(-2199.722 -893.254)" fill="#fff"/>
        <path id="Trazado_608950" data-name="Trazado 608950" d="M2461.165,1118.838c-6.533-3.889-16.589-15.335-16.69-15.45l.344-.3c.1.115,10.108,11.507,16.58,15.359Z" transform="translate(-2199.481 -992.532)" fill="#d9f1ff"/>
        <path id="Trazado_608951" data-name="Trazado 608951" d="M2482.632,1269.054c-1.027,2.348-3.486,4.353-8.054,5.118-7.083.537-17.449.975-26.673,1.634-.432-2.475-1.036-6.046-1.036-6.046s12.629,3.458,23.461,3.012c4.867-.2,9.37-1.187,12.2-3.63.033-.029.067-.058.1-.088" transform="translate(-2201.636 -1141.865)" fill="#f2faff"/>
        <path id="Trazado_608952" data-name="Trazado 608952" d="M2431.3,1055.5l-1.242.667-1.438-1.792,1.979-1.064Z" transform="translate(-2185.219 -947.744)" fill="#333"/>
        <path id="Trazado_608953" data-name="Trazado 608953" d="M2442.472,1068.282a.209.209,0,0,1-.14-.053.211.211,0,0,1-.018-.3c1.127-1.268-.821-6.21-1.667-8.007a.211.211,0,0,1,.381-.179c.129.274,3.142,6.733,1.6,8.467a.211.211,0,0,1-.157.071" transform="translate(-2196.019 -953.425)" fill="#333"/>
        <path id="Trazado_608954" data-name="Trazado 608954" d="M2455.169,1138.848a.211.211,0,0,1-.115-.387l2.039-1.321a.211.211,0,1,1,.229.354l-2.038,1.321a.209.209,0,0,1-.114.034" transform="translate(-2208.914 -1023.141)" fill="#333"/>
        <path id="Trazado_608955" data-name="Trazado 608955" d="M2456.681,1145.65a.21.21,0,0,1-.115-.387l2.038-1.321a.211.211,0,1,1,.229.353l-2.038,1.321a.21.21,0,0,1-.114.034" transform="translate(-2210.274 -1029.261)" fill="#333"/>
        <path id="Trazado_608956" data-name="Trazado 608956" d="M2458.192,1152.453a.211.211,0,0,1-.115-.387l2.039-1.321a.211.211,0,0,1,.229.353l-2.038,1.321a.209.209,0,0,1-.114.034" transform="translate(-2211.633 -1035.382)" fill="#333"/>
        <path id="Trazado_608957" data-name="Trazado 608957" d="M2459.7,1159.256a.211.211,0,0,1-.115-.387l2.039-1.321a.211.211,0,1,1,.229.353l-2.039,1.321a.208.208,0,0,1-.114.034" transform="translate(-2212.993 -1041.504)" fill="#333"/>
        <path id="Trazado_608958" data-name="Trazado 608958" d="M2461.215,1166.059a.211.211,0,0,1-.115-.387l2.038-1.321a.211.211,0,0,1,.229.353l-2.039,1.321a.21.21,0,0,1-.114.034" transform="translate(-2214.354 -1047.625)" fill="#333"/>
        <path id="Trazado_608959" data-name="Trazado 608959" d="M2462.727,1172.861a.211.211,0,0,1-.115-.387l2.038-1.321a.211.211,0,1,1,.229.353l-2.038,1.321a.21.21,0,0,1-.114.034" transform="translate(-2215.714 -1053.746)" fill="#333"/>
        <path id="Trazado_608960" data-name="Trazado 608960" d="M2464.239,1179.663a.211.211,0,0,1-.115-.387l2.039-1.321a.21.21,0,1,1,.229.353l-2.038,1.321a.211.211,0,0,1-.114.034" transform="translate(-2217.074 -1059.866)" fill="#333"/>
        <path id="Trazado_608961" data-name="Trazado 608961" d="M2465.751,1186.466a.211.211,0,0,1-.115-.387l2.039-1.321a.211.211,0,0,1,.229.353l-2.039,1.321a.209.209,0,0,1-.114.034" transform="translate(-2218.435 -1065.987)" fill="#333"/>
        <path id="Trazado_608962" data-name="Trazado 608962" d="M2467.263,1193.268a.211.211,0,0,1-.115-.387l2.038-1.321a.211.211,0,1,1,.229.353l-2.038,1.321a.208.208,0,0,1-.114.034" transform="translate(-2219.795 -1072.108)" fill="#333"/>
        <path id="Trazado_608963" data-name="Trazado 608963" d="M2468.774,1200.072a.211.211,0,0,1-.115-.387l2.038-1.321a.211.211,0,1,1,.229.353l-2.038,1.321a.209.209,0,0,1-.114.034" transform="translate(-2221.155 -1078.229)" fill="#333"/>
        <path id="Trazado_608964" data-name="Trazado 608964" d="M2470.285,1206.874a.211.211,0,0,1-.115-.387l2.039-1.321a.21.21,0,1,1,.229.353l-2.038,1.321a.212.212,0,0,1-.114.034" transform="translate(-2222.515 -1084.349)" fill="#333"/>
        <path id="Trazado_608965" data-name="Trazado 608965" d="M2471.8,1213.676a.211.211,0,0,1-.115-.387l2.039-1.321a.211.211,0,1,1,.229.353l-2.038,1.321a.21.21,0,0,1-.114.034" transform="translate(-2223.875 -1090.47)" fill="#333"/>
        <path id="Trazado_608966" data-name="Trazado 608966" d="M2473.309,1220.479a.211.211,0,0,1-.115-.387l2.038-1.321a.211.211,0,1,1,.229.353l-2.038,1.321a.211.211,0,0,1-.115.034" transform="translate(-2225.236 -1096.591)" fill="#333"/>
        <path id="Trazado_608967" data-name="Trazado 608967" d="M2474.821,1227.281a.211.211,0,0,1-.115-.387l2.038-1.321a.211.211,0,0,1,.229.353l-2.038,1.321a.21.21,0,0,1-.114.034" transform="translate(-2226.596 -1102.711)" fill="#333"/>
        <path id="Trazado_608968" data-name="Trazado 608968" d="M2476.332,1234.084a.211.211,0,0,1-.115-.387l2.039-1.321a.21.21,0,0,1,.229.353l-2.038,1.321a.21.21,0,0,1-.114.034" transform="translate(-2227.956 -1108.833)" fill="#333"/>
        <path id="Trazado_608969" data-name="Trazado 608969" d="M2477.844,1240.886a.211.211,0,0,1-.115-.387l2.039-1.321a.21.21,0,0,1,.229.353l-2.038,1.321a.212.212,0,0,1-.115.034" transform="translate(-2229.316 -1114.953)" fill="#333"/>
        <path id="Trazado_608970" data-name="Trazado 608970" d="M2486,1281.083a.2.2,0,0,1-.041,0,.211.211,0,0,1-.166-.247c2.392-12.225,1.322-23.137-.058-25a1.141,1.141,0,0,0-1.483-.275.211.211,0,1,1-.206-.367,1.543,1.543,0,0,1,2.027.392c1.366,1.848,2.651,12.466.134,25.335a.211.211,0,0,1-.206.17" transform="translate(-2234.987 -1129.192)" fill="#333"/>
        <path id="Trazado_608971" data-name="Trazado 608971" d="M1065.814,726.915s.207,20.81,16.048,22.777c14.184.414,21.63,1.188,15.83-26.84-3.52-12.527-31.67-9.4-31.877,4.062" transform="translate(-958.994 -643.299)" fill="#c95138"/>
        <path id="Trazado_608972" data-name="Trazado 608972" d="M1002.467,1214.9H945.24l3.939-78.35c15.849-6.586,32.2-5.63,49.349,0Z" transform="translate(-850.505 -1018.516)" fill="#9eddff"/>
        <path id="Trazado_608973" data-name="Trazado 608973" d="M994.419,1247.867c0,.684-2.158,30.829,5.914,42.868S989.8,1319.6,989.8,1319.6c-17.375-5.883-6.734-76.251,4.621-71.736" transform="translate(-882.347 -1122.615)" fill="#66c2f5"/>
        <path id="Trazado_608974" data-name="Trazado 608974" d="M1164.527,999.569a9.253,9.253,0,0,1-8.462,6.616c-6.788.285-8.87-6.616-8.87-6.616l1.449-11.421.869-6.847h12.7l1.422,11.21Z" transform="translate(-1032.219 -882.952)" fill="#f7a594"/>
        <path id="Trazado_608975" data-name="Trazado 608975" d="M1176.639,992.51a18.443,18.443,0,0,1-14.988-4.363l.869-6.847h12.7Z" transform="translate(-1045.226 -882.951)" fill="#de7964"/>
        <path id="Trazado_608976" data-name="Trazado 608976" d="M1132.648,1088c0,.439,7.9,13.96,7.9,13.96s-6.848,4.653-6.848,4.3-3.248-12.906-3.248-12.906Z" transform="translate(-1017.155 -978.961)" fill="#80d3ff"/>
        <path id="Trazado_608977" data-name="Trazado 608977" d="M1238.044,1095.012c0,.439-8.6,13.433-8.6,13.433s6.321,5.18,6.321,4.829,4.478-12.906,4.478-12.906Z" transform="translate(-1106.221 -985.266)" fill="#80d3ff"/>
        <path id="Trazado_608978" data-name="Trazado 608978" d="M899.792,1224.59l-19.94-1.25,7.672-39.535-.011-.2-.6-10.459-.241-4.165-.7-12.036-.637-11.03-.266-4.6a57.48,57.48,0,0,1,9-4.456,37.742,37.742,0,0,1,9.887-2.531c-.841,39.16,1.344,61.043-4.161,90.262" transform="translate(-791.67 -1020.642)" fill="#fff"/>
        <path id="Trazado_608979" data-name="Trazado 608979" d="M746.884,1215.944a74.437,74.437,0,0,1-7.018,6.332c-1.249.975-2.591,1.941-4.046,2.878a55.819,55.819,0,0,1-16.014,6.976,5.415,5.415,0,0,1-2.065.385c-5.119-.115-7.545-8.765-4.405-16.26a16.825,16.825,0,0,1,4.806-6.514l16.1-11.817,7.191-5.277.021-.01c7.593-3.882,14.507,15.462,5.425,23.308" transform="translate(-640.581 -1072.649)" fill="#fff"/>
        <path id="Trazado_608980" data-name="Trazado 608980" d="M741.048,1434.3l-1.182,4.583-3.442,13.337-.6-10.459a55.829,55.829,0,0,1-16.014,6.976,5.415,5.415,0,0,1-2.065.385c-5.119-.115-7.545-8.765-4.4-16.26.276,4.694,1.415,8.8,4.388,9.721,2.582.8,6.1.107,9.619-1.163a59.772,59.772,0,0,0,8.237-3.823c3.215-1.769,5.47-3.3,5.47-3.3" transform="translate(-640.581 -1289.258)" fill="#d9f1ff"/>
        <path id="Trazado_608981" data-name="Trazado 608981" d="M1320.132,1141.865a52.866,52.866,0,0,1,17.751,5.476l-2.385,43.245,7.672,39.535h-26.179c1.788-15.736,6.464-51.236,3.14-88.256" transform="translate(-1184.998 -1027.424)" fill="#fff"/>
        <path id="Trazado_608982" data-name="Trazado 608982" d="M1308.286,1190.479s11.423,17.335,13.336,45.417c.528,7.75-17.024,34.616-17.024,34.616H1284.38l19.9-30.648s-14.09-28.532-10.078-37.839,9.548-13.722,14.086-11.547" transform="translate(-1155.655 -1070.674)" fill="#fff"/>
        <path id="Trazado_608983" data-name="Trazado 608983" d="M1286.579,1522.466l-.3-.192,20.933-33.255-6.681-18.49.339-.122,6.741,18.656-.047.074Z" transform="translate(-1157.359 -1323.037)" fill="#d9f1ff"/>
        <path id="Trazado_608984" data-name="Trazado 608984" d="M1019.826,1088.15c-.983,9.72-3.707,49.012-3.707,49.012a175.715,175.715,0,0,1-8.714-22.729l4.369-4.7-7.007-11.662c4.826-6.677,15.059-9.924,15.059-9.924" transform="translate(-904.066 -979.092)" fill="#d9f1ff"/>
        <path id="Trazado_608985" data-name="Trazado 608985" d="M1312.053,1088.854c.494,10.586,5.386,24.882,4.423,48.6,6.016-13.17,7.814-22.5,7.814-22.5l-4.369-4.7,7.007-11.662c-3.722-5.562-14.875-9.732-14.875-9.732" transform="translate(-1180.554 -979.726)" fill="#d9f1ff"/>
        <path id="Trazado_608986" data-name="Trazado 608986" d="M1235.13,1020.8s-17.127-4.853-12.92-19.554c2.076-7.253,14.428-10.725,7.676-21.818-.03-.05-.06-.1-.091-.15l-.922-8.17s6.4-1.515,8.752-4.628c-1.76,4.713.252,7.072,1.286,8.06,4.066,3.881,8.348,7.985,8.409,14.97.116,13.269-13.372,12.967-12.191,31.291" transform="translate(-1099.117 -869.619)" fill="#c95138"/>
        <path id="Trazado_608987" data-name="Trazado 608987" d="M1118.34,680.339c3.038,3.987-2.931,15.259-13.125,15.294-6.431-.256-16.578-6.326-13.953-18.993-1.838-10.569,4.674-20.555,13.953-20.555s15.192,13.111,13.125,24.254" transform="translate(-981.51 -590.33)" fill="#f7a594"/>
        <path id="Trazado_608988" data-name="Trazado 608988" d="M1354.694,865.167a3.043,3.043,0,1,1-3.043-3.043,3.043,3.043,0,0,1,3.043,3.043" transform="translate(-1213.445 -775.719)" fill="#f7a594"/>
        <path id="Trazado_608989" data-name="Trazado 608989" d="M1090.672,661.2c-4.365,8.729-20.369,12.755-20.369,12.755l-2.529.366-.705.1a21.52,21.52,0,0,1,3.532-14.681,14.82,14.82,0,0,1,12.621-6.387,15.2,15.2,0,0,1,3.305.324c2.889.621,6.309,2.409,4.145,7.522" transform="translate(-959.972 -587.861)" fill="#c95138"/>
        <path id="Trazado_608990" data-name="Trazado 608990" d="M1086.528,653.68c-5.243.753-10.244,2.474-13.964,6.383-3.368,3.539-4.461,10.886-4.789,14.259l-.705.1a21.52,21.52,0,0,1,3.532-14.681,14.82,14.82,0,0,1,12.622-6.387,15.2,15.2,0,0,1,3.3.324" transform="translate(-959.972 -587.861)" fill="#f56245"/>
        <path id="Trazado_608991" data-name="Trazado 608991" d="M1225.9,661.5c-2.58-5.844-.509-7.5-.509-7.5a14.818,14.818,0,0,1,12.621,6.387,16.174,16.174,0,0,1,1.878,14.408s-11.744,2.04-13.99-13.293" transform="translate(-1101.868 -588.436)" fill="#c95138"/>
        <path id="Trazado_608992" data-name="Trazado 608992" d="M1062.315,863.513a3.043,3.043,0,1,1-3.043-3.043,3.043,3.043,0,0,1,3.043,3.043" transform="translate(-950.369 -774.231)" fill="#f7a594"/>
        <path id="Trazado_608993" data-name="Trazado 608993" d="M1090.026,934.857a12.935,12.935,0,0,0,7.409,5.748.513.513,0,0,1-.244,1,13,13,0,0,1-8.01-6.2Z" transform="translate(-980.02 -841.163)"/>
        <path id="Trazado_608994" data-name="Trazado 608994" d="M1071.151,891.5c.442,1.4-.029,2.8-1.053,3.124s-2.211-.554-2.653-1.957.029-2.8,1.053-3.124,2.211.554,2.653,1.957" transform="translate(-960.312 -800.328)"/>
        <path id="Trazado_608995" data-name="Trazado 608995" d="M1063.048,892.37c.468,1.484-.031,2.963-1.113,3.3s-2.339-.586-2.806-2.069.031-2.963,1.113-3.3,2.339.586,2.806,2.07" transform="translate(-952.822 -801.008)" fill="#fff"/>
        <path id="Trazado_608996" data-name="Trazado 608996" d="M1067.067,905.01a1.457,1.457,0,0,1-.642,1.9c-.624.2-1.348-.338-1.617-1.193a1.457,1.457,0,0,1,.642-1.9c.624-.2,1.348.338,1.617,1.193" transform="translate(-957.998 -813.198)" fill="#b8e5ff"/>
        <path id="Trazado_608997" data-name="Trazado 608997" d="M1065.782,869.326a.221.221,0,0,1-.036,0,.217.217,0,0,1-.178-.25,6.748,6.748,0,0,0-1.333-5.279,1.963,1.963,0,0,0-2.435-.179.217.217,0,0,1-.24-.362,2.429,2.429,0,0,1,2.982.234,7.117,7.117,0,0,1,1.453,5.657.217.217,0,0,1-.214.181" transform="translate(-955.08 -776.356)"/>
        <path id="Trazado_608998" data-name="Trazado 608998" d="M1093.815,675.832s14.269-3.525,17.7-11.771c2.162-5.683-1.328-8.679-1.328-8.679s3.515,1.379,3.4,7.259c-.184,9.218-19.767,13.192-19.767,13.192" transform="translate(-984.189 -589.697)" fill="#a33a23"/>
        <path id="Trazado_608999" data-name="Trazado 608999" d="M1212.942,877.572c-.49,0-1.56-.057-1.719-.549-.19-.586,1.5-5.174,1.839-6.087a.152.152,0,1,1,.285.106,33.028,33.028,0,0,0-1.834,5.887c.085.264,1.012.356,1.613.335h.005a.152.152,0,0,1,.005.3c-.042,0-.11,0-.194,0" transform="translate(-1089.817 -783.559)" fill="#ba4228"/>
        <path id="Trazado_609000" data-name="Trazado 609000" d="M1200.144,964.882a18,18,0,0,0,9.59-1.907c-1.178,4.823-6.506,7.347-9.59,1.907" transform="translate(-1079.861 -866.463)" fill="#a33a23"/>
        <path id="Trazado_609001" data-name="Trazado 609001" d="M1153.056,869.2h0a.693.693,0,0,1-.691-.692v-1.383a.691.691,0,0,1,1.383,0V868.5a.694.694,0,0,1-.692.692" transform="translate(-1036.87 -779.594)"/>
        <path id="Trazado_609002" data-name="Trazado 609002" d="M1299.736,870.319h0a.693.693,0,0,1-.691-.691v-1.383a.691.691,0,1,1,1.383,0v1.383a.693.693,0,0,1-.692.691" transform="translate(-1168.85 -780.604)"/>
        <path id="Trazado_609003" data-name="Trazado 609003" d="M1291.488,905.366c0,.319-.775.577-1.731.577s-1.731-.258-1.731-.577.775-.577,1.731-.577,1.731.258,1.731.577" transform="translate(-1158.936 -814.108)" fill="#f79985"/>
        <path id="Trazado_609004" data-name="Trazado 609004" d="M1146.3,905.366c0,.319-.775.577-1.731.577s-1.731-.258-1.731-.577.775-.577,1.731-.577,1.731.258,1.731.577" transform="translate(-1028.299 -814.108)" fill="#f79985"/>
        <path id="Trazado_609005" data-name="Trazado 609005" d="M1370.5,883.257h0a.152.152,0,0,1-.152-.152c0-.1.016-2.352,1.419-2.728a.152.152,0,0,1,.079.294c-1.178.316-1.194,2.413-1.194,2.434a.152.152,0,0,1-.152.152" transform="translate(-1233.008 -792.138)" fill="#ba4228"/>
        <path id="Trazado_609006" data-name="Trazado 609006" d="M903.929,1106.485l-5.626-6.394,9.882-9.311,4.563,2.868Z" transform="translate(-808.272 -981.459)" fill="#f7a594"/>
        <path id="Trazado_609007" data-name="Trazado 609007" d="M994.4,994.922c.048-.549,2.091-10.387,1.948-10.154,2.031-2.58,6.457.632,6.627,4.8,0,0-1.879,7.075-4.353,8.531-4.463,2.6-4.223-3.174-4.223-3.174" transform="translate(-894.739 -885.24)" fill="#f7a594"/>
        <path id="Trazado_609008" data-name="Trazado 609008" d="M1013.79,903.474s3.615-10.007,3.721-9.956,1.02.24.872,1.721-2.6,9.631-2.6,9.631Z" transform="translate(-912.184 -803.966)" fill="#f7a594"/>
        <path id="Trazado_609009" data-name="Trazado 609009" d="M1030.317,920.875s5.328-9,5.428-8.926,1.011.444.575,1.951-3.834,8.132-3.834,8.132Z" transform="translate(-927.055 -820.551)" fill="#f7a594"/>
        <path id="Trazado_609010" data-name="Trazado 609010" d="M1034.384,984.33a29.852,29.852,0,0,1,4.233-3.268,28.963,28.963,0,0,1,4.938-.415s.213,1.184-1.388,1.331a7.006,7.006,0,0,0-2.753.853l-2.623,4.324Z" transform="translate(-930.714 -882.364)" fill="#f7a594"/>
        <path id="Trazado_609011" data-name="Trazado 609011" d="M1057.434,1014.834s.925-3.142,2.968-3.324c1.957-.174,4.189,1.823,4.189,1.823s-.049.7-1.412.449a3.558,3.558,0,0,1-1.714-.6l-1.392.411-1.1,3.2Z" transform="translate(-951.454 -910.124)" fill="#f7a594"/>
        <path id="Trazado_609012" data-name="Trazado 609012" d="M736.669,1070.944c-.894-.474-1.794-.947-2.714-1.372l-15.131,28.161-4.731,6.466c-6.071,9.831,2.05,23.813,15.752,10.974a12.268,12.268,0,0,0,3.317-5.527l3.818-9.475,6.22-15.436,4.984-6.8a106.31,106.31,0,0,0-11.513-6.989" transform="translate(-640.686 -962.376)" fill="#fff"/>
        <path id="Trazado_609013" data-name="Trazado 609013" d="M885.6,1189.987l-.29-.214a30.621,30.621,0,0,0,2.719-4.792q.253-.517.508-1.03c1.05-2.025,1.968-3.934,2.89-6.008q.8-1.837,1.6-3.656c1.783-4.074,3.468-7.922,5.1-11.948l.017-.032c1.289-1.933,2.667-3.848,4-5.7.555-.771,1.128-1.568,1.682-2.347l.294.209c-.554.78-1.128,1.577-1.683,2.349-1.328,1.845-2.7,3.752-3.983,5.674-1.633,4.025-3.395,8.049-5.1,11.94q-.8,1.82-1.6,3.657c-.926,2.083-1.847,4-2.9,6.027-.169.338-.337.681-.506,1.025a30.874,30.874,0,0,1-2.753,4.848" transform="translate(-796.583 -1038.576)" fill="#d9f1ff"/>
      </g>
    </g>
    <g id="Grupo_1071234" data-name="Grupo 1071234" transform="translate(0 0.004)">
      <g id="Grupo_1071233" data-name="Grupo 1071233" transform="translate(0 0)" clip-path="url(#clip-path)">
        <path id="Trazado_609014" data-name="Trazado 609014" d="M1673.046,1517.067a24.545,24.545,0,0,1-3.391,4.653,28.854,28.854,0,0,1-3.485-11.388,20.793,20.793,0,0,1,5.5-16.23s7.914,11.208,1.373,22.965" transform="translate(-1499.108 -1344.358)" fill="#5fb38c"/>
        <path id="Trazado_609015" data-name="Trazado 609015" d="M1673.765,1662.778a24.541,24.541,0,0,1-3.391,4.653,28.853,28.853,0,0,1-3.485-11.388Z" transform="translate(-1499.828 -1490.069)" fill="#379168"/>
        <path id="Trazado_609016" data-name="Trazado 609016" d="M1678.629,1529.444c-.169-2.664-.175-5.414-.088-8.053l-2.386-2.974.083-.067,2.308,2.877c.078-2.252.224-4.419.394-6.378l-.04.032-2.4-3,.083-.067,2.369,2.953c.1-1.16.211-2.247.32-3.232,0-.011,0-.021,0-.031h0c.557-5.019,1.216-8.578,1.223-8.613l.105.02c-.007.035-.656,3.543-1.211,8.5l3.263-2.475.065.085-3.344,2.536c-.182,1.641-.365,3.56-.508,5.636l4.125-2.513.055.091-4.189,2.552a94.61,94.61,0,0,0-.12,12.107Z" transform="translate(-1508.166 -1352.267)" fill="#379168"/>
        <path id="Trazado_609017" data-name="Trazado 609017" d="M1699.427,1584.467a24.55,24.55,0,0,1-5.155,2.565,28.852,28.852,0,0,1,2.161-11.712,20.792,20.792,0,0,1,12.37-11.862s1.852,13.6-9.375,21.009" transform="translate(-1524.449 -1406.763)" fill="#74c9a2"/>
        <path id="Trazado_609018" data-name="Trazado 609018" d="M1699.427,1690.959a24.544,24.544,0,0,1-5.155,2.564,28.852,28.852,0,0,1,2.161-11.712Z" transform="translate(-1524.449 -1513.255)" fill="#379168"/>
        <path id="Trazado_609019" data-name="Trazado 609019" d="M1707.6,1576.641l-.018-.105-4.037.691c2.78-4.146,4.975-6.959,5-6.987l-.084-.066c-.022.028-2.249,2.882-5.058,7.078h0l-.017.026c-.552.824-1.15,1.737-1.775,2.72l-.74-3.713-.1.021.751,3.769.05-.01c-1.054,1.659-2.183,3.515-3.291,5.477l-.081.143c-1.3,2.3-2.558,4.745-3.637,7.186l.1.043a94.56,94.56,0,0,1,5.691-10.687l4.894-.332-.007-.107-4.819.327c1.085-1.776,2.133-3.395,3.051-4.767Z" transform="translate(-1524.716 -1412.805)" fill="#379168"/>
        <path id="Trazado_609020" data-name="Trazado 609020" d="M1575.608,1558.153s1.325-20.867-17-27.578c0,0-2.775,20.375,17,27.578" transform="translate(-1402.28 -1377.176)" fill="#74c9a2"/>
        <path id="Trazado_609021" data-name="Trazado 609021" d="M1582.373,1564.983c-1.262-2.856-2.74-5.714-4.255-8.406l.871-4.374-.123-.024-.843,4.231c-1.3-2.3-2.617-4.466-3.85-6.408l.059.012.878-4.41-.123-.024-.865,4.343c-.731-1.15-1.431-2.218-2.077-3.182l-.021-.031h0c-3.286-4.909-5.891-8.247-5.917-8.28l-.1.077c.026.033,2.593,3.323,5.846,8.174l-4.723-.808-.021.123,4.84.828c1.074,1.606,2.3,3.5,3.569,5.577l-5.638-.383-.009.125,5.726.389a110.639,110.639,0,0,1,6.658,12.5Z" transform="translate(-1409.059 -1384.244)" fill="#379168"/>
        <path id="Trazado_609022" data-name="Trazado 609022" d="M1639.153,1741.953l-1.846,14.8h-13.684l-1.612-12.919-.234-1.88Z" transform="translate(-1459.236 -1567.369)" fill="#e3733f"/>
        <path id="Trazado_609023" data-name="Trazado 609023" d="M1639.152,1741.953l-1.846,14.8h-7.06c4.446-1.979,7.164-6.8,6.665-9.571-.557-3.093-13.688-3.333-14.9-3.348l-.234-1.88Z" transform="translate(-1459.236 -1567.369)" fill="#db542e"/>
        <rect id="Rectángulo_377423" data-name="Rectángulo 377423" width="18.356" height="1.662" transform="translate(162.05 174.487)" fill="#e3733f"/>
        <path id="Trazado_609024" data-name="Trazado 609024" d="M1630.023,1879.046h-17.835l-.62-1.223h19.075Z" transform="translate(-1450.051 -1689.621)" fill="#db542e"/>
        <path id="Trazado_609025" data-name="Trazado 609025" d="M1989.423,1442.431l-13.7,43.124h-36.8v1.824h38.318c3.984-12.476,12.975-40.557,14.586-44.948Z" transform="translate(-1744.592 -1297.866)" fill="#33ace6"/>
        <path id="Trazado_609026" data-name="Trazado 609026" d="M2335.966,1442.431l-14.6,44.948h57.8l14.282-44.948Z" transform="translate(-2088.707 -1297.866)" fill="#2786b4"/>
        <path id="Trazado_609027" data-name="Trazado 609027" d="M2667.325,1605.2h-4.269l4.3-14.2h4.269Z" transform="translate(-2396.155 -1431.542)" fill="#fff"/>
        <path id="Trazado_609028" data-name="Trazado 609028" d="M2628.516,1644.8l1.292-4.269h14.2l-1.292,4.269Z" transform="translate(-2365.077 -1476.114)" fill="#fff"/>
        <path id="Trazado_609029" data-name="Trazado 609029" d="M1011.029,1442.431l13.7,43.124h36.8v1.824h-38.318c-3.984-12.476-12.975-40.557-14.586-44.948Z" transform="translate(-907.542 -1297.866)" fill="#33ace6"/>
        <path id="Trazado_609030" data-name="Trazado 609030" d="M492.306,1442.431l14.6,44.948h-57.8l-14.282-44.948Z" transform="translate(-391.246 -1297.866)" fill="#2786b4"/>
        <path id="Trazado_609031" data-name="Trazado 609031" d="M731.167,1605.2h4.269l-4.3-14.2h-4.269Z" transform="translate(-654.019 -1431.542)" fill="#fff"/>
        <path id="Trazado_609032" data-name="Trazado 609032" d="M707.82,1644.8l-1.293-4.269h-14.2l1.292,4.269Z" transform="translate(-622.941 -1476.114)" fill="#fff"/>
        <path id="Trazado_609033" data-name="Trazado 609033" d="M456.274,596.993H418.125a3.684,3.684,0,0,1-3.684-3.684V550.875a3.684,3.684,0,0,1,3.684-3.684h38.149a3.684,3.684,0,0,1,3.684,3.684v42.433a3.684,3.684,0,0,1-3.684,3.684" transform="translate(-372.904 -492.35)" fill="#b3e4ff"/>
        <rect id="Rectángulo_377424" data-name="Rectángulo 377424" width="12.343" height="13.476" transform="translate(48.242 61.476)" fill="#fff"/>
        <path id="Trazado_609034" data-name="Trazado 609034" d="M521.422,637.9a2.48,2.48,0,0,0,1.927-.944,2.417,2.417,0,0,0,.531-1.533,2.467,2.467,0,1,0-4.934,0,2.415,2.415,0,0,0,.531,1.533,2.489,2.489,0,0,0,1.946.944" transform="translate(-466.935 -569.513)" fill="#296acc"/>
        <path id="Trazado_609035" data-name="Trazado 609035" d="M508.723,693.206l0-2.083c-.711-2.595-8.383-2.49-8.728,0l0,2.083Z" transform="translate(-449.883 -620.14)" fill="#296acc"/>
        <path id="Trazado_609036" data-name="Trazado 609036" d="M650.728,617.387h-15.44a.658.658,0,0,1-.658-.658v-.379a.658.658,0,0,1,.658-.658h15.44a.658.658,0,0,1,.658.658v.379a.658.658,0,0,1-.658.658" transform="translate(-571.025 -553.986)" fill="#80b2ff"/>
        <path id="Trazado_609037" data-name="Trazado 609037" d="M650.728,662.819h-15.44a.658.658,0,0,1-.658-.658v-.379a.658.658,0,0,1,.658-.658h15.44a.658.658,0,0,1,.658.658v.379a.658.658,0,0,1-.658.658" transform="translate(-571.025 -594.865)" fill="#80b2ff"/>
        <path id="Trazado_609038" data-name="Trazado 609038" d="M650.728,712.873h-15.44a.658.658,0,0,1-.658-.658v-.379a.658.658,0,0,1,.658-.658h15.44a.658.658,0,0,1,.658.658v.379a.658.658,0,0,1-.658.658" transform="translate(-571.025 -639.903)" fill="#80b2ff"/>
        <path id="Trazado_609039" data-name="Trazado 609039" d="M493.922,797.636h-14.8a.46.46,0,0,1-.46-.46V796.4a.46.46,0,0,1,.46-.46h14.8a.46.46,0,0,1,.46.46v.774a.46.46,0,0,1-.46.46" transform="translate(-430.692 -716.17)" fill="#80b2ff"/>
        <path id="Trazado_609040" data-name="Trazado 609040" d="M493.922,850.528h-14.8a.46.46,0,0,1-.46-.46v-.774a.46.46,0,0,1,.46-.46h14.8a.46.46,0,0,1,.46.46v.774a.46.46,0,0,1-.46.46" transform="translate(-430.692 -763.761)" fill="#80b2ff"/>
        <path id="Trazado_609041" data-name="Trazado 609041" d="M493.922,903.42h-14.8a.46.46,0,0,1-.46-.46v-.775a.46.46,0,0,1,.46-.46h14.8a.46.46,0,0,1,.46.46v.775a.46.46,0,0,1-.46.46" transform="translate(-430.692 -811.352)" fill="#80b2ff"/>
        <path id="Trazado_609042" data-name="Trazado 609042" d="M493.922,956.312h-14.8a.46.46,0,0,1-.46-.46v-.774a.46.46,0,0,1,.46-.46h14.8a.46.46,0,0,1,.46.46v.774a.46.46,0,0,1-.46.46" transform="translate(-430.692 -858.943)" fill="#80b2ff"/>
        <rect id="Rectángulo_377425" data-name="Rectángulo 377425" width="14.34" height="18.518" transform="translate(66.614 79.224)" fill="#fff"/>
        <path id="Trazado_609043" data-name="Trazado 609043" d="M1384.194,468.9h38.158a2.556,2.556,0,0,0,2.556-2.556V449.979a2.556,2.556,0,0,0-2.556-2.556h-38.158a2.556,2.556,0,0,0-2.556,2.556v16.366a2.556,2.556,0,0,0,2.556,2.556" transform="translate(-1243.165 -402.581)" fill="#80b2ff"/>
        <path id="Trazado_609044" data-name="Trazado 609044" d="M1452.9,625.422v9.69l9.876-9.876Z" transform="translate(-1307.284 -562.573)" fill="#80b2ff"/>
        <path id="Trazado_609045" data-name="Trazado 609045" d="M1711.972,539.641a1.886,1.886,0,1,0,1.885-1.885,1.886,1.886,0,0,0-1.885,1.885" transform="translate(-1540.392 -483.86)" fill="#fff"/>
        <path id="Trazado_609046" data-name="Trazado 609046" d="M1648.892,539.641a1.886,1.886,0,1,0,1.885-1.885,1.885,1.885,0,0,0-1.885,1.885" transform="translate(-1483.634 -483.86)" fill="#fff"/>
        <path id="Trazado_609047" data-name="Trazado 609047" d="M1585.812,539.641a1.886,1.886,0,1,0,1.885-1.885,1.886,1.886,0,0,0-1.885,1.885" transform="translate(-1426.876 -483.86)" fill="#fff"/>
        <path id="Trazado_609048" data-name="Trazado 609048" d="M1522.732,539.641a1.886,1.886,0,1,0,1.885-1.885,1.885,1.885,0,0,0-1.885,1.885" transform="translate(-1370.119 -483.86)" fill="#fff"/>
        <path id="Trazado_609049" data-name="Trazado 609049" d="M1459.653,539.641a1.886,1.886,0,1,0,1.885-1.885,1.885,1.885,0,0,0-1.885,1.885" transform="translate(-1313.362 -483.86)" fill="#fff"/>
        <path id="Trazado_609050" data-name="Trazado 609050" d="M1044.088,308.157h-25.7a1.721,1.721,0,0,1-1.721-1.721V295.414a1.721,1.721,0,0,1,1.721-1.721h25.7a1.721,1.721,0,0,1,1.721,1.721v11.021a1.721,1.721,0,0,1-1.721,1.721" transform="translate(-914.776 -264.258)" fill="#80b2ff"/>
        <path id="Trazado_609051" data-name="Trazado 609051" d="M1199.713,413.562v6.525l-6.651-6.651Z" transform="translate(-1073.49 -372.001)" fill="#80b2ff"/>
        <path id="Trazado_609052" data-name="Trazado 609052" d="M1062.156,355.795a1.27,1.27,0,1,1-1.27-1.27,1.27,1.27,0,0,1,1.27,1.27" transform="translate(-953.418 -318.994)" fill="#fff"/>
        <path id="Trazado_609053" data-name="Trazado 609053" d="M1104.635,355.795a1.27,1.27,0,1,1-1.27-1.27,1.27,1.27,0,0,1,1.27,1.27" transform="translate(-991.64 -318.994)" fill="#fff"/>
        <path id="Trazado_609054" data-name="Trazado 609054" d="M1147.116,355.795a1.27,1.27,0,1,1-1.27-1.27,1.27,1.27,0,0,1,1.27,1.27" transform="translate(-1029.863 -318.994)" fill="#fff"/>
        <path id="Trazado_609055" data-name="Trazado 609055" d="M1189.6,355.795a1.27,1.27,0,1,1-1.27-1.27,1.27,1.27,0,0,1,1.27,1.27" transform="translate(-1068.085 -318.994)" fill="#fff"/>
        <path id="Trazado_609056" data-name="Trazado 609056" d="M1232.076,355.795a1.27,1.27,0,1,1-1.27-1.27,1.27,1.27,0,0,1,1.27,1.27" transform="translate(-1106.308 -318.994)" fill="#fff"/>
        <path id="Trazado_609057" data-name="Trazado 609057" d="M2638.79,752.027h-15.771a4.126,4.126,0,0,0-4.121,4.121v15.771a4.127,4.127,0,0,0,4.121,4.123h15.771a4.127,4.127,0,0,0,4.121-4.123V756.148a4.126,4.126,0,0,0-4.121-4.121m0,23.184h-15.771a3.3,3.3,0,0,1-3.29-3.292V757.962h22.351v13.957a3.294,3.294,0,0,1-3.29,3.292" transform="translate(-2356.423 -676.657)" fill="#80b2ff"/>
        <rect id="Rectángulo_377426" data-name="Rectángulo 377426" width="3.275" height="3.158" transform="translate(268.68 84.09)" fill="#80b2ff"/>
        <rect id="Rectángulo_377427" data-name="Rectángulo 377427" width="3.275" height="3.158" transform="translate(272.976 84.09)" fill="#fff"/>
        <rect id="Rectángulo_377428" data-name="Rectángulo 377428" width="3.275" height="3.158" transform="translate(277.009 84.09)" fill="#fff"/>
        <rect id="Rectángulo_377429" data-name="Rectángulo 377429" width="3.275" height="3.158" transform="translate(281.306 84.09)" fill="#fff"/>
        <rect id="Rectángulo_377430" data-name="Rectángulo 377430" width="3.275" height="3.158" transform="translate(264.383 88.351)" fill="#fff"/>
        <rect id="Rectángulo_377431" data-name="Rectángulo 377431" width="3.275" height="3.158" transform="translate(268.68 88.351)" fill="#fff"/>
        <rect id="Rectángulo_377432" data-name="Rectángulo 377432" width="3.275" height="3.158" transform="translate(272.976 88.351)" fill="#fff"/>
        <rect id="Rectángulo_377433" data-name="Rectángulo 377433" width="3.275" height="3.158" transform="translate(277.009 88.351)" fill="#fff"/>
        <rect id="Rectángulo_377434" data-name="Rectángulo 377434" width="3.275" height="3.158" transform="translate(281.306 88.351)" fill="#fff"/>
        <rect id="Rectángulo_377435" data-name="Rectángulo 377435" width="3.275" height="3.158" transform="translate(264.383 92.611)" fill="#fff"/>
        <rect id="Rectángulo_377436" data-name="Rectángulo 377436" width="3.275" height="3.158" transform="translate(268.68 92.611)" fill="#fff"/>
        <rect id="Rectángulo_377437" data-name="Rectángulo 377437" width="3.275" height="3.158" transform="translate(272.976 92.611)" fill="#fff"/>
        <rect id="Rectángulo_377438" data-name="Rectángulo 377438" width="3.275" height="3.158" transform="translate(277.009 92.611)" fill="#fff"/>
        <path id="Trazado_609058" data-name="Trazado 609058" d="M1598.494,837.2a14.138,14.138,0,1,1-14.138-14.138,14.138,14.138,0,0,1,14.138,14.138" transform="translate(-1412.846 -740.571)" fill="#a6dfff"/>
        <path id="Trazado_609059" data-name="Trazado 609059" d="M1622.489,885.783l-.291.291-.038-.038-3.055,3.055,3.706,3.706,1.652-1.652a53.458,53.458,0,0,1,5.95,5.942l-1.657,1.657,3.706,3.706.612-.612a.432.432,0,0,1-.071.095l2.817-2.817c1.485-1.485-11.847-14.817-13.332-13.332" transform="translate(-1456.833 -796.903)" fill="#fff"/>
        <path id="Trazado_609060" data-name="Trazado 609060" d="M2465.245,559.093a7.59,7.59,0,1,1-7.59-7.59,7.59,7.59,0,0,1,7.59,7.59" transform="translate(-2204.511 -496.23)" fill="#a6dfff"/>
        <path id="Trazado_609061" data-name="Trazado 609061" d="M2522.035,580.508h-5.572v-6.833h1.053v5.78h4.519Z" transform="translate(-2264.255 -516.179)" fill="#fff"/>
        <path id="Trazado_609062" data-name="Trazado 609062" d="M2055.81,288.768a7.19,7.19,0,1,1-7.189-7.189,7.189,7.189,0,0,1,7.189,7.189" transform="translate(-1836.832 -253.359)" fill="#a6dfff"/>
        <path id="Trazado_609063" data-name="Trazado 609063" d="M2090.624,322.832v-.194a2.364,2.364,0,0,1,1.029-1.854,1.326,1.326,0,0,0,.55-1.039.654.654,0,0,0-.713-.7c-.581,0-.774.4-.825.886h-1.436a2.069,2.069,0,0,1,2.282-2.007,1.885,1.885,0,0,1,2.159,1.874,2.192,2.192,0,0,1-.937,1.762,1.477,1.477,0,0,0-.58,1.161v.112Zm0,.519h1.528v1.691h-1.528Z" transform="translate(-1879.838 -286.06)" fill="#fff"/>
      </g>
    </g>
  </g>
</svg>
