<svg id="Grupo_1071241" data-name="Grupo 1071241" xmlns="http://www.w3.org/2000/svg" xmlns:xlink="http://www.w3.org/1999/xlink" width="295" height="193.907" viewBox="0 0 295 193.907">
  <defs>
    <clipPath id="clip-path">
      <rect id="Rectángulo_377373" data-name="Rectángulo 377373" width="295" height="193.907" fill="none"/>
    </clipPath>
    <clipPath id="clip-path-2">
      <path id="Trazado_608566" data-name="Trazado 608566" d="M146.867,0a52.7,52.7,0,0,0-5.617.314,59.348,59.348,0,0,0-38.045,19.63C93.653,30.829,87.4,43.918,80.551,56.521S65.884,81.7,54.174,90.458C43.01,98.809,28.474,103.59,20.4,114.712,12.08,126.164-5.624,168.854,1.762,180.868s34.678,5.309,48.435,9.976c7.812,2.65,17.295.506,26.7-1.638,7.155-1.632,14.263-3.263,20.554-2.783,47.246,3.613,96.007,3.879,140.546-11.587,16.025-5.567,32.292-14.045,39.889-28.611,7.56-14.494,16.173-33.7,7.852-47.809s-32.9-23.75-46.438-33.51S211.456,46.156,199.61,34.56c-8.343-8.169-15.424-17.586-24.8-24.66C166.752,3.832,158.065.008,146.95,0Z" transform="translate(0)" fill="none"/>
    </clipPath>
  </defs>
  <g id="Grupo_1071221" data-name="Grupo 1071221">
    <g id="Grupo_1071220" data-name="Grupo 1071220" clip-path="url(#clip-path)">
      <path id="Trazado_608502" data-name="Trazado 608502" d="M161.016.314a59.348,59.348,0,0,0-38.045,19.63c-9.552,10.885-15.809,23.974-22.654,36.577S85.65,81.7,73.939,90.458c-11.164,8.351-25.7,13.132-33.776,24.254-8.317,11.452-7.408,27.553-.021,39.568S60.436,174.527,74.193,179.2s28.463,6.113,43.02,7.23c47.246,3.613,96.007,3.879,140.546-11.587,16.025-5.567,32.292-14.045,39.889-28.611,7.56-14.494,4.751-32.427-3.571-46.54S272.6,74.67,259.062,64.91s-27.841-18.75-39.686-30.345c-8.343-8.169-15.424-17.586-24.8-24.66S174.951-1.192,161.016.314" transform="translate(-19.766 0)" fill="#e4efed"/>
      <path id="Trazado_608503" data-name="Trazado 608503" d="M472.765,299.2a125.733,125.733,0,0,1,18.521-65.328c11.9-19.156,29.119-34.339,50.351-42.106,2.352,23.606-3.516,48.076-16.173,67.417a100.2,100.2,0,0,1-52.7,40.016" transform="translate(-272.761 -110.637)" fill="#70a8c4"/>
      <path id="Trazado_608504" data-name="Trazado 608504" d="M545.442,206.643A353.417,353.417,0,0,0,486,303.957" transform="translate(-280.394 -119.222)" fill="none" stroke="#eaf8f9" stroke-linecap="round" stroke-miterlimit="10" stroke-width="1"/>
      <path id="Trazado_608505" data-name="Trazado 608505" d="M595.8,228.285a38.589,38.589,0,0,1-.36-11.012" transform="translate(-343.405 -125.355)" fill="none" stroke="#eaf8f9" stroke-linecap="round" stroke-miterlimit="10" stroke-width="1"/>
      <path id="Trazado_608506" data-name="Trazado 608506" d="M581.165,264.393a70.228,70.228,0,0,0,18.411.322" transform="translate(-335.302 -152.541)" fill="none" stroke="#eaf8f9" stroke-linecap="round" stroke-miterlimit="10" stroke-width="1"/>
      <path id="Trazado_608507" data-name="Trazado 608507" d="M542.785,286.333a71.2,71.2,0,0,1-5.14-18.06" transform="translate(-310.194 -154.78)" fill="none" stroke="#eaf8f9" stroke-linecap="round" stroke-miterlimit="10" stroke-width="1"/>
      <path id="Trazado_608508" data-name="Trazado 608508" d="M536.985,334.173a115.514,115.514,0,0,0,24.981,2.982" transform="translate(-309.813 -192.801)" fill="none" stroke="#eaf8f9" stroke-linecap="round" stroke-miterlimit="10" stroke-width="1"/>
      <path id="Trazado_608509" data-name="Trazado 608509" d="M505.845,351.268a64.009,64.009,0,0,1-6.79-16.025" transform="translate(-287.929 -193.418)" fill="none" stroke="#eaf8f9" stroke-linecap="round" stroke-miterlimit="10" stroke-width="1"/>
      <path id="Trazado_608510" data-name="Trazado 608510" d="M479.055,394.307a72.493,72.493,0,0,1,39.225-34.462,67.986,67.986,0,0,1,53.11,2.8c-23.636,23.225-58.411,34.568-92.335,31.665" transform="translate(-276.39 -205.244)" fill="#82ced8"/>
      <path id="Trazado_608511" data-name="Trazado 608511" d="M569.983,375.723a189.274,189.274,0,0,0-80.528,27.439" transform="translate(-282.39 -216.773)" fill="none" stroke="#eaf8f9" stroke-linecap="round" stroke-miterlimit="10" stroke-width="1"/>
      <path id="Trazado_608512" data-name="Trazado 608512" d="M637.445,371.03a40.087,40.087,0,0,1,4.675-7.907" transform="translate(-367.773 -209.503)" fill="none" stroke="#eaf8f9" stroke-linecap="round" stroke-miterlimit="10" stroke-width="1"/>
      <path id="Trazado_608513" data-name="Trazado 608513" d="M620.925,386.183a37.313,37.313,0,0,0,10.661,8.013" transform="translate(-358.242 -222.808)" fill="none" stroke="#eaf8f9" stroke-linecap="round" stroke-miterlimit="10" stroke-width="1"/>
      <path id="Trazado_608514" data-name="Trazado 608514" d="M586.485,376.853a34.983,34.983,0,0,1,3.08-13.83" transform="translate(-338.372 -209.446)" fill="none" stroke="#eaf8f9" stroke-linecap="round" stroke-miterlimit="10" stroke-width="1"/>
      <path id="Trazado_608515" data-name="Trazado 608515" d="M567.165,402.783a41.041,41.041,0,0,0,9.476,12.683" transform="translate(-327.225 -232.385)" fill="none" stroke="#eaf8f9" stroke-linecap="round" stroke-miterlimit="10" stroke-width="1"/>
      <path id="Trazado_608516" data-name="Trazado 608516" d="M539.468,398.458a39.51,39.51,0,0,1,.211-10.965" transform="translate(-311.081 -223.564)" fill="none" stroke="#eaf8f9" stroke-linecap="round" stroke-miterlimit="10" stroke-width="1"/>
      <path id="Trazado_608517" data-name="Trazado 608517" d="M519.775,423.743a26.154,26.154,0,0,0,11.164,5.825" transform="translate(-299.884 -244.478)" fill="none" stroke="#eaf8f9" stroke-linecap="round" stroke-miterlimit="10" stroke-width="1"/>
      <path id="Trazado_608518" data-name="Trazado 608518" d="M241.979,265.1c1.629-23.615,3.228-47.614-2.039-70.717s-18.458-45.613-40.85-56.2c-9.108,23.255-14.722,48.744-9.189,73.04s24.279,46.9,52.078,53.876" transform="translate(-108.297 -79.725)" fill="#82ced8"/>
      <path id="Trazado_608519" data-name="Trazado 608519" d="M223.615,156.673q6.276,23.657,12.548,47.318c6.189,23.352,12.442,46.87,23.006,68.6" transform="translate(-129.014 -90.392)" fill="none" stroke="#eaf8f9" stroke-linecap="round" stroke-miterlimit="10" stroke-width="1"/>
      <path id="Trazado_608520" data-name="Trazado 608520" d="M246.811,177.283a85.871,85.871,0,0,1-7.556,16.122" transform="translate(-138.038 -102.283)" fill="none" stroke="#eaf8f9" stroke-linecap="round" stroke-miterlimit="10" stroke-width="1"/>
      <path id="Trazado_608521" data-name="Trazado 608521" d="M215.5,239.073a119.579,119.579,0,0,1-21.935.918" transform="translate(-111.677 -137.933)" fill="none" stroke="#eaf8f9" stroke-linecap="round" stroke-miterlimit="10" stroke-width="1"/>
      <path id="Trazado_608522" data-name="Trazado 608522" d="M261.845,271.861a81.307,81.307,0,0,0,17.569-19.668" transform="translate(-151.071 -145.502)" fill="none" stroke="#eaf8f9" stroke-linecap="round" stroke-miterlimit="10" stroke-width="1"/>
      <path id="Trazado_608523" data-name="Trazado 608523" d="M239.491,332.053a50.105,50.105,0,0,1-22.676,1.007" transform="translate(-125.091 -191.578)" fill="none" stroke="#eaf8f9" stroke-linecap="round" stroke-miterlimit="10" stroke-width="1"/>
      <path id="Trazado_608524" data-name="Trazado 608524" d="M288.135,364.893a53.5,53.5,0,0,0,11.27-15.42" transform="translate(-166.239 -201.628)" fill="none" stroke="#eaf8f9" stroke-linecap="round" stroke-miterlimit="10" stroke-width="1"/>
      <path id="Trazado_608525" data-name="Trazado 608525" d="M137.873,357.743c-24-38.468-69.689-62.32-114.968-60.018a80.84,80.84,0,0,0,40.435,54.07c20.493,10.957,45.876,12.319,74.533,5.948" transform="translate(-13.215 -171.684)" fill="#70a8c4"/>
      <path id="Trazado_608526" data-name="Trazado 608526" d="M40.815,309.373c9.976,10.06,20.07,20.222,32.105,27.693,12.8,7.949,27.346,12.573,41.8,16.837q14.3,4.22,28.713,8.068" transform="translate(-23.548 -178.492)" fill="none" stroke="#eaf8f9" stroke-linecap="round" stroke-miterlimit="10" stroke-width="1"/>
      <path id="Trazado_608527" data-name="Trazado 608527" d="M81.4,324.134a70.156,70.156,0,0,0,1.7-17.751" transform="translate(-46.967 -176.767)" fill="none" stroke="#eaf8f9" stroke-linecap="round" stroke-miterlimit="10" stroke-width="1"/>
      <path id="Trazado_608528" data-name="Trazado 608528" d="M56.5,337.673a44.3,44.3,0,0,1-9.409,3.875" transform="translate(-27.171 -194.82)" fill="none" stroke="#eaf8f9" stroke-linecap="round" stroke-miterlimit="10" stroke-width="1"/>
      <path id="Trazado_608529" data-name="Trazado 608529" d="M92.975,391.264a53.517,53.517,0,0,0,14.587-9.861" transform="translate(-53.642 -220.05)" fill="none" stroke="#eaf8f9" stroke-linecap="round" stroke-miterlimit="10" stroke-width="1"/>
      <path id="Trazado_608530" data-name="Trazado 608530" d="M154.235,358.592a141.412,141.412,0,0,0,1.709-25.819" transform="translate(-88.986 -191.993)" fill="none" stroke="#eaf8f9" stroke-linecap="round" stroke-miterlimit="10" stroke-width="1"/>
      <path id="Trazado_608531" data-name="Trazado 608531" d="M233.781,378.073a68.94,68.94,0,0,1-1.756,17.447" transform="translate(-133.867 -218.129)" fill="none" stroke="#eaf8f9" stroke-linecap="round" stroke-miterlimit="10" stroke-width="1"/>
      <path id="Trazado_608532" data-name="Trazado 608532" d="M206.2,416.923a29.761,29.761,0,0,1-11.63,10.166" transform="translate(-112.26 -240.543)" fill="none" stroke="#eaf8f9" stroke-linecap="round" stroke-miterlimit="10" stroke-width="1"/>
    </g>
  </g>
  <g id="Grupo_1071223" data-name="Grupo 1071223" transform="translate(0)">
    <g id="Grupo_1071222" data-name="Grupo 1071222" clip-path="url(#clip-path-2)">
      <path id="Trazado_608533" data-name="Trazado 608533" d="M169.349,296.678s-.986,2.086-2.538,5.343c-3.088,6.49-8.414,17.62-12.632,26.157-2.779,5.639-5.077,10.145-5.927,11.444-2.771,4.243-72.739.317-72.739.317l-.567-14.054s50.415-4.9,51.781-5.83c.423-.288,2.141-4.324,4.3-9.747,2.255-5.648,4.988-12.806,7.264-18.821,2.585-6.828,4.569-12.184,4.569-12.184Z" transform="translate(-43.239 -161.144)" fill="#e8aa80"/>
      <path id="Trazado_608534" data-name="Trazado 608534" d="M243.3,318.631c-3.088,6.49-8.414,17.62-12.632,26.157l-23.149-17.874c2.255-5.648,4.988-12.806,7.264-18.822Z" transform="translate(-119.726 -177.754)" fill="#d68163"/>
      <path id="Trazado_608535" data-name="Trazado 608535" d="M246.753,237.614l-9.878-21.521s-9.963,4.167-14.9,11.1S203.8,270.548,203.8,270.548l31.276,14.3Z" transform="translate(-117.585 -124.675)" fill="#32b38e"/>
      <path id="Trazado_608536" data-name="Trazado 608536" d="M51.124,388.56c-6.223,7.264-14.282,8.22-19.947,8.118-3.016-.055-5.462-1.722-2.424-4.59a14.855,14.855,0,0,1-5.115-.884,9.1,9.1,0,0,1-5.115-4.531c-.7-1.777.008-3.769.787-5.512a70.518,70.518,0,0,1,5.081-9.409c1.273-1.98,2.86-4.044,5.157-4.552,2.17-.478,4.353.563,6.329,1.578,4.006,2.052,15.09,7.733,16.156,8.711.884.808-3.033,8.1-.91,11.071" transform="translate(-10.521 -211.786)" fill="#e8aa80"/>
      <path id="Trazado_608537" data-name="Trazado 608537" d="M44.525,417.073a37.806,37.806,0,0,0,6.2-5.83" transform="translate(-25.689 -237.266)" fill="none" stroke="#cf5953" stroke-linecap="round" stroke-miterlimit="10" stroke-width="2"/>
      <path id="Trazado_608538" data-name="Trazado 608538" d="M48.636,408.311q-1.7-2.957-3.4-5.918" transform="translate(-26.098 -232.16)" fill="none" stroke="#cf5953" stroke-linecap="round" stroke-miterlimit="10" stroke-width="2"/>
      <path id="Trazado_608539" data-name="Trazado 608539" d="M44.175,411.806a7.1,7.1,0,0,0-4.37.406" transform="translate(-22.966 -237.491)" fill="none" stroke="#cf5953" stroke-linecap="round" stroke-miterlimit="10" stroke-width="2"/>
      <path id="Trazado_608540" data-name="Trazado 608540" d="M348.52,175.655s-14.092,18.018-27.037,18.462c-11.828.406-25.717-19.075-25.717-19.075s8.161-.186,10.953-2.581c.91-.783,1.671-3.334,2.285-6.418.537-2.7.96-5.817,1.269-8.512.419-3.693.63-6.608.63-6.608l20.057-2.581s.448,6.164,1.028,12.2c.292,3.016.618,6.007.943,8.173a17.208,17.208,0,0,0,.613,2.991c1.087,2.8,14.976,3.947,14.976,3.947" transform="translate(-170.641 -85.586)" fill="#e8aa80"/>
      <path id="Trazado_608541" data-name="Trazado 608541" d="M352.7,168.727c-12.239,2.28-19.663-6.528-22.659-11.185.419-3.693.63-6.608.63-6.608l20.057-2.581s.448,6.164,1.028,12.2c.3,3.021.622,6.007.943,8.173" transform="translate(-190.419 -85.592)" fill="#d68163"/>
      <path id="Trazado_608542" data-name="Trazado 608542" d="M411.67,117.957c4.216-.864,8.221,1.3,8.946,4.838s-2.106,7.1-6.321,7.968-8.222-1.3-8.946-4.838,2.105-7.1,6.321-7.968" transform="translate(-233.8 -67.945)" fill="#d68163"/>
      <path id="Trazado_608543" data-name="Trazado 608543" d="M309.421,76.735c.711-15.674,10.8-28.412,24.139-28.412S357.7,61.044,357.7,76.735s-10.043,29.042-20.082,30.18c-13.25,1.5-28.937-13.851-28.2-30.18" transform="translate(-178.505 -27.88)" fill="#e8aa80"/>
      <path id="Trazado_608544" data-name="Trazado 608544" d="M314.75,86.595c1.354-3.389,4.628-13.288,7.429-17.641,0,0,12.044,3.752,17.785,3.224,7.141-.656,7.006-4.446,5.665-6.278l7.585,3.638,4.924,13.753L356.188,63.1l-37.36-7.01-7.763,18.855" transform="translate(-179.469 -32.363)" fill="#d68163"/>
      <path id="Trazado_608545" data-name="Trazado 608545" d="M335.495,111.943a8.487,8.487,0,0,1,9.777-1.658" transform="translate(-193.563 -63.122)" fill="none" stroke="#08183d" stroke-linecap="round" stroke-miterlimit="10" stroke-width="3"/>
      <path id="Trazado_608546" data-name="Trazado 608546" d="M400.608,111.842a8.492,8.492,0,0,0-9.823-1.362" transform="translate(-225.463 -63.168)" fill="none" stroke="#08183d" stroke-linecap="round" stroke-miterlimit="10" stroke-width="3"/>
      <path id="Trazado_608547" data-name="Trazado 608547" d="M375.83,134.263a15.767,15.767,0,0,1-.575,6.714" transform="translate(-216.503 -77.463)" fill="none" stroke="#cf5953" stroke-linecap="round" stroke-miterlimit="10" stroke-width="3"/>
      <path id="Trazado_608548" data-name="Trazado 608548" d="M356.245,155.4c1.68,1.878,5.766,3.16,8.042,2.961" transform="translate(-205.535 -89.66)" fill="none" stroke="#cf5953" stroke-linecap="round" stroke-miterlimit="10" stroke-width="3"/>
      <path id="Trazado_608549" data-name="Trazado 608549" d="M351.381,58.559c-.448,6.447-1.819,13.753-1.819,13.753-.668-7.835-1.307-14.2-3.262-19.964l-14.938-6.32s8.262,6.232,2.555,7.894c-5.851,1.7-20.992-3.748-20.992-3.748-2.018,3.532-5.424,17-6.291,23.234-.448,3.215-7.492-3.4-7.374-.871,0,0-8.338-22.4,3.338-35.562.03-.03.059-.068.089-.1,5.686-6.35,13.588-8.588,23.361-8.186,15.966,0,23.42,11.046,25.062,22.443a35.664,35.664,0,0,1,.271,7.425" transform="translate(-170.994 -16.527)" fill="#08183d"/>
      <path id="Trazado_608550" data-name="Trazado 608550" d="M359.707,51.14a34.689,34.689,0,0,0-33.463-19.088,33.769,33.769,0,0,0-14.959,4.835c5.686-6.35,13.588-8.588,23.361-8.186,15.966,0,23.416,11.042,25.062,22.439" transform="translate(-179.596 -16.533)" fill="#1a3866"/>
      <path id="Trazado_608551" data-name="Trazado 608551" d="M298.828,121.133c4.3,0,7.793,2.926,7.793,6.536s-3.489,6.536-7.793,6.536-7.793-2.926-7.793-6.536,3.489-6.536,7.793-6.536" transform="translate(-167.912 -69.888)" fill="#e8aa80"/>
      <path id="Trazado_608552" data-name="Trazado 608552" d="M341.255,132.013a7.178,7.178,0,0,0,7.64.03" transform="translate(-196.887 -76.165)" fill="none" stroke="#2a334f" stroke-linecap="round" stroke-miterlimit="10" stroke-width="2"/>
      <path id="Trazado_608553" data-name="Trazado 608553" d="M390.8,130.824a6.647,6.647,0,0,0,7.56-.571" transform="translate(-225.469 -75.149)" fill="none" stroke="#2a334f" stroke-linecap="round" stroke-miterlimit="10" stroke-width="2"/>
      <path id="Trazado_608554" data-name="Trazado 608554" d="M512.963,304.837s-49.928,38.933-61.118,40.308c-3.879.478-9.861-8.9-15.145-19.2a143.189,143.189,0,0,1-8-19.245l18.5-26.3,1.844-2.619s.173.487.482,1.345c1.713,4.768,7.615,21.021,11.219,29.233,1.29,2.94,2.289,4.844,2.695,4.831,1.756-.059,39.961-15.7,39.961-15.7Z" transform="translate(-247.335 -160.267)" fill="#e8aa80"/>
      <path id="Trazado_608555" data-name="Trazado 608555" d="M460.741,310.186,436.7,327.772a143.188,143.188,0,0,1-8-19.245l18.5-26.3,2.323-1.278c1.718,4.768,7.615,21.021,11.224,29.233" transform="translate(-247.335 -162.095)" fill="#d68163"/>
      <path id="Trazado_608556" data-name="Trazado 608556" d="M399.735,233.119l8.774-20.856s11.067,3.507,16,10.441,20.827,45.123,20.827,45.123l-31.581,14.819Z" transform="translate(-230.627 -122.465)" fill="#32b38e"/>
      <path id="Trazado_608557" data-name="Trazado 608557" d="M588.495,293.114s5.643-16.846,7.183-19.27c1.443-2.276,14.481-11.888,17.244-10.293,2.707,1.565-7.763,9.2-7.763,9.2s13.677-7.357,15.484-4.742c2.077,3.012-13.263,10.255-13.263,10.255s15.517-4.082,15.517-2.208c0,2.3-12.886,6.409-12.886,6.409s13.191-1.641,12.895.377c-.415,2.818-13.258,4.235-13.258,4.235s-1.73,11.9-9.493,13Z" transform="translate(-339.531 -151.953)" fill="#e8aa80"/>
      <path id="Trazado_608558" data-name="Trazado 608558" d="M601.295,293.737a76.864,76.864,0,0,1,9.671-9.32,5.059,5.059,0,0,1,1.574-.969,1.6,1.6,0,0,1,2.2,1.861,4.938,4.938,0,0,1-.63,1.578c-1.214,2.225-2.576,4.37-4.027,6.646a10.977,10.977,0,0,1-.973,9.891" transform="translate(-346.916 -163.474)" fill="#e8aa80"/>
      <path id="Trazado_608559" data-name="Trazado 608559" d="M601.295,293.737a76.864,76.864,0,0,1,9.671-9.32,5.059,5.059,0,0,1,1.574-.969,1.6,1.6,0,0,1,2.2,1.861,4.938,4.938,0,0,1-.63,1.578c-1.214,2.225-2.576,4.37-4.027,6.646a10.977,10.977,0,0,1-.973,9.891" transform="translate(-346.916 -163.474)" fill="none" stroke="#cf5953" stroke-linecap="round" stroke-miterlimit="10" stroke-width="2"/>
      <path id="Trazado_608560" data-name="Trazado 608560" d="M338.989,276.493c-1.4,17.844-3.164,32.5-3.164,32.5l-71.661.224s-.863-6.6-1.963-16.275c-2.775-24.317-7.086-68.073-3.131-75.57,5.237-9.925,22.164-11.063,22.164-11.063s17.1,18.754,17.916,18.4c1.849-.8,14.371-19.532,14.371-19.532s20.2,2.437,24.3,10.4c4.26,8.25,3.021,37.351,1.163,60.911" transform="translate(-148.55 -118.38)" fill="#3dc6a6"/>
      <path id="Trazado_608561" data-name="Trazado 608561" d="M345.433,373.743c-1.4,17.844-3.164,32.5-3.164,32.5l-71.661.224s-.863-6.6-1.963-16.275c38.02,12.1,66.241-7.348,76.788-16.452" transform="translate(-154.994 -215.631)" fill="#32b38e"/>
      <path id="Trazado_608562" data-name="Trazado 608562" d="M357.415,245.859a39.827,39.827,0,0,1,25.1,4.1c-.44-1.548-1.214-3.871-1.654-5.419a3.163,3.163,0,0,0-.618-1.333,3.089,3.089,0,0,0-2.035-.74,43.526,43.526,0,0,0-20.8,3.393" transform="translate(-206.21 -139.786)" fill="#32b38e"/>
      <path id="Trazado_608563" data-name="Trazado 608563" d="M319.588,246.157a25.739,25.739,0,0,0-23.255-.1,22.023,22.023,0,0,0-1.248,5.542,45.129,45.129,0,0,1,24.5-5.44" transform="translate(-170.249 -140.389)" fill="#32b38e"/>
      <path id="Trazado_608564" data-name="Trazado 608564" d="M355.845,222.084A50.179,50.179,0,0,0,368.2,200.72s6.5-1.163,8.808,3.355c.969,1.9,5.25,19.291,5.25,19.291-8.2-4.053-17.176-3.744-26.415-1.282" transform="translate(-205.304 -115.727)" fill="#e0fffd"/>
      <path id="Trazado_608565" data-name="Trazado 608565" d="M306.007,200.575s-6.083-1.6-8.482,3.452c-1.125,2.373-3.96,20.734-3.96,20.734,8.013-5.682,18.47-5.982,26.343-2.809-6.9-6.9-11.744-13.521-13.9-21.377" transform="translate(-169.372 -115.583)" fill="#e0fffd"/>
    </g>
  </g>
  <g id="Grupo_1071225" data-name="Grupo 1071225">
    <g id="Grupo_1071224" data-name="Grupo 1071224" clip-path="url(#clip-path)">
      <path id="Trazado_608567" data-name="Trazado 608567" d="M146.995,327.125c10.454-1.121,20.4-.461,31.6-.461a148.758,148.758,0,0,1,.212-24.9,209.369,209.369,0,0,0-24.541-5.72c-2.043,8.783-4.205,22.134-7.272,31.082" transform="translate(-84.809 -170.802)" fill="#a1a7bf"/>
      <path id="Trazado_608568" data-name="Trazado 608568" d="M202.489,439.753l-18.064-.237a15.783,15.783,0,0,1,.233-1.625,36.9,36.9,0,0,1,1.832-5.622l1.87-.846s2.433.914,8.055,2.555c3.909,1.138,5.377,2.7,5.9,3.913a2.747,2.747,0,0,1,.178,1.861" transform="translate(-106.404 -248.909)" fill="#3d43af"/>
      <path id="Trazado_608569" data-name="Trazado 608569" d="M202.489,448.574l-18.064-.237a15.781,15.781,0,0,1,.233-1.625h17.654a2.747,2.747,0,0,1,.178,1.861" transform="translate(-106.404 -257.731)" fill="#b8bfe6"/>
      <path id="Trazado_608570" data-name="Trazado 608570" d="M130.74,439.753l18.064-.237a15.779,15.779,0,0,0-.233-1.625,36.9,36.9,0,0,0-1.832-5.622l-1.87-.846s-2.433.914-8.055,2.555c-3.909,1.138-5.377,2.7-5.9,3.913a2.747,2.747,0,0,0-.178,1.861" transform="translate(-75.381 -248.909)" fill="#3d43af"/>
      <path id="Trazado_608571" data-name="Trazado 608571" d="M130.74,448.574l18.064-.237a15.777,15.777,0,0,0-.233-1.625H130.917a2.747,2.747,0,0,0-.178,1.861" transform="translate(-75.381 -257.731)" fill="#b8bfe6"/>
      <path id="Trazado_608572" data-name="Trazado 608572" d="M154.412,272.753l-2.517,69.118,7.979.085,7.632-50.787-.613,50.961,9.464-.216,4.692-67.747Z" transform="translate(-87.636 -157.365)" fill="#08183d"/>
      <path id="Trazado_608573" data-name="Trazado 608573" d="M210.925,214.357l1.121-7.234s3.114,1.316,4.273,3.266c1.743,2.932,6.054,17.844,6.054,17.844l13.5-.838,1.121,9.772s-15.653,5.339-18.424,4.167c-3.579-1.51-6.968-16.186-6.968-16.186Z" transform="translate(-121.693 -119.499)" fill="#e1e8f5"/>
      <path id="Trazado_608574" data-name="Trazado 608574" d="M275.375,245.938s3.071-3.49,3.617-2.851c.986,1.151-2.289,4.827-2.289,4.827Z" transform="translate(-158.877 -140.203)" fill="#d68163"/>
      <rect id="Rectángulo_377374" data-name="Rectángulo 377374" width="24.864" height="17.456" transform="translate(99.129 121.6) rotate(-84.243)" fill="#89512c"/>
      <rect id="Rectángulo_377375" data-name="Rectángulo 377375" width="21.348" height="14.816" transform="matrix(0.1, -0.995, 0.995, 0.1, 100.684, 119.34)" fill="#f2f6fc"/>
      <path id="Trazado_608575" data-name="Trazado 608575" d="M251.145,230.269l.647-1.625a1.312,1.312,0,0,1,1.354-.821l4.273.431a1.32,1.32,0,0,1,1.163,1.075l.309,1.722Z" transform="translate(-144.898 -131.439)" fill="#83a4de"/>
      <path id="Trazado_608576" data-name="Trazado 608576" d="M254.985,225.043l.393,1.176,4.235.427.622-1.075Z" transform="translate(-147.113 -129.838)" fill="#83a4de"/>
      <rect id="Rectángulo_377376" data-name="Rectángulo 377376" width="0.229" height="7.937" transform="translate(107.6 101.478) rotate(-84.259)" fill="#ced6f2"/>
      <rect id="Rectángulo_377377" data-name="Rectángulo 377377" width="0.229" height="7.937" transform="translate(107.508 102.378) rotate(-84.259)" fill="#ced6f2"/>
      <rect id="Rectángulo_377378" data-name="Rectángulo 377378" width="0.229" height="7.937" transform="translate(107.415 103.283) rotate(-84.259)" fill="#ced6f2"/>
      <rect id="Rectángulo_377379" data-name="Rectángulo 377379" width="0.229" height="7.937" transform="translate(107.328 104.183) rotate(-84.259)" fill="#ced6f2"/>
      <rect id="Rectángulo_377380" data-name="Rectángulo 377380" width="2.835" height="2.72" transform="translate(104.043 103.851) rotate(-84.243)" fill="none" stroke="#ced6f2" stroke-miterlimit="10" stroke-width="0.5"/>
      <rect id="Rectángulo_377381" data-name="Rectángulo 377381" width="0.229" height="9.54" transform="translate(105.583 105.518) rotate(-84.259)" fill="#ced6f2"/>
      <rect id="Rectángulo_377382" data-name="Rectángulo 377382" width="0.228" height="11.178" transform="translate(103.861 106.256) rotate(-84.259)" fill="#ced6f2"/>
      <rect id="Rectángulo_377383" data-name="Rectángulo 377383" width="0.228" height="11.178" transform="translate(103.768 107.16) rotate(-84.259)" fill="#ced6f2"/>
      <rect id="Rectángulo_377384" data-name="Rectángulo 377384" width="0.228" height="11.178" transform="translate(103.681 108.061) rotate(-84.259)" fill="#ced6f2"/>
      <rect id="Rectángulo_377385" data-name="Rectángulo 377385" width="0.229" height="9.54" transform="translate(104.672 113.63) rotate(-84.259)" fill="#ced6f2"/>
      <rect id="Rectángulo_377386" data-name="Rectángulo 377386" width="0.228" height="11.178" transform="translate(102.95 114.368) rotate(-84.259)" fill="#ced6f2"/>
      <rect id="Rectángulo_377387" data-name="Rectángulo 377387" width="0.228" height="11.178" transform="translate(102.862 115.273) rotate(-84.259)" fill="#ced6f2"/>
      <rect id="Rectángulo_377388" data-name="Rectángulo 377388" width="0.228" height="11.178" transform="translate(102.77 116.173) rotate(-84.259)" fill="#ced6f2"/>
      <rect id="Rectángulo_377389" data-name="Rectángulo 377389" width="0.229" height="7.937" transform="translate(106.757 109.842) rotate(-84.259)" fill="#ced6f2"/>
      <rect id="Rectángulo_377390" data-name="Rectángulo 377390" width="0.229" height="7.937" transform="translate(106.665 110.742) rotate(-84.259)" fill="#ced6f2"/>
      <rect id="Rectángulo_377391" data-name="Rectángulo 377391" width="0.229" height="7.937" transform="translate(106.572 111.646) rotate(-84.259)" fill="#ced6f2"/>
      <rect id="Rectángulo_377392" data-name="Rectángulo 377392" width="0.229" height="7.937" transform="translate(106.485 112.547) rotate(-84.259)" fill="#ced6f2"/>
      <rect id="Rectángulo_377393" data-name="Rectángulo 377393" width="2.835" height="2.72" transform="translate(103.204 112.216) rotate(-84.243)" fill="none" stroke="#ced6f2" stroke-miterlimit="10" stroke-width="0.5"/>
      <path id="Trazado_608577" data-name="Trazado 608577" d="M274.047,251.481a18.834,18.834,0,0,1,2.208-1.341,1.3,1.3,0,0,1,.732-.2.758.758,0,0,1,.622.558,1.214,1.214,0,0,1-.118.829c-.495,1.032-1.739,1.544-2.872,1.967-.533.2-1.235.36-1.6-.042a.8.8,0,0,1-.118-.808c.1-.271.364-.4,1.151-.96" transform="translate(-157.414 -144.198)" fill="#e8aa80"/>
      <path id="Trazado_608578" data-name="Trazado 608578" d="M274.047,255.7a18.83,18.83,0,0,1,2.208-1.341,1.3,1.3,0,0,1,.732-.2.758.758,0,0,1,.622.558,1.214,1.214,0,0,1-.118.829c-.495,1.032-1.739,1.544-2.872,1.967-.533.2-1.235.36-1.6-.042a.8.8,0,0,1-.118-.808c.1-.275.364-.406,1.151-.96" transform="translate(-157.414 -146.633)" fill="#e8aa80"/>
      <path id="Trazado_608579" data-name="Trazado 608579" d="M274.047,259.911a18.822,18.822,0,0,1,2.208-1.341,1.3,1.3,0,0,1,.732-.2.758.758,0,0,1,.622.558,1.214,1.214,0,0,1-.118.829c-.495,1.032-1.739,1.544-2.872,1.967-.533.2-1.235.36-1.6-.042a.8.8,0,0,1-.118-.808c.1-.275.364-.406,1.151-.96" transform="translate(-157.414 -149.062)" fill="#e8aa80"/>
      <path id="Trazado_608580" data-name="Trazado 608580" d="M274.047,264.131a18.821,18.821,0,0,1,2.208-1.341,1.3,1.3,0,0,1,.732-.2.758.758,0,0,1,.622.558,1.214,1.214,0,0,1-.118.829c-.495,1.032-1.739,1.544-2.872,1.967-.533.2-1.235.36-1.6-.042a.8.8,0,0,1-.118-.808c.1-.275.364-.406,1.151-.96" transform="translate(-157.414 -151.496)" fill="#e8aa80"/>
      <path id="Trazado_608581" data-name="Trazado 608581" d="M163.185,208.743l18.631.093,3.706,32.258-22.337-.652" transform="translate(-94.149 -120.434)" fill="#3d43af"/>
      <path id="Trazado_608582" data-name="Trazado 608582" d="M180.841,191.4s-7.183,7.095-7.987,7.133c-1.24.063-11.689-5.529-11.689-5.529a46.291,46.291,0,0,0,4.264-2.779c.668-.575,1.108-3.731,1.311-5.5.157-1.362.233-2.437.233-2.437l7.395-.952s.609,6.7.728,7.509a6.268,6.268,0,0,0,.228,1.1c.4,1.028,5.517,1.455,5.517,1.455" transform="translate(-92.984 -104.62)" fill="#e8aa80"/>
      <path id="Trazado_608583" data-name="Trazado 608583" d="M182.7,188.836c-4.51.842-7.247-2.407-8.351-4.125.157-1.362.233-2.437.233-2.437l7.395-.952s.165,2.272.381,4.5c.106,1.117.224,2.221.343,3.016" transform="translate(-100.588 -104.614)" fill="#d68163"/>
      <path id="Trazado_608584" data-name="Trazado 608584" d="M201.858,170.959a2.241,2.241,0,1,1-1.716,2.881,2.38,2.38,0,0,1,1.716-2.881" transform="translate(-115.417 -98.558)" fill="#d68163"/>
      <path id="Trazado_608585" data-name="Trazado 608585" d="M169.365,156.818c0-5.36,3.465-9.7,7.738-9.7s7.454,4.353,7.738,9.7c.275,5.161-1.371,10.026-6.244,10.344-5.2,0-9.231-4.988-9.231-10.344" transform="translate(-97.715 -84.877)" fill="#e8aa80"/>
      <path id="Trazado_608586" data-name="Trazado 608586" d="M174.045,163.254a10.315,10.315,0,0,0,2.272-4.992,2.222,2.222,0,0,0,1.282-1.282,10.322,10.322,0,0,0,8.8.609,10.828,10.828,0,0,1,1.121,4.624c.118-2.229.127-4.463.042-6.714-3.981-.6-7.979-1.083-12.091-1.4-.381,2.9-.757,5.8-1.421,9.151" transform="translate(-100.415 -88.91)" fill="#d68163"/>
      <path id="Trazado_608587" data-name="Trazado 608587" d="M183.426,148.99a1.562,1.562,0,0,1-.355.267,17.6,17.6,0,0,1-.728,7.086,20.964,20.964,0,0,0-.664-6.6c-2.031.829-7.3.52-9.772-1.4.017.474-.415,1.608-1.117,1.718a18.457,18.457,0,0,1-2.2,7.04c-.753-.279-1.51-.558-2.318-.943a23.319,23.319,0,0,1-1.058-4.7,7.857,7.857,0,0,1,.893-4.658,4.2,4.2,0,0,1,3.8-2.191,4.851,4.851,0,0,1,1.1-1.608,6.317,6.317,0,0,1,4.256-1.739,11.185,11.185,0,0,1,6.189,2.217,6.054,6.054,0,0,1,2.416,2.551,2.84,2.84,0,0,1-.448,2.97" transform="translate(-95.298 -81.495)" fill="#89512c"/>
      <path id="Trazado_608588" data-name="Trazado 608588" d="M191.376,149c.182-1.028-.842-3.579-2.729-4.721a15.319,15.319,0,0,0-5.707-1.87,8.135,8.135,0,0,0-3.985.6,6.317,6.317,0,0,1,4.256-1.739,11.185,11.185,0,0,1,6.189,2.217,6.053,6.053,0,0,1,2.416,2.551,2.809,2.809,0,0,1-.44,2.961" transform="translate(-103.248 -81.506)" fill="#a16337"/>
      <path id="Trazado_608589" data-name="Trazado 608589" d="M167.813,171.973a2.266,2.266,0,1,1-2.648,2.234,2.468,2.468,0,0,1,2.648-2.234" transform="translate(-95.292 -99.22)" fill="#e8aa80"/>
      <path id="Trazado_608590" data-name="Trazado 608590" d="M180.245,169.051a2.6,2.6,0,0,1,3.135-.567" transform="translate(-103.992 -97.034)" fill="none" stroke="#89512c" stroke-linecap="round" stroke-miterlimit="10" stroke-width="1"/>
      <path id="Trazado_608591" data-name="Trazado 608591" d="M200.114,168.31a1.692,1.692,0,0,0-2.479-.22" transform="translate(-114.025 -96.725)" fill="none" stroke="#89512c" stroke-linecap="round" stroke-miterlimit="10" stroke-width="1"/>
      <path id="Trazado_608592" data-name="Trazado 608592" d="M186.85,174.713a.626.626,0,1,1-.465.6.549.549,0,0,1,.465-.6" transform="translate(-107.535 -100.8)" fill="#2a334f"/>
      <path id="Trazado_608593" data-name="Trazado 608593" d="M199.93,173.563a.626.626,0,1,1-.465.6.549.549,0,0,1,.465-.6" transform="translate(-115.081 -100.137)" fill="#2a334f"/>
      <path id="Trazado_608594" data-name="Trazado 608594" d="M195.552,174.993a1.908,1.908,0,0,0,.6,1.663,2.454,2.454,0,0,1-.762.91" transform="translate(-112.733 -100.962)" fill="none" stroke="#cf5953" stroke-linecap="round" stroke-linejoin="round" stroke-width="1"/>
      <path id="Trazado_608595" data-name="Trazado 608595" d="M190.425,184.66a3.732,3.732,0,0,1-2.75-.867" transform="translate(-108.279 -106.039)" fill="none" stroke="#cf5953" stroke-linecap="round" stroke-linejoin="round" stroke-width="1"/>
      <path id="Trazado_608596" data-name="Trazado 608596" d="M188.8,210.414l2.792-8.491,3.4,1.2.943,7.15c-3.748-.85-4.252-.833-7.137.14" transform="translate(-108.925 -116.499)" fill="#5766c9"/>
      <path id="Trazado_608597" data-name="Trazado 608597" d="M164.635,203.25l2.919-1.857,7.306,8.719c-2.61-.165-5.72.076-7.475,1.29Z" transform="translate(-94.986 -116.193)" fill="#5766c9"/>
      <path id="Trazado_608598" data-name="Trazado 608598" d="M49.891,155.1l-22.91-13.775a1.221,1.221,0,0,1-.418-1.676l17.671-29.39a1.221,1.221,0,0,1,1.676-.418l22.911,13.775a1.221,1.221,0,0,1,.417,1.676l-17.67,29.39a1.221,1.221,0,0,1-1.676.418" transform="translate(-15.225 -63.273)" fill="#08183d"/>
      <rect id="Rectángulo_377394" data-name="Rectángulo 377394" width="33.619" height="26.7" transform="matrix(0.515, -0.857, 0.857, 0.515, 12.573, 76.726)" fill="none" stroke="#174f6b" stroke-miterlimit="10" stroke-width="0.75"/>
      <path id="Trazado_608599" data-name="Trazado 608599" d="M78.571,171.815c-.084.067-.179.128-.27.188a2.355,2.355,0,0,1-.874.366,1.348,1.348,0,0,1-.721-.045,2.168,2.168,0,0,1-1.085-1.539,12.173,12.173,0,0,1-.421-2.226,2.881,2.881,0,0,0-.236-1.111,2.377,2.377,0,0,0-.8-.756,6.409,6.409,0,0,1-2.092-1.666,1.862,1.862,0,0,1-.167-1.438,3.61,3.61,0,0,1,.421-1.1c.023-.047.048-.089.071-.136A86.3,86.3,0,0,1,80.62,149.7a1.214,1.214,0,0,1,1.122-.412.577.577,0,0,1,.169.052,1.026,1.026,0,0,1,.344.283,6.473,6.473,0,0,1,1.689,4.072,20.079,20.079,0,0,1-.1,4.136,38.157,38.157,0,0,1-1.163,5.912c-.066.234-.136.468-.209.709a34.634,34.634,0,0,1-1.469,3.656c-.052.109-.1.218-.153.327A8.672,8.672,0,0,1,78.571,171.815Z" transform="translate(-41.445 -86.12)" fill="#174f6b"/>
      <path id="Trazado_608600" data-name="Trazado 608600" d="M49.914,155.168c-.028.038-.051.076-.077.11a3.8,3.8,0,0,1-.789.9,1.858,1.858,0,0,1-1.344.53,6.364,6.364,0,0,1-2.454-1.067,2.417,2.417,0,0,0-1.044-.354,2.884,2.884,0,0,0-1.092.312,11.855,11.855,0,0,1-2.163.672,2.153,2.153,0,0,1-1.868-.236,1.86,1.86,0,0,1-.465-1.56,1.66,1.66,0,0,1,.032-.227.837.837,0,0,1,.012-.093,8.751,8.751,0,0,1,1.915-3.61c.072-.1.146-.192.217-.288a29.939,29.939,0,0,1,3.072-3.527l.645-.6a36.15,36.15,0,0,1,4.027-3.2,20.12,20.12,0,0,1,3.608-2.026,6.489,6.489,0,0,1,4.389-.418,1.07,1.07,0,0,1,.414.172.944.944,0,0,1,.3.444,1.228,1.228,0,0,1-.014.861,86.86,86.86,0,0,1-7.322,13.206" transform="translate(-22.274 -80.933)" fill="#174f6b"/>
      <path id="Trazado_608601" data-name="Trazado 608601" d="M95.068,161.379l.251.085a.719.719,0,0,0-.251-.085" transform="translate(-54.849 -93.107)" fill="#f9ada7"/>
      <path id="Trazado_608602" data-name="Trazado 608602" d="M64.875,165.54a5.664,5.664,0,0,0-.465-.726c.169.058.338.124.512.168a.869.869,0,0,0,.434.023.555.555,0,0,0,.371-.291.734.734,0,0,1-.732.194c-.242-.06-.452-.2-.689-.263a2.671,2.671,0,0,0-.81-.066,1.794,1.794,0,0,0,.185-.151,3.121,3.121,0,0,0,.619-1,3.339,3.339,0,0,0-.371.494,2.446,2.446,0,0,1-.71.66,1.936,1.936,0,0,1-.746-.112,3.921,3.921,0,0,0-1.983-1.792,1.792,1.792,0,0,1-.781-1.258,4.017,4.017,0,0,0,1.177.385,3.293,3.293,0,0,1,.732.159,2.21,2.21,0,0,1,.695.56.73.73,0,0,0-.3-.49,2.67,2.67,0,0,0-.536-.352,8.742,8.742,0,0,0,1.234-.426,1.081,1.081,0,0,1,.943.654,1.771,1.771,0,0,0,.232.506.823.823,0,0,0,.338.2c.2.077.395.144.6.206a1.414,1.414,0,0,1-.955-.708c-.044-.114-.065-.239-.109-.353a1.294,1.294,0,0,0-.684-.619,2.063,2.063,0,0,1,.345-.058,3.011,3.011,0,0,1,.836.1,3.111,3.111,0,0,1,.71.213,2.694,2.694,0,0,0-1.1-.369c.1-.046.193-.092.291-.14.032-.016.064-.03.1-.046l.765-.366a.834.834,0,0,1,.506-.125c-.216-.1-.489.04-.728.156a7.312,7.312,0,0,1-1.457.462l.011,0a2.493,2.493,0,0,0-.573.1c-.148.04-.294.083-.443.128.123-.1.258-.19.382-.3.587-.5.84-1.328,1.36-1.914a3.244,3.244,0,0,0-.547.654,7,7,0,0,1-.429.678,9.4,9.4,0,0,1-1.407,1.064,4.065,4.065,0,0,1-.649.119c-.286-.087-.588-.137-.866-.242a1.39,1.39,0,0,1-.547-.353c-.008-.07-.017-.141-.021-.212a14.924,14.924,0,0,1-.062-2.727,10.7,10.7,0,0,1,.6-2.651,9.775,9.775,0,0,1,.561-1.25c.109-.2.225-.4.346-.585a6.212,6.212,0,0,0,.372-.532,6.807,6.807,0,0,0,2.138,2.892,2.542,2.542,0,0,1-.005.979c-.012.047-.025.1-.041.145-.068.113-.142.222-.219.328-.242.339-.491.671-.721,1.017a1.221,1.221,0,0,1-.672.359c-.2.027-.387-.005-.583.041a1.761,1.761,0,0,0-.568.3.426.426,0,0,0-.183.2.773.773,0,0,1,.622-.326c.227-.011.447.039.676.023a.859.859,0,0,0,.416-.138l-.012.02a2.325,2.325,0,0,0-.283.649,2.368,2.368,0,0,1-.176.737,2.376,2.376,0,0,0,.284-.614,4.353,4.353,0,0,1,.146-.49,2.944,2.944,0,0,1,.53-.721,4.2,4.2,0,0,0,.554-.8,2.018,2.018,0,0,0,.048,1.205,1.592,1.592,0,0,1,.029-.885c.095-.345.25-.676.359-1.018a1.973,1.973,0,0,0,.1-.791c.113.076.226.15.345.218a2.325,2.325,0,0,1,.733.775c.493.918-.366,2.877-.366,2.877a4.119,4.119,0,0,0,.646-1.426.88.88,0,0,0,.326.281c.158.084.334.14.492.225a1.6,1.6,0,0,1,.712.781,1.08,1.08,0,0,0-.493-.863,4.977,4.977,0,0,1-.794-.6.632.632,0,0,1-.154-.279,2.4,2.4,0,0,0-.03-1.069,1.178,1.178,0,0,0-.144-.273c.358.04.785-.13,1.131-.015a1.28,1.28,0,0,1,.529.433.847.847,0,0,0-.5-.5,2.281,2.281,0,0,0-.835-.207c-.195-.01-.4,0-.587-.03a3.6,3.6,0,0,0-.393-.352,3.683,3.683,0,0,1-1.22-1.212c.47-.164.9-.569,1.37-.793a3.66,3.66,0,0,1,1.705-.239,2.5,2.5,0,0,1,.33.026,2.738,2.738,0,0,0-1.9-.1,13.025,13.025,0,0,1-1.436.719.856.856,0,0,1-.28.023,24.141,24.141,0,0,1-1.018-2.908c-.006,0-.573-.345-.952-.611a5.038,5.038,0,0,1-3.721.587,2.272,2.272,0,0,1-.424-.529c-.085-.141-.161-.291-.235-.442a9.848,9.848,0,0,1,.536-1.1,2.646,2.646,0,0,0,.352-1.181,9.494,9.494,0,0,1-1.022,1.928c-.006.01-.015.021-.021.031-.054-.112-.106-.223-.162-.33a3.407,3.407,0,0,0-.871-1.117,1.894,1.894,0,0,0-1.314-.426,1.62,1.62,0,0,1,1.34.625,3.9,3.9,0,0,1,.577.987,9.876,9.876,0,0,1-1.613-.212c-.18-.067-.345-.167-.53-.22a1.3,1.3,0,0,0-.719,0c.484-.07.829.354,1.265.512a3.025,3.025,0,0,0,.961.1,1.624,1.624,0,0,1,.782.172c.006.017.014.036.02.053a10.217,10.217,0,0,0,.452,1.019,6.464,6.464,0,0,0-2.883.021,3.7,3.7,0,0,0-.571.272c-.372-.063-.728-.18-1.09-.278a2.044,2.044,0,0,1-.257-.313,2.218,2.218,0,0,0-.951-.861l.555.555a1.4,1.4,0,0,1,.209.243,2.239,2.239,0,0,1,.15.309c-.049-.01-.1-.025-.143-.032a2.234,2.234,0,0,0-1.762.342,1.363,1.363,0,0,1,.988-.2,4.43,4.43,0,0,1,1.029.378,2.588,2.588,0,0,0,.712.212,8.044,8.044,0,0,1-2.248,1.347,9.286,9.286,0,0,0,1.571-.478,13.71,13.71,0,0,1,2.7-1.064c-.267.49-.422,1.041-.692,1.535a4.25,4.25,0,0,1-.616.841,4.229,4.229,0,0,1-.9-.06c-.583-.022-1.216.325-1.765.178a1.9,1.9,0,0,0,.635.157,1.989,1.989,0,0,0,.426,0c.138-.015.275-.051.413-.069a2.877,2.877,0,0,1,.932.055,8.841,8.841,0,0,1-1.149.891,3.9,3.9,0,0,0,1.629-1.1c.129-.147.25-.3.366-.462a.7.7,0,0,1,.022.462,4.714,4.714,0,0,1-.39,1.128,2.766,2.766,0,0,0,.481-1.074,5.8,5.8,0,0,0,.121-.855,9.536,9.536,0,0,1,1.213-1.657,8.216,8.216,0,0,1,1.625.2,10.87,10.87,0,0,0,2.789.415c-.033,0-.457.819-.511.9a11.233,11.233,0,0,1-.654.932,11.494,11.494,0,0,1-1.529,1.606,11.081,11.081,0,0,1-1.8,1.264,3.653,3.653,0,0,1-1.82.687,7.316,7.316,0,0,1-1.339-.266,3.43,3.43,0,0,0-1.739-1.864c-.041-.079-.074-.17-.106-.253-.347-.808-1.392-1.009-1.7-1.839a2.561,2.561,0,0,0,1.035,1.328,1.042,1.042,0,0,1,.235.254,3.525,3.525,0,0,1,.148.357,3.325,3.325,0,0,0-1.27-.151,3.354,3.354,0,0,1,1.81.749,4.591,4.591,0,0,1-2.322.079,3.757,3.757,0,0,0,1.995.209,2.082,2.082,0,0,0,.539-.111,5.922,5.922,0,0,1,.965,1.13c-.2-.049-.4-.1-.6-.129a7.922,7.922,0,0,0-1.982.009,1.451,1.451,0,0,1-.637-.2,4.424,4.424,0,0,0-.65-.336,1.906,1.906,0,0,1-.447-.528,2.806,2.806,0,0,0-.3-.5c-.14-.156-.336-.246-.482-.4a3.979,3.979,0,0,1,.5.545.981.981,0,0,1,.145.243c.073.186.066.431.194.565-.572-.027-1.2.209-1.724.009a1.226,1.226,0,0,0,.972.2,2.41,2.41,0,0,1,1.033.011,2.791,2.791,0,0,1,.409.216,2.877,2.877,0,0,0,.566.247,4.678,4.678,0,0,0-2.237.981,6.354,6.354,0,0,1,3.727-.848,2.257,2.257,0,0,0-.2.208,1.221,1.221,0,0,1-.143.155,1.009,1.009,0,0,1-.25.132,2.529,2.529,0,0,0-1.02.837l.467-.357a1.8,1.8,0,0,1,.437-.274c.118-.046.241-.063.356-.117.251-.12.435-.4.663-.559a3.954,3.954,0,0,1,.662.11c.408.122.816.285,1.24.407a6.293,6.293,0,0,1-2.246.773,3.646,3.646,0,0,0,2.54-.7,3.847,3.847,0,0,0,.6.094,5.266,5.266,0,0,0,1.919-.278,8.65,8.65,0,0,0,3.611-2.36,8.2,8.2,0,0,0,.634-.771,2.684,2.684,0,0,0-.239.658c-.075.231-.142.465-.2.7a10.343,10.343,0,0,0-.254,1.424,10.185,10.185,0,0,0,.088,2.8,4.556,4.556,0,0,0,.536,1.751,2.852,2.852,0,0,0,.478,2.406,3.608,3.608,0,0,1-.236-2.1,1.606,1.606,0,0,0,.223.187,11.167,11.167,0,0,1,1.559.943,3.1,3.1,0,0,1,.024.614,1.724,1.724,0,0,1-.308.43c-.105.106-.221.2-.327.3a1.965,1.965,0,0,0-.33.431,7.6,7.6,0,0,0,.652-.571,2.43,2.43,0,0,0,.25-.266,2.822,2.822,0,0,0-.175.694,2.859,2.859,0,0,0,.09.528.664.664,0,0,1-.1.535,1.037,1.037,0,0,0,.25-.548c0-.182-.106-.332-.1-.513a1.274,1.274,0,0,1,.151-.434,2.186,2.186,0,0,0,.2-.929,5.315,5.315,0,0,1,1.163,2.546,6.38,6.38,0,0,0-.1-.8l.6.306a1.647,1.647,0,0,0,.721.231,3.308,3.308,0,0,1-1.39-.825,4.471,4.471,0,0,0-.227-.679,3.316,3.316,0,0,0,.742.066c.173-.008.349-.041.52-.037a1.418,1.418,0,0,1,.2.019,3.029,3.029,0,0,1,.618.664,2.6,2.6,0,0,0,.3.413.547.547,0,0,0,.457.176A1.27,1.27,0,0,1,64.875,165.54Z" transform="translate(-26.447 -85.556)" fill="#4b90a0"/>
      <path id="Trazado_608603" data-name="Trazado 608603" d="M87.454,132.989a.636.636,0,0,1,.2.879l-.069.115a.651.651,0,0,0-.671,1.116l-.069.115a.651.651,0,0,0-.671,1.115l-.07.117a.65.65,0,0,0-.669,1.113l-.07.116a.65.65,0,0,0-.67,1.113l-.07.117a.651.651,0,0,0-.671,1.116l-.069.114a.651.651,0,0,0-.671,1.116l-.069.115a.638.638,0,0,1-.869.238l-.834-.5a.636.636,0,0,1-.2-.879l.069-.115a.651.651,0,0,0,.671-1.115l.069-.115a.651.651,0,0,0,.671-1.116l.07-.116a.65.65,0,0,0,.669-1.113l.07-.117A.65.65,0,0,0,84.2,135.3l.07-.116a.651.651,0,0,0,.671-1.116l.069-.115a.651.651,0,0,0,.671-1.115l.069-.115a.651.651,0,0,0,.671-1.116l.069-.115a.638.638,0,0,1,.869-.238l.834.5a.636.636,0,0,1,.2.879l-.069.115a.633.633,0,0,1-.868.236" transform="translate(-46.817 -75.68)" fill="#4b90a0"/>
      <rect id="Rectángulo_377395" data-name="Rectángulo 377395" width="2.509" height="5.32" transform="translate(46.022 61.254) rotate(-58.986)" fill="#4b90a0"/>
      <path id="Trazado_608604" data-name="Trazado 608604" d="M98.917,187.978a13.41,13.41,0,0,0-.677-6.743c-.148-.4-.419-.859-.842-.833-.453.025-.66.58-.711,1.032a7.832,7.832,0,0,0,.355,3.6,5.872,5.872,0,0,0-1.1,3.8,10.39,10.39,0,0,0,2.978-.85" transform="translate(-55.349 -104.082)" fill="#e8aa80"/>
      <path id="Trazado_608605" data-name="Trazado 608605" d="M96.995,197.963l1.54,3.693L93.961,205.9l-1.036-4.1Z" transform="translate(-53.613 -114.215)" fill="#e8aa80"/>
      <path id="Trazado_608606" data-name="Trazado 608606" d="M94.812,188.113A22.105,22.105,0,0,0,96.2,190.55a15.129,15.129,0,0,1-.554,3.664,4.086,4.086,0,0,1-4.7,2.094c1.24-2.729,2.483-5.466,3.867-8.195" transform="translate(-52.471 -108.532)" fill="#e8aa80"/>
      <path id="Trazado_608607" data-name="Trazado 608607" d="M122.5,211.67l-1.527-8.338s-4.772,1.73-5.973,2.729-9.168,9.595-10.014,9.388c-1.223-.3-7.594-13.715-7.594-13.715l-6.447,6.54s7.095,20.84,11.016,21.208,18.737-8.106,18.737-8.106Z" transform="translate(-52.471 -116.39)" fill="#fefffe"/>
      <path id="Trazado_608608" data-name="Trazado 608608" d="M149.165,235.034a22.973,22.973,0,0,0,1.3-13.711" transform="translate(-86.061 -127.692)" fill="none" stroke="#e1e8f5" stroke-linecap="round" stroke-miterlimit="10" stroke-width="1"/>
      <path id="Trazado_608609" data-name="Trazado 608609" d="M151.875,245.132A9.549,9.549,0,0,0,154.8,239.6" transform="translate(-87.624 -138.239)" fill="none" stroke="#e1e8f5" stroke-linecap="round" stroke-miterlimit="10" stroke-width="1"/>
      <path id="Trazado_608610" data-name="Trazado 608610" d="M89.225,207.574l7.361-7.391,2.238,3.5-8.148,7.89Z" transform="translate(-51.478 -115.495)" fill="#e1e8f5"/>
      <path id="Trazado_608611" data-name="Trazado 608611" d="M145.236,207.357c.41-2.458,8.376-5.424,8.376-5.424a31.393,31.393,0,0,1,3.1,13.343c0,7.5-.03,59.544-.03,59.544L141.4,273.78s1.773-53.986,3.841-66.423" transform="translate(-81.578 -116.505)" fill="#fefffe"/>
      <path id="Trazado_608612" data-name="Trazado 608612" d="M166.525,223.635a117.194,117.194,0,0,0,0-12.243c-.267-3.312-2.94-10.009-2.94-10.009a33.067,33.067,0,0,0-3.16,1.168c-1.138.533-2.111,10.081-2.009,10.314s4.637,2.589,4.637,2.589-2.991,3.088-2.97,3.427,6.443,4.755,6.443,4.755" transform="translate(-91.393 -116.188)" fill="#e1e8f5"/>
      <rect id="Rectángulo_377396" data-name="Rectángulo 377396" width="9.599" height="1.827" transform="translate(62.984 146.117) rotate(-7.094)" fill="#e1e8f5"/>
      <path id="Trazado_608613" data-name="Trazado 608613" d="M196.295,201.753a54.671,54.671,0,0,1,2.543,11.735c.575,5.288-1.768,61.224-1.768,61.224l12.357-1.54s-.715-63.627-3.765-67.769c-1.561-2.1-9.366-3.651-9.366-3.651" transform="translate(-113.252 -116.401)" fill="#fefffe"/>
      <path id="Trazado_608614" data-name="Trazado 608614" d="M198.3,223.529s.042-8.414-.423-11.706-2.314-10.09-2.314-10.09a17.546,17.546,0,0,1,4.252.711c1.138.533,4.789,8.973,4.687,9.2s-4.294,3.812-4.294,3.812,3.1,3.088,3.076,3.427-4.984,4.645-4.984,4.645" transform="translate(-112.831 -116.39)" fill="#e1e8f5"/>
      <path id="Trazado_608615" data-name="Trazado 608615" d="M213.318,343.772l-.1-1.8-7.661-.457.1,1.806Z" transform="translate(-118.595 -197.035)" fill="#e1e8f5"/>
      <path id="Trazado_608616" data-name="Trazado 608616" d="M441.753,286.954l-3.291,5.618-2.445-3.723-1.125-1.709-.377-.575,3.9-2.462.427.368.5.427Z" transform="translate(-250.693 -163.913)" fill="#e8aa80"/>
      <path id="Trazado_608617" data-name="Trazado 608617" d="M420.947,271.045a5.042,5.042,0,0,1-4.886,5.182,4.582,4.582,0,0,1-1.874-.4.06.06,0,0,1-.025-.008,5.194,5.194,0,0,1-2.987-4.772,5.043,5.043,0,0,1,4.886-5.187,4.631,4.631,0,0,1,2.356.643,5.227,5.227,0,0,1,2.53,4.539" transform="translate(-237.227 -153.389)" fill="#7bcce0"/>
      <path id="Trazado_608618" data-name="Trazado 608618" d="M421.415,271.288a5.042,5.042,0,0,1-4.886,5.182,4.581,4.581,0,0,1-1.874-.4.06.06,0,0,1-.025-.008,5.216,5.216,0,0,1-2.644-4.6,5.035,5.035,0,0,1,4.882-5.178,4.627,4.627,0,0,1,2.014.461,5.233,5.233,0,0,1,2.534,4.544" transform="translate(-237.694 -153.632)" fill="#51a9c9"/>
      <path id="Trazado_608619" data-name="Trazado 608619" d="M411.955,275.853l4.205.9.017.965-4.209.554Z" transform="translate(-237.677 -159.153)" fill="#7bcce0"/>
      <path id="Trazado_608620" data-name="Trazado 608620" d="M412.935,270.861l3.651,1.328.266-.393-2.991-2.373Z" transform="translate(-238.242 -155.443)" fill="#7bcce0"/>
      <path id="Trazado_608621" data-name="Trazado 608621" d="M420.829,273.233a2.24,2.24,0,0,0-.106,4.455v.013h2.111l.372-4.467Z" transform="translate(-241.606 -157.641)" fill="#2c7fa3"/>
      <path id="Trazado_608622" data-name="Trazado 608622" d="M424.949,273.233a2.234,2.234,0,1,1-2.234,2.234,2.234,2.234,0,0,1,2.234-2.234" transform="translate(-243.885 -157.641)" fill="#6eb2c4"/>
      <path id="Trazado_608623" data-name="Trazado 608623" d="M428.174,279.394c-1.036.288-3.947-.88-4.649-1.641-.783-.846-1.151-1.8-.419-2.081.36-.14.994.258,2.318.093.444-1.874-.685-3.249-.833-4.053-.2-1.092,2-1.375,2.42-.448a1.915,1.915,0,0,1,2.631.728,1.467,1.467,0,0,1,1.35.258,1.209,1.209,0,0,1,.393,1.223c.753.1,1.1.393,1.108,1.142.017,1.2-.766,3.579-1.967,4.032a20.313,20.313,0,0,1-2.352.749" transform="translate(-243.882 -156.184)" fill="#e8aa80"/>
      <path id="Trazado_608624" data-name="Trazado 608624" d="M443.8,288.039l-3.291,5.618-2.445-3.719a13.573,13.573,0,0,1,3.334-3.956Z" transform="translate(-252.741 -164.998)" fill="#d68163"/>
      <path id="Trazado_608625" data-name="Trazado 608625" d="M463.655,265.964l-3.837-6.7a9.9,9.9,0,0,0-3.7,3.545c-1.625,2.572-4.577,12.641-6.138,12.827s-7.958-6.134-7.958-6.134-3.735,5.14-3.735,9.066c0,1.066,9.988,9.29,12.057,9.29,4.6,0,9.992-6.621,9.992-6.621Z" transform="translate(-252.868 -149.581)" fill="#e1e8f5"/>
      <path id="Trazado_608626" data-name="Trazado 608626" d="M497.265,242.267s7.226,7.137,8.034,7.175c1.244.063,11.757-5.563,11.757-5.563a46.554,46.554,0,0,1-4.29-2.8c-.673-.58-1.117-3.757-1.316-5.534-.157-1.371-.233-2.449-.233-2.449l-7.437-.956s-.613,6.743-.732,7.556a6.347,6.347,0,0,1-.228,1.108c-.406,1.032-5.555,1.46-5.555,1.46" transform="translate(-286.896 -133.935)" fill="#e8aa80"/>
      <path id="Trazado_608627" data-name="Trazado 608627" d="M510.925,239.694c4.539.846,7.289-2.42,8.4-4.146-.156-1.371-.233-2.449-.233-2.449l-7.437-.956s-.165,2.284-.381,4.522c-.11,1.121-.228,2.229-.351,3.029" transform="translate(-294.778 -133.935)" fill="#d68163"/>
      <path id="Trazado_608628" data-name="Trazado 608628" d="M493.476,224.752a2.235,2.235,0,0,1,2.834-1.247c1.331.312,2.219,1.376,1.984,2.377a2.235,2.235,0,0,1-2.834,1.247c-1.331-.312-2.219-1.376-1.984-2.377" transform="translate(-284.689 -128.901)" fill="#d68163"/>
      <path id="Trazado_608629" data-name="Trazado 608629" d="M495.477,227.34a.818.818,0,0,1,.588-.935.44.44,0,0,1,.106-.034.973.973,0,0,1,.706.085,4.745,4.745,0,0,1,.169,1.117.957.957,0,0,1-.5.3c-.047.013-.089.017-.135.025a.832.832,0,0,1-.931-.563" transform="translate(-285.853 -130.587)" fill="#1c5180"/>
      <path id="Trazado_608630" data-name="Trazado 608630" d="M513.792,207.711c0-5.39-2.7-9.988-7-9.988s-7.78,1.6-7.78,9.76c0,5.2,1.379,10.086,6.282,10.4,5.229,0,8.495-4.785,8.495-10.174" transform="translate(-287.906 -114.076)" fill="#e8aa80"/>
      <path id="Trazado_608631" data-name="Trazado 608631" d="M512.315,213.194a28.676,28.676,0,0,1-2.695-5.965,31.031,31.031,0,0,1-9.849-.212,39.9,39.9,0,0,0-1.333,4.666,13.539,13.539,0,0,1,.592-7.226,53.928,53.928,0,0,1,13.322-1.324c.063,3.092-.106,6.532-.038,10.06" transform="translate(-287.436 -117.189)" fill="#d68163"/>
      <path id="Trazado_608632" data-name="Trazado 608632" d="M511.755,195.493a1.355,1.355,0,0,0-.478-.33c-2.183-1.134-10.961-3.879-12.108-3.321-1.282.626.068,1.79.068,1.79s-4.226-.457-4.971.529S495,197.1,495,197.1s-1.1-.144-1.409.66a7.953,7.953,0,0,0,.478,2.61c.482,1.773,1.2,3.985,1.608,5.216a5.72,5.72,0,0,1,.368-.622,45.482,45.482,0,0,1,.635-5.132c3.494.5,10.352-.089,10.352-.089l2.5,7.306h1.608c0,.008,1.586-9.946.622-11.554" transform="translate(-284.761 -110.64)" fill="#1d0100"/>
      <path id="Trazado_608633" data-name="Trazado 608633" d="M511.289,195.162a42.422,42.422,0,0,0-8.245-1.916,3.256,3.256,0,0,0-1.18,0,1.194,1.194,0,0,0-.88.723,1.3,1.3,0,0,0,.571,1.269,10.881,10.881,0,0,0-3.888-.478,2.413,2.413,0,0,0-1.866,1.011,2.012,2.012,0,0,0-.169,1.421,2.174,2.174,0,0,0,.677,1.231,1.612,1.612,0,0,0-2,.943,2.657,2.657,0,0,0-.22,1.007,7.954,7.954,0,0,1-.478-2.61c.313-.8,1.409-.66,1.409-.66s-1.477-1.954-.732-2.936,4.971-.529,4.971-.529-1.354-1.163-.068-1.789c1.138-.567,9.912,2.179,12.1,3.313" transform="translate(-284.772 -110.643)" fill="#360f0a"/>
      <path id="Trazado_608634" data-name="Trazado 608634" d="M520.557,219.784a2.615,2.615,0,0,0-3.152-.571" transform="translate(-298.516 -126.301)" fill="none" stroke="#1d0100" stroke-linecap="round" stroke-miterlimit="10" stroke-width="1"/>
      <path id="Trazado_608635" data-name="Trazado 608635" d="M501.465,219.036a1.7,1.7,0,0,1,2.492-.22" transform="translate(-289.32 -125.989)" fill="none" stroke="#1d0100" stroke-linecap="round" stroke-miterlimit="10" stroke-width="1"/>
      <path id="Trazado_608636" data-name="Trazado 608636" d="M514.8,225.483a.631.631,0,1,1-.465.609.552.552,0,0,1,.465-.609" transform="translate(-296.745 -130.092)" fill="#262e4a"/>
      <path id="Trazado_608637" data-name="Trazado 608637" d="M501.33,225.483a.631.631,0,1,1-.465.609.552.552,0,0,1,.465-.609" transform="translate(-288.973 -130.092)" fill="#262e4a"/>
      <path id="Trazado_608638" data-name="Trazado 608638" d="M508.418,227.663a1.921,1.921,0,0,1-.753,1.612,2.514,2.514,0,0,0,.685.981" transform="translate(-292.897 -131.35)" fill="none" stroke="#cf5953" stroke-linecap="round" stroke-linejoin="round" stroke-width="1"/>
      <path id="Trazado_608639" data-name="Trazado 608639" d="M510.955,235.245a4.391,4.391,0,0,0,3.118-1.282" transform="translate(-294.795 -134.985)" fill="none" stroke="#cf5953" stroke-linecap="round" stroke-linejoin="round" stroke-width="1"/>
      <circle id="Elipse_5857" data-name="Elipse 5857" cx="2.314" cy="2.314" r="2.314" transform="matrix(0.383, -0.924, 0.924, 0.383, 216.254, 97.066)" fill="none" stroke="#6c3f91" stroke-miterlimit="10" stroke-width="1"/>
      <ellipse id="Elipse_5858" data-name="Elipse 5858" cx="2.128" cy="2.314" rx="2.128" ry="2.314" transform="translate(210.576 93.5)" fill="none" stroke="#6c3f91" stroke-miterlimit="10" stroke-width="1"/>
      <path id="Trazado_608640" data-name="Trazado 608640" d="M510.066,224.108a2.641,2.641,0,0,0-2.331-.063" transform="translate(-292.937 -129.124)" fill="none" stroke="#6c3f91" stroke-miterlimit="10" stroke-width="1"/>
      <path id="Trazado_608641" data-name="Trazado 608641" d="M523.675,224.117a10.349,10.349,0,0,1,4.645-.622" transform="translate(-302.134 -128.904)" fill="none" stroke="#6c3f91" stroke-miterlimit="10" stroke-width="1"/>
      <path id="Trazado_608642" data-name="Trazado 608642" d="M530.014,222.987a2.02,2.02,0,1,1-1.836,2.617,2.3,2.3,0,0,1,1.836-2.617" transform="translate(-304.692 -128.568)" fill="#e8aa80"/>
      <path id="Trazado_608643" data-name="Trazado 608643" d="M533.813,226.118a.933.933,0,0,1-.3.766,1.384,1.384,0,0,1-.711.317,3.226,3.226,0,0,1-.063-.563,4.841,4.841,0,0,1,.106-1.125,4.159,4.159,0,0,1,.135-.52,1.062,1.062,0,0,1,.567.355,1.278,1.278,0,0,1,.262.77" transform="translate(-307.364 -129.809)" fill="#d68163"/>
      <path id="Trazado_608644" data-name="Trazado 608644" d="M534.316,226.591a.821.821,0,0,1-.8.766.483.483,0,0,1-.11.008.975.975,0,0,1-.668-.254,4.841,4.841,0,0,1,.106-1.125.965.965,0,0,1,.563-.173c.047,0,.093,0,.14.008a.829.829,0,0,1,.766.77" transform="translate(-307.364 -130.283)" fill="#1c5180"/>
      <path id="Trazado_608645" data-name="Trazado 608645" d="M514.728,255.543l-3.021-2.06-8.106,7.936a15.112,15.112,0,0,1-3.558-7.767l-4.687,1.269-1.5,34.724,20.586-.609Z" transform="translate(-284.929 -146.247)" fill="#53aedb"/>
      <path id="Trazado_608646" data-name="Trazado 608646" d="M516.855,260.737a51.337,51.337,0,0,0,7.018-8.444l1.455.5-1.244,7.966c-1.743-1.045-4.336-1.269-7.23-.025" transform="translate(-298.199 -145.56)" fill="#78c8e3"/>
      <path id="Trazado_608647" data-name="Trazado 608647" d="M509.078,261.2a41.766,41.766,0,0,1-3.1-8.1l-2.4.825-.207,6.9a5.43,5.43,0,0,1,2.86-.508,18.562,18.562,0,0,1,2.843.884" transform="translate(-290.422 -146.027)" fill="#78c8e3"/>
      <path id="Trazado_608648" data-name="Trazado 608648" d="M482.715,387.945l29.267.436,1.3-21.411-30.32-.127Z" transform="translate(-278.502 -211.65)" fill="#a1a7bf"/>
      <path id="Trazado_608649" data-name="Trazado 608649" d="M490.808,252.613s-1.768,6.9-2.915,12.717c-1.24,6.3-2.213,12.476-3.418,23.209-1.84,16.393,0,35.625,0,35.625l-6.87.292s.719-64,3.786-68.162c1.565-2.124,9.417-3.681,9.417-3.681" transform="translate(-275.554 -145.745)" fill="#fefffe"/>
      <path id="Trazado_608650" data-name="Trazado 608650" d="M497.5,252.3s-2.31,10.2-3.033,13.931-1.743,8.321-1.743,8.321-4.167-5.187-3.74-6.029,3.114-2.741,3.114-2.741-3.862-2.792-3.338-3.562,3.693-8.216,5.06-9.159c.774-.533,3.681-.761,3.681-.761" transform="translate(-281.96 -145.566)" fill="#e1e8f5"/>
      <rect id="Rectángulo_377397" data-name="Rectángulo 377397" width="21.948" height="2.204" transform="translate(207.851 186.233)" fill="#89512c"/>
      <path id="Trazado_608651" data-name="Trazado 608651" d="M490.394,387.91a.96.96,0,0,1,0,.11l-.2,2.818-1.663,23.809a1.59,1.59,0,0,1-3.173-.106.96.96,0,0,1,0-.11l1.654-23.6.211-3.029a1.587,1.587,0,0,1,3.169.106" transform="translate(-280.025 -222.906)" fill="#5e2c1f"/>
      <path id="Trazado_608652" data-name="Trazado 608652" d="M492.655,387.916a.947.947,0,0,1,0,.11l-.2,2.818h-3.177l.212-3.029a1.587,1.587,0,0,1,3.169.1" transform="translate(-282.287 -222.912)" fill="#451e18"/>
      <path id="Trazado_608653" data-name="Trazado 608653" d="M517.6,387.84v26.686a1.524,1.524,0,0,1-.465,1.1,1.6,1.6,0,0,1-1.121.457,1.57,1.57,0,0,1-1.586-1.557V387.84a1.534,1.534,0,0,1,.465-1.1,1.6,1.6,0,0,1,1.121-.457,1.575,1.575,0,0,1,1.586,1.557" transform="translate(-296.797 -222.865)" fill="#5e2c1f"/>
      <path id="Trazado_608654" data-name="Trazado 608654" d="M517.6,387.84v2.953h-3.173V387.84a1.534,1.534,0,0,1,.465-1.1,1.6,1.6,0,0,1,1.121-.457,1.575,1.575,0,0,1,1.586,1.557" transform="translate(-296.797 -222.865)" fill="#451e18"/>
      <path id="Trazado_608655" data-name="Trazado 608655" d="M543.129,414.532a1.587,1.587,0,0,1-3.169.106L538.3,390.828l-.2-2.818a.96.96,0,0,1,0-.11,1.587,1.587,0,0,1,3.169-.106l.211,3.029,1.65,23.6a.983.983,0,0,1,0,.11" transform="translate(-310.453 -222.901)" fill="#5e2c1f"/>
      <path id="Trazado_608656" data-name="Trazado 608656" d="M541.475,390.828H538.3l-.2-2.818a.96.96,0,0,1,0-.11,1.587,1.587,0,0,1,3.169-.106Z" transform="translate(-310.453 -222.901)" fill="#451e18"/>
      <path id="Trazado_608657" data-name="Trazado 608657" d="M483.055,379.966v-2.382a2.192,2.192,0,0,1,2.191-2.191H509.14a2.192,2.192,0,0,1,2.191,2.191v2.382a2.192,2.192,0,0,1-2.191,2.191H485.246a2.192,2.192,0,0,1-2.191-2.191" transform="translate(-278.698 -216.583)" fill="#89512c"/>
      <path id="Trazado_608658" data-name="Trazado 608658" d="M497.535,229.461s2.615,12.7,7.137,12.7c4.125,0,7.315-7.5,8.266-12.933" transform="translate(-287.052 -132.256)" fill="none" stroke="#15325e" stroke-miterlimit="10" stroke-width="1"/>
      <path id="Trazado_608659" data-name="Trazado 608659" d="M463.951,262.3c-2.022,14.38-8.66,22.295-17.049,22.295-10.306,0-19.807-10.839-19.807-10.839" transform="translate(-246.412 -151.335)" fill="none" stroke="#15325e" stroke-linecap="round" stroke-miterlimit="10" stroke-width="1"/>
      <path id="Trazado_608660" data-name="Trazado 608660" d="M512.985,261.364l.195-1.341.842.034-.216,1.43Z" transform="translate(-295.966 -150.02)" fill="#2e5785"/>
      <path id="Trazado_608661" data-name="Trazado 608661" d="M428.261,445.294l18.17-.241c-.055-.584-.135-1.125-.233-1.633a37.165,37.165,0,0,0-1.844-5.656l-1.878-.85s-2.445.918-8.1,2.572c-3.93,1.146-5.407,2.716-5.931,3.934a2.771,2.771,0,0,0-.182,1.874" transform="translate(-247.036 -252.076)" fill="#448fc2"/>
      <path id="Trazado_608662" data-name="Trazado 608662" d="M428.261,454.167l18.17-.241c-.055-.584-.135-1.125-.233-1.633H428.443a2.771,2.771,0,0,0-.182,1.874" transform="translate(-247.036 -260.95)" fill="#adcddb"/>
      <path id="Trazado_608663" data-name="Trazado 608663" d="M460.609,337.533s-21.241,2.559-24.182,7.585,3.177,36.4,3.177,36.4l10.458-.055-.884-25.442,20.04-11.554Z" transform="translate(-251.336 -194.739)" fill="#08183d"/>
      <path id="Trazado_608664" data-name="Trazado 608664" d="M441.961,446.924l18.17-.241c-.055-.584-.135-1.125-.233-1.633a37.157,37.157,0,0,0-1.845-5.656l-1.878-.85s-2.445.918-8.1,2.572c-3.93,1.146-5.407,2.716-5.931,3.934a2.771,2.771,0,0,0-.182,1.874" transform="translate(-254.94 -253.017)" fill="#53aedb"/>
      <path id="Trazado_608665" data-name="Trazado 608665" d="M441.961,455.8l18.17-.241c-.055-.584-.135-1.125-.233-1.633H442.143a2.771,2.771,0,0,0-.182,1.874" transform="translate(-254.94 -261.89)" fill="#cff3fc"/>
      <path id="Trazado_608666" data-name="Trazado 608666" d="M491.6,336.913s2.124,15.289-1.612,16.706-26.614,1.616-26.614,1.616l1.223,26.783H454.054s-5.661-30.934-1.392-35.883,20.8-4.658,20.531-4.726c-2.28-.575-4.15-4.235-4.15-4.235Z" transform="translate(-260.244 -194.382)" fill="#0f2752"/>
      <path id="Trazado_608667" data-name="Trazado 608667" d="M540.269,257.361c-.334-1.159-9.21-4.768-9.21-4.768a31.581,31.581,0,0,0-3.114,13.419c0,7.547.03,59.891.03,59.891l15.374-1.045s-.715-59.329-3.08-67.5" transform="translate(-304.597 -145.733)" fill="#fefffe"/>
      <path id="Trazado_608668" data-name="Trazado 608668" d="M527.707,274.427a117.32,117.32,0,0,1,0-12.315c.271-3.334,2.957-10.069,2.957-10.069a32.909,32.909,0,0,1,3.177,1.176c1.142.537,1.278,9.827,1.176,10.06s-3.816,2.915-3.816,2.915,3.008,3.105,2.987,3.448-6.481,4.785-6.481,4.785" transform="translate(-304.359 -145.416)" fill="#e1e8f5"/>
      <rect id="Rectángulo_377398" data-name="Rectángulo 377398" width="1.84" height="9.654" transform="matrix(0.123, -0.992, 0.992, 0.123, 225.742, 168.535)" fill="#e1e8f5"/>
      <path id="Trazado_608669" data-name="Trazado 608669" d="M507.779,325s-3.858.542-3.664,1.646,4.734.728,4.734.728Z" transform="translate(-290.845 -187.51)" fill="#d68163"/>
      <path id="Trazado_608670" data-name="Trazado 608670" d="M512.874,318.9a1.328,1.328,0,0,0-2.1.025l-1.421,1.294a3.459,3.459,0,0,0-1.218,1.68,1.263,1.263,0,0,0,1.2,1.553,1.186,1.186,0,0,0,.093,1.138,1.355,1.355,0,0,0,1.091.537,1.126,1.126,0,0,0,.25,1.007.8.8,0,0,0,1.032.216,1.291,1.291,0,0,0,1.062,1.168,1.714,1.714,0,0,0,1.54-.415,3.542,3.542,0,0,0,3.456-.478s.639-2.5.965-3.617c-.423-.25-4.446-3.029-5.952-4.108" transform="translate(-293.152 -183.705)" fill="#e8aa80"/>
      <path id="Trazado_608671" data-name="Trazado 608671" d="M511.225,326.766a11.615,11.615,0,0,1,2.28-2.183" transform="translate(-294.951 -187.268)" fill="none" stroke="#cf5953" stroke-linecap="round" stroke-linejoin="round" stroke-width="1"/>
      <path id="Trazado_608672" data-name="Trazado 608672" d="M513.975,331.074a10.339,10.339,0,0,1,1.984-2" transform="translate(-296.537 -189.858)" fill="none" stroke="#cf5953" stroke-linecap="round" stroke-linejoin="round" stroke-width="1"/>
      <path id="Trazado_608673" data-name="Trazado 608673" d="M516.865,334.266a11.829,11.829,0,0,1,1.438-1.713" transform="translate(-298.205 -191.866)" fill="none" stroke="#cf5953" stroke-linecap="round" stroke-linejoin="round" stroke-width="1"/>
      <path id="Trazado_608674" data-name="Trazado 608674" d="M521.866,337a1.118,1.118,0,0,1-.491-.783" transform="translate(-300.807 -193.978)" fill="none" stroke="#cf5953" stroke-linecap="round" stroke-linejoin="round" stroke-width="1"/>
      <path id="Trazado_608675" data-name="Trazado 608675" d="M520.748,337.533a1.509,1.509,0,0,1-.753.275" transform="translate(-300.011 -194.739)" fill="none" stroke="#cf5953" stroke-linecap="round" stroke-linejoin="round" stroke-width="1"/>
      <path id="Trazado_608676" data-name="Trazado 608676" d="M529.162,327.193l4.091-.33.863,5.305-5.491-.186Z" transform="translate(-304.989 -188.583)" fill="#e8aa80"/>
      <path id="Trazado_608677" data-name="Trazado 608677" d="M537.8,270.186l2.564-10.4s4.632,2.737,5.407,3.82c1.536,2.145,9.62,24.791,7.073,27.338s-18.707,4.582-18.707,4.582l-1.582-7.361s9.823-1.544,9.764-2.889-4.518-15.086-4.518-15.086" transform="translate(-307.257 -149.881)" fill="#fefffe"/>
      <path id="Trazado_608678" data-name="Trazado 608678" d="M541.22,272.043a21.148,21.148,0,0,0-.5,12.4,39.607,39.607,0,0,0,2.373,6.257,106.181,106.181,0,0,1-10.559,4.315" transform="translate(-307.245 -156.955)" fill="none" stroke="#e1e8f5" stroke-linecap="round" stroke-miterlimit="10" stroke-width="1"/>
      <path id="Trazado_608679" data-name="Trazado 608679" d="M535.445,340.043a16.075,16.075,0,0,0,.7,2.115,60.343,60.343,0,0,0,10.331-1.887" transform="translate(-308.924 -196.187)" fill="none" stroke="#e1e8f5" stroke-linecap="round" stroke-miterlimit="10" stroke-width="1"/>
      <path id="Trazado_608680" data-name="Trazado 608680" d="M549.044,303.289a5.868,5.868,0,0,1-3.249-2.716" transform="translate(-314.896 -173.415)" fill="none" stroke="#e1e8f5" stroke-linecap="round" stroke-miterlimit="10" stroke-width="1"/>
      <path id="Trazado_608681" data-name="Trazado 608681" d="M466.63,120.163a15.145,15.145,0,1,1-15.145,15.145,15.145,15.145,0,0,1,15.145-15.145" transform="translate(-260.484 -69.328)" fill="#82ced8"/>
      <path id="Trazado_608682" data-name="Trazado 608682" d="M463.362,142.853c3.587-5.847,9.722,1.811,9.722,1.811s6.481-6.853,9.722-1.811c3.917,6.1-9.887,13.673-9.887,13.673s-13.292-7.59-9.557-13.673" transform="translate(-266.954 -81.15)" fill="#ba2f54"/>
      <path id="Trazado_608683" data-name="Trazado 608683" d="M454.935,149.826h7.9l1.218-4.852,2.449,9.756,2.12-11.9,1.777,10.661,2.771-6.684,1.206,3.038h6.443" transform="translate(-262.474 -82.407)" fill="none" stroke="#fff0f4" stroke-miterlimit="10" stroke-width="1"/>
      <path id="Trazado_608684" data-name="Trazado 608684" d="M227.91,46.693a15.145,15.145,0,1,1-15.145,15.145A15.145,15.145,0,0,1,227.91,46.693" transform="translate(-122.755 -26.939)" fill="#82ced8"/>
      <path id="Trazado_608685" data-name="Trazado 608685" d="M243.8,55.519a4.245,4.245,0,0,1,5.445,2.526l4,10.919a4.244,4.244,0,0,1-7.97,2.919l-4-10.919a4.241,4.241,0,0,1,2.526-5.445" transform="translate(-139.05 -31.882)" fill="#941b3f"/>
      <path id="Trazado_608686" data-name="Trazado 608686" d="M243.8,55.519a4.245,4.245,0,0,1,5.445,2.526l2,5.462-7.97,2.919-2-5.462a4.241,4.241,0,0,1,2.526-5.445" transform="translate(-139.05 -31.882)" fill="#ebe1e2"/>
      <path id="Trazado_608687" data-name="Trazado 608687" d="M222.5,71.477a4.239,4.239,0,0,1,6,0l8.224,8.224a4.242,4.242,0,0,1-6,6L222.5,77.476a4.246,4.246,0,0,1,0-6" transform="translate(-127.657 -40.521)" fill="#ba2f54"/>
      <path id="Trazado_608688" data-name="Trazado 608688" d="M222.5,71.477a4.239,4.239,0,0,1,6,0l4.112,4.112-6,6L222.5,77.476a4.246,4.246,0,0,1,0-6" transform="translate(-127.657 -40.521)" fill="#fff"/>
      <path id="Trazado_608689" data-name="Trazado 608689" d="M456.07,10.893a15.145,15.145,0,1,1-15.145,15.145A15.145,15.145,0,0,1,456.07,10.893" transform="translate(-254.391 -6.285)" fill="#82ced8"/>
      <path id="Trazado_608690" data-name="Trazado 608690" d="M473.717,25.843V36.935a7.058,7.058,0,0,1-3.092,5.842L466.762,45.4a1.92,1.92,0,0,1-2.115.03l-4.159-2.669a7.065,7.065,0,0,1-3.253-5.944V25.843Z" transform="translate(-263.801 -14.91)" fill="#fff"/>
      <path id="Trazado_608691" data-name="Trazado 608691" d="M484.956,25.843V36.935a7.058,7.058,0,0,1-3.093,5.842L478,45.4a1.9,1.9,0,0,1-1.286.322V25.843Z" transform="translate(-275.04 -14.91)" fill="#ebe1e2"/>
      <rect id="Rectángulo_377399" data-name="Rectángulo 377399" width="10.035" height="3.101" transform="translate(196.662 18.594)" fill="#ba2f54"/>
      <rect id="Rectángulo_377400" data-name="Rectángulo 377400" width="3.101" height="10.035" transform="translate(200.132 15.128)" fill="#ba2f54"/>
    </g>
  </g>
</svg>
