<svg xmlns="http://www.w3.org/2000/svg" xmlns:xlink="http://www.w3.org/1999/xlink" width="400" height="178" viewBox="0 0 400 178">
  <defs>
    <clipPath id="clip-path">
      <rect id="Rectángulo_377544" data-name="Rectángulo 377544" width="275.997" height="175.782" fill="none"/>
    </clipPath>
    <clipPath id="clip-path-3">
      <rect id="Rectángulo_377542" data-name="Rectángulo 377542" width="275.997" height="7.991" fill="none"/>
    </clipPath>
  </defs>
  <g id="Grupo_1080081" data-name="Grupo 1080081" transform="translate(-180 -8243)">
    <g id="Grupo_1071337" data-name="Grupo 1071337" transform="translate(242.5 8245.219)">
      <g id="Grupo_1071336" data-name="Grupo 1071336" clip-path="url(#clip-path)">
        <g id="Grupo_1071335" data-name="Grupo 1071335">
          <g id="Grupo_1071334" data-name="Grupo 1071334" clip-path="url(#clip-path)">
            <g id="Grupo_1071333" data-name="Grupo 1071333" transform="translate(0 167.791)" opacity="0.21" style="mix-blend-mode: multiply;isolation: isolate">
              <g id="Grupo_1071332" data-name="Grupo 1071332">
                <g id="Grupo_1071331" data-name="Grupo 1071331" clip-path="url(#clip-path-3)">
                  <path id="Trazado_609233" data-name="Trazado 609233" d="M276,338.535c0,2.206-61.784,4-138,4s-138-1.789-138-4,61.784-4,138-4,138,1.789,138,4" transform="translate(0 -334.54)" fill="#c4adad"/>
                </g>
              </g>
            </g>
            <path id="Trazado_609234" data-name="Trazado 609234" d="M108.695,283.342H35.976a4.327,4.327,0,0,1-4.327-4.327V229.194a4.327,4.327,0,0,1,4.327-4.327h72.719a4.327,4.327,0,0,1,4.327,4.327v49.821a4.327,4.327,0,0,1-4.327,4.327" transform="translate(-15.775 -112.083)" fill="#b29d9d"/>
            <path id="Trazado_609235" data-name="Trazado 609235" d="M103.577,226.1H49.635a1.362,1.362,0,0,1-1.362-1.362v-11.2a5.76,5.76,0,0,1,5.754-5.754H99.186a5.76,5.76,0,0,1,5.753,5.754v11.2a1.362,1.362,0,0,1-1.362,1.362M51,223.371h51.217V213.53a3.033,3.033,0,0,0-3.029-3.029H54.027A3.033,3.033,0,0,0,51,213.53Z" transform="translate(-24.061 -103.565)" fill="#c4adad"/>
            <path id="Trazado_609236" data-name="Trazado 609236" d="M100.689,283.342H27.97a4.327,4.327,0,0,1-4.327-4.327V229.194a4.327,4.327,0,0,1,4.327-4.327h72.719a4.327,4.327,0,0,1,4.327,4.327v49.821a4.327,4.327,0,0,1-4.327,4.327" transform="translate(-11.785 -112.083)" fill="#c4adad"/>
            <path id="Trazado_609237" data-name="Trazado 609237" d="M104.745,261.159H23.372a.272.272,0,1,1,0-.545h81.373a.272.272,0,1,1,0,.545" transform="translate(-11.514 -129.901)" fill="#efe1e1"/>
            <path id="Trazado_609238" data-name="Trazado 609238" d="M104.872,278.77a17.535,17.535,0,1,1-17.535-17.535,17.535,17.535,0,0,1,17.535,17.535" transform="translate(-34.792 -130.211)" fill="#efe1e1"/>
            <path id="Trazado_609239" data-name="Trazado 609239" d="M103.626,296.257h-1.664a1.149,1.149,0,0,1-1.15-1.15V277.974a1.15,1.15,0,0,1,1.15-1.15h1.664a1.15,1.15,0,0,1,1.15,1.15v17.133a1.149,1.149,0,0,1-1.15,1.15" transform="translate(-50.249 -137.981)" fill="#fff"/>
            <path id="Trazado_609240" data-name="Trazado 609240" d="M104.823,293.4v1.664a1.149,1.149,0,0,1-1.15,1.15H86.54a1.15,1.15,0,0,1-1.15-1.15V293.4a1.15,1.15,0,0,1,1.15-1.15h17.133a1.149,1.149,0,0,1,1.15,1.15" transform="translate(-42.562 -145.668)" fill="#fff"/>
            <path id="Trazado_609241" data-name="Trazado 609241" d="M489.193,168.282H448.755a3.588,3.588,0,0,0-3.588,3.588v79.68a3.588,3.588,0,0,0,3.588,3.588h40.438a3.588,3.588,0,0,0,3.588-3.588V171.87a3.588,3.588,0,0,0-3.588-3.588" transform="translate(-221.891 -83.879)" fill="#85a6d6"/>
            <path id="Trazado_609242" data-name="Trazado 609242" d="M481.21,255.138H440.772a3.588,3.588,0,0,1-3.588-3.588V171.87a3.588,3.588,0,0,1,3.588-3.589H481.21a3.588,3.588,0,0,1,3.588,3.589v79.68a3.588,3.588,0,0,1-3.588,3.588" transform="translate(-217.911 -83.879)" fill="#92b4ea"/>
            <path id="Trazado_609243" data-name="Trazado 609243" d="M464.7,310.361a8.049,8.049,0,1,1-8.049-8.049,8.049,8.049,0,0,1,8.049,8.049" transform="translate(-223.601 -150.685)" fill="#c5dbf9"/>
            <path id="Trazado_609244" data-name="Trazado 609244" d="M457.106,318.25a.364.364,0,0,1-.158-.036.372.372,0,0,1-.179-.5l6.868-14.545a.373.373,0,0,1,.675.318l-6.868,14.545a.373.373,0,0,1-.338.214" transform="translate(-227.656 -151.008)" fill="#92b4ea"/>
            <path id="Trazado_609245" data-name="Trazado 609245" d="M504.7,310.361a8.049,8.049,0,1,1-8.049-8.049,8.049,8.049,0,0,1,8.049,8.049" transform="translate(-243.542 -150.685)" fill="#c5dbf9"/>
            <path id="Trazado_609246" data-name="Trazado 609246" d="M497.113,318.25a.365.365,0,0,1-.159-.036.372.372,0,0,1-.179-.5l6.867-14.545a.373.373,0,0,1,.675.318l-6.867,14.545a.373.373,0,0,1-.338.214" transform="translate(-247.597 -151.008)" fill="#92b4ea"/>
            <path id="Trazado_609247" data-name="Trazado 609247" d="M464.7,267.653a8.049,8.049,0,1,1-8.049-8.049,8.049,8.049,0,0,1,8.049,8.049" transform="translate(-223.601 -129.398)" fill="#c5dbf9"/>
            <path id="Trazado_609248" data-name="Trazado 609248" d="M457.106,275.543a.363.363,0,0,1-.158-.036.373.373,0,0,1-.179-.5l6.868-14.545a.373.373,0,0,1,.675.318l-6.868,14.545a.373.373,0,0,1-.338.214" transform="translate(-227.656 -129.72)" fill="#92b4ea"/>
            <path id="Trazado_609249" data-name="Trazado 609249" d="M504.7,267.653a8.049,8.049,0,1,1-8.049-8.049,8.049,8.049,0,0,1,8.049,8.049" transform="translate(-243.542 -129.398)" fill="#c5dbf9"/>
            <path id="Trazado_609250" data-name="Trazado 609250" d="M497.113,275.543a.365.365,0,0,1-.159-.036.373.373,0,0,1-.179-.5l6.867-14.545a.373.373,0,0,1,.675.318l-6.867,14.545a.373.373,0,0,1-.338.214" transform="translate(-247.597 -129.72)" fill="#92b4ea"/>
            <path id="Trazado_609251" data-name="Trazado 609251" d="M464.7,224.946a8.049,8.049,0,1,1-8.049-8.049,8.049,8.049,0,0,1,8.049,8.049" transform="translate(-223.601 -108.111)" fill="#c5dbf9"/>
            <path id="Trazado_609252" data-name="Trazado 609252" d="M457.106,232.835a.363.363,0,0,1-.158-.036.372.372,0,0,1-.179-.5l6.868-14.545a.373.373,0,1,1,.675.318l-6.868,14.545a.373.373,0,0,1-.338.214" transform="translate(-227.656 -108.433)" fill="#92b4ea"/>
            <path id="Trazado_609253" data-name="Trazado 609253" d="M504.7,224.946a8.049,8.049,0,1,1-8.049-8.049,8.049,8.049,0,0,1,8.049,8.049" transform="translate(-243.542 -108.111)" fill="#c5dbf9"/>
            <path id="Trazado_609254" data-name="Trazado 609254" d="M497.113,232.835a.365.365,0,0,1-.159-.036.372.372,0,0,1-.179-.5l6.867-14.545a.373.373,0,1,1,.675.318l-6.867,14.545a.373.373,0,0,1-.338.214" transform="translate(-247.597 -108.433)" fill="#92b4ea"/>
            <path id="Trazado_609255" data-name="Trazado 609255" d="M464.7,182.238a8.049,8.049,0,1,1-8.049-8.049,8.049,8.049,0,0,1,8.049,8.049" transform="translate(-223.601 -86.823)" fill="#c5dbf9"/>
            <path id="Trazado_609256" data-name="Trazado 609256" d="M457.106,190.128a.373.373,0,0,1-.337-.533l6.868-14.545a.373.373,0,0,1,.675.318l-6.868,14.545a.373.373,0,0,1-.338.214" transform="translate(-227.656 -87.146)" fill="#92b4ea"/>
            <path id="Trazado_609257" data-name="Trazado 609257" d="M504.7,182.238a8.049,8.049,0,1,1-8.049-8.049,8.049,8.049,0,0,1,8.049,8.049" transform="translate(-243.542 -86.823)" fill="#c5dbf9"/>
            <path id="Trazado_609258" data-name="Trazado 609258" d="M497.113,190.128a.373.373,0,0,1-.337-.533l6.867-14.545a.373.373,0,0,1,.675.318l-6.867,14.545a.373.373,0,0,1-.338.214" transform="translate(-247.597 -87.146)" fill="#92b4ea"/>
            <path id="Trazado_609259" data-name="Trazado 609259" d="M178,110.244s-4.707,10.611-7.382,9.934-3.578-4.087-3.578-4.087-3.443-5.9-.089-7.547c3.725-1.824,11.049,1.7,11.049,1.7" transform="translate(-82.484 -53.842)" fill="#f48462"/>
            <path id="Trazado_609260" data-name="Trazado 609260" d="M134.338,300.616l5.3,9.075,12.214-3.874-6.256-10.331Z" transform="translate(-66.96 -147.283)" fill="#f48462"/>
            <path id="Trazado_609261" data-name="Trazado 609261" d="M88.185,314.543l.334-9.962,11.854-.593v11.147Z" transform="translate(-43.955 -151.521)" fill="#f48462"/>
            <path id="Trazado_609262" data-name="Trazado 609262" d="M38.694,108.879s5.333,13.334,13.02,17.6a21.528,21.528,0,0,0,13.326,2.057l-1.2-12.607L56.9,114.2a39.984,39.984,0,0,1-6.087-4.039l-5.176-5.8Z" transform="translate(-19.287 -52.018)" fill="#f48462"/>
            <path id="Trazado_609263" data-name="Trazado 609263" d="M103.808,181.3l-.548,28.137s-.3,13.956-.809,25.461c-.171,4.005-.881,10.74-1.106,13.461H83.662c-.072-12.061-.869-47.517-.348-53.291.628-7.1,1.886-13.894,1.886-13.894l16.327.108Z" transform="translate(-41.44 -90.306)" fill="#ffb164"/>
            <path id="Trazado_609264" data-name="Trazado 609264" d="M126.331,247.3c-2.092-3.511-6.97-14.258-8.9-18.721-.864-1.995,1.08-48.76,1.08-48.76v-.107l5.64-1.473s16.046,49.006,19.9,63.07Z" transform="translate(-58.421 -88.843)" fill="#ffb164"/>
            <path id="Trazado_609265" data-name="Trazado 609265" d="M89.25,192.626a4,4,0,0,1-.929-.11.161.161,0,0,1,.074-.313c3.509.825,5.744-3.71,5.766-3.756a.161.161,0,0,1,.29.14c-.022.044-1.987,4.04-5.2,4.04" transform="translate(-43.961 -93.885)" fill="#fff"/>
            <path id="Trazado_609266" data-name="Trazado 609266" d="M120.5,242.171a.161.161,0,0,1-.161-.157l-.851-42.381a.162.162,0,0,1,.073-.138l4.906-3.239a.161.161,0,0,1,.177.268l-4.832,3.19.849,42.292a.161.161,0,0,1-.158.165Z" transform="translate(-59.556 -97.809)" fill="#fff"/>
            <path id="Trazado_609267" data-name="Trazado 609267" d="M98.209,124.441s4.734.2,6.611,3.7,3.295,24.4,3.295,24.4A36.093,36.093,0,0,1,95.207,154.6c-7.659-.092-10.249-1.927-10.249-1.927l-1.474-12.886s.233-13.98,2.143-14.933,9.413-1.166,12.583-.412" transform="translate(-41.612 -61.8)" fill="#5c69a5"/>
            <path id="Trazado_609268" data-name="Trazado 609268" d="M35.911,96.7s-.75-3.326-2.527-4.841-3.879-2.492-3.511-1.143a21.608,21.608,0,0,0,1.6,3.552l-3.224-.858a27.854,27.854,0,0,0-3.629-1.383,1.581,1.581,0,0,0-2.008.716s-1.527-.407-2.191.042-.193,1.407-.193,1.407-2.192.042-1.367,1.72,5.161,4.5,7.264,5.477A33.19,33.19,0,0,0,32.961,103s4.254.93,2.95-6.3" transform="translate(-9.308 -44.898)" fill="#f48462"/>
            <path id="Trazado_609269" data-name="Trazado 609269" d="M29.377,101.4a.161.161,0,0,1-.076-.3l5.592-3a.161.161,0,1,1,.152.284l-5.592,3a.159.159,0,0,1-.076.019" transform="translate(-14.562 -48.886)"/>
            <path id="Trazado_609270" data-name="Trazado 609270" d="M46.09,103.28a.16.16,0,0,1-.06-.012,3.317,3.317,0,0,1-2.014-4.076.161.161,0,0,1,.307.1,2.957,2.957,0,0,0,1.827,3.681.161.161,0,0,1-.06.31" transform="translate(-21.875 -49.385)"/>
            <path id="Trazado_609271" data-name="Trazado 609271" d="M38.694,110.749s3.783,10.778,10.724,15.27c5.474,3.543,13.072,3.765,13.072,3.765l6.059-15.264S57.7,114.2,54.707,111.975a93.043,93.043,0,0,1-7.784-7.069Z" transform="translate(-19.287 -52.29)" fill="#5c69a5"/>
            <path id="Trazado_609272" data-name="Trazado 609272" d="M69.292,124.376a.485.485,0,0,1-.451-.242c-.477-.831,1.212-3.815,1.556-4.4a.161.161,0,0,1,.3.076c0,.137.092,3.372-.809,4.3a.813.813,0,0,1-.6.268m1.083-3.951c-.713,1.313-1.515,3.1-1.255,3.549.023.039.061.08.172.08a.5.5,0,0,0,.365-.171c.589-.607.7-2.48.719-3.458" transform="translate(-34.271 -59.639)" fill="#f7b369"/>
            <path id="Trazado_609273" data-name="Trazado 609273" d="M116.408,122.328s7.033,2.64,13.212,2.343S141.027,119,141.027,119l6.466,7.208s-4.16,11.506-14,13.846-17.662-3.93-17.662-3.93Z" transform="translate(-57.736 -59.315)" fill="#5c69a5"/>
            <path id="Trazado_609274" data-name="Trazado 609274" d="M147.524,133.383a.962.962,0,0,1-.6-.209c-.895-.693-.874-2.935-.873-3.03a.161.161,0,0,1,.262-.123c.236.188,2.3,1.867,2.111,2.8a.694.694,0,0,1-.571.516,1.234,1.234,0,0,1-.325.046m-1.147-2.888c.029.638.16,1.975.739,2.425a.7.7,0,0,0,.647.106c.3-.082.331-.223.341-.27.1-.5-.915-1.567-1.727-2.261" transform="translate(-72.796 -64.79)" fill="#f7b369"/>
            <path id="Trazado_609275" data-name="Trazado 609275" d="M129.667,153.188a.16.16,0,0,1-.159-.139l-1.013-7.28a.16.16,0,0,1,.137-.182.158.158,0,0,1,.182.137l1.013,7.28a.161.161,0,0,1-.137.182l-.023,0" transform="translate(-64.046 -72.566)" fill="#f7b369"/>
            <path id="Trazado_609276" data-name="Trazado 609276" d="M97.035,329.774c0,.992-.384,2.127-1.169,2.412a56.674,56.674,0,0,1-12.7.46c-5.323-.4-6.428-.746-6.821-1.166-.192-.215.183-1.206.612-2.166.028-.048.046-.1.073-.151.219-.484.447-.952.611-1.285a5.4,5.4,0,0,1,.6-.912,15.764,15.764,0,0,0,2.009-2.857c.384-.984.968-3.111,1.361-4.11a2.027,2.027,0,0,1,1.351-1.19s3.7-2.824,11.733-.08c.95.325,1.169,5.245,1.169,5.951v.706a15.578,15.578,0,0,0,.858,3.039c.091.269.165.524.219.753a2.71,2.71,0,0,1,.091.6" transform="translate(-38.027 -158.27)" fill="#68b6d8"/>
            <path id="Trazado_609277" data-name="Trazado 609277" d="M171.991,328.359a.53.53,0,0,0,.415-.63c-.244-1.431-1.1-5.429-3.306-7.113-2.706-2.07-8.352-2.866-10.413-4.244s-4.379-4.723-5.6-4.078-3.506,3.585-6.842,3.19-5.771-.377-6.662.464-.431,11.7-.042,12.391,5.079.018,5.489.128,1.544-2.683,2.316-2.271,1.719,1.712,2.857,2.3c1.061.552,18.43.348,21.787-.142" transform="translate(-69.319 -155.62)" fill="#68b6d8"/>
            <path id="Trazado_609278" data-name="Trazado 609278" d="M175.711,316.019a.161.161,0,0,1-.149-.221,17.748,17.748,0,0,1,.956-1.951c.879-1.913,1.825-4.34,1.477-5.112a.31.31,0,0,0-.22-.192.615.615,0,0,0-.544.116c-1.118.828-1.358,4.78-1.36,4.82a.161.161,0,0,1-.322-.019c.01-.169.252-4.143,1.49-5.061a.943.943,0,0,1,.812-.171.634.634,0,0,1,.437.374c.3.676-.155,2.222-.757,3.726.731-.9,1.6-1.565,2.477-1.313a.814.814,0,0,1,.643.6c.29,1.312-2.817,4.054-3.173,4.362a.161.161,0,1,1-.211-.243c.925-.8,3.28-3.1,3.069-4.049-.039-.174-.175-.292-.416-.362-1.127-.322-2.3,1.247-3.1,2.638-.454.984-.86,1.76-.97,1.969a.161.161,0,0,1-.142.086" transform="translate(-87.501 -153.621)" fill="#5c69a5"/>
            <path id="Trazado_609279" data-name="Trazado 609279" d="M93.848,326.954a.16.16,0,0,1-.059-.011c-.282-.111-2.764-1.11-3.053-2.1a.647.647,0,0,1,.1-.58.786.786,0,0,1,.558-.321,4.236,4.236,0,0,1,2.323.889c-.77-1.075-1.9-2.854-1.6-3.628a.628.628,0,0,1,.532-.392c1.749-.266,2.938,4.833,3.068,5.417a.161.161,0,0,1-.314.069c-.333-1.5-1.469-5.352-2.7-5.168a.311.311,0,0,0-.281.191c-.3.772,1.476,3.259,2.186,4.153a.162.162,0,0,1-.013.214.16.16,0,0,1-.215.012c-.544-.436-2.133-1.542-2.939-1.437a.472.472,0,0,0-.339.19.323.323,0,0,0-.051.3c.208.708,2.137,1.6,2.862,1.888a.161.161,0,0,1-.059.311" transform="translate(-45.212 -159.903)" fill="#5c69a5"/>
            <path id="Trazado_609280" data-name="Trazado 609280" d="M100.825,97.335s2.907-4.157,1.462-5.625-3.4.238-3.4.238a1.826,1.826,0,0,0-2.288-1.5c-2.045.335-3.132,2.615-3.132,2.615s-1.938-1.685-3.051.214-.048,4.8-.048,4.8-1.445-.112-.946,1.541,2.87,3.227,2.87,3.227Z" transform="translate(-44.52 -45.06)"/>
            <path id="Trazado_609281" data-name="Trazado 609281" d="M99.24,117.549l.25,4.442a6.466,6.466,0,0,0,3.707.946c1.945.048,2.229-.909,2.229-.909l-.249-1.4-.39-2.179-4.75-.767Z" transform="translate(-49.466 -58.592)" fill="#f48462"/>
            <path id="Trazado_609282" data-name="Trazado 609282" d="M100.829,117.807a1.457,1.457,0,0,0,.153.421c1.119,2.163,3.863,2.488,4.986,2.525l-.39-2.179Z" transform="translate(-50.258 -58.72)"/>
            <path id="Trazado_609283" data-name="Trazado 609283" d="M101.929,97.543s2.645,5.437,1.9,8.584-3.6,2.772-5.319,2.24a5.618,5.618,0,0,1-2.549-1.54,2.54,2.54,0,0,1-2.33-4.4,2.488,2.488,0,0,1,1.991.184l-.908-1.574s3.212-8.322,7.214-3.494" transform="translate(-46.188 -47.869)" fill="#f48462"/>
            <path id="Trazado_609284" data-name="Trazado 609284" d="M96.257,112.275a.163.163,0,0,1-.086-.025l-2.082-1.327a.161.161,0,0,1,.173-.272l2.082,1.327a.161.161,0,0,1-.087.3" transform="translate(-46.86 -55.141)"/>
            <path id="Trazado_609285" data-name="Trazado 609285" d="M94.686,113.339a.161.161,0,0,1-.049-.314l1.3-.414a.161.161,0,1,1,.1.307l-1.3.414a.17.17,0,0,1-.049.008" transform="translate(-47.115 -56.126)"/>
            <path id="Trazado_609286" data-name="Trazado 609286" d="M104.064,103.283a.167.167,0,0,1-.044-.006.161.161,0,0,1-.111-.2,1.361,1.361,0,0,1,1.433-1.065.161.161,0,0,1,.142.177.165.165,0,0,1-.177.143,1.039,1.039,0,0,0-1.089.832.161.161,0,0,1-.155.118" transform="translate(-51.79 -50.845)"/>
            <path id="Trazado_609287" data-name="Trazado 609287" d="M111.677,102.545a.161.161,0,0,1-.1-.031,1.48,1.48,0,0,0-.533-.3.161.161,0,0,1-.2-.244c.191-.25.739.153.919.285a.161.161,0,0,1-.1.291" transform="translate(-55.237 -50.786)"/>
            <path id="Trazado_609288" data-name="Trazado 609288" d="M110.491,109.212a.158.158,0,0,1-.088-.027.161.161,0,0,1-.046-.223c.4-.611-.471-1.637-.842-1.98a.161.161,0,0,1,.219-.237c.062.058,1.526,1.43.892,2.394a.162.162,0,0,1-.135.073" transform="translate(-54.561 -53.185)"/>
            <path id="Trazado_609289" data-name="Trazado 609289" d="M112.234,106.137a.162.162,0,0,1-.153-.11l-.336-1a.161.161,0,0,1,.306-.1l.336,1a.161.161,0,0,1-.1.2.152.152,0,0,1-.051.009" transform="translate(-55.695 -52.242)"/>
            <path id="Trazado_609290" data-name="Trazado 609290" d="M106.636,106.563a.162.162,0,0,1-.153-.11l-.336-1a.161.161,0,0,1,.306-.1l.336,1a.161.161,0,0,1-.1.2.152.152,0,0,1-.051.009" transform="translate(-52.905 -52.455)"/>
            <path id="Trazado_609291" data-name="Trazado 609291" d="M103.414,97.5a1.879,1.879,0,0,0-1.641-.811,2.4,2.4,0,0,0-1.711.872,2.73,2.73,0,0,1-.86,2.915,3.69,3.69,0,0,1-2.632.865l-1.115-.328-.892-1.552,2.969-3.586,3.97-2.39,2.192,1.776Z" transform="translate(-47.134 -46.596)"/>
            <path id="Trazado_609292" data-name="Trazado 609292" d="M107.691,114.307a1.634,1.634,0,0,1-1.486-.835.161.161,0,0,1,.284-.153,1.345,1.345,0,0,0,1.343.66.161.161,0,0,1,.048.318,1.563,1.563,0,0,1-.19.011" transform="translate(-52.928 -56.441)"/>
            <path id="Trazado_609293" data-name="Trazado 609293" d="M98.464,129.518a.96.96,0,0,1-.592-.176,1.029,1.029,0,0,1-.414-.72,4.37,4.37,0,0,1,1.013-2.477.16.16,0,0,1,.2-.042c.036.019,3.637,1.882,5.756.058a.159.159,0,0,1,.176-.023c.336.163,2.006,1.014,1.957,1.7-.017.232-.2.4-.538.514-1.387.449-3.244-.664-3.706-.962-.524.446-2.58,2.125-3.852,2.125m.181-3.069a3.818,3.818,0,0,0-.867,2.132.711.711,0,0,0,.287.5c.735.551,2.841-.945,3.871-1.792a8.442,8.442,0,0,1-3.29-.843m4.054.8c.635.376,2.136,1.149,3.224.8.114-.037.307-.116.316-.231.023-.331-.958-.977-1.684-1.344a3.693,3.693,0,0,1-1.856.776" transform="translate(-48.572 -62.846)" fill="#f7b369"/>
            <path id="Trazado_609294" data-name="Trazado 609294" d="M172.34,120.967a.161.161,0,0,1-.075-.3c1.286-.677,1.746-3.276,1.751-3.3a.161.161,0,1,1,.317.055c-.02.113-.492,2.782-1.918,3.532a.16.16,0,0,1-.075.019" transform="translate(-85.821 -58.431)"/>
            <path id="Trazado_609295" data-name="Trazado 609295" d="M274.3,151.63H189.979a4.54,4.54,0,0,1-4.54-4.54V33.264a4.54,4.54,0,0,1,4.54-4.541H274.3a4.54,4.54,0,0,1,4.54,4.541V147.09a4.54,4.54,0,0,1-4.54,4.54" transform="translate(-92.431 -14.317)" fill="#d3bcbc"/>
            <path id="Trazado_609296" data-name="Trazado 609296" d="M265.338,151.63H181.017a4.54,4.54,0,0,1-4.54-4.54V33.264a4.54,4.54,0,0,1,4.54-4.541h84.321a4.54,4.54,0,0,1,4.54,4.541V147.09a4.54,4.54,0,0,1-4.54,4.54" transform="translate(-87.964 -14.317)" fill="#ead8d8"/>
            <path id="Trazado_609297" data-name="Trazado 609297" d="M167.355,109.131s-.281-1.838.5-2.479,6.3-3.3,7.355-1.825c.527.738-3.468,3.446-3.468,3.446a10.815,10.815,0,0,1-.594,3.481c-.656,1.973-2.133.913-2.133.913Z" transform="translate(-83.393 -52.031)" fill="#f48462"/>
            <path id="Trazado_609298" data-name="Trazado 609298" d="M182.708,15.83A15.83,15.83,0,1,1,166.877,0,15.83,15.83,0,0,1,182.708,15.83" transform="translate(-75.288 0)" fill="#85a6d6"/>
            <path id="Trazado_609299" data-name="Trazado 609299" d="M179.055,15.83A15.83,15.83,0,1,1,163.224,0,15.83,15.83,0,0,1,179.055,15.83" transform="translate(-73.468 0)" fill="#92b4ea"/>
            <path id="Trazado_609300" data-name="Trazado 609300" d="M177.82,31.623h-1.664a1.149,1.149,0,0,1-1.15-1.15V13.34a1.15,1.15,0,0,1,1.15-1.15h1.664a1.15,1.15,0,0,1,1.15,1.15V30.473a1.149,1.149,0,0,1-1.15,1.15" transform="translate(-87.231 -6.076)" fill="#fff"/>
            <path id="Trazado_609301" data-name="Trazado 609301" d="M179.017,28.761v1.664a1.149,1.149,0,0,1-1.15,1.15H160.734a1.15,1.15,0,0,1-1.15-1.15V28.761a1.15,1.15,0,0,1,1.15-1.15h17.133a1.149,1.149,0,0,1,1.15,1.15" transform="translate(-79.544 -13.763)" fill="#fff"/>
            <path id="Trazado_609302" data-name="Trazado 609302" d="M263.216,40.955H234.6a5.523,5.523,0,0,1-5.517-5.517V29a.817.817,0,0,1,1.635,0v6.441A3.886,3.886,0,0,0,234.6,39.32h28.618a3.886,3.886,0,0,0,3.882-3.882V29a.818.818,0,0,1,1.635,0v6.441a5.523,5.523,0,0,1-5.517,5.517" transform="translate(-114.184 -14.046)" fill="#5c69a5"/>
            <path id="Trazado_609303" data-name="Trazado 609303" d="M298.042,73.164a11.95,11.95,0,0,0,4.025,8.954c.113.1.231.2.349.3a11.273,11.273,0,0,0,1.375.98c.211.128.424.252.642.367.062.034.123.065.188.1a11.993,11.993,0,0,0,7.35,1.125,11.506,11.506,0,0,0,1.337-.3,11.942,11.942,0,0,0,3.948-1.971c.28-.213.55-.439.812-.676a11.827,11.827,0,0,0,1.226-1.285c.128-.156.255-.318.373-.483a11.982,11.982,0,1,0-21.625-7.112" transform="translate(-148.557 -30.496)" fill="#fff"/>
            <path id="Trazado_609304" data-name="Trazado 609304" d="M315.424,73.516s-2.036-2.359-1.244-3.346,2.092-.067,2.092-.067a1.121,1.121,0,0,1,1.3-1.062,3.035,3.035,0,0,1,2.077,1.4s1.079-1.151,1.878-.06a4.067,4.067,0,0,1,.329,2.927s.877-.158.675.883a4.969,4.969,0,0,1-1.552,2.151Z" transform="translate(-156.51 -34.411)"/>
            <path id="Trazado_609305" data-name="Trazado 609305" d="M322.151,85.3l.124,2.73a3.968,3.968,0,0,1-2.206.81c-1.186.15-1.419-.417-1.419-.417l.065-.873.1-1.356,2.855-.765Z" transform="translate(-158.829 -42.515)" fill="#f48462"/>
            <path id="Trazado_609306" data-name="Trazado 609306" d="M321.737,85.554a.942.942,0,0,1-.067.267,3.541,3.541,0,0,1-2.89,1.854l.1-1.356Z" transform="translate(-158.893 -42.644)"/>
            <path id="Trazado_609307" data-name="Trazado 609307" d="M316.4,73.648s-1.277,3.488-.626,5.364,2.372,1.47,3.39,1.037a3.453,3.453,0,0,0,1.462-1.1,1.561,1.561,0,0,0,1.149-2.834,1.528,1.528,0,0,0-1.2.237l.457-1.019s-2.482-4.885-4.627-1.685" transform="translate(-157.303 -36.168)" fill="#f48462"/>
            <path id="Trazado_609308" data-name="Trazado 609308" d="M325.746,81.9a.1.1,0,0,1-.061-.177l1.19-.94a.1.1,0,0,1,.122.155l-1.19.94a.1.1,0,0,1-.061.022" transform="translate(-162.316 -40.254)"/>
            <path id="Trazado_609309" data-name="Trazado 609309" d="M327.165,82.53c-.02,0-.84-.174-.84-.174a.1.1,0,0,1,.04-.194l.82.172a.1.1,0,0,1-.02.2" transform="translate(-162.615 -40.952)"/>
            <path id="Trazado_609310" data-name="Trazado 609310" d="M320.831,76.958a.1.1,0,0,1-.092-.063.633.633,0,0,0-.716-.44.1.1,0,0,1-.042-.194.836.836,0,0,1,.942.561.1.1,0,0,1-.056.128.091.091,0,0,1-.036.007" transform="translate(-159.453 -38.005)"/>
            <path id="Trazado_609311" data-name="Trazado 609311" d="M316.5,76.917a.1.1,0,0,1-.066-.173c.1-.092.414-.37.544-.231a.1.1,0,0,1-.1.161.9.9,0,0,0-.307.217.1.1,0,0,1-.066.026" transform="translate(-157.706 -38.118)"/>
            <path id="Trazado_609312" data-name="Trazado 609312" d="M317.536,80.914a.1.1,0,0,1-.077-.037c-.447-.55.361-1.48.4-1.519a.1.1,0,0,1,.149.131c-.206.233-.675.914-.391,1.263a.1.1,0,0,1-.014.139.1.1,0,0,1-.063.022" transform="translate(-158.168 -39.539)"/>
            <path id="Trazado_609313" data-name="Trazado 609313" d="M316.64,79.144c-.075-.015-.109-.067-.1-.121l.142-.634a.1.1,0,0,1,.118-.075.1.1,0,0,1,.075.118l-.143.634a.1.1,0,0,1-.1.077" transform="translate(-157.778 -39.034)"/>
            <path id="Trazado_609314" data-name="Trazado 609314" d="M320.087,79.054c-.075-.015-.109-.067-.1-.121l.142-.633a.1.1,0,0,1,.118-.075.1.1,0,0,1,.075.118l-.143.633a.1.1,0,0,1-.1.077" transform="translate(-159.496 -38.989)"/>
            <path id="Trazado_609315" data-name="Trazado 609315" d="M316.393,73.735a1.152,1.152,0,0,1,.952-.6,1.473,1.473,0,0,1,1.1.426,1.677,1.677,0,0,0,.707,1.727,2.266,2.266,0,0,0,1.663.364l.661-.27.448-1-2.038-2.006-2.576-1.213-1.228,1.222Z" transform="translate(-157.549 -35.47)"/>
            <path id="Trazado_609316" data-name="Trazado 609316" d="M319.107,83.858a.1.1,0,0,1-.11-.1.1.1,0,0,1,.1-.094.818.818,0,0,0,.779-.487.1.1,0,0,1,.183.076,1.031,1.031,0,0,1-.956.609" transform="translate(-159.002 -41.427)"/>
            <path id="Trazado_609317" data-name="Trazado 609317" d="M306.763,97.265a11.282,11.282,0,0,0,1.375.979c.211.129.424.252.642.368.062.034.123.064.188.1a11.993,11.993,0,0,0,7.35,1.125,11.526,11.526,0,0,0,1.337-.3,11.944,11.944,0,0,0,3.947-1.971c.28-.214.55-.44.813-.676a11.829,11.829,0,0,0,1.226-1.285c.128-.157.254-.319.373-.484a9.207,9.207,0,0,0-4.151-3.585,7.5,7.5,0,0,0-1.809-.47c-.039-.005-.075-.01-.113-.013-.059-.008-.118-.013-.175-.018s-.113-.011-.162-.013c-.077-.005-.151-.01-.218-.013-.162-.013-.327-.026-.483-.031-4.461-.172-6.836,1.6-6.975,1.7a.089.089,0,0,0-.028.028c-.044.049-.152.165-.308.347a21.409,21.409,0,0,0-2.827,4.207" transform="translate(-152.904 -45.342)" fill="#40507f"/>
            <path id="Trazado_609318" data-name="Trazado 609318" d="M311.154,97.259a11.993,11.993,0,0,0,7.35,1.125,11.505,11.505,0,0,0,1.337-.3,11.942,11.942,0,0,0,3.948-1.971c-.5-3.051-1.031-5.577-1.442-5.857a2.6,2.6,0,0,0-.3-.172,5.8,5.8,0,0,0-1.81-.47c-.039-.005-.074-.011-.113-.013-.059-.007-.118-.013-.175-.018s-.11-.008-.162-.013c-.077-.006-.151-.011-.218-.013-.293-.015-.48-.013-.48-.013-.016-.188-.131-1.514-.491-1.486a13.244,13.244,0,0,1-2.293.75,10.227,10.227,0,0,1-1.7-.008c-.2,0-.239,1.052-.239,1.052a6.674,6.674,0,0,0-2.251,1.378.088.088,0,0,0-.028.028c-.044.049-.151.164-.308.347a2.879,2.879,0,0,0-.308.475,19.593,19.593,0,0,0-.313,5.174" transform="translate(-155.09 -43.894)" fill="#40507f"/>
            <path id="Trazado_609319" data-name="Trazado 609319" d="M322.308,91.463a2.03,2.03,0,0,1-.455-.046.1.1,0,0,1-.074-.119.1.1,0,0,1,.119-.074,5.937,5.937,0,0,0,2.455-.389.1.1,0,1,1,.069.186,7.424,7.424,0,0,1-2.114.442" transform="translate(-160.387 -45.273)" fill="#f7b369"/>
            <path id="Trazado_609320" data-name="Trazado 609320" d="M239.845,69.636H193.9a.974.974,0,0,1,0-1.948h45.948a.974.974,0,0,1,0,1.948" transform="translate(-96.161 -33.739)" fill="#a37b90"/>
            <path id="Trazado_609321" data-name="Trazado 609321" d="M239.845,101.582H193.9a.974.974,0,0,1,0-1.948h45.948a.974.974,0,0,1,0,1.948" transform="translate(-96.161 -49.662)" fill="#a37b90"/>
            <path id="Trazado_609322" data-name="Trazado 609322" d="M234.453,85.609H193.635a.919.919,0,0,1-.919-.919V84.58a.919.919,0,0,1,.919-.919h40.818a.919.919,0,0,1,.919.919v.109a.919.919,0,0,1-.919.919" transform="translate(-96.058 -41.7)" fill="#a37b90"/>
            <path id="Trazado_609323" data-name="Trazado 609323" d="M203.649,130.6h-7.637a1.939,1.939,0,0,1-1.939-1.939v-7.637a1.938,1.938,0,0,1,1.939-1.938h7.637a1.938,1.938,0,0,1,1.939,1.938v7.637a1.939,1.939,0,0,1-1.939,1.939" transform="translate(-96.734 -59.357)" fill="#fff"/>
            <path id="Trazado_609324" data-name="Trazado 609324" d="M203.649,169.522h-7.637a1.939,1.939,0,0,1-1.939-1.939v-7.637a1.938,1.938,0,0,1,1.939-1.938h7.637a1.938,1.938,0,0,1,1.939,1.938v7.637a1.939,1.939,0,0,1-1.939,1.939" transform="translate(-96.734 -78.758)" fill="#fff"/>
            <path id="Trazado_609325" data-name="Trazado 609325" d="M203.649,208.444h-7.637a1.939,1.939,0,0,1-1.939-1.939v-7.637a1.938,1.938,0,0,1,1.939-1.938h7.637a1.938,1.938,0,0,1,1.939,1.938v7.637a1.939,1.939,0,0,1-1.939,1.939" transform="translate(-96.734 -98.158)" fill="#fff"/>
            <path id="Trazado_609326" data-name="Trazado 609326" d="M203.649,247.367h-7.637a1.939,1.939,0,0,1-1.939-1.939v-7.637a1.938,1.938,0,0,1,1.939-1.938h7.637a1.938,1.938,0,0,1,1.939,1.938v7.637a1.939,1.939,0,0,1-1.939,1.939" transform="translate(-96.734 -117.559)" fill="#fff"/>
            <path id="Trazado_609327" data-name="Trazado 609327" d="M200.155,130.139a.817.817,0,0,1-.64-.309l-3.623-4.56a.817.817,0,0,1,1.28-1.017l2.943,3.7,3.982-5.665a.817.817,0,1,1,1.337.94l-4.61,6.559a.818.818,0,0,1-.645.347h-.024" transform="translate(-97.553 -60.783)" fill="#68b6d8"/>
            <path id="Trazado_609328" data-name="Trazado 609328" d="M200.155,169.212a.819.819,0,0,1-.64-.309l-3.623-4.56a.817.817,0,0,1,1.28-1.017l2.943,3.7,3.982-5.665a.817.817,0,1,1,1.337.94l-4.61,6.559a.817.817,0,0,1-.645.347h-.024" transform="translate(-97.553 -80.258)" fill="#68b6d8"/>
            <path id="Trazado_609329" data-name="Trazado 609329" d="M267.984,122.737h-40.3a.508.508,0,0,1-.508-.508v-.193a.508.508,0,0,1,.508-.508h40.3a.508.508,0,0,1,.508.508v.193a.508.508,0,0,1-.508.508" transform="translate(-113.234 -60.575)" fill="#d3bcbc"/>
            <path id="Trazado_609330" data-name="Trazado 609330" d="M275.07,130.567H227.726a.55.55,0,0,1-.55-.55v-.108a.55.55,0,0,1,.55-.55H275.07a.55.55,0,0,1,.55.55v.108a.55.55,0,0,1-.55.55" transform="translate(-113.234 -64.478)" fill="#d3bcbc"/>
            <path id="Trazado_609331" data-name="Trazado 609331" d="M285.049,138.4h-57.27a.6.6,0,0,1,0-1.208h57.27a.6.6,0,1,1,0,1.208" transform="translate(-113.234 -68.381)" fill="#d3bcbc"/>
            <path id="Trazado_609332" data-name="Trazado 609332" d="M267.984,239.5h-40.3a.508.508,0,0,1-.508-.508V238.8a.508.508,0,0,1,.508-.508h40.3a.508.508,0,0,1,.508.508V239a.507.507,0,0,1-.508.508" transform="translate(-113.234 -118.778)" fill="#d3bcbc"/>
            <path id="Trazado_609333" data-name="Trazado 609333" d="M275.07,247.335H227.726a.55.55,0,0,1-.55-.55v-.108a.55.55,0,0,1,.55-.55H275.07a.55.55,0,0,1,.55.55v.108a.55.55,0,0,1-.55.55" transform="translate(-113.234 -122.68)" fill="#d3bcbc"/>
            <path id="Trazado_609334" data-name="Trazado 609334" d="M285.049,255.165h-57.27a.6.6,0,1,1,0-1.208h57.27a.6.6,0,1,1,0,1.208" transform="translate(-113.234 -126.583)" fill="#d3bcbc"/>
            <path id="Trazado_609335" data-name="Trazado 609335" d="M267.984,161.66h-40.3a.508.508,0,0,1-.508-.508v-.193a.508.508,0,0,1,.508-.508h40.3a.508.508,0,0,1,.508.508v.193a.508.508,0,0,1-.508.508" transform="translate(-113.234 -79.976)" fill="#d3bcbc"/>
            <path id="Trazado_609336" data-name="Trazado 609336" d="M275.07,169.49H227.726a.55.55,0,0,1-.55-.55v-.108a.55.55,0,0,1,.55-.55H275.07a.55.55,0,0,1,.55.55v.108a.55.55,0,0,1-.55.55" transform="translate(-113.234 -83.879)" fill="#d3bcbc"/>
            <path id="Trazado_609337" data-name="Trazado 609337" d="M268.39,177.319h-40.7a.51.51,0,0,1-.51-.51v-.188a.51.51,0,0,1,.51-.51h40.7a.51.51,0,0,1,.51.51v.188a.51.51,0,0,1-.51.51" transform="translate(-113.234 -87.781)" fill="#d3bcbc"/>
            <path id="Trazado_609338" data-name="Trazado 609338" d="M280.233,200.583H227.754a.578.578,0,0,1-.578-.578v-.051a.578.578,0,0,1,.578-.578h52.478a.578.578,0,0,1,.578.578V200a.578.578,0,0,1-.578.578" transform="translate(-113.234 -99.377)" fill="#d3bcbc"/>
            <path id="Trazado_609339" data-name="Trazado 609339" d="M270.42,208.412H227.7a.522.522,0,0,1-.523-.523v-.163a.522.522,0,0,1,.523-.523H270.42a.523.523,0,0,1,.523.523v.163a.523.523,0,0,1-.523.523" transform="translate(-113.234 -103.279)" fill="#d3bcbc"/>
            <path id="Trazado_609340" data-name="Trazado 609340" d="M277.283,216.242H227.738a.562.562,0,0,1-.562-.562V215.6a.562.562,0,0,1,.562-.562h49.545a.562.562,0,0,1,.562.562v.083a.562.562,0,0,1-.562.562" transform="translate(-113.234 -107.182)" fill="#d3bcbc"/>
            <path id="Trazado_609341" data-name="Trazado 609341" d="M338.831,316.207h1.707l2.7-5.995-5.812,3Z" transform="translate(-168.187 -154.623)" fill="#f29e4c"/>
            <path id="Trazado_609342" data-name="Trazado 609342" d="M343.695,204.252a1.053,1.053,0,0,0-1-.882c-1.5-.174-2.839-.225-3.855-1.1a5.375,5.375,0,0,1-1.978-4.091v-2a.793.793,0,0,0-.846-.725H299.778a.793.793,0,0,0-.846.725v2c0,2.931-2.542,5.352-5.833,5.735a1.023,1.023,0,0,0-.95.945c-.016.69-.021,1.76.035,3.147.372,9.349,3.481,33.019,24.33,50.43a2.188,2.188,0,0,0,2.95.005.038.038,0,0,0,.034-.005c18.694-15.615,23.125-36.256,24.111-47.1a46.189,46.189,0,0,0,.085-7.088" transform="translate(-145.615 -97.422)" fill="#f29e4c"/>
            <path id="Trazado_609343" data-name="Trazado 609343" d="M340.292,204.8a1.054,1.054,0,0,0-1-.882,7.18,7.18,0,0,1-3.855-1.644,5.376,5.376,0,0,1-1.978-4.091v-2a.792.792,0,0,0-.846-.725H296.375a.792.792,0,0,0-.846.725v2c0,2.931-2.542,5.352-5.833,5.735a1.024,1.024,0,0,0-.95.945c-.016.69-.021,1.761.035,3.147.372,9.349,3.481,33.018,24.33,50.43a2.188,2.188,0,0,0,2.95.005.04.04,0,0,0,.034-.005c18.694-15.615,23.125-36.256,24.111-47.1a39.3,39.3,0,0,0,.085-6.543" transform="translate(-143.919 -97.423)" fill="#ffb164"/>
            <path id="Trazado_609344" data-name="Trazado 609344" d="M340.28,214.986a.855.855,0,0,0-.812-.716,5.824,5.824,0,0,1-3.128-1.334,4.361,4.361,0,0,1-1.6-3.319v-1.624a.643.643,0,0,0-.686-.588h-29.4a.643.643,0,0,0-.686.588v1.624c0,2.378-2.062,4.342-4.733,4.653a.83.83,0,0,0-.77.766c-.013.56-.017,1.429.028,2.554.3,7.585,2.825,26.79,19.741,40.917a1.775,1.775,0,0,0,2.393,0,.03.03,0,0,0,.027,0c15.168-12.67,18.763-29.417,19.563-38.213a31.845,31.845,0,0,0,.069-5.309" transform="translate(-148.76 -103.38)" fill="#ead8d8"/>
            <path id="Trazado_609345" data-name="Trazado 609345" d="M337.367,229.313c-2.793-1.249-6.735.853-9.88,4.894-3.145-4.041-7.087-6.144-9.88-4.894-3.628,1.623-3.943,8.282-.7,14.874,2.279,4.637,5.71,8,8.808,9.027a4.981,4.981,0,0,0,3.55,0c3.1-1.025,6.528-4.39,8.807-9.027,3.24-6.592,2.926-13.251-.7-14.874" transform="translate(-156.843 -114.121)" fill="#a37b90"/>
            <path id="Trazado_609346" data-name="Trazado 609346" d="M325.182,255.878a.273.273,0,0,1-.267-.219l-2.558-12.9-2,7.39a.273.273,0,0,1-.263.2h-5.7a.272.272,0,0,1,0-.545h5.494l2.246-8.313a.267.267,0,0,1,.272-.2.273.273,0,0,1,.258.22l2.488,12.548,1.456-9.148a.272.272,0,0,1,.52-.062l2.063,4.957h11.73a.272.272,0,0,1,0,.545H329.009a.272.272,0,0,1-.251-.168l-1.763-4.237-1.544,9.7a.272.272,0,0,1-.263.23Z" transform="translate(-156.572 -120.269)" fill="#fff"/>
            <path id="Trazado_609347" data-name="Trazado 609347" d="M410.757,302.435l1.772,5.1s-2.446,1.177-2.7,2.463c-.26,1.313,1.147,2.18,1.147,2.18l-4.385,5.386,13.621-1.689-1.251-13.444Z" transform="translate(-202.663 -150.747)" fill="#50608e"/>
            <path id="Trazado_609348" data-name="Trazado 609348" d="M438.475,104.092a8.415,8.415,0,0,1,6.443,5.129c1.718,4.536.7,10.407.7,10.407l-8.72-2,.379-8.057Z" transform="translate(-217.77 -51.884)"/>
            <path id="Trazado_609349" data-name="Trazado 609349" d="M430.651,110.9s2.693.12,4.244-3.639a7.53,7.53,0,0,0-.39-6.7l-3.381,1.77-1.837,6.714Z" transform="translate(-213.975 -50.125)"/>
            <path id="Trazado_609350" data-name="Trazado 609350" d="M438.313,312.066v8.35l-11.764-.9v-7.98Z" transform="translate(-212.61 -155.284)" fill="#f48462"/>
            <path id="Trazado_609351" data-name="Trazado 609351" d="M397.792,177.031s-12.447,24.713-12.542,32.854,16.642,35.148,16.642,35.148a29.66,29.66,0,0,0,11.23,1.655c6.682-.216,7.732-.982,7.732-.982s-1.146-57.927-3.818-63.348-19.244-5.328-19.244-5.328" transform="translate(-192.025 -88.24)" fill="#a37b90"/>
            <path id="Trazado_609352" data-name="Trazado 609352" d="M417.4,124.473s5.918-.2,8.972,2.569,1.05,26.918,1.05,26.918a84.236,84.236,0,0,1-13.673,0,42.959,42.959,0,0,1-8.281-1.575s-.668-22.2.859-24.869,11.072-3.043,11.072-3.043" transform="translate(-202.031 -62.041)" fill="#ffb164"/>
            <path id="Trazado_609353" data-name="Trazado 609353" d="M426.334,117.935l.375,4.426s-.69,1.34-3.262,1.77a4.6,4.6,0,0,1-2.63-.059l.079-2.264.08-2.208,4.588-1.425Z" transform="translate(-209.753 -58.784)" fill="#f48462"/>
            <path id="Trazado_609354" data-name="Trazado 609354" d="M425.642,118.414a1.457,1.457,0,0,1-.092.438c-.8,2.295-3.47,3-4.576,3.195l.08-2.208Z" transform="translate(-209.832 -59.023)"/>
            <path id="Trazado_609355" data-name="Trazado 609355" d="M416.4,99.45s-1.852,5.746-.676,8.752,3.946,2.235,5.571,1.469a5.605,5.605,0,0,0,2.3-1.879,2.537,2.537,0,0,0,1.686-4.676,2.486,2.486,0,0,0-1.942.461l.678-1.684s-4.342-7.776-7.622-2.443" transform="translate(-207.02 -48.639)" fill="#f48462"/>
            <path id="Trazado_609356" data-name="Trazado 609356" d="M431.846,112.328a.161.161,0,0,1-.1-.283l1.872-1.6a.161.161,0,1,1,.21.245l-1.872,1.6a.16.16,0,0,1-.1.039" transform="translate(-215.17 -55.029)"/>
            <path id="Trazado_609357" data-name="Trazado 609357" d="M434.132,113.339l-.027,0-1.341-.227a.161.161,0,0,1-.132-.186.158.158,0,0,1,.186-.132l1.342.227a.161.161,0,0,1-.027.32" transform="translate(-215.641 -56.219)"/>
            <path id="Trazado_609358" data-name="Trazado 609358" d="M423.516,104.54a.159.159,0,0,1-.119-.053,1.038,1.038,0,0,0-1.344-.249.162.162,0,0,1-.222-.048.16.16,0,0,1,.046-.222,1.356,1.356,0,0,1,1.758.3.161.161,0,0,1-.119.27" transform="translate(-210.246 -51.723)"/>
            <path id="Trazado_609359" data-name="Trazado 609359" d="M416.463,104.9a.158.158,0,0,1-.115-.049.161.161,0,0,1,0-.228c.588-.575,1.031-.433,1.079-.415a.161.161,0,0,1-.109.3c-.018-.005-.307-.085-.744.343a.162.162,0,0,1-.113.046" transform="translate(-207.503 -51.928)"/>
            <path id="Trazado_609360" data-name="Trazado 609360" d="M428.572,124.3s-4.128,60.71-3.788,61.4,8.148,1.9,10.9,1.381,4.277-1.381,4.72-1.9-.287-40.218-.287-40.218l.43-16.306s-5.96-4.381-11.978-4.36" transform="translate(-211.721 -61.959)" fill="#f4e6e6"/>
            <path id="Trazado_609361" data-name="Trazado 609361" d="M438.606,151.659h-5.233a.81.81,0,0,1-.81-.81v-.9a.81.81,0,0,1,.81-.81h5.233a.81.81,0,0,1,.81.81v.9a.81.81,0,0,1-.81.81" transform="translate(-215.609 -74.336)" fill="#92b4ea"/>
            <path id="Trazado_609362" data-name="Trazado 609362" d="M418.378,111.674a.161.161,0,0,1-.156-.124,2.744,2.744,0,0,1,.7-2.825.161.161,0,0,1,.2.251,2.437,2.437,0,0,0-.586,2.5.162.162,0,0,1-.156.2" transform="translate(-208.406 -54.175)"/>
            <path id="Trazado_609363" data-name="Trazado 609363" d="M416.715,108.078l-.029,0a.161.161,0,0,1-.129-.188l.177-.967-.293-.366a.161.161,0,0,1,.252-.2l.339.424a.159.159,0,0,1,.032.13l-.191,1.038a.161.161,0,0,1-.158.132" transform="translate(-207.555 -52.981)"/>
            <path id="Trazado_609364" data-name="Trazado 609364" d="M421.605,116.044a1.418,1.418,0,0,1-.526-.1.16.16,0,0,1-.1-.132.163.163,0,0,1,.07-.148l1.388-.945a.16.16,0,0,1,.175,0,.162.162,0,0,1,.075.159,1.322,1.322,0,0,1-.587,1.052,1.018,1.018,0,0,1-.5.123m-.067-.325a.717.717,0,0,0,.412-.081.773.773,0,0,0,.329-.424Z" transform="translate(-209.837 -57.164)"/>
            <path id="Trazado_609365" data-name="Trazado 609365" d="M399.439,128.205a37.213,37.213,0,0,1-5.75,2.583,18.793,18.793,0,0,1-4.717.964s-.009,3.452.1,7.053a32.182,32.182,0,0,1-.378,6.327s8.959,1.925,11.035-.933-.3-15.994-.3-15.994" transform="translate(-193.745 -63.903)" fill="#7772d3"/>
            <path id="Trazado_609366" data-name="Trazado 609366" d="M362,113.682s-1.658-4.622-3.026-4.724.249,3.651.249,3.651l-3.7-1.416s-4.216-1.175-5.054-.808.542,1.733.542,1.733-3-.9-2.58.563,2.475,2.3,2.475,2.3-2.934-1.04-2.272.675c.358.927,6.81,4.834,11.158,4.695s3.17-3.043,3.17-3.043Z" transform="translate(-173.652 -54.308)" fill="#f48462"/>
            <path id="Trazado_609367" data-name="Trazado 609367" d="M356.468,119.339a.159.159,0,0,1-.122-.057.161.161,0,0,1,.018-.227l3.733-3.189a.161.161,0,0,1,.21.245l-3.733,3.189a.161.161,0,0,1-.1.039" transform="translate(-177.599 -57.734)"/>
            <path id="Trazado_609368" data-name="Trazado 609368" d="M370.1,121.665a2.543,2.543,0,0,1-1.9-1.143c-.485-.854-.347-2.06.407-3.586a.161.161,0,1,1,.289.143c-.7,1.423-.844,2.528-.416,3.284a2.24,2.24,0,0,0,1.634.98.161.161,0,0,1-.013.322" transform="translate(-183.385 -58.242)"/>
            <path id="Trazado_609369" data-name="Trazado 609369" d="M411.736,259.327a.161.161,0,0,1-.16-.152c-1.07-18.362-.731-47.853-.708-49.741l-5.788-3.428a.161.161,0,1,1,.164-.277l5.868,3.476a.162.162,0,0,1,.079.14c0,.307-.393,30.943.706,49.812a.161.161,0,0,1-.151.17h-.01" transform="translate(-201.869 -102.533)" fill="#f7b369"/>
            <path id="Trazado_609370" data-name="Trazado 609370" d="M410.735,248.294a.162.162,0,0,1-.051-.008c-.595-.2-5.82-1.972-6.15-3.515a.778.778,0,0,1,.277-.765,1.2,1.2,0,0,1,.954-.3c1.968.184,4.97,4.164,5.1,4.333a.161.161,0,0,1-.129.257m-5.112-4.275a.844.844,0,0,0-.594.224.464.464,0,0,0-.18.461c.223,1.044,3.615,2.454,5.421,3.1-.84-1.043-3.07-3.642-4.535-3.778a1.1,1.1,0,0,0-.113-.006" transform="translate(-201.629 -121.469)" fill="#f7b369"/>
            <path id="Trazado_609371" data-name="Trazado 609371" d="M419.713,331.521a1.592,1.592,0,0,0,1.481-1.615c.044-3.456.568-11.2-.063-11.207-.8-.01-8.908,2.091-8.908,2.091s-.17-4.792-3.513-3.974c-2.565.627-5.567,3.636-6.825,5a2.882,2.882,0,0,1-1.459.864c-2.389.565-8.967,2.437-9.106,5.952-.169,4.3,1.561,3.827,2.366,3.837.69.009,20.445-.739,26.027-.95" transform="translate(-195.045 -157.868)" fill="#5c69a5"/>
            <path id="Trazado_609372" data-name="Trazado 609372" d="M425.035,326.046a.161.161,0,0,1-.055-.312l3.85-1.41a.163.163,0,0,1,.207.1.161.161,0,0,1-.1.207l-3.85,1.41a.162.162,0,0,1-.055.01" transform="translate(-211.776 -161.652)" fill="#fff"/>
            <path id="Trazado_609373" data-name="Trazado 609373" d="M422.211,108.079l-.029,0a.161.161,0,0,1-.129-.188l.177-.959-.382-.413a.161.161,0,1,1,.236-.219l.437.472a.159.159,0,0,1,.04.138l-.191,1.039a.161.161,0,0,1-.158.132" transform="translate(-210.246 -52.957)"/>
            <path id="Trazado_609374" data-name="Trazado 609374" d="M423.517,100.681l-.514.6.257-.86a5.851,5.851,0,0,1-2.8-1.01c-1.586-1-1.962-3.437-1.962-3.437a8.483,8.483,0,0,0-1.438.907,2.508,2.508,0,0,0-.91,1.211s-1.987-5.507,2.182-6.222,7.129,2.819,7.129,2.819a3.1,3.1,0,0,1,2.625,2.67,5.938,5.938,0,0,1-1.4,4.152,2.27,2.27,0,0,0-3.176-.827" transform="translate(-207.193 -45.743)"/>
            <path id="Trazado_609375" data-name="Trazado 609375" d="M370.823,122.036l-10.278,5.548s3.7,10.689,10.52,13.4c6.61,2.625,10.08,2.041,10.08,2.041L375.038,174.2s9.143-21.5,9.343-22.675,6.479-27.858,6.479-27.858-1.481-.213-4.738,1.04a28.554,28.554,0,0,1-9.77,2.091c-3.007,0-5.529-4.761-5.529-4.761" transform="translate(-179.711 -60.828)" fill="#f4e6e6"/>
            <path id="Trazado_609376" data-name="Trazado 609376" d="M420.569,128.493l-.25,1.99s5.5-2.3,5.862-3.334-5.367.578-5.367.578Z" transform="translate(-209.505 -63.204)" fill="#f48462"/>
            <path id="Trazado_609377" data-name="Trazado 609377" d="M420.159,130.584a.161.161,0,0,1-.16-.171l.213-3.58a.164.164,0,0,1,.171-.151.161.161,0,0,1,.151.171l-.2,3.321c1-.424,4.827-2.1,5.552-3.175a.161.161,0,1,1,.266.18c-.884,1.309-5.728,3.308-5.934,3.393a.163.163,0,0,1-.061.012" transform="translate(-209.345 -63.144)" fill="#fff"/>
            <path id="Trazado_609378" data-name="Trazado 609378" d="M438.21,229.483c-2.028,0-5.705-.334-6-.722-.272-.355.068-9.061.226-12.788a.162.162,0,0,1,.161-.154h8.858a.161.161,0,0,1,.161.161v12.683a.16.16,0,0,1-.068.131,5.364,5.364,0,0,1-2.513.662c-.219.018-.5.027-.822.027m-5.462-13.341c-.2,4.812-.44,11.988-.272,12.446a26.557,26.557,0,0,0,6.53.548,5.762,5.762,0,0,0,2.285-.562V216.141Z" transform="translate(-215.38 -107.574)" fill="#5c69a5"/>
            <path id="Trazado_609379" data-name="Trazado 609379" d="M393.193,170.169l-13.079.033a1.2,1.2,0,0,1-1.085-.9l-5.007-20.2a.672.672,0,0,1,.636-.907l13.079-.032a1.2,1.2,0,0,1,1.085.9l5.007,20.2a.672.672,0,0,1-.637.907" transform="translate(-186.414 -73.849)" fill="#40507f"/>
            <path id="Trazado_609380" data-name="Trazado 609380" d="M390.148,170.169l-13.079.033a1.2,1.2,0,0,1-1.085-.9l-5.007-20.2a.672.672,0,0,1,.636-.907l13.079-.032a1.2,1.2,0,0,1,1.085.9l5.007,20.2a.672.672,0,0,1-.637.907" transform="translate(-184.897 -73.849)" fill="#5c69a5"/>
            <path id="Trazado_609381" data-name="Trazado 609381" d="M391.316,136.166c-.026,0-.052,0-.079,0a.739.739,0,0,1-.572-.351c-.682-1.05.389-4.3.435-4.435a.161.161,0,0,1,.153-.11.163.163,0,0,1,.154.113c.117.374,1.122,3.675.409,4.554a.62.62,0,0,1-.5.234m-.067-4.179c-.319,1.108-.735,3-.314,3.648a.422.422,0,0,0,.334.206.311.311,0,0,0,.3-.113c.439-.54.008-2.562-.316-3.742" transform="translate(-194.611 -65.428)" fill="#5c69a5"/>
            <path id="Trazado_609382" data-name="Trazado 609382" d="M407.683,162.342a32.582,32.582,0,0,0-4.791-1.321,18.359,18.359,0,0,0-2.709.66l.272,1.1s-6.763.741-6.759,2.075c0,.908,2.935.753,2.935.753s-3.032.409-2.936,1.441,3.838.926,3.838.926-3.1.622-1.936,1.526,11.073,1.937,12.571-.516-.486-6.643-.486-6.643" transform="translate(-196.233 -80.259)" fill="#f48462"/>
            <path id="Trazado_609383" data-name="Trazado 609383" d="M437.765,133s11.3,10.738,8.919,19.938c-3.15,12.17-27.507,5.088-27.507,5.088L420,146.678l14.634-.8Z" transform="translate(-208.936 -66.292)" fill="#f4e6e6"/>
            <path id="Trazado_609384" data-name="Trazado 609384" d="M451.176,158.247c-1.536,0-3.3-.186-3.416-.2a.161.161,0,0,1-.054-.3c2.176-1.078,4.879-.832,5.566-.344a.346.346,0,0,1,.182.326c-.017.131-.124.237-.32.312a6.421,6.421,0,0,1-1.958.208m-2.764-.46a16.484,16.484,0,0,0,4.6-.048.48.48,0,0,0,.1-.052,6.413,6.413,0,0,0-4.707.1" transform="translate(-223.111 -78.248)" fill="#5c69a5"/>
            <path id="Trazado_609385" data-name="Trazado 609385" d="M406.648,163.881a.161.161,0,0,1-.03-.32l1.779-.332a.163.163,0,0,1,.188.129.161.161,0,0,1-.129.188l-1.778.332-.03,0" transform="translate(-202.611 -81.36)"/>
            <path id="Trazado_609386" data-name="Trazado 609386" d="M398.392,169.588a.161.161,0,0,1-.02-.321l4.534-.549a.159.159,0,0,1,.179.14.161.161,0,0,1-.14.18l-4.534.549h-.02" transform="translate(-198.496 -84.096)"/>
            <path id="Trazado_609387" data-name="Trazado 609387" d="M400.08,174.543a.161.161,0,0,1-.02-.321l4.613-.584a.161.161,0,1,1,.04.319l-4.613.584h-.02" transform="translate(-199.337 -86.548)"/>
            <path id="Trazado_609388" data-name="Trazado 609388" d="M384.971,151.172H381.79a1.809,1.809,0,0,1-1.755-1.366l-.447-1.767a.161.161,0,0,1,.312-.079l.447,1.767a1.486,1.486,0,0,0,1.443,1.122h3.181a1.229,1.229,0,0,0,1.2-1.491l-.286-1.312a.161.161,0,1,1,.314-.069l.286,1.313a1.551,1.551,0,0,1-1.515,1.882" transform="translate(-189.201 -73.689)" fill="#fff"/>
            <path id="Trazado_609389" data-name="Trazado 609389" d="M434.061,129.709a.216.216,0,0,1-.209-.264c.451-1.907.377-3.409-.215-4.343a1.881,1.881,0,0,0-1.086-.865.216.216,0,0,1-.166-.254.211.211,0,0,1,.252-.167,2.292,2.292,0,0,1,1.353,1.041c.674,1.049.768,2.626.28,4.687a.216.216,0,0,1-.209.166" transform="translate(-215.517 -61.712)" fill="#40507f"/>
            <path id="Trazado_609390" data-name="Trazado 609390" d="M414.684,134.844a.215.215,0,0,1-.215-.213c0-.334-.047-8.209,2.911-10.361a.215.215,0,1,1,.253.347c-2.779,2.022-2.734,9.93-2.734,10.009a.215.215,0,0,1-.213.217Z" transform="translate(-206.589 -61.921)" fill="#40507f"/>
            <path id="Trazado_609391" data-name="Trazado 609391" d="M429.916,142.2a.218.218,0,0,1-.086-.018.215.215,0,0,1-.111-.283c.022-.048,2.1-4.856.564-6.519a.793.793,0,0,0-.694-.272c-1.4.122-3.576,3.06-4.3,4.181a.215.215,0,1,1-.361-.232c.11-.172,2.726-4.211,4.62-4.377a1.223,1.223,0,0,1,1.048.409c1.726,1.868-.394,6.775-.485,6.983a.216.216,0,0,1-.2.128" transform="translate(-211.787 -67.128)" fill="#40507f"/>
            <path id="Trazado_609392" data-name="Trazado 609392" d="M414.906,144.524a1.282,1.282,0,1,1-1.282-1.282,1.282,1.282,0,0,1,1.282,1.282" transform="translate(-205.529 -71.398)" fill="#40507f"/>
            <path id="Trazado_609393" data-name="Trazado 609393" d="M414.9,145.3a.5.5,0,1,1-.5-.5.5.5,0,0,1,.5.5" transform="translate(-206.307 -72.176)" fill="#a37b90"/>
            <path id="Trazado_609394" data-name="Trazado 609394" d="M425.377,144.077h-1.658a.215.215,0,0,1,0-.429h1.658a.215.215,0,0,1,0,.429" transform="translate(-211.093 -71.6)" fill="#40507f"/>
            <path id="Trazado_609395" data-name="Trazado 609395" d="M434.316,149.258a.216.216,0,0,1-.183-.1l-.868-1.413a.215.215,0,0,1,.367-.225l.867,1.413a.215.215,0,0,1-.183.327" transform="translate(-215.943 -73.478)" fill="#40507f"/>
            <path id="Trazado_609396" data-name="Trazado 609396" d="M460.37,72.111h-20.7a1.393,1.393,0,0,1-1.393-1.393V59.126a1.393,1.393,0,0,1,1.393-1.393h20.7a1.393,1.393,0,0,1,1.393,1.393V70.718a1.393,1.393,0,0,1-1.393,1.393" transform="translate(-218.456 -28.777)" fill="#d3bcbc"/>
            <path id="Trazado_609397" data-name="Trazado 609397" d="M443.884,81.777l-3.838,7.183,9.116-6.037Z" transform="translate(-219.338 -40.761)" fill="#d3bcbc"/>
            <path id="Trazado_609398" data-name="Trazado 609398" d="M458,66.439a4.632,4.632,0,1,0,4.632-4.632A4.632,4.632,0,0,0,458,66.439" transform="translate(-228.287 -30.807)" fill="#ead8d8"/>
            <path id="Trazado_609399" data-name="Trazado 609399" d="M467.22,70.981a.215.215,0,0,1-.195-.123l-3.952-8.37a.215.215,0,1,1,.389-.183l3.952,8.37a.215.215,0,0,1-.195.306" transform="translate(-230.806 -30.994)" fill="#d3bcbc"/>
            <path id="Trazado_609400" data-name="Trazado 609400" d="M450.773,68.167a3.736,3.736,0,1,0,5.229.761,3.737,3.737,0,0,0-5.229-.761" transform="translate(-223.936 -33.608)" fill="#fff"/>
            <path id="Trazado_609401" data-name="Trazado 609401" d="M453.2,74.974a.175.175,0,0,1-.081-.02.173.173,0,0,1-.072-.234l3.506-6.592a.173.173,0,0,1,.305.163l-3.506,6.592a.173.173,0,0,1-.153.092" transform="translate(-225.808 -33.912)" fill="#ead8d8"/>
          </g>
        </g>
      </g>
    </g>
    <rect id="Rectángulo_377545" data-name="Rectángulo 377545" width="400" height="178" transform="translate(180 8243)" fill="none"/>
  </g>
</svg>
