<svg xmlns="http://www.w3.org/2000/svg" xmlns:xlink="http://www.w3.org/1999/xlink" width="400" height="191.34" viewBox="0 0 400 191.34">
  <defs>
    <clipPath id="clip-path">
      <rect id="Rectángulo_381818" data-name="Rectángulo 381818" width="290.488" height="191.34" fill="none"/>
    </clipPath>
    <clipPath id="clip-path-2">
      <rect id="Rectángulo_381806" data-name="Rectángulo 381806" width="290.487" height="191.34" fill="none"/>
    </clipPath>
    <clipPath id="clip-path-3">
      <rect id="Rectángulo_381805" data-name="Rectángulo 381805" width="289.807" height="35.299" fill="none"/>
    </clipPath>
    <clipPath id="clip-path-5">
      <rect id="Rectángulo_381807" data-name="Rectángulo 381807" width="87.379" height="51.748" fill="none"/>
    </clipPath>
    <clipPath id="clip-path-6">
      <rect id="Rectángulo_381808" data-name="Rectángulo 381808" width="87.38" height="51.498" fill="none"/>
    </clipPath>
    <clipPath id="clip-path-8">
      <rect id="Rectángulo_381810" data-name="Rectángulo 381810" width="7.606" height="32.09" fill="none"/>
    </clipPath>
    <clipPath id="clip-path-9">
      <rect id="Rectángulo_381811" data-name="Rectángulo 381811" width="5.914" height="29.005" fill="none"/>
    </clipPath>
    <clipPath id="clip-path-10">
      <rect id="Rectángulo_381812" data-name="Rectángulo 381812" width="41.612" height="30.244" fill="none"/>
    </clipPath>
    <clipPath id="clip-path-11">
      <rect id="Rectángulo_381813" data-name="Rectángulo 381813" width="31.781" height="52.971" fill="none"/>
    </clipPath>
    <clipPath id="clip-path-12">
      <rect id="Rectángulo_381815" data-name="Rectángulo 381815" width="2.205" height="7.33" fill="none"/>
    </clipPath>
    <clipPath id="clip-path-13">
      <rect id="Rectángulo_381816" data-name="Rectángulo 381816" width="4.501" height="4.207" fill="none"/>
    </clipPath>
  </defs>
  <g id="Grupo_1080024" data-name="Grupo 1080024" transform="translate(-180 -7097.813)">
    <g id="Grupo_1080023" data-name="Grupo 1080023" transform="translate(237.636 7097.813)">
      <g id="Grupo_1080022" data-name="Grupo 1080022" clip-path="url(#clip-path)">
        <g id="Grupo_1079992" data-name="Grupo 1079992">
          <g id="Grupo_1079991" data-name="Grupo 1079991" clip-path="url(#clip-path-2)">
            <g id="Grupo_1079990" data-name="Grupo 1079990" transform="translate(0.68 152.229)" opacity="0.06" style="mix-blend-mode: multiply;isolation: isolate">
              <g id="Grupo_1079989" data-name="Grupo 1079989">
                <g id="Grupo_1079988" data-name="Grupo 1079988" clip-path="url(#clip-path-3)">
                  <path id="Trazado_639636" data-name="Trazado 639636" d="M3.7,631.576l26.6,24.886A24.32,24.32,0,0,0,46.255,662.3H274.739c13.636,0,24.341-12.63,13.275-19.905L262.767,627l-257.129.034c-2.576.046-3.8,2.917-1.937,4.542" transform="translate(-2.802 -627)"/>
                </g>
              </g>
            </g>
          </g>
        </g>
        <g id="Grupo_1080021" data-name="Grupo 1080021">
          <g id="Grupo_1080020" data-name="Grupo 1080020" clip-path="url(#clip-path-2)">
            <path id="Trazado_639637" data-name="Trazado 639637" d="M393.268,353.663v-43.1A10.564,10.564,0,0,1,403.832,300h66.252a10.564,10.564,0,0,1,10.564,10.564V353.8Z" transform="translate(-297.787 -227.162)" fill="#8cabef"/>
            <path id="Trazado_639638" data-name="Trazado 639638" d="M33.268,353.663v-43.1A10.564,10.564,0,0,1,43.832,300h66.252a10.564,10.564,0,0,1,10.564,10.564V353.8Z" transform="translate(-25.191 -227.162)" fill="#8cabef"/>
            <path id="Trazado_639639" data-name="Trazado 639639" d="M753.166,353.875V310.564A10.564,10.564,0,0,1,763.73,300h66.252a10.564,10.564,0,0,1,10.564,10.564V353.8Z" transform="translate(-570.305 -227.163)" fill="#8cabef"/>
            <g id="Grupo_1079995" data-name="Grupo 1079995" transform="translate(95.481 74.893)" opacity="0.2" style="mix-blend-mode: multiply;isolation: isolate">
              <g id="Grupo_1079994" data-name="Grupo 1079994">
                <g id="Grupo_1079993" data-name="Grupo 1079993" clip-path="url(#clip-path-5)">
                  <path id="Trazado_639640" data-name="Trazado 639640" d="M476.344,308.47l-83.077,51.243v.364l87.38.141V316.977a10.547,10.547,0,0,0-4.3-8.507" transform="translate(-393.267 -308.47)" fill="#979797"/>
                </g>
              </g>
            </g>
            <g id="Grupo_1079998" data-name="Grupo 1079998" transform="translate(182.825 75.214)" opacity="0.2" style="mix-blend-mode: multiply;isolation: isolate">
              <g id="Grupo_1079997" data-name="Grupo 1079997">
                <g id="Grupo_1079996" data-name="Grupo 1079996" clip-path="url(#clip-path-6)">
                  <path id="Trazado_639641" data-name="Trazado 639641" d="M836.511,309.79l-83.49,51.5,87.379-.07V317.977a10.542,10.542,0,0,0-3.889-8.187" transform="translate(-753.021 -309.79)" fill="#979797"/>
                </g>
              </g>
            </g>
            <g id="Grupo_1080001" data-name="Grupo 1080001" transform="translate(8.077 75.136)" opacity="0.2" style="mix-blend-mode: multiply;isolation: isolate">
              <g id="Grupo_1080000" data-name="Grupo 1080000">
                <g id="Grupo_1079999" data-name="Grupo 1079999" clip-path="url(#clip-path-5)">
                  <path id="Trazado_639642" data-name="Trazado 639642" d="M116.344,309.47,33.267,360.713v.364l87.38.141V317.977a10.547,10.547,0,0,0-4.3-8.507" transform="translate(-33.267 -309.47)" fill="#979797"/>
                </g>
              </g>
            </g>
            <path id="Trazado_639643" data-name="Trazado 639643" d="M308.075,596.374H308v-4.858H68.1v4.827l-1.361-.013,1.825,16.165H74.04l1.2-10.637h228.9l1.2,10.637h5.474l1.825-16.165Z" transform="translate(-50.537 -447.902)" fill="#292949"/>
            <path id="Trazado_639644" data-name="Trazado 639644" d="M32.25,533.934H294.966l-8.271-12.324H40.137Z" transform="translate(-24.42 -394.969)" fill="#738dc4"/>
            <path id="Trazado_639645" data-name="Trazado 639645" d="M476.69,574.716H397.314a4.045,4.045,0,0,1-4.046-4.046v-8.176a4.046,4.046,0,0,1,4.046-4.046H476.69a4.046,4.046,0,0,1,4.046,4.046v8.176a4.046,4.046,0,0,1-4.046,4.046" transform="translate(-297.787 -422.863)" fill="#8cabef"/>
            <path id="Trazado_639646" data-name="Trazado 639646" d="M115.88,576.378H36.5a4.046,4.046,0,0,1-4.046-4.046v-8.176A4.046,4.046,0,0,1,36.5,560.11H115.88a4.046,4.046,0,0,1,4.046,4.046v8.176a4.046,4.046,0,0,1-4.046,4.046" transform="translate(-24.578 -424.121)" fill="#8cabef"/>
            <path id="Trazado_639647" data-name="Trazado 639647" d="M836.08,574.716H756.7a4.045,4.045,0,0,1-4.045-4.046v-8.176a4.046,4.046,0,0,1,4.045-4.046H836.08a4.046,4.046,0,0,1,4.046,4.046v8.176a4.046,4.046,0,0,1-4.046,4.046" transform="translate(-569.922 -422.863)" fill="#8cabef"/>
            <path id="Trazado_639648" data-name="Trazado 639648" d="M1084.6,467.151h8.151a4.046,4.046,0,0,0,4.046-4.046V420.046a4.046,4.046,0,0,0-4.046-4.046H1084.6a4.046,4.046,0,0,0-4.046,4.046v43.059a4.046,4.046,0,0,0,4.046,4.046" transform="translate(-818.209 -315)" fill="#83a1e0"/>
            <path id="Trazado_639649" data-name="Trazado 639649" d="M4.046,467.151H12.2a4.046,4.046,0,0,0,4.046-4.046V420.046A4.046,4.046,0,0,0,12.2,416H4.046A4.046,4.046,0,0,0,0,420.046v43.059a4.046,4.046,0,0,0,4.046,4.046" transform="translate(0 -315)" fill="#83a1e0"/>
            <path id="Trazado_639650" data-name="Trazado 639650" d="M68.086,430.241l18.424-3a2.289,2.289,0,0,1,.658-.012l10.4,1.321a2.293,2.293,0,0,0,2.478-2.957c-.588-1.88-3.466-11.477-3.276-18.687.1-3.746.059-6.388-.011-8.141a2.292,2.292,0,0,0-2.887-2.122l-2.513.677a2.291,2.291,0,0,1-.6.079H63.731a2.293,2.293,0,0,0-2.234,1.777l-.064.277a2.286,2.286,0,0,0,.09,1.328,54.61,54.61,0,0,1,3.553,16.477c.134,5.355.1,8.759.054,10.534a2.291,2.291,0,0,0,1.343,2.143l.295.134a2.3,2.3,0,0,0,1.318.176" transform="translate(-46.473 -300.278)" fill="#5d66d3"/>
            <path id="Trazado_639651" data-name="Trazado 639651" d="M204.229,479.29l.168.1a2.29,2.29,0,0,0,2.374-2.965,84.33,84.33,0,0,1-2.892-12.73l-1.552,11.366s-.211,2.958,1.9,4.226" transform="translate(-153.2 -351.117)" fill="#95afaf"/>
            <g id="Grupo_1080004" data-name="Grupo 1080004" transform="translate(14.901 97.468)" opacity="0.15" style="mix-blend-mode: multiply;isolation: isolate">
              <g id="Grupo_1080003" data-name="Grupo 1080003">
                <g id="Grupo_1080002" data-name="Grupo 1080002" clip-path="url(#clip-path-8)">
                  <path id="Trazado_639652" data-name="Trazado 639652" d="M62.513,401.451a2.289,2.289,0,0,0-1.016,1.425l-.064.277a2.286,2.286,0,0,0,.09,1.329,54.609,54.609,0,0,1,3.553,16.477c.134,5.355.1,8.759.054,10.534a2.289,2.289,0,0,0,1.159,2.048l2.691-19.555Z" transform="translate(-61.374 -401.451)" fill="#979797"/>
                </g>
              </g>
            </g>
            <path id="Trazado_639653" data-name="Trazado 639653" d="M932.084,390l18.423,3a2.292,2.292,0,0,0,.658.012l10.4-1.321a2.293,2.293,0,0,1,2.478,2.957c-.589,1.88-3.466,11.477-3.276,18.687.1,3.746.059,6.388-.011,8.141a2.292,2.292,0,0,1-2.887,2.122l-2.513-.677a2.286,2.286,0,0,0-.6-.079H927.729a2.293,2.293,0,0,1-2.234-1.777l-.064-.277a2.287,2.287,0,0,1,.09-1.329,54.609,54.609,0,0,0,3.553-16.477c.134-5.355.1-8.759.054-10.534a2.291,2.291,0,0,1,1.343-2.143l.295-.134a2.293,2.293,0,0,1,1.318-.176" transform="translate(-700.702 -295.287)" fill="#eed5d5"/>
            <g id="Grupo_1080007" data-name="Grupo 1080007" transform="translate(257.529 97.988)" opacity="0.24" style="mix-blend-mode: multiply;isolation: isolate">
              <g id="Grupo_1080006" data-name="Grupo 1080006">
                <g id="Grupo_1080005" data-name="Grupo 1080005" clip-path="url(#clip-path-9)">
                  <path id="Trazado_639654" data-name="Trazado 639654" d="M1066.624,404.282a2.3,2.3,0,0,0-.108-.692l-5.808,6.118,2.345,22.887a2.289,2.289,0,0,0,.18-.8c.07-1.753.11-4.395.011-8.141-.19-7.21,2.688-16.807,3.276-18.687a2.286,2.286,0,0,0,.1-.683" transform="translate(-1060.708 -403.59)" fill="#979797"/>
                </g>
              </g>
            </g>
            <path id="Trazado_639655" data-name="Trazado 639655" d="M955.843,408.924c.951-.19,16.456-2.093,19.538-2.47.186-.641.336-1.131.429-1.428a2.279,2.279,0,0,0,.1-.493l-20.274,1.433s-11.7-1.6-14.718-2.3c.013.756.022,1.7.022,2.854,2.958.551,13.993,2.582,14.907,2.4" transform="translate(-712.47 -305.664)" fill="#fff"/>
            <path id="Trazado_639656" data-name="Trazado 639656" d="M933.094,477.372c-.307,1.38-.648,2.669-.983,3.815,4.511.024,12.63.024,12.63.024l21.178,1c-.009-.825-.025-1.72-.05-2.689-.007-.278-.008-.561-.007-.845H940.093Z" transform="translate(-705.805 -361.471)" fill="#fff"/>
            <path id="Trazado_639657" data-name="Trazado 639657" d="M925.869,505.242c-.135.375-.253.694-.347.942a2.286,2.286,0,0,0-.09,1.329l.064.277a2.292,2.292,0,0,0,1.485,1.651l11.9-1.488,14.308,1.615h1.569a2.291,2.291,0,0,1,.6.079l2.513.677a2.292,2.292,0,0,0,2.887-2.122q.03-.74.049-1.7l-22.645-2Z" transform="translate(-700.702 -382.01)" fill="#fff"/>
            <path id="Trazado_639658" data-name="Trazado 639658" d="M940.657,431.628c-.014.9-.034,1.861-.06,2.9,0,.07-.005.141-.007.211h17.543l15.088.827c.206-1.086.431-2.134.658-3.115-2,.136-9.075.628-9.62.81-.569.19-19.7-1.324-23.6-1.635" transform="translate(-712.225 -326.833)" fill="#fff"/>
            <path id="Trazado_639659" data-name="Trazado 639659" d="M938.651,454.585c-.1,1-.24,1.992-.4,2.957l18.112,1.132,14.388-1.121c.1-.879.218-1.761.357-2.633l-23.618.585Z" transform="translate(-710.45 -344.217)" fill="#fff"/>
            <path id="Trazado_639660" data-name="Trazado 639660" d="M1075.111,408.715c.026-.087.05-.17.074-.249l.024-.08.058-.194.016-.052.063-.205.016-.05.053-.17a2.145,2.145,0,0,0,.056-.221c0-.016.006-.032.009-.048a2.228,2.228,0,0,0,.031-.224l-1,.071-2.051,2.161,2.531-.311.029-.1.062-.212.034-.116" transform="translate(-812.074 -308.352)" fill="#fff"/>
            <path id="Trazado_639661" data-name="Trazado 639661" d="M1066.235,482.741l.358,3.493.886.042h0q0-.308-.008-.629v0c0-.194-.006-.393-.01-.594,0-.024,0-.047,0-.072,0-.191-.007-.386-.012-.584l0-.1q-.008-.347-.017-.707c-.007-.278-.008-.56-.007-.845h-1.186Z" transform="translate(-807.365 -365.537)" fill="#fff"/>
            <path id="Trazado_639662" data-name="Trazado 639662" d="M1069.552,515.118h0c.016-.039.03-.079.044-.119s.025-.068.035-.1.021-.073.03-.11.021-.091.03-.137c.006-.03.012-.06.016-.091a2.236,2.236,0,0,0,.024-.242c0-.12.01-.244.014-.372,0-.019,0-.039,0-.058,0-.114.008-.231.011-.352,0-.013,0-.027,0-.041q.006-.2.011-.4s0-.009,0-.014q.005-.219.01-.451v-.007l-.49-.043Z" transform="translate(-809.679 -388.126)" fill="#fff"/>
            <path id="Trazado_639663" data-name="Trazado 639663" d="M1061.737,437.976l3.011.165q.074-.388.151-.769c.01-.052.021-.1.032-.156q.063-.31.127-.614l.032-.148q.068-.32.137-.633l.02-.089q.08-.358.16-.706c-.775.053-2.316.16-3.943.28Z" transform="translate(-803.752 -329.406)" fill="#fff"/>
            <path id="Trazado_639664" data-name="Trazado 639664" d="M1063.795,458.737l1.807-.141q.072-.654.161-1.308l0-.026q.089-.652.192-1.3l-2.442.061Z" transform="translate(-805.307 -345.26)" fill="#fff"/>
            <path id="Trazado_639665" data-name="Trazado 639665" d="M384.256,302.139,398.1,282.716l-3.4-3.156-13.636,11.3L369.2,271.548l-4.927-2.314a6.825,6.825,0,0,0-2.051-.638c-.437-.086-.879-.152-1.318-.216L350.1,266.808a8.834,8.834,0,0,0-3.946.025,4.768,4.768,0,0,0-1.02.468l-7.976,3.519-14.81,33.748,4.856,5.584,2.528-2.691c-1.3,10.877-.946,22.925,5.01,29.769.032.037.062.076.094.112,3.93,2.465,8.308-2,17.118-3.271h0c8.811-1.267,17.342,1.995,17.342,1.995s4.971,1.419,7.86-2.686a12.316,12.316,0,0,0,1.926-6.1,28.028,28.028,0,0,0-.153-5.664c-.986-8.435-4.847-18.744-7.107-26.189l5.4,7.439Z" transform="translate(-244.083 -201.867)" fill="#353a85"/>
            <path id="Trazado_639666" data-name="Trazado 639666" d="M482.242,16.762a7.768,7.768,0,0,0,3.715,6.137,5.234,5.234,0,0,0-1.168,3.6,5.553,5.553,0,0,0,5.945,5.093,5.8,5.8,0,0,0,2.629-.787,8.192,8.192,0,0,0,8.122,5.083,8.466,8.466,0,0,0,2.491-.517,6.752,6.752,0,0,1-2.16,4.35,9.026,9.026,0,0,0,7.531-3.628,6.275,6.275,0,0,0,4.4,1.725,6.065,6.065,0,0,0,6.1-5.464,10.147,10.147,0,0,0,7.2,2.431A9.675,9.675,0,0,0,536.4,24.759a9.189,9.189,0,0,0-.337-1.985,7.854,7.854,0,0,0,5.386-7.812,8.055,8.055,0,0,0-8.622-7.386,8.514,8.514,0,0,0-1.7.266c0-.058,0-.116-.006-.174a5.553,5.553,0,0,0-5.944-5.093,5.721,5.721,0,0,0-3.855,1.763,6.253,6.253,0,0,0-11.67-.615A10.086,10.086,0,0,0,501.369.2,9.76,9.76,0,0,0,492.06,8.64a8.536,8.536,0,0,0-2.1-.147,7.976,7.976,0,0,0-7.713,8.268m12.635,6.122.041-.025-.032.035-.009-.011" transform="translate(-365.149 0)" fill="#727997"/>
            <g id="Grupo_1080010" data-name="Grupo 1080010" transform="translate(134.697 9.48)" opacity="0.15" style="mix-blend-mode: multiply;isolation: isolate">
              <g id="Grupo_1080009" data-name="Grupo 1080009">
                <g id="Grupo_1080008" data-name="Grupo 1080008" clip-path="url(#clip-path-10)">
                  <path id="Trazado_639667" data-name="Trazado 639667" d="M596.391,44.529a7.694,7.694,0,0,0-2.806-5.481,7.578,7.578,0,0,1,.266,1.6,7.854,7.854,0,0,1-5.386,7.812,9.187,9.187,0,0,1,.337,1.985,9.675,9.675,0,0,1-9.356,10.029,10.146,10.146,0,0,1-7.2-2.431,6.065,6.065,0,0,1-6.1,5.464,6.273,6.273,0,0,1-4.4-1.725,8.957,8.957,0,0,1-6.96,3.612,8.558,8.558,0,0,0,1.638.068,8.465,8.465,0,0,0,2.492-.517,6.753,6.753,0,0,1-2.16,4.35,9.026,9.026,0,0,0,7.531-3.628,6.275,6.275,0,0,0,4.4,1.725,6.065,6.065,0,0,0,6.1-5.464,10.146,10.146,0,0,0,7.2,2.431,9.675,9.675,0,0,0,9.356-10.029,9.183,9.183,0,0,0-.337-1.985,7.853,7.853,0,0,0,5.386-7.812" transform="translate(-554.792 -39.048)" fill="#b0b0b0"/>
                </g>
              </g>
            </g>
            <path id="Trazado_639668" data-name="Trazado 639668" d="M263.283,518l4.856,12.625L261.6,575.541h-6.019l-2.487-41.656-8.746-13.943Z" transform="translate(-185.021 -392.235)" fill="#babcbe"/>
            <path id="Trazado_639669" data-name="Trazado 639669" d="M188.588,511.7l.622,15.392-2.489,40.692-6.27-1L174.413,528.1l-11.4-9.3,10.533-11.035Z" transform="translate(-123.437 -384.48)" fill="#babcbe"/>
            <path id="Trazado_639670" data-name="Trazado 639670" d="M297.19,755l3.762,4.013-1.756,1.755-6.521-2.257.5-3.511Z" transform="translate(-221.617 -571.694)" fill="#292949"/>
            <path id="Trazado_639671" data-name="Trazado 639671" d="M240.306,752.123l3.8,3.638-2.006,2.257-7.273-3.009.758-3.641Z" transform="translate(-177.815 -568.944)" fill="#292949"/>
            <path id="Trazado_639672" data-name="Trazado 639672" d="M250.192,284.729l5.621,2.979,11.168,25.736-3.642,10.44-6.8-5.827-6.313-32.776Z" transform="translate(-189.448 -215.6)" fill="#dddae8"/>
            <path id="Trazado_639673" data-name="Trazado 639673" d="M161.385,280l-5.584,2.428s-3.791,14.872-5.173,24.31,8.572-1.245,8.572-1.245Z" transform="translate(-113.957 -212.019)" fill="#cca062"/>
            <path id="Trazado_639674" data-name="Trazado 639674" d="M183.776,330.744c-1.856-2.586-2.488-6.127-3.132-9.172-.989-4.678-1.7-9.411-2.551-14.115-1.635-9.014-3.317-19.779-9.476-26.983a13.983,13.983,0,0,0-5.755-4.168c-4.1-1.494-7.861-.984-11.711.689l-4.521,1.966s-3.791,14.872-5.174,24.312c-1.966,10.029-4.479,22.18-2.11,30.558,4.37,15.455,8.983,12.606,10.44,13.353s10.44-7.217,26.464-3.478,14.325-3.49,7.526-12.962" transform="translate(-104.785 -208.552)" fill="#f7f7f7"/>
            <path id="Trazado_639675" data-name="Trazado 639675" d="M195.345,275.214l8.255,16.024,3.257-15.652-3.257-1.343L199.23,274Z" transform="translate(-147.918 -207.476)" fill="#5d66d3"/>
            <path id="Trazado_639676" data-name="Trazado 639676" d="M197.326,204.9l3.74,1.167a1.546,1.546,0,0,0,1.918-.95,40.715,40.715,0,0,0,1.227-4.139c1.9.065,4.191-.087,5.232-1.919a6.705,6.705,0,0,0,.619-1.906L211.838,189a8.211,8.211,0,0,0,.279-2.849,5.707,5.707,0,0,0-2.706-3.723,12.037,12.037,0,0,0-11.02-1.61,6.131,6.131,0,0,0-2.651,1.78,9.915,9.915,0,0,0-1.617,4.949q-.337,2.423-.674,4.846c-.258,1.858-.432,4.022.757,5.282.632.669,1.567.964,2.065,1.763.676,1.085.266,2.508.073,3.9a1.423,1.423,0,0,0,.982,1.558" transform="translate(-146.34 -136.388)" fill="#d38879"/>
            <path id="Trazado_639677" data-name="Trazado 639677" d="M188.6,170.467a16.283,16.283,0,0,1-5.57,3.5c-1.3.445-2.58.5-2.96,2.088a4.973,4.973,0,0,0,1.381,4.421,1.849,1.849,0,0,1,.493.586,1.039,1.039,0,0,1-.6,1.252,2.086,2.086,0,0,1-1.48-.028,6.637,6.637,0,0,1-3.445-2.923,11.48,11.48,0,0,1-.9-9.5,14.774,14.774,0,0,1,5.857-7.611c2.475-1.6,4.941-3.291,8.033-2.8,1.742.275,4.564,1.9,4.2,4.094-.387,2.306-3.4,5.39-5,6.925" transform="translate(-132.431 -120.671)" fill="#292949"/>
            <path id="Trazado_639678" data-name="Trazado 639678" d="M242.342,178.878c1.016,1.161,2.25,2.307,2.463,3.8a5.689,5.689,0,0,1-.16,1.963,35.342,35.342,0,0,1-.9,3.423,6.47,6.47,0,0,1-1.911,3.27c-.415.319-3.134,1.474-1.158,2.188a2.254,2.254,0,0,0,1.746-.323,14.409,14.409,0,0,0,7.9-11.029,12.123,12.123,0,0,0-2.2-8.062c-1.514-2.144-4.705-4.993-7.647-3.987-3.921,1.341.338,7.012,1.864,8.754" transform="translate(-180.87 -128.662)" fill="#292949"/>
            <path id="Trazado_639679" data-name="Trazado 639679" d="M373.775,339.372h0l0,.006,0-.005" transform="translate(-283.025 -256.975)" fill="#5c7a69"/>
            <path id="Trazado_639680" data-name="Trazado 639680" d="M405.73,289.276a38.639,38.639,0,0,1-1.261,6.946c-3.417,13.925-9.362,27.35-12.778,41.275,9.332,0,8.03-7.528,31.617-2.008.263-5.336.6-5.068.861-10.4a85.694,85.694,0,0,0,.1-10.257c-.389-5.49-1.833-10.784-3.269-16.028l-7.959-29.067a3.882,3.882,0,0,0-.619-1.453,3.1,3.1,0,0,0-1.536-.871,25.28,25.28,0,0,0-8.634-1.559c-1.034,2.816.953,8.152,1.593,10.958.931,4.083,2.135,8.168,1.887,12.468" transform="translate(-296.593 -201.293)" fill="#353a85"/>
            <path id="Trazado_639681" data-name="Trazado 639681" d="M467.189,170.821a12.345,12.345,0,0,1,1.678,5.529,1.769,1.769,0,0,0,.518,1.4c.456.313.085,1.04.412.594a9.511,9.511,0,0,0,1.472-2.549,20.4,20.4,0,0,0-.121-3.882,5.572,5.572,0,0,0-1.166-3.118,6.334,6.334,0,0,0-1.624-1.162,8.127,8.127,0,0,0-2.673-1.106c-1.651-.257-2.641.362-1.158,1.464a10.024,10.024,0,0,1,2.662,2.827" transform="translate(-351.195 -126.055)" fill="#292949"/>
            <path id="Trazado_639682" data-name="Trazado 639682" d="M418.1,194.693l4.031.256a2.905,2.905,0,0,0,3.08-2.687q.114-1.535.112-3.077c1.958-.4,4.253-1.1,4.865-3.182a6.764,6.764,0,0,0,.164-2.053q-.1-4.285-.192-8.569a8.276,8.276,0,0,0-.416-2.912,5.945,5.945,0,0,0-3.674-3.063,12.86,12.86,0,0,0-11.634,1.058,6.363,6.363,0,0,0-2.266,2.419c-.776,1.593-.615,3.527-.434,5.333q.252,2.5.5,5c.193,1.918.547,4.121,2.07,5.092.809.515,1.835.584,2.539,1.261,1.241,1.194.756,3.4,1.253,5.124" transform="translate(-311.658 -127.589)" fill="#d38879"/>
            <path id="Trazado_639683" data-name="Trazado 639683" d="M431.843,222.987c-.048-.529-.325-2.073-1.093-1.075a1.6,1.6,0,0,0-.244.963,3.6,3.6,0,0,1-.075,1.012,1.779,1.779,0,0,1-1.75,1.108,1.731,1.731,0,0,1-.841-.173,2.605,2.605,0,0,1-.651-.564l-1.44-1.557c-.826-.892-2.4-.449-3.468-.277a6.894,6.894,0,0,0-3.452,1.455c-.1.085-.2.175-.294.264a3.724,3.724,0,0,1-.757.58,2.387,2.387,0,0,1-2.84-.808c-.32-.391-.622-.9-1.1-.949a.981.981,0,0,0-.912.593,2.8,2.8,0,0,0-.234,1.179,8.613,8.613,0,0,0,.876,4.282c1.471,2.8,4.162,3.065,6.854,2.921l3.192-.17c1.945-.1,4-.246,5.607-1.426a7,7,0,0,0,2.526-4.552,11.026,11.026,0,0,0,.1-2.806m-5.749,4.986a3.728,3.728,0,0,1-3.287.48c-.49-.132-.308-.953.183-.821a3,3,0,0,0,2.685-.376c.421-.3.837.417.418.717" transform="translate(-312.489 -167.785)" fill="#292949"/>
            <path id="Trazado_639684" data-name="Trazado 639684" d="M424.808,152.089a15.18,15.18,0,0,0,.353-2.121,4.18,4.18,0,0,1-2.06.238l-.042-1.232c-.013-.341-4.64-.443-5.017-.463-3.523-.184-6.745-.362-9.867,1.618a9.573,9.573,0,0,0-4.659,7.294,14.642,14.642,0,0,0,2.59,9.314c-.033-.8-.548-2.662-.382-3.424a6.756,6.756,0,0,1,.674-2.188,8.931,8.931,0,0,1,3.035-3.386,17.363,17.363,0,0,1,6.778-2.51,18.753,18.753,0,0,1,7.028-.215c1.049.248,1.229.5,1.828-.565a17.855,17.855,0,0,0,.836-2.376l-1.1.016" transform="translate(-305.507 -112.374)" fill="#292949"/>
            <path id="Trazado_639685" data-name="Trazado 639685" d="M489.3,737.4l1.877,7.274-2.051,2.949-3.314-1.966-1.894-6.291,1.42-4.719Z" transform="translate(-366.431 -556.283)" fill="#292949"/>
            <path id="Trazado_639686" data-name="Trazado 639686" d="M428.087,731.731l1.877,7.274-2.051,2.949-3.314-1.966-1.894-6.291,1.42-4.719Z" transform="translate(-320.077 -551.991)" fill="#292949"/>
            <path id="Trazado_639687" data-name="Trazado 639687" d="M456.541,522.916c.584-1.861,1.45-4.667,3.256-5.412,3.8-1.565,7.917-2.91,11.822-1.742a11.319,11.319,0,0,1,6.489,5.4,13.946,13.946,0,0,1,1.7,6.658c.009,2.238-1.077,4.113-1.595,6.245L468.771,572.9l-5.357-.786-.346-39.714c-2.2-2.225-7.687-5.786-6.527-9.479" transform="translate(-345.577 -390.206)" fill="#292949"/>
            <path id="Trazado_639688" data-name="Trazado 639688" d="M388.721,528.971a40.243,40.243,0,0,1-.348-4.184,8.869,8.869,0,0,1,.388-3.235,7.387,7.387,0,0,1,1.989-2.794c2.894-2.731,6.673-4.083,10.415-3.119a14.653,14.653,0,0,1,4.655,2.284,18.366,18.366,0,0,1,4.475,4.285.772.772,0,0,1,.2.576.736.736,0,0,1-.252.364,18.727,18.727,0,0,0-4.683,7.359c-1.216,3.454-1.191,6.811-1.326,10.461q-.238,6.4-.476,12.809-.33,8.874-.659,17.748l-6.049.786-3.183-16.335-4.476-22.966c-.254-1.305-.489-2.669-.669-4.041" transform="translate(-294.075 -390.213)" fill="#292949"/>
            <path id="Trazado_639689" data-name="Trazado 639689" d="M200.36,256.715c-6.17,2.028-12.216,8.6-11.7,14.761-4.093-4.634-14.641-4.055-20.371-1-15.121,8.068-12.488,28.942-.485,38.608,6.46,5.2,14.125,8.889,22,11.775,6.6,2.416,22.741,6.621,22.765,6.573.051.016,8.173-14.557,10.986-20.994,3.359-7.686,5.993-15.774,6.7-24.038,1.312-15.355-13.616-31.037-29.9-25.687" transform="translate(-119.535 -193.578)" fill="#d67086"/>
            <g id="Grupo_1080013" data-name="Grupo 1080013" transform="translate(78.916 80.876)" opacity="0.12" style="mix-blend-mode: multiply;isolation: isolate">
              <g id="Grupo_1080012" data-name="Grupo 1080012">
                <g id="Grupo_1080011" data-name="Grupo 1080011" clip-path="url(#clip-path-11)">
                  <path id="Trazado_639690" data-name="Trazado 639690" d="M354.011,343.814a95.707,95.707,0,0,1-7.474,19.5c-3.085,5.948-7.2,11.74-12.85,15.5a22.06,22.06,0,0,1-8.647,3.464c6.763,1.967,14,3.839,14.016,3.807.051.016,8.173-14.557,10.986-20.994,3.359-7.686,5.993-15.774,6.7-24.038a23.418,23.418,0,0,0-.715-7.939,71.638,71.638,0,0,1-2.015,10.7" transform="translate(-325.039 -333.112)"/>
                </g>
              </g>
            </g>
            <path id="Trazado_639691" data-name="Trazado 639691" d="M260.935,325.119l-12.193,5.6-11.815-15.3a.921.921,0,0,0-1.619.692q1.623,17.014,3.245,34.027.094.986.188,1.971l-14.917-16.939-2.392-2.717a.924.924,0,0,0-1.62.455q-.314,5.8-.628,11.595l-13.8,5.9a.914.914,0,0,0,.717,1.679l14.324-6.12a.9.9,0,0,0,.547-.725q.269-4.968.538-9.936l15.3,17.378L239.2,355.4a.921.921,0,0,0,1.619-.692l-3.246-34.028-.155-1.628,10.327,13.371a.926.926,0,0,0,1.073.27l12.831-5.9c1.066-.49.353-2.171-.717-1.679" transform="translate(-155.11 -238.584)" fill="#fff"/>
            <path id="Trazado_639692" data-name="Trazado 639692" d="M124.826,287l-6.313,2.671-11.168,25.007,3.885,5.584,20.151,2.913.486-4.613-15.538-4.856,4.856-10.683Z" transform="translate(-81.283 -217.319)" fill="#f7f7f7"/>
            <path id="Trazado_639693" data-name="Trazado 639693" d="M207.015,418.667l3.885.081,3.156,2.428-.486,2.185-6.982-1.046Z" transform="translate(-156.431 -317.019)" fill="#d38879"/>
            <path id="Trazado_639694" data-name="Trazado 639694" d="M622.953,307.715l1.309-3.016,3.156-1.7.486.971,4.127-.971,1.214,2.428-5.1,3.4-3.1.828Z" transform="translate(-471.707 -229.435)" fill="#d38879"/>
            <path id="Trazado_639695" data-name="Trazado 639695" d="M967.909,339.372h0l0,.006,0-.005" transform="translate(-732.91 -256.975)" fill="#5c7a69"/>
            <path id="Trazado_639696" data-name="Trazado 639696" d="M830.395,284.269l0-.006a81.313,81.313,0,0,0-7.09-13.392c-1.095-1.661-2.332-3.434-4.228-4.039a8.837,8.837,0,0,0-3.946-.025l-10.811,1.572c-.438.064-.881.13-1.317.216-7.8,1.183-6.828,12.837-8.071,20.8-1.062,6.794-7.333,21.134-8.629,32.226q.154,3.8.5,7.588a18.739,18.739,0,0,0,1.27,4.173c2.89,4.105,7.861,2.686,7.861,2.686s8.532-3.262,17.342-1.995c6.329.19,12.395,2.606,17.212,3.159,12.683-14.574-.02-52.744-.092-52.96" transform="translate(-595.395 -201.867)" fill="#f7f7f7"/>
            <path id="Trazado_639697" data-name="Trazado 639697" d="M833.992,289.276a38.634,38.634,0,0,0,1.261,6.946c3.417,13.925,9.362,27.35,12.779,41.275-9.332,0-8.03-7.528-31.617-2.008-.263-5.336-.6-5.068-.861-10.4a85.7,85.7,0,0,1-.1-10.257c.389-5.49,1.833-10.784,3.269-16.028l7.959-29.067a3.888,3.888,0,0,1,.619-1.453,3.1,3.1,0,0,1,1.536-.871,25.28,25.28,0,0,1,8.634-1.559c1.034,2.816-.953,8.152-1.594,10.958-.931,4.083-2.135,8.168-1.887,12.468" transform="translate(-617.381 -201.293)" fill="#5d66d3"/>
            <path id="Trazado_639698" data-name="Trazado 639698" d="M851.08,173.822a12.346,12.346,0,0,0-1.678,5.529,1.769,1.769,0,0,1-.518,1.4c-.456.313-.085,1.04-.412.594A9.511,9.511,0,0,1,847,178.8a20.407,20.407,0,0,1,.121-3.882,5.572,5.572,0,0,1,1.166-3.118,6.336,6.336,0,0,1,1.624-1.162,8.127,8.127,0,0,1,2.673-1.106c1.651-.257,2.641.362,1.158,1.464a10.024,10.024,0,0,0-2.662,2.827" transform="translate(-641.326 -128.326)" fill="#292949"/>
            <path id="Trazado_639699" data-name="Trazado 639699" d="M865.035,197.693l-4.032.256a2.905,2.905,0,0,1-3.079-2.687q-.114-1.535-.112-3.077c-1.958-.4-4.253-1.1-4.865-3.182a6.76,6.76,0,0,1-.164-2.053q.1-4.285.192-8.569a8.276,8.276,0,0,1,.416-2.912,5.945,5.945,0,0,1,3.674-3.064,12.86,12.86,0,0,1,11.634,1.058,6.363,6.363,0,0,1,2.266,2.419c.777,1.593.615,3.527.434,5.333q-.252,2.5-.5,5c-.193,1.918-.547,4.121-2.07,5.092-.808.515-1.835.584-2.539,1.261-1.241,1.194-.756,3.4-1.253,5.124" transform="translate(-645.731 -129.861)" fill="#d38879"/>
            <path id="Trazado_639700" data-name="Trazado 639700" d="M846.877,155.089a15.184,15.184,0,0,1-.353-2.121,4.18,4.18,0,0,0,2.06.238q.021-.616.042-1.232c.013-.341,4.64-.443,5.017-.463,3.523-.184,6.745-.362,9.867,1.618a9.574,9.574,0,0,1,4.659,7.294,14.642,14.642,0,0,1-2.59,9.314c.033-.8.548-2.662.382-3.424a6.761,6.761,0,0,0-.674-2.188,8.933,8.933,0,0,0-3.035-3.386,17.364,17.364,0,0,0-6.778-2.51,18.754,18.754,0,0,0-7.028-.215c-1.049.248-1.229.5-1.828-.565a17.847,17.847,0,0,1-.836-2.376l1.1.016" transform="translate(-640.43 -114.645)" fill="#292949"/>
            <path id="Trazado_639701" data-name="Trazado 639701" d="M829.75,737.4l-1.877,7.274,2.051,2.949,3.314-1.966,1.894-6.291-1.42-4.719Z" transform="translate(-626.874 -556.283)" fill="#292949"/>
            <path id="Trazado_639702" data-name="Trazado 639702" d="M890.966,731.731l-1.877,7.274,2.051,2.949,3.314-1.966,1.894-6.291-1.42-4.719Z" transform="translate(-673.228 -551.991)" fill="#292949"/>
            <path id="Trazado_639703" data-name="Trazado 639703" d="M812.1,522.916c-.584-1.861-1.45-4.667-3.256-5.412-3.8-1.565-7.917-2.91-11.822-1.742a11.32,11.32,0,0,0-6.489,5.4,13.946,13.946,0,0,0-1.7,6.658c-.01,2.238,1.077,4.113,1.595,6.245l9.437,38.828,5.357-.786.346-39.714c2.2-2.225,7.687-5.786,6.527-9.479" transform="translate(-597.318 -390.206)" fill="#292949"/>
            <path id="Trazado_639704" data-name="Trazado 639704" d="M883.931,528.971a40.226,40.226,0,0,0,.348-4.184,8.867,8.867,0,0,0-.388-3.235,7.387,7.387,0,0,0-1.99-2.794c-2.894-2.731-6.673-4.083-10.415-3.119a14.655,14.655,0,0,0-4.655,2.284,18.365,18.365,0,0,0-4.474,4.285.771.771,0,0,0-.2.576.736.736,0,0,0,.252.364,18.727,18.727,0,0,1,4.683,7.359c1.216,3.454,1.191,6.811,1.326,10.461q.238,6.4.476,12.809l.659,17.748,6.049.786,3.183-16.335,4.476-22.966c.254-1.305.489-2.669.669-4.041" transform="translate(-652.829 -390.213)" fill="#292949"/>
            <path id="Trazado_639705" data-name="Trazado 639705" d="M924.59,268.989l7.71,4.13,12.868,21.608-8.376,5.018-5.22-10.845Z" transform="translate(-700.109 -203.681)" fill="#f7f7f7"/>
            <path id="Trazado_639706" data-name="Trazado 639706" d="M792.8,276l-6.555,2.428-11.9,19.18,13.6,5.341Z" transform="translate(-586.343 -208.99)" fill="#f7f7f7"/>
            <path id="Trazado_639707" data-name="Trazado 639707" d="M760.529,386.2l5.1-1.457,6.313-12.313-6.624-2.839-6.332,12.147Z" transform="translate(-574.712 -279.86)" fill="#bf6d60"/>
            <path id="Trazado_639708" data-name="Trazado 639708" d="M987.386,376l8.1,13.942-2.565,5.25L987.9,393.54l-7.558-13.656Z" transform="translate(-742.328 -284.711)" fill="#bf6d60"/>
            <path id="Trazado_639709" data-name="Trazado 639709" d="M1058.8,342.185a9.209,9.209,0,1,1-7.8-10.431,9.209,9.209,0,0,1,7.8,10.431" transform="translate(-787.859 -251.135)" fill="#292949"/>
            <path id="Trazado_639710" data-name="Trazado 639710" d="M1064.93,350.753a6.33,6.33,0,1,1-5.36-7.17,6.33,6.33,0,0,1,5.36,7.17" transform="translate(-796.839 -260.115)" fill="#e5ded6"/>
            <rect id="Rectángulo_381814" data-name="Rectángulo 381814" width="33.707" height="2.468" transform="translate(255.238 126.716) rotate(-81.782)" fill="#e5ded6"/>
            <path id="Trazado_639711" data-name="Trazado 639711" d="M1073.457,364.038a2.167,2.167,0,1,1-1.835-2.454,2.167,2.167,0,0,1,1.835,2.454" transform="translate(-809.568 -273.778)" fill="#292949"/>
            <g id="Grupo_1080016" data-name="Grupo 1080016" transform="translate(261.744 91.613)" opacity="0.13">
              <g id="Grupo_1080015" data-name="Grupo 1080015">
                <g id="Grupo_1080014" data-name="Grupo 1080014" clip-path="url(#clip-path-12)">
                  <path id="Trazado_639712" data-name="Trazado 639712" d="M1079.089,377.584l-1.023,7.082a11.155,11.155,0,0,0,2.2-.245l-.814-7.084Z" transform="translate(-1078.067 -377.336)"/>
                </g>
              </g>
            </g>
            <path id="Trazado_639713" data-name="Trazado 639713" d="M850.238,473.484a49.279,49.279,0,0,0-.366,9.912c.373,6.842,1.941,14.438,7.771,20.149,6.17,6.045,17.579,8.536,26.131,5.239,8.166-3.148,12.634-10.019,15.416-16.486a57.392,57.392,0,0,0,3-9.113,39.158,39.158,0,0,0,.964-4.916c.008-.076.021-.152.03-.229.258-2.163-4.136-2.686-4.394-.521-.131,1.1-.344,2.193-.571,3.278q-.37,1.771-.852,3.522c-.092.338-.19.675-.287,1.011l-.026.09-.015.047c-.061.195-.12.39-.182.585q-.351,1.109-.751,2.207a41.773,41.773,0,0,1-4.6,9.221c-.113.166-.228.331-.344.5.162-.232-.127.174-.206.281q-.421.566-.874,1.116a26.453,26.453,0,0,1-1.823,2q-.456.451-.942.883-.228.2-.464.4c-.1.088-.211.173-.315.26-.033.027-.1.082-.157.124a21.9,21.9,0,0,1-2.169,1.449q-.568.329-1.168.626c-.189.093-.382.181-.572.271.517-.246-.306.125-.44.178a19.618,19.618,0,0,1-2.788.864c-.1.022-.2.041-.293.065l-.034.008-.015,0c-.228.036-.453.079-.681.113q-.813.121-1.644.179c-.516.037-1.033.048-1.553.056h-.135l.138,0-.232-.006h-.041l-.067,0c-.346-.017-.691-.033-1.037-.06a34.346,34.346,0,0,1-3.584-.515l-.022,0c-.111-.026-.223-.052-.333-.08q-.372-.092-.739-.2-.873-.245-1.718-.553c-.447-.164-.877-.35-1.315-.53l-.028-.011-.026-.014c-.09-.046-.183-.088-.274-.133q-.405-.2-.8-.417-.582-.321-1.133-.675-.3-.2-.6-.4c-.1-.07-.643-.482-.512-.374a20.63,20.63,0,0,1-1.923-1.739q-.425-.441-.816-.9c-.072-.084-.427-.532-.286-.347-.135-.176-.27-.353-.4-.531a23.849,23.849,0,0,1-2.557-4.583c-.015-.034-.029-.069-.043-.1s-.041-.1-.053-.133c-.069-.183-.141-.365-.208-.548q-.236-.642-.439-1.289c-.26-.824-.482-1.652-.673-2.484a39.044,39.044,0,0,1-.791-4.93q-.055-.568-.1-1.135c-.014-.2-.026-.393-.039-.589.035.528-.008-.17-.013-.3q-.049-1.118-.048-2.235,0-1.97.147-3.931c.072-.977.187-1.947.317-2.916a7.614,7.614,0,0,1-2.006-.077,11.078,11.078,0,0,1-2.406-.636m19.794,32.783c-.114-.024-.307-.072,0,0m-13.466-11.531h0" transform="translate(-643.461 -358.527)" fill="#353a85"/>
            <path id="Trazado_639714" data-name="Trazado 639714" d="M819.053,261.1l-7.343-1.061a.99.99,0,0,0-1.106.827q-1.208,8.359-2.415,16.718-.17,1.179-.341,2.358a.977.977,0,0,0,1.932.279L812.2,263.5l.2-1.392,6.377.921a.977.977,0,0,0,.279-1.932" transform="translate(-611.703 -196.894)" fill="#e5ded6"/>
            <path id="Trazado_639715" data-name="Trazado 639715" d="M857.06,264.748l-2.463-.356.558-3.864,2.462.355a1.417,1.417,0,0,1,1.2,1.605l-.153,1.06a1.416,1.416,0,0,1-1.6,1.2" transform="translate(-647.11 -197.275)" fill="#292949"/>
            <path id="Trazado_639716" data-name="Trazado 639716" d="M844.547,262.908l-2.158-.312A1.637,1.637,0,0,1,841,260.742l.177-1.225a1.637,1.637,0,0,1,1.855-1.387l2.158.312Z" transform="translate(-636.803 -195.446)" fill="#e5ded6"/>
            <path id="Trazado_639717" data-name="Trazado 639717" d="M929.612,275.259l7.343,1.06a.99.99,0,0,1,.826,1.106l-2.414,16.718q-.17,1.179-.341,2.358a.977.977,0,0,1-1.932-.279l2.414-16.718.2-1.392-6.377-.921a.977.977,0,0,1,.28-1.932" transform="translate(-703.091 -208.42)" fill="#e5ded6"/>
            <path id="Trazado_639718" data-name="Trazado 639718" d="M915.124,273.093l2.462.356.558-3.865-2.462-.356a1.417,1.417,0,0,0-1.6,1.2l-.153,1.06a1.417,1.417,0,0,0,1.2,1.605" transform="translate(-692.022 -203.851)" fill="#292949"/>
            <path id="Trazado_639719" data-name="Trazado 639719" d="M927.637,273.788l2.158.312a1.638,1.638,0,0,0,1.855-1.387l.177-1.225a1.638,1.638,0,0,0-1.387-1.855l-2.158-.312Z" transform="translate(-702.417 -203.934)" fill="#e5ded6"/>
            <g id="Grupo_1080019" data-name="Grupo 1080019" transform="translate(206.44 116.596)" opacity="0.13">
              <g id="Grupo_1080018" data-name="Grupo 1080018">
                <g id="Grupo_1080017" data-name="Grupo 1080017" clip-path="url(#clip-path-13)">
                  <path id="Trazado_639720" data-name="Trazado 639720" d="M854.785,481.339s-.127,1.438-.187,3.1l-4.314-2.476.23-1.731Z" transform="translate(-850.284 -480.237)"/>
                </g>
              </g>
            </g>
            <path id="Trazado_639721" data-name="Trazado 639721" d="M801.823,338.085a56.283,56.283,0,0,0-1.026,10.637c-.07,6.286.672,13.256,4.529,18.464,4.082,5.511,12.054,7.718,18.282,4.626,5.947-2.953,9.453-9.3,11.742-15.265a67.6,67.6,0,0,0,2.573-8.4c.359-1.491.713-3.005.924-4.526.01-.07.022-.14.032-.211a1.563,1.563,0,0,0-3.092-.447c-.147,1.012-.351,2.018-.565,3.017q-.349,1.631-.776,3.243c-.082.311-.167.622-.253.932-.113.411.068-.226-.035.126-.053.18-.1.36-.158.539q-.3,1.022-.64,2.034a46.831,46.831,0,0,1-3.714,8.509c-.1.171-.2.341-.3.511.188-.319-.064.1-.129.207q-.327.523-.674,1.032c-.436.638-.9,1.258-1.391,1.853q-.345.418-.711.818-.172.188-.348.372c-.078.081-.158.161-.237.242-.064.066-.322.309-.034.036a17.694,17.694,0,0,1-1.693,1.427q-.419.307-.859.584c-.138.087-.279.169-.419.253.379-.229-.223.117-.32.167a12.57,12.57,0,0,1-2.02.815c-.07.021-.142.039-.211.062-.36.118.337-.069-.035.01-.163.035-.325.076-.489.109-.388.078-.781.137-1.175.177-.368.037-.735.051-1.1.062-.1,0-.38-.009,0,0-.08,0-.161,0-.241-.007-.244-.013-.488-.025-.732-.047a18.592,18.592,0,0,1-2.518-.448c-.075-.017-.3-.088.045.015-.1-.029-.2-.059-.293-.089q-.259-.082-.515-.174-.607-.219-1.192-.5c-.31-.147-.605-.315-.907-.477-.339-.182.281.192-.037-.022-.061-.042-.126-.08-.188-.12q-.277-.181-.545-.377-.4-.291-.771-.612-.206-.177-.4-.363c-.08-.074-.564-.574-.26-.247a15.509,15.509,0,0,1-1.365-1.677q-.28-.4-.535-.821c-.053-.087-.34-.6-.134-.22-.105-.193-.21-.387-.31-.583a22.843,22.843,0,0,1-1.59-4.194c-.021-.073-.04-.147-.06-.221.1.361.025.095,0,0-.04-.167-.082-.334-.121-.5q-.136-.589-.249-1.182-.216-1.133-.356-2.278a44.924,44.924,0,0,1-.32-4.526q-.012-.522-.013-1.043c0-.18,0-.361,0-.541,0,.485,0-.157.005-.275q.02-1.027.075-2.054.1-1.811.3-3.614c.154-1.4.382-2.788.607-4.18.011-.068.026-.135.04-.2a1.562,1.562,0,0,0-3.092-.447" transform="translate(-606.369 -254.988)" fill="#353a85"/>
            <path id="Trazado_639722" data-name="Trazado 639722" d="M974.519,395.251l-7.4-4.788-12.686-7.131L952.66,386.2l12.031,13.671s7,1.378,7.262.656,2.566-5.276,2.566-5.276" transform="translate(-721.364 -290.263)" fill="#d38879"/>
            <path id="Trazado_639723" data-name="Trazado 639723" d="M938.847,370.9l-2.629-4.8-4.873.6.06,7.045.921.531.5-1.365L936,374.355l3.691-1.847Z" transform="translate(-705.224 -277.217)" fill="#d38879"/>
            <path id="Trazado_639724" data-name="Trazado 639724" d="M756.345,351.423c0-.243,1.214-5.341,1.214-5.341L768,333.214S772.126,332,772.612,332s.971,3.642.971,3.642l-3.145,5.486-.5-.873-2.572-.106-.341,1.563-2.064.121-1.335,12.746-5.1,3.156Z" transform="translate(-572.713 -251.394)" fill="#d38879"/>
          </g>
        </g>
      </g>
    </g>
    <rect id="Rectángulo_381819" data-name="Rectángulo 381819" width="400" height="191" transform="translate(180 7098)" fill="none"/>
  </g>
</svg>
