<svg xmlns="http://www.w3.org/2000/svg" width="400" height="170.213" viewBox="0 0 400 170.213">
  <g id="Grupo_1080082" data-name="Grupo 1080082" transform="translate(-180 -767.787)">
    <g id="Grupo_1079986" data-name="Grupo 1079986" transform="translate(14 12.567)">
      <path id="Trazado_639480" data-name="Trazado 639480" d="M139.136,383.477c27.127-11.161,53.815-55.865,41.354-92.341-21.624-63.3,62.287-101.66,107.095-56.853,28.426,28.426,97.179-15.866,129.572,32.393,17.31,25.789-7.709,66.893-6.668,86.834.985,18.868,26.113,29.966,26.113,29.966Z" transform="translate(71.549 540.38)" fill="#d9f3ff"/>
      <path id="Trazado_639482" data-name="Trazado 639482" d="M2388.292,963.378l-6,6.625-10.517-11.409,7.119-2.712Z" transform="translate(-1937.265 -126.371)" fill="#ffa46e"/>
      <path id="Trazado_639483" data-name="Trazado 639483" d="M2297.585,824.6l-.366.191-3.633,1.9a2.011,2.011,0,0,1-2.722-.822,93.854,93.854,0,0,0-11.352-21.192,2.01,2.01,0,0,1,.823-2.721l3.8-1.982.2-.105a2.01,2.01,0,0,1,2.721.823,107.356,107.356,0,0,1,11.352,21.191,2.011,2.011,0,0,1-.822,2.722" transform="translate(-1854.036 14.22)" fill="#545454"/>
      <path id="Trazado_639484" data-name="Trazado 639484" d="M2280.7,806.39l-4.629,2.425a1.824,1.824,0,0,1-2.469-.747l-1.586-2.961a1.824,1.824,0,0,1,.747-2.469l4.629-2.425a1.825,1.825,0,0,1,2.47.747l1.586,2.961a1.824,1.824,0,0,1-.746,2.469" transform="translate(-1847.312 13.886)" fill="#333"/>
      <path id="Trazado_639485" data-name="Trazado 639485" d="M2284.247,813.439l-3.632,1.89a1.573,1.573,0,0,1-2.129-.644l-1.428-2.666a1.573,1.573,0,0,1,.644-2.129l3.631-1.89a1.572,1.572,0,0,1,2.129.644l1.428,2.666a1.572,1.572,0,0,1-.643,2.129" transform="translate(-1851.874 6.853)" fill="#6e6e6e"/>
      <path id="Trazado_639486" data-name="Trazado 639486" d="M2379.981,991.72l-4.629,2.425a1.824,1.824,0,0,1-2.469-.747l-1.586-2.961a1.824,1.824,0,0,1,.746-2.469l4.63-2.425a1.824,1.824,0,0,1,2.469.747l1.586,2.961a1.824,1.824,0,0,1-.747,2.469" transform="translate(-1936.637 -152.864)" fill="#333"/>
      <path id="Trazado_639487" data-name="Trazado 639487" d="M2383.87,999.416l-3.632,1.89a1.573,1.573,0,0,1-2.129-.644L2376.681,998a1.573,1.573,0,0,1,.644-2.129l3.631-1.89a1.573,1.573,0,0,1,2.129.644l1.428,2.666a1.572,1.572,0,0,1-.643,2.129" transform="translate(-1941.51 -160.479)" fill="#6e6e6e"/>
      <path id="Trazado_639488" data-name="Trazado 639488" d="M2356.02,948.984c-.362-.08-3.664-2.013-.765-7.087,2.094-.161,2.32,2.524,1.933,3.221a8.354,8.354,0,0,0-1.168,3.865" transform="translate(-1921.336 -113.783)" fill="#ffa46e"/>
      <path id="Trazado_639489" data-name="Trazado 639489" d="M2341.182,824.6l-.365.191c.079-.195.3-.73.511-1.35.273-.782-3.2-6.125-3.2-6.125a7.761,7.761,0,0,1-5.445-3.914,8.553,8.553,0,0,1-.375-6.669s-1.8-3.164-2.62-4.968a3.528,3.528,0,0,0-1.961-1.8l.2-.105a2.01,2.01,0,0,1,2.721.823A107.393,107.393,0,0,1,2342,821.878a2.01,2.01,0,0,1-.822,2.722" transform="translate(-1897.633 14.22)" fill="#333"/>
      <path id="Trazado_639490" data-name="Trazado 639490" d="M2381.251,874.85c.977.515,2.024-.2,2.9,0,.451.1.535.786.926,1.047,1.973-2.778-1.829-9.846-5.118-11.371-.214-.1-2.476.118-2.358,3.6.074,2.18,2.674,6.214,3.651,6.728" transform="translate(-1942.5 -44.159)" fill="#ffa46e"/>
      <path id="Trazado_639491" data-name="Trazado 639491" d="M2330.593,1145.627s0,.005,0,.008a6.92,6.92,0,0,1-.469,1.542c-1.027,2.348-3.487,4.354-8.056,5.119-7.085.537-17.454.975-26.68,1.635-2.651.19-5.209.4-7.566.631-9.76-2.518-15.617-17.432-4.177-20.6,1.294-.358,6.656-.461,13.226-.289,11.947.311,27.889,1.532,30.639,3.778a9,9,0,0,1,3.086,8.171" transform="translate(-1852.309 -286.27)" fill="#fff"/>
      <path id="Trazado_639492" data-name="Trazado 639492" d="M2124.774,1016.092c-5.843,4.711-14.108,5.953-20.248.4.06-3.081.913-12.264.7-15.26l19.047,2.569c.146,3.612.35,8.666.5,12.292" transform="translate(-1696.806 -167.173)" fill="#ffa46e"/>
      <path id="Trazado_639493" data-name="Trazado 639493" d="M2137.417,1027.675c-.01-.276-.021-.559-.031-.82H2123.32l-4.252.9a26.589,26.589,0,0,0,18.763,11.419c-.151-4.2-.336-9.359-.415-11.494" transform="translate(-1709.891 -190.229)" fill="#d46c42"/>
      <path id="Trazado_639494" data-name="Trazado 639494" d="M2304.737,850.51c.081,1.639,1.2,2.916,2.489,2.852s2.275-1.445,2.194-3.085-1.2-2.916-2.489-2.852-2.275,1.445-2.194,3.084" transform="translate(-1876.942 -28.786)" fill="#ffa46e"/>
      <path id="Trazado_639495" data-name="Trazado 639495" d="M2057.209,721.24c-.094.323,4.008,15.076,3.5,18.76-4.281,11.04-11.519,14.979-23.285,6.574-1.733-2.015-7.1-13.232-7.2-13.338-7.815-15.146,21.133-27.887,26.982-12" transform="translate(-1628.76 91.334)" fill="#ffa46e"/>
      <path id="Trazado_639496" data-name="Trazado 639496" d="M2036.518,692.9c2.522.59,3.4,7.385,4.134,9.458l.139-.393c.635-28.3-46.422-14.182-27.212,8.894,1.392.851,2.889,3.648,3.729,5.671-.225-1.376,1.395-5.578.826-8.69,0,0-3.34-4.219-2.314-8.271.628-2.483,5.948-1.726,10.475-3.375,4.607-1.677,8.41-3.978,10.223-3.294" transform="translate(-1610.827 116.251)"/>
      <path id="Trazado_639497" data-name="Trazado 639497" d="M2158.849,892.587c.568,1.568-1.052,2.162-1.633.6s1.052-2.162,1.633-.6" transform="translate(-1744.107 -68.598)"/>
      <path id="Trazado_639498" data-name="Trazado 639498" d="M2285.7,846.594c.568,1.568-1.052,2.162-1.633.6s1.052-2.162,1.633-.6" transform="translate(-1858.244 -27.215)"/>
      <path id="Trazado_639499" data-name="Trazado 639499" d="M2233.5,890.055c3.175-1.012-1.359-4.669-2.294-5.615l-.766-2.087a.268.268,0,0,0-.5.184l.813,2.215c1.447,1.261,3.494,3.435,3.354,4.158-.337,1.195-3.364.68-3.25,1.24-.022.532,1.668.194,2.645-.1" transform="translate(-1809.634 -60.055)" fill="#c75038"/>
      <path id="Trazado_639500" data-name="Trazado 639500" d="M2180.754,1000.254c.838-.308,1.4-.556,1.479-.593a.268.268,0,0,0-.22-.488c-.074.033-7.42,3.3-10.3,1.154a.268.268,0,0,0-.375.054c1.173,2.457,7.41.623,9.412-.127" transform="translate(-1756.924 -165.298)" fill="#c75038"/>
      <path id="Trazado_639501" data-name="Trazado 639501" d="M2129.46,862.908c-2.38-.093,1.64-3.71,4-2.815a.535.535,0,1,1-.212,1.049c-2.743-.414-3.219,1.506-3.786,1.765" transform="translate(-1718.586 -40.058)"/>
      <path id="Trazado_639502" data-name="Trazado 639502" d="M2254.144,817.564c-2.077.084.781-3.411,4.059-2.65a.535.535,0,0,1-.213,1.049c-2.736-.427-3.309,1.355-3.846,1.6" transform="translate(-1830.79 0.561)"/>
      <path id="Trazado_639503" data-name="Trazado 639503" d="M2015.319,644.067s5.466-11.883,16.483-14.842,8.683,4.036,8.683,4.036c11.58-1.814-6.008,10.834-10.647,11.773-4.189,1.151-14.776,2.506-14.518-.966" transform="translate(-1616.538 168.194)"/>
      <path id="Trazado_639504" data-name="Trazado 639504" d="M2041.251,920.849c1.45,1.893,1.415,4.355-.079,5.5s-3.879.537-5.329-1.356-1.415-4.355.078-5.5,3.879-.537,5.33,1.356" transform="translate(-1634.051 -93.11)" fill="#ffa46e"/>
      <path id="Trazado_639505" data-name="Trazado 639505" d="M2050,951a.3.3,0,0,1-.371-.143c-1.093-2.08-1.917-2.462-2.311-2.5a.769.769,0,0,0-.65.239.3.3,0,0,1-.424.04.3.3,0,0,1-.045-.421,1.377,1.377,0,0,1,1.167-.461c.917.088,1.859,1.039,2.8,2.826a.3.3,0,0,1-.127.408A.279.279,0,0,1,2050,951" transform="translate(-1644.263 -119.046)" fill="#c75038"/>
      <path id="Trazado_639506" data-name="Trazado 639506" d="M1907.659,1200.363c-.25,2.471-.506,5.053-.753,7.632h47.111l.339-74.9c-2.41-.431-5.647-1.486-8.919-1.714-2.055,1.861-3.29,3.161-6.787,3.228a9.993,9.993,0,0,1-7.455-3.379c-16.783,1.4-25.5,6.358-25.5,6.358l7.739,45.384a47.787,47.787,0,0,0-5.777,17.393" transform="translate(-1517.91 -284.138)" fill="#9eddff"/>
      <path id="Trazado_639507" data-name="Trazado 639507" d="M2190.818,1179.691l3.05-3.937-4.927-3.5-5.276,3.364,3.118,4.07Z" transform="translate(-1768.011 -321.054)" fill="#3086b3"/>
      <path id="Trazado_639508" data-name="Trazado 639508" d="M2227.588,1279.126l-6.119,9.771-5.866-9.462c1.4-17.438.759-39.948-.44-58.291l4.172.027c3.948,18.657,7.238,40.747,8.254,57.955" transform="translate(-1796.351 -365.041)" fill="#3086b3"/>
      <path id="Trazado_639509" data-name="Trazado 639509" d="M2245.435,1115.777l-2.177-2.265c-.185,2.3-4.448,5.282-6.958,5.889a27.338,27.338,0,0,1,6.27,6.881Z" transform="translate(-1815.369 -268.199)" fill="#5bb9eb"/>
      <path id="Trazado_639510" data-name="Trazado 639510" d="M2077.694,1102.56l3.275-4.132a69.78,69.78,0,0,0,12.625,7.4c-2.712,2.043-3.951,4.146-5.578,6.881Z" transform="translate(-1672.664 -254.627)" fill="#5bb9eb"/>
      <path id="Trazado_639511" data-name="Trazado 639511" d="M1886.167,1217.65h26.5c3.548-26.314.021-51.728-7.674-76.009-14.592,1.843-16.983,5.486-16.983,5.486l6.3,46.464Z" transform="translate(-1500.338 -293.507)" fill="#fff"/>
      <path id="Trazado_639512" data-name="Trazado 639512" d="M2329.862,1209.772h13.706l-3.563-32.429-2.36-39.862a48.167,48.167,0,0,0-12.382-3.6c4.89,26.528,6.6,51.677,4.6,75.894" transform="translate(-1895.414 -286.522)" fill="#fff"/>
      <path id="Trazado_639513" data-name="Trazado 639513" d="M2074.068,1722.081l.038-.009c3.079-.745.75-16.469.75-16.469-4.716.993-9.885,16.469-9.885,16.469l.074.009Z" transform="translate(-1661.217 -800.932)" fill="#276c9c"/>
      <path id="Trazado_639514" data-name="Trazado 639514" d="M1824.193,1296.647l-7.66,25.765,18.4,10.619c-7.887,2.282-10.753,10.164-14,17.617l-22.277-17.8,13.681-41.708Z" transform="translate(-1421.595 -428.022)" fill="#d9f1ff"/>
      <path id="Trazado_639515" data-name="Trazado 639515" d="M2100.854,1781.284l-17.735-.05-4.763-.014c-1.163-2.489-1.8-5.175,1.244-9.228,0,0,.751-.072,1.9-.172,2.625-.228,7.334-.605,9.988-.62,6.158-.035,9.364,10.083,9.364,10.083" transform="translate(-1672.394 -859.953)" fill="#ffa46e"/>
      <path id="Trazado_639516" data-name="Trazado 639516" d="M2083.12,1786.8l-4.762-.014c-1.164-2.489-1.8-5.175,1.244-9.228,0,0,.75-.072,1.9-.172-.247,1.573-.808,6.619,1.616,9.414" transform="translate(-1672.394 -865.519)" fill="#d17743"/>
      <path id="Trazado_639517" data-name="Trazado 639517" d="M2223.158,1771.263c.189,0,5.53-.314,7.353,1.068a17.058,17.058,0,0,1,3.52,4.587s-.314.691-1.823.189-2.954-2.828-2.954-2.828l-5.4-.377Z" transform="translate(-1803.545 -859.98)" fill="#ffa46e"/>
      <path id="Trazado_639518" data-name="Trazado 639518" d="M2236.716,1808.814a.057.057,0,0,1-.056-.046,8.631,8.631,0,0,0-5.777-6.883.057.057,0,0,1,.028-.11,8.75,8.75,0,0,1,5.861,6.971.057.057,0,0,1-.045.066h-.011" transform="translate(-1810.457 -887.461)" fill="#d66d2d"/>
      <path id="Trazado_639519" data-name="Trazado 639519" d="M2218.41,1834.385a.056.056,0,0,1-.052-.036c-.918-2.357-5.113-3.993-5.155-4.01a.056.056,0,0,1-.032-.073.056.056,0,0,1,.073-.033c.043.016,4.283,1.67,5.22,4.074a.056.056,0,0,1-.032.073.054.054,0,0,1-.021,0" transform="translate(-1794.555 -913.064)" fill="#d66d2d"/>
      <path id="Trazado_639520" data-name="Trazado 639520" d="M1714.6,1202.43c-.384.118-27.959,40.7-19.578,53.433,3.042,4.621,38.573,14.377,38.573,14.377-1.662-4.6.05-10.368,7-17.96-.663,0-23.954-8.591-23.954-8.591s13.754-26.011,13.975-32.865-8.163-10.819-16.02-8.394" transform="translate(-1326.929 -347.558)" fill="#fff"/>
      <path id="Trazado_639521" data-name="Trazado 639521" d="M2452.006,992.75s26.1,16.084,28.341,20.156c2.725,4.962.332,12.63-8.879,12.022s-26.725-21.015-26.725-21.015Z" transform="translate(-2002.916 -159.543)" fill="#fff"/>
      <path id="Trazado_639522" data-name="Trazado 639522" d="M2461.17,1118.843c-6.535-3.89-16.594-15.34-16.695-15.455l.344-.3c.1.115,10.112,11.51,16.585,15.363Z" transform="translate(-2002.675 -258.819)" fill="#d9f1ff"/>
      <path id="Trazado_639523" data-name="Trazado 639523" d="M2482.643,1269.054c-1.027,2.348-3.487,4.354-8.056,5.119-7.085.537-17.454.975-26.68,1.635-.433-2.475-1.036-6.048-1.036-6.048s12.633,3.459,23.468,3.013c4.868-.2,9.372-1.187,12.2-3.631.034-.029.067-.058.1-.088" transform="translate(-2004.829 -408.147)" fill="#f2faff"/>
      <path id="Trazado_639524" data-name="Trazado 639524" d="M2431.3,1055.5l-1.242.668-1.438-1.792,1.98-1.064Z" transform="translate(-1988.413 -214.032)" fill="#333"/>
      <path id="Trazado_639525" data-name="Trazado 639525" d="M2442.472,1068.285a.211.211,0,0,1-.157-.351c1.127-1.268-.821-6.212-1.667-8.01a.21.21,0,1,1,.381-.179c.129.274,3.143,6.735,1.6,8.469a.21.21,0,0,1-.157.071" transform="translate(-1999.213 -219.713)" fill="#333"/>
      <path id="Trazado_639526" data-name="Trazado 639526" d="M2455.169,1138.849a.211.211,0,0,1-.115-.387l2.039-1.322a.211.211,0,0,1,.229.353l-2.039,1.322a.21.21,0,0,1-.114.034" transform="translate(-2012.107 -289.427)" fill="#333"/>
      <path id="Trazado_639527" data-name="Trazado 639527" d="M2456.681,1145.65a.211.211,0,0,1-.115-.387l2.039-1.322a.211.211,0,0,1,.229.354l-2.039,1.322a.209.209,0,0,1-.115.034" transform="translate(-2013.467 -295.547)" fill="#333"/>
      <path id="Trazado_639528" data-name="Trazado 639528" d="M2458.192,1152.453a.21.21,0,0,1-.115-.387l2.039-1.322a.211.211,0,0,1,.229.354l-2.039,1.322a.209.209,0,0,1-.115.034" transform="translate(-2014.827 -301.668)" fill="#333"/>
      <path id="Trazado_639529" data-name="Trazado 639529" d="M2459.7,1159.257a.211.211,0,0,1-.115-.387l2.039-1.321a.211.211,0,0,1,.229.353l-2.039,1.322a.21.21,0,0,1-.114.034" transform="translate(-2016.186 -307.79)" fill="#333"/>
      <path id="Trazado_639530" data-name="Trazado 639530" d="M2461.215,1166.059a.211.211,0,0,1-.115-.387l2.039-1.322a.211.211,0,1,1,.229.354l-2.039,1.322a.208.208,0,0,1-.114.034" transform="translate(-2017.546 -313.91)" fill="#333"/>
      <path id="Trazado_639531" data-name="Trazado 639531" d="M2462.727,1172.861a.211.211,0,0,1-.115-.387l2.039-1.322a.21.21,0,1,1,.229.353l-2.039,1.322a.209.209,0,0,1-.114.034" transform="translate(-2018.906 -320.031)" fill="#333"/>
      <path id="Trazado_639532" data-name="Trazado 639532" d="M2464.239,1179.663a.211.211,0,0,1-.115-.387l2.039-1.322a.21.21,0,1,1,.229.353l-2.039,1.322a.208.208,0,0,1-.114.034" transform="translate(-2020.267 -326.15)" fill="#333"/>
      <path id="Trazado_639533" data-name="Trazado 639533" d="M2465.751,1186.466a.211.211,0,0,1-.115-.387l2.039-1.321a.211.211,0,0,1,.229.354l-2.039,1.322a.209.209,0,0,1-.114.034" transform="translate(-2021.628 -332.271)" fill="#333"/>
      <path id="Trazado_639534" data-name="Trazado 639534" d="M2467.263,1193.269a.211.211,0,0,1-.115-.387l2.039-1.322a.211.211,0,0,1,.229.354l-2.039,1.322a.21.21,0,0,1-.114.034" transform="translate(-2022.988 -338.391)" fill="#333"/>
      <path id="Trazado_639535" data-name="Trazado 639535" d="M2468.774,1200.073a.211.211,0,0,1-.115-.388l2.039-1.321a.211.211,0,0,1,.229.354l-2.039,1.321a.21.21,0,0,1-.115.034" transform="translate(-2024.347 -344.513)" fill="#333"/>
      <path id="Trazado_639536" data-name="Trazado 639536" d="M2470.285,1206.874a.21.21,0,0,1-.115-.387l2.039-1.321a.21.21,0,1,1,.229.353l-2.039,1.322a.209.209,0,0,1-.115.034" transform="translate(-2025.707 -350.633)" fill="#333"/>
      <path id="Trazado_639537" data-name="Trazado 639537" d="M2471.8,1213.676a.211.211,0,0,1-.115-.388l2.039-1.321a.211.211,0,1,1,.229.353l-2.039,1.322a.209.209,0,0,1-.114.034" transform="translate(-2027.067 -356.753)" fill="#333"/>
      <path id="Trazado_639538" data-name="Trazado 639538" d="M2473.309,1220.48a.211.211,0,0,1-.115-.387l2.039-1.322a.211.211,0,1,1,.229.354l-2.039,1.322a.211.211,0,0,1-.114.034" transform="translate(-2028.428 -362.875)" fill="#333"/>
      <path id="Trazado_639539" data-name="Trazado 639539" d="M2474.821,1227.281a.211.211,0,0,1-.115-.387l2.039-1.321a.21.21,0,1,1,.229.353l-2.039,1.322a.212.212,0,0,1-.115.034" transform="translate(-2029.788 -368.994)" fill="#333"/>
      <path id="Trazado_639540" data-name="Trazado 639540" d="M2476.332,1234.085a.211.211,0,0,1-.115-.387l2.04-1.322a.211.211,0,0,1,.229.354l-2.039,1.322a.211.211,0,0,1-.114.034" transform="translate(-2031.148 -375.116)" fill="#333"/>
      <path id="Trazado_639541" data-name="Trazado 639541" d="M2477.844,1240.886a.211.211,0,0,1-.115-.387l2.039-1.322a.211.211,0,0,1,.229.354l-2.039,1.322a.209.209,0,0,1-.114.034" transform="translate(-2032.508 -381.236)" fill="#333"/>
      <path id="Trazado_639542" data-name="Trazado 639542" d="M2486,1281.09a.213.213,0,0,1-.041,0,.21.21,0,0,1-.166-.247c2.392-12.228,1.322-23.143-.059-25.011a1.14,1.14,0,0,0-1.483-.275.211.211,0,1,1-.207-.367,1.544,1.544,0,0,1,2.028.392c1.366,1.849,2.652,12.47.133,25.343a.21.21,0,0,1-.206.17" transform="translate(-2038.179 -395.474)" fill="#333"/>
      <path id="Trazado_639543" data-name="Trazado 639543" d="M1065.814,726.918s.207,20.816,16.052,22.784c14.188.414,21.637,1.188,15.834-26.847-3.521-12.531-31.679-9.4-31.886,4.063" transform="translate(-762.227 90.403)" fill="#c95138"/>
      <path id="Trazado_639544" data-name="Trazado 639544" d="M1002.483,1208.431H945.24l3.94-72.236c15.853-6.072,32.206-5.191,49.363,0Z" transform="translate(-653.741 -284.802)" fill="#9eddff"/>
      <path id="Trazado_639545" data-name="Trazado 639545" d="M994.423,1247.846c0,.613-2.159,27.633,5.915,38.425s-10.538,25.876-10.538,25.876c-17.38-5.273-6.737-68.348,4.622-64.3" transform="translate(-685.582 -388.898)" fill="#66c2f5"/>
      <path id="Trazado_639546" data-name="Trazado 639546" d="M1164.532,999.574a9.255,9.255,0,0,1-8.465,6.618c-6.79.286-8.873-6.618-8.873-6.618l1.449-11.425.869-6.849h12.7l1.423,11.214Z" transform="translate(-835.45 -149.242)" fill="#f7a594"/>
      <path id="Trazado_639547" data-name="Trazado 639547" d="M1176.643,992.514a18.448,18.448,0,0,1-14.992-4.365l.869-6.849h12.7Z" transform="translate(-848.456 -149.241)" fill="#de7964"/>
      <path id="Trazado_639548" data-name="Trazado 639548" d="M1132.649,1088c0,.439,7.9,13.964,7.9,13.964s-6.85,4.654-6.85,4.3-3.249-12.91-3.249-12.91Z" transform="translate(-820.386 -245.248)" fill="#80d3ff"/>
      <path id="Trazado_639549" data-name="Trazado 639549" d="M1238.046,1095.012c0,.439-8.606,13.437-8.606,13.437s6.323,5.181,6.323,4.83,4.479-12.91,4.479-12.91Z" transform="translate(-909.449 -251.553)" fill="#80d3ff"/>
      <path id="Trazado_639550" data-name="Trazado 639550" d="M899.8,1211.07l-19.946-1.063,7.675-33.613-.011-.168-.6-8.892-.241-3.541-.7-10.233-.638-9.378-.266-3.913a61.889,61.889,0,0,1,9-3.789,43.235,43.235,0,0,1,9.89-2.152c-.841,33.295,1.344,51.9-4.163,76.742" transform="translate(-594.908 -286.928)" fill="#fff"/>
      <path id="Trazado_639551" data-name="Trazado 639551" d="M746.894,1215.951a74.483,74.483,0,0,1-7.02,6.334c-1.249.976-2.592,1.942-4.048,2.879a55.84,55.84,0,0,1-16.019,6.978,5.417,5.417,0,0,1-2.066.385c-5.121-.115-7.548-8.768-4.406-16.265a16.827,16.827,0,0,1,4.808-6.516l16.11-11.821,7.193-5.278.021-.011c7.595-3.883,14.511,15.467,5.427,23.314" transform="translate(-443.824 -338.933)" fill="#fff"/>
      <path id="Trazado_639552" data-name="Trazado 639552" d="M741.057,1434.3l-1.183,4.584-3.443,13.341-.6-10.462a55.841,55.841,0,0,1-16.019,6.978,5.425,5.425,0,0,1-2.066.385c-5.121-.115-7.547-8.768-4.406-16.265.276,4.7,1.415,8.8,4.39,9.724,2.583.8,6.1.107,9.622-1.164a59.809,59.809,0,0,0,8.239-3.824c3.216-1.769,5.471-3.3,5.471-3.3" transform="translate(-443.824 -555.535)" fill="#d9f1ff"/>
      <path id="Trazado_639553" data-name="Trazado 639553" d="M1320.133,1141.865a59.509,59.509,0,0,1,17.756,4.66l-2.385,36.8,7.675,33.638h-26.186c1.789-13.389,6.466-43.594,3.141-75.093" transform="translate(-988.224 -293.709)" fill="#fff"/>
      <path id="Trazado_639554" data-name="Trazado 639554" d="M1308.293,1190.412s11.427,15.2,13.34,39.823c.528,6.8-17.028,30.352-17.028,30.352H1284.38l19.9-26.873s-14.094-25.018-10.081-33.178,9.551-12.031,14.091-10.124" transform="translate(-958.881 -336.958)" fill="#fff"/>
      <path id="Trazado_639555" data-name="Trazado 639555" d="M1286.579,1512.563l-.3-.155,20.939-26.929-6.683-14.973.339-.1,6.743,15.107-.047.06Z" transform="translate(-960.586 -589.313)" fill="#d9f1ff"/>
      <path id="Trazado_639556" data-name="Trazado 639556" d="M1019.83,1088.15c-.983,9.723-3.708,49.026-3.708,49.026a175.771,175.771,0,0,1-8.716-22.736l4.37-4.7-7.009-11.666c4.827-6.68,15.063-9.927,15.063-9.927" transform="translate(-707.3 -245.379)" fill="#d9f1ff"/>
      <path id="Trazado_639557" data-name="Trazado 639557" d="M1312.053,1088.854c.494,10.589,5.387,24.889,4.424,48.609,6.017-13.174,7.817-22.511,7.817-22.511l-4.37-4.7,7.009-11.666c-3.723-5.564-14.88-9.735-14.88-9.735" transform="translate(-983.781 -246.013)" fill="#d9f1ff"/>
      <path id="Trazado_639558" data-name="Trazado 639558" d="M1235.134,1020.82s-17.132-4.854-12.924-19.56c2.077-7.255,14.433-10.728,7.678-21.824l-.091-.15-.922-8.172s6.4-1.515,8.755-4.63c-1.761,4.714.252,7.074,1.287,8.062,4.067,3.882,8.351,7.988,8.412,14.975.116,13.273-13.375,12.971-12.194,31.3" transform="translate(-902.345 -135.909)" fill="#c95138"/>
      <path id="Trazado_639559" data-name="Trazado 639559" d="M1118.348,680.346c3.039,3.989-2.932,15.263-13.128,15.3-6.433-.256-16.583-6.328-13.957-19-1.839-10.572,4.675-20.561,13.957-20.561s15.2,13.115,13.128,24.261" transform="translate(-784.742 143.371)" fill="#f7a594"/>
      <path id="Trazado_639560" data-name="Trazado 639560" d="M1354.7,865.168a3.044,3.044,0,1,1-3.044-3.044,3.044,3.044,0,0,1,3.044,3.044" transform="translate(-1016.67 -42.013)" fill="#f7a594"/>
      <path id="Trazado_639561" data-name="Trazado 639561" d="M1090.679,661.2c-4.366,8.732-20.375,12.758-20.375,12.758l-2.529.366-.705.1a21.528,21.528,0,0,1,3.533-14.686,14.824,14.824,0,0,1,12.625-6.389,15.207,15.207,0,0,1,3.306.324c2.89.621,6.311,2.41,4.146,7.524" transform="translate(-763.206 145.84)" fill="#c95138"/>
      <path id="Trazado_639562" data-name="Trazado 639562" d="M1086.533,653.68c-5.244.753-10.247,2.475-13.969,6.385-3.369,3.54-4.463,10.889-4.79,14.263l-.705.1a21.528,21.528,0,0,1,3.533-14.686,14.825,14.825,0,0,1,12.625-6.389,15.205,15.205,0,0,1,3.306.324" transform="translate(-763.206 145.84)" fill="#f56245"/>
      <path id="Trazado_639563" data-name="Trazado 639563" d="M1225.9,661.5c-2.581-5.846-.509-7.5-.509-7.5a14.823,14.823,0,0,1,12.625,6.389,16.178,16.178,0,0,1,1.878,14.412s-11.747,2.041-13.994-13.3" transform="translate(-905.096 145.265)" fill="#c95138"/>
      <path id="Trazado_639564" data-name="Trazado 639564" d="M1062.316,863.514a3.044,3.044,0,1,1-3.044-3.044,3.044,3.044,0,0,1,3.044,3.044" transform="translate(-753.602 -40.525)" fill="#f7a594"/>
      <path id="Trazado_639565" data-name="Trazado 639565" d="M1090.026,934.857a12.939,12.939,0,0,0,7.411,5.75.513.513,0,0,1-.244,1,13.005,13.005,0,0,1-8.012-6.2Z" transform="translate(-783.252 -107.454)"/>
      <path id="Trazado_639566" data-name="Trazado 639566" d="M1071.151,891.5c.442,1.4-.029,2.8-1.053,3.125s-2.212-.554-2.654-1.958.029-2.8,1.053-3.125,2.212.554,2.654,1.957" transform="translate(-763.545 -66.621)"/>
      <path id="Trazado_639567" data-name="Trazado 639567" d="M1063.05,892.37c.468,1.484-.031,2.964-1.113,3.305s-2.339-.586-2.807-2.07.031-2.964,1.114-3.305,2.339.586,2.807,2.07" transform="translate(-756.055 -67.301)" fill="#fff"/>
      <path id="Trazado_639568" data-name="Trazado 639568" d="M1067.067,905.011a1.458,1.458,0,0,1-.642,1.905c-.624.2-1.348-.338-1.618-1.193a1.458,1.458,0,0,1,.642-1.905c.624-.2,1.348.338,1.618,1.193" transform="translate(-761.231 -79.49)" fill="#b8e5ff"/>
      <path id="Trazado_639569" data-name="Trazado 639569" d="M1065.783,869.327l-.036,0a.217.217,0,0,1-.178-.25,6.75,6.75,0,0,0-1.333-5.281,1.963,1.963,0,0,0-2.436-.179.217.217,0,0,1-.24-.362,2.429,2.429,0,0,1,2.983.234,7.119,7.119,0,0,1,1.454,5.659.217.217,0,0,1-.214.181" transform="translate(-758.313 -42.649)"/>
      <path id="Trazado_639570" data-name="Trazado 639570" d="M1093.815,675.838s14.273-3.526,17.7-11.775c2.163-5.685-1.329-8.682-1.329-8.682s3.516,1.379,3.4,7.261c-.185,9.221-19.773,13.2-19.773,13.2" transform="translate(-787.421 144.004)" fill="#a33a23"/>
      <path id="Trazado_639571" data-name="Trazado 639571" d="M1212.943,877.574c-.49,0-1.56-.057-1.72-.549-.19-.586,1.5-5.175,1.839-6.089a.152.152,0,1,1,.286.106,33.028,33.028,0,0,0-1.835,5.889c.085.264,1.012.356,1.613.336h.005a.152.152,0,0,1,.005.3c-.042,0-.11,0-.194,0" transform="translate(-893.045 -49.852)" fill="#ba4228"/>
      <path id="Trazado_639572" data-name="Trazado 639572" d="M1200.144,964.882a18,18,0,0,0,9.593-1.907c-1.178,4.824-6.507,7.349-9.593,1.907" transform="translate(-883.091 -132.753)" fill="#a33a23"/>
      <path id="Trazado_639573" data-name="Trazado 639573" d="M1153.056,869.2h0a.694.694,0,0,1-.691-.692v-1.383a.692.692,0,1,1,1.383,0V868.5a.694.694,0,0,1-.692.692" transform="translate(-840.101 -45.887)"/>
      <path id="Trazado_639574" data-name="Trazado 639574" d="M1299.737,870.319h0a.694.694,0,0,1-.692-.692v-1.383a.692.692,0,0,1,1.384,0v1.383a.694.694,0,0,1-.692.692" transform="translate(-972.076 -46.898)"/>
      <path id="Trazado_639575" data-name="Trazado 639575" d="M1291.489,905.366c0,.319-.775.577-1.731.577s-1.732-.258-1.732-.577.775-.577,1.732-.577,1.731.258,1.731.577" transform="translate(-962.162 -80.4)" fill="#f79985"/>
      <path id="Trazado_639576" data-name="Trazado 639576" d="M1146.3,905.366c0,.319-.775.577-1.731.577s-1.732-.258-1.732-.577.775-.577,1.732-.577,1.731.258,1.731.577" transform="translate(-831.529 -80.4)" fill="#f79985"/>
      <path id="Trazado_639577" data-name="Trazado 639577" d="M1370.5,883.258h0a.152.152,0,0,1-.152-.152c0-.1.016-2.352,1.42-2.729a.152.152,0,0,1,.079.294c-1.178.316-1.194,2.414-1.194,2.435a.152.152,0,0,1-.152.152" transform="translate(-1036.232 -58.431)" fill="#ba4228"/>
      <path id="Trazado_639578" data-name="Trazado 639578" d="M903.931,1106.49l-5.628-6.4,9.885-9.314,4.564,2.869Z" transform="translate(-611.51 -247.746)" fill="#f7a594"/>
      <path id="Trazado_639579" data-name="Trazado 639579" d="M994.4,994.925c.048-.549,2.092-10.39,1.949-10.157,2.031-2.58,6.459.633,6.629,4.8,0,0-1.88,7.077-4.354,8.534-4.465,2.6-4.224-3.174-4.224-3.174" transform="translate(-697.974 -151.53)" fill="#f7a594"/>
      <path id="Trazado_639580" data-name="Trazado 639580" d="M1013.79,903.476s3.616-10.01,3.722-9.959,1.02.24.872,1.722-2.6,9.633-2.6,9.633Z" transform="translate(-715.419 -70.258)" fill="#f7a594"/>
      <path id="Trazado_639581" data-name="Trazado 639581" d="M1030.317,920.878s5.329-9,5.43-8.929,1.012.444.576,1.952-3.836,8.134-3.836,8.134Z" transform="translate(-730.289 -86.842)" fill="#f7a594"/>
      <path id="Trazado_639582" data-name="Trazado 639582" d="M1034.384,984.331a29.856,29.856,0,0,1,4.234-3.269,28.954,28.954,0,0,1,4.939-.415s.213,1.184-1.389,1.332a7.009,7.009,0,0,0-2.754.854l-2.624,4.325Z" transform="translate(-733.948 -148.654)" fill="#f7a594"/>
      <path id="Trazado_639583" data-name="Trazado 639583" d="M1057.434,1014.835s.925-3.143,2.969-3.325c1.957-.174,4.19,1.823,4.19,1.823s-.049.7-1.412.449a3.557,3.557,0,0,1-1.714-.6l-1.393.411-1.1,3.2Z" transform="translate(-754.687 -176.413)" fill="#f7a594"/>
      <path id="Trazado_639584" data-name="Trazado 639584" d="M736.676,1070.945c-.894-.475-1.794-.947-2.715-1.373l-15.136,28.169-4.733,6.468c-6.073,9.833,2.051,23.82,15.756,10.977a12.271,12.271,0,0,0,3.318-5.529l3.819-9.478,6.221-15.441,4.985-6.8a106.353,106.353,0,0,0-11.516-6.991" transform="translate(-443.929 -228.664)" fill="#fff"/>
      <path id="Trazado_639585" data-name="Trazado 639585" d="M885.6,1190l-.29-.214a30.617,30.617,0,0,0,2.72-4.793q.253-.517.508-1.03c1.05-2.026,1.969-3.935,2.891-6.01q.8-1.838,1.6-3.657c1.784-4.075,3.469-7.925,5.1-11.951l.017-.032c1.289-1.934,2.668-3.849,4-5.7.555-.771,1.129-1.568,1.682-2.347l.294.208c-.554.78-1.128,1.578-1.683,2.349-1.328,1.845-2.7,3.753-3.984,5.676-1.634,4.026-3.4,8.051-5.1,11.943q-.8,1.82-1.6,3.658c-.926,2.083-1.847,4-2.9,6.028-.169.339-.337.682-.506,1.025A30.893,30.893,0,0,1,885.6,1190" transform="translate(-599.821 -304.861)" fill="#d9f1ff"/>
      <path id="Trazado_639586" data-name="Trazado 639586" d="M1673.048,1517.074a24.553,24.553,0,0,1-3.392,4.655,28.861,28.861,0,0,1-3.486-11.391,20.8,20.8,0,0,1,5.5-16.235s7.917,11.212,1.374,22.972" transform="translate(-1302.324 -610.633)" fill="#5fb38c"/>
      <path id="Trazado_639587" data-name="Trazado 639587" d="M1673.767,1662.78a24.561,24.561,0,0,1-3.392,4.655,28.863,28.863,0,0,1-3.486-11.391Z" transform="translate(-1303.043 -756.339)" fill="#379168"/>
      <path id="Trazado_639588" data-name="Trazado 639588" d="M1678.63,1529.451c-.169-2.664-.175-5.416-.088-8.056l-2.386-2.975.083-.067,2.308,2.877c.078-2.253.224-4.42.394-6.38l-.04.032-2.406-3,.083-.067,2.37,2.954c.1-1.161.211-2.247.32-3.233l0-.031h0c.557-5.02,1.217-8.58,1.224-8.616l.105.02c-.006.035-.656,3.544-1.211,8.506l3.264-2.475.065.085-3.345,2.537c-.182,1.642-.365,3.561-.508,5.638l4.126-2.514.056.091-4.191,2.553a94.593,94.593,0,0,0-.12,12.111Z" transform="translate(-1311.381 -618.542)" fill="#379168"/>
      <path id="Trazado_639589" data-name="Trazado 639589" d="M1699.428,1584.473a24.568,24.568,0,0,1-5.156,2.566,28.861,28.861,0,0,1,2.161-11.715,20.8,20.8,0,0,1,12.373-11.865s1.852,13.6-9.378,21.015" transform="translate(-1327.664 -673.037)" fill="#74c9a2"/>
      <path id="Trazado_639590" data-name="Trazado 639590" d="M1699.428,1690.962a24.567,24.567,0,0,1-5.156,2.565,28.861,28.861,0,0,1,2.161-11.715Z" transform="translate(-1327.664 -779.525)" fill="#379168"/>
      <path id="Trazado_639591" data-name="Trazado 639591" d="M1707.6,1576.643l-.018-.105-4.038.691c2.781-4.148,4.977-6.961,5-6.989l-.084-.066c-.022.028-2.249,2.883-5.059,7.08h0l-.017.026c-.552.824-1.15,1.738-1.776,2.721l-.74-3.714-.1.021.751,3.771.051-.01c-1.055,1.66-2.184,3.516-3.292,5.479l-.08.143c-1.3,2.3-2.559,4.746-3.638,7.188l.1.043a94.614,94.614,0,0,1,5.693-10.69l4.9-.332-.007-.107-4.821.328c1.085-1.777,2.134-3.4,3.052-4.768Z" transform="translate(-1327.931 -679.079)" fill="#379168"/>
      <path id="Trazado_639592" data-name="Trazado 639592" d="M1575.613,1558.161s1.325-20.873-17-27.586c0,0-2.776,20.38,17,27.586" transform="translate(-1205.499 -643.451)" fill="#74c9a2"/>
      <path id="Trazado_639593" data-name="Trazado 639593" d="M1582.378,1564.991c-1.262-2.857-2.741-5.716-4.256-8.409l.872-4.375-.123-.024-.843,4.233c-1.3-2.3-2.618-4.468-3.852-6.409l.059.012.879-4.411-.123-.024-.866,4.345c-.732-1.15-1.432-2.219-2.077-3.183l-.021-.031h0c-3.287-4.91-5.893-8.249-5.919-8.282l-.1.077c.026.033,2.594,3.324,5.848,8.176l-4.724-.808-.021.123,4.841.828c1.075,1.606,2.3,3.5,3.57,5.578l-5.639-.383-.009.125,5.727.389a110.59,110.59,0,0,1,6.66,12.506Z" transform="translate(-1212.277 -650.518)" fill="#379168"/>
      <path id="Trazado_639594" data-name="Trazado 639594" d="M1639.158,1741.953l-1.847,14.8h-13.688l-1.612-12.923-.234-1.881Z" transform="translate(-1262.453 -833.638)" fill="#e3733f"/>
      <path id="Trazado_639595" data-name="Trazado 639595" d="M1639.158,1741.953l-1.847,14.8h-7.062c4.447-1.979,7.166-6.8,6.667-9.574-.558-3.094-13.693-3.334-14.905-3.349l-.234-1.88Z" transform="translate(-1262.453 -833.638)" fill="#db542e"/>
      <rect id="Rectángulo_381786" data-name="Rectángulo 381786" width="18.362" height="1.662" transform="translate(358.833 908.219)" fill="#e3733f"/>
      <path id="Trazado_639596" data-name="Trazado 639596" d="M1630.028,1879.046h-17.84l-.62-1.223h19.081Z" transform="translate(-1253.268 -955.886)" fill="#db542e"/>
      <path id="Trazado_639597" data-name="Trazado 639597" d="M1989.437,1442.431l-13.707,43.136h-36.814v1.825h38.329c3.986-12.48,12.979-40.569,14.591-44.961Z" transform="translate(-1547.8 -564.143)" fill="#33ace6"/>
      <path id="Trazado_639598" data-name="Trazado 639598" d="M2335.97,1442.431l-14.607,44.961h57.817l14.287-44.961Z" transform="translate(-1891.904 -564.143)" fill="#2786b4"/>
      <path id="Trazado_639599" data-name="Trazado 639599" d="M2667.326,1605.2h-4.27l4.3-14.2h4.271Z" transform="translate(-2199.342 -697.814)" fill="#fff"/>
      <path id="Trazado_639600" data-name="Trazado 639600" d="M2628.516,1644.8l1.293-4.27h14.2l-1.293,4.27Z" transform="translate(-2168.265 -742.385)" fill="#fff"/>
      <path id="Trazado_639601" data-name="Trazado 639601" d="M1011.03,1442.431l13.707,43.136h36.814v1.825h-38.329c-3.986-12.48-12.979-40.569-14.591-44.961Z" transform="translate(-710.777 -564.143)" fill="#33ace6"/>
      <path id="Trazado_639602" data-name="Trazado 639602" d="M492.322,1442.431l14.607,44.961H449.112l-14.287-44.961Z" transform="translate(-194.497 -564.143)" fill="#2786b4"/>
      <path id="Trazado_639603" data-name="Trazado 639603" d="M731.169,1605.2h4.27l-4.3-14.2h-4.27Z" transform="translate(-457.262 -697.814)" fill="#fff"/>
      <path id="Trazado_639604" data-name="Trazado 639604" d="M707.825,1644.8l-1.293-4.27h-14.2l1.293,4.27Z" transform="translate(-426.185 -742.385)" fill="#fff"/>
      <path id="Trazado_639605" data-name="Trazado 639605" d="M456.286,597.007h-38.16a3.685,3.685,0,0,1-3.685-3.685V550.876a3.685,3.685,0,0,1,3.685-3.685h38.16a3.685,3.685,0,0,1,3.685,3.685v42.445a3.686,3.686,0,0,1-3.685,3.685" transform="translate(-176.156 241.347)" fill="#b3e4ff"/>
      <rect id="Rectángulo_381789" data-name="Rectángulo 381789" width="12.346" height="13.48" transform="translate(244.992 795.176)" fill="#fff"/>
      <path id="Trazado_639606" data-name="Trazado 639606" d="M521.423,637.9a2.481,2.481,0,0,0,1.927-.944,2.418,2.418,0,0,0,.531-1.534,2.468,2.468,0,1,0-4.936,0,2.415,2.415,0,0,0,.531,1.534,2.49,2.49,0,0,0,1.947.944" transform="translate(-270.183 164.186)" fill="#296acc"/>
      <path id="Trazado_639607" data-name="Trazado 639607" d="M508.726,693.207l0-2.084c-.711-2.6-8.385-2.491-8.731,0l0,2.084Z" transform="translate(-253.132 113.561)" fill="#296acc"/>
      <path id="Trazado_639608" data-name="Trazado 639608" d="M650.733,617.388H635.288a.658.658,0,0,1-.658-.658v-.379a.658.658,0,0,1,.658-.658h15.445a.658.658,0,0,1,.658.658v.379a.658.658,0,0,1-.658.658" transform="translate(-374.271 179.713)" fill="#80b2ff"/>
      <path id="Trazado_639609" data-name="Trazado 639609" d="M650.733,662.82H635.288a.658.658,0,0,1-.658-.658v-.379a.658.658,0,0,1,.658-.658h15.445a.658.658,0,0,1,.658.658v.379a.658.658,0,0,1-.658.658" transform="translate(-374.271 138.836)" fill="#80b2ff"/>
      <path id="Trazado_639610" data-name="Trazado 639610" d="M650.733,712.874H635.288a.658.658,0,0,1-.658-.658v-.379a.658.658,0,0,1,.658-.658h15.445a.658.658,0,0,1,.658.658v.379a.658.658,0,0,1-.658.658" transform="translate(-374.271 93.799)" fill="#80b2ff"/>
      <path id="Trazado_639611" data-name="Trazado 639611" d="M493.926,797.637h-14.8a.46.46,0,0,1-.46-.46V796.4a.46.46,0,0,1,.46-.46h14.8a.46.46,0,0,1,.46.46v.775a.46.46,0,0,1-.46.46" transform="translate(-233.942 17.535)" fill="#80b2ff"/>
      <path id="Trazado_639612" data-name="Trazado 639612" d="M493.926,850.529h-14.8a.46.46,0,0,1-.46-.46v-.775a.46.46,0,0,1,.46-.46h14.8a.46.46,0,0,1,.46.46v.775a.46.46,0,0,1-.46.46" transform="translate(-233.942 -30.055)" fill="#80b2ff"/>
      <path id="Trazado_639613" data-name="Trazado 639613" d="M493.926,903.421h-14.8a.46.46,0,0,1-.46-.46v-.775a.46.46,0,0,1,.46-.46h14.8a.46.46,0,0,1,.46.46v.775a.46.46,0,0,1-.46.46" transform="translate(-233.942 -77.644)" fill="#80b2ff"/>
      <path id="Trazado_639614" data-name="Trazado 639614" d="M493.926,956.313h-14.8a.46.46,0,0,1-.46-.46v-.775a.46.46,0,0,1,.46-.46h14.8a.46.46,0,0,1,.46.46v.775a.46.46,0,0,1-.46.46" transform="translate(-233.942 -125.234)" fill="#80b2ff"/>
      <rect id="Rectángulo_381790" data-name="Rectángulo 381790" width="14.344" height="18.523" transform="translate(263.369 812.928)" fill="#fff"/>
      <path id="Trazado_639615" data-name="Trazado 639615" d="M1384.195,468.907h38.169a2.557,2.557,0,0,0,2.557-2.557V449.98a2.557,2.557,0,0,0-2.557-2.557h-38.169a2.557,2.557,0,0,0-2.557,2.557v16.371a2.557,2.557,0,0,0,2.557,2.557" transform="translate(-1046.389 331.113)" fill="#80b2ff"/>
      <path id="Trazado_639616" data-name="Trazado 639616" d="M1452.9,625.422v9.693l9.879-9.879Z" transform="translate(-1110.506 171.127)" fill="#80b2ff"/>
      <path id="Trazado_639617" data-name="Trazado 639617" d="M1711.972,539.641a1.886,1.886,0,1,0,1.886-1.886,1.886,1.886,0,0,0-1.886,1.886" transform="translate(-1343.607 249.837)" fill="#fff"/>
      <path id="Trazado_639618" data-name="Trazado 639618" d="M1648.892,539.641a1.886,1.886,0,1,0,1.886-1.886,1.886,1.886,0,0,0-1.886,1.886" transform="translate(-1286.851 249.837)" fill="#fff"/>
      <path id="Trazado_639619" data-name="Trazado 639619" d="M1585.812,539.641a1.886,1.886,0,1,0,1.886-1.886,1.886,1.886,0,0,0-1.886,1.886" transform="translate(-1230.094 249.837)" fill="#fff"/>
      <path id="Trazado_639620" data-name="Trazado 639620" d="M1522.732,539.641a1.886,1.886,0,1,0,1.886-1.886,1.886,1.886,0,0,0-1.886,1.886" transform="translate(-1173.338 249.837)" fill="#fff"/>
      <path id="Trazado_639621" data-name="Trazado 639621" d="M1459.653,539.641a1.886,1.886,0,1,0,1.886-1.886,1.886,1.886,0,0,0-1.886,1.886" transform="translate(-1116.583 249.837)" fill="#fff"/>
      <path id="Trazado_639622" data-name="Trazado 639622" d="M1044.1,308.161h-25.7a1.722,1.722,0,0,1-1.722-1.722V295.415a1.722,1.722,0,0,1,1.722-1.722h25.7a1.722,1.722,0,0,1,1.722,1.722v11.025a1.722,1.722,0,0,1-1.722,1.722" transform="translate(-718.01 469.431)" fill="#80b2ff"/>
      <path id="Trazado_639623" data-name="Trazado 639623" d="M1199.715,413.562v6.527l-6.653-6.653Z" transform="translate(-876.719 361.693)" fill="#80b2ff"/>
      <path id="Trazado_639624" data-name="Trazado 639624" d="M1062.157,355.8a1.27,1.27,0,1,1-1.27-1.27,1.27,1.27,0,0,1,1.27,1.27" transform="translate(-756.652 414.698)" fill="#fff"/>
      <path id="Trazado_639625" data-name="Trazado 639625" d="M1104.636,355.8a1.27,1.27,0,1,1-1.27-1.27,1.27,1.27,0,0,1,1.27,1.27" transform="translate(-794.872 414.698)" fill="#fff"/>
      <path id="Trazado_639626" data-name="Trazado 639626" d="M1147.116,355.8a1.27,1.27,0,1,1-1.27-1.27,1.27,1.27,0,0,1,1.27,1.27" transform="translate(-833.093 414.698)" fill="#fff"/>
      <path id="Trazado_639627" data-name="Trazado 639627" d="M1189.6,355.8a1.27,1.27,0,1,1-1.27-1.27,1.27,1.27,0,0,1,1.27,1.27" transform="translate(-871.314 414.698)" fill="#fff"/>
      <path id="Trazado_639628" data-name="Trazado 639628" d="M1232.076,355.8a1.27,1.27,0,1,1-1.27-1.27,1.27,1.27,0,0,1,1.27,1.27" transform="translate(-909.536 414.698)" fill="#fff"/>
      <path id="Trazado_639629" data-name="Trazado 639629" d="M2638.8,752.027H2623.02a4.126,4.126,0,0,0-4.122,4.122v15.775a4.127,4.127,0,0,0,4.122,4.124H2638.8a4.128,4.128,0,0,0,4.122-4.124V756.149a4.127,4.127,0,0,0-4.122-4.122m0,23.19H2623.02a3.3,3.3,0,0,1-3.291-3.293V757.963h22.358v13.961a3.3,3.3,0,0,1-3.291,3.293" transform="translate(-2159.612 57.047)" fill="#80b2ff"/>
      <rect id="Rectángulo_381791" data-name="Rectángulo 381791" width="3.275" height="3.158" transform="translate(465.493 817.796)" fill="#80b2ff"/>
      <rect id="Rectángulo_381792" data-name="Rectángulo 381792" width="3.275" height="3.158" transform="translate(469.791 817.796)" fill="#fff"/>
      <rect id="Rectángulo_381793" data-name="Rectángulo 381793" width="3.275" height="3.158" transform="translate(473.825 817.796)" fill="#fff"/>
      <rect id="Rectángulo_381794" data-name="Rectángulo 381794" width="3.275" height="3.158" transform="translate(478.123 817.796)" fill="#fff"/>
      <rect id="Rectángulo_381795" data-name="Rectángulo 381795" width="3.275" height="3.158" transform="translate(461.195 822.058)" fill="#fff"/>
      <rect id="Rectángulo_381796" data-name="Rectángulo 381796" width="3.275" height="3.158" transform="translate(465.493 822.058)" fill="#fff"/>
      <rect id="Rectángulo_381797" data-name="Rectángulo 381797" width="3.275" height="3.158" transform="translate(469.791 822.058)" fill="#fff"/>
      <rect id="Rectángulo_381798" data-name="Rectángulo 381798" width="3.275" height="3.158" transform="translate(473.825 822.058)" fill="#fff"/>
      <rect id="Rectángulo_381799" data-name="Rectángulo 381799" width="3.275" height="3.158" transform="translate(478.123 822.058)" fill="#fff"/>
      <rect id="Rectángulo_381800" data-name="Rectángulo 381800" width="3.275" height="3.158" transform="translate(461.195 826.319)" fill="#fff"/>
      <rect id="Rectángulo_381801" data-name="Rectángulo 381801" width="3.275" height="3.158" transform="translate(465.493 826.319)" fill="#fff"/>
      <rect id="Rectángulo_381802" data-name="Rectángulo 381802" width="3.275" height="3.158" transform="translate(469.791 826.319)" fill="#fff"/>
      <rect id="Rectángulo_381803" data-name="Rectángulo 381803" width="3.275" height="3.158" transform="translate(473.825 826.319)" fill="#fff"/>
      <path id="Trazado_639630" data-name="Trazado 639630" d="M1598.5,837.2a14.142,14.142,0,1,1-14.142-14.142A14.142,14.142,0,0,1,1598.5,837.2" transform="translate(-1216.064 -6.866)" fill="#a6dfff"/>
      <path id="Trazado_639631" data-name="Trazado 639631" d="M1622.49,885.783l-.291.291-.038-.038-3.056,3.055,3.707,3.707,1.653-1.653a53.442,53.442,0,0,1,5.952,5.943l-1.657,1.657,3.707,3.707.612-.612a.437.437,0,0,1-.071.095l2.817-2.817c1.486-1.486-11.85-14.821-13.336-13.336" transform="translate(-1260.05 -63.196)" fill="#fff"/>
      <path id="Trazado_639632" data-name="Trazado 639632" d="M2465.25,559.1a7.593,7.593,0,1,1-7.592-7.592,7.592,7.592,0,0,1,7.592,7.592" transform="translate(-2007.704 237.468)" fill="#a6dfff"/>
      <path id="Trazado_639633" data-name="Trazado 639633" d="M2522.037,580.509h-5.573v-6.835h1.053v5.782h4.52Z" transform="translate(-2067.446 217.519)" fill="#fff"/>
      <path id="Trazado_639634" data-name="Trazado 639634" d="M2055.814,288.77a7.191,7.191,0,1,1-7.191-7.191,7.191,7.191,0,0,1,7.191,7.191" transform="translate(-1640.036 480.331)" fill="#a6dfff"/>
      <path id="Trazado_639635" data-name="Trazado 639635" d="M2090.624,322.833v-.194a2.364,2.364,0,0,1,1.029-1.854,1.327,1.327,0,0,0,.55-1.039.655.655,0,0,0-.713-.7c-.581,0-.774.4-.825.886h-1.437a2.069,2.069,0,0,1,2.282-2.007,1.886,1.886,0,0,1,2.16,1.875,2.193,2.193,0,0,1-.937,1.763,1.477,1.477,0,0,0-.581,1.162v.112Zm0,.52h1.528v1.691h-1.528Z" transform="translate(-1683.042 447.631)" fill="#fff"/>
      <path id="Trazado_639481" data-name="Trazado 639481" d="M436.229,1890.615H121.312a.513.513,0,0,1,0-1.025H436.229a.513.513,0,0,1,0,1.025" transform="translate(88.047 -966.473)"/>
    </g>
    <rect id="Rectángulo_381804" data-name="Rectángulo 381804" width="400" height="170" transform="translate(180 768)" fill="none"/>
  </g>
</svg>
