<svg xmlns="http://www.w3.org/2000/svg" xmlns:xlink="http://www.w3.org/1999/xlink" width="159.12" height="145.686" viewBox="0 0 159.12 145.686">
  <defs>
    <clipPath id="clip-path">
      <rect id="Rectángulo_376638" data-name="Rectángulo 376638" width="159.12" height="145.686" fill="none"/>
    </clipPath>
    <clipPath id="clip-path-3">
      <rect id="Rectángulo_376636" data-name="Rectángulo 376636" width="127.557" height="120.145" fill="none"/>
    </clipPath>
    <clipPath id="clip-path-4">
      <rect id="Rectángulo_376639" data-name="Rectángulo 376639" width="59.79" height="53.552" fill="none"/>
    </clipPath>
  </defs>
  <g id="Grupo_1078960" data-name="Grupo 1078960" transform="translate(-315.88 -543.087)">
    <g id="Grupo_1078955" data-name="Grupo 1078955" transform="translate(315.88 543.087)">
      <g id="Grupo_1078954" data-name="Grupo 1078954" clip-path="url(#clip-path)">
        <g id="Grupo_1078953" data-name="Grupo 1078953">
          <g id="Grupo_1078952" data-name="Grupo 1078952" clip-path="url(#clip-path)">
            <g id="Grupo_1078951" data-name="Grupo 1078951" transform="translate(15.998 16.973)" opacity="0.5" style="mix-blend-mode: multiply;isolation: isolate">
              <g id="Grupo_1078950" data-name="Grupo 1078950">
                <g id="Grupo_1078949" data-name="Grupo 1078949" clip-path="url(#clip-path-3)">
                  <path id="Trazado_829336" data-name="Trazado 829336" d="M50.9,128.938c-13.229-23.361-7.318-62.2,8.725-75.432s83.314-6.474,97.95,5.629S173.9,102.2,167.992,119.65c-7.071,20.876-49.761,31.987-82.258,27.478v0S75.31,153.16,76.54,165.183c0,0,.615,1.366-1.161,1.23-1.641-.126-10.571-7.718-8.9-24.5-6.913-3.087-12.4-7.372-15.573-12.977" transform="translate(-43.619 -46.278)" fill="#45b7a1" fill-rule="evenodd"/>
                </g>
              </g>
            </g>
            <path id="Trazado_829337" data-name="Trazado 829337" d="M160.652,67.831a.772.772,0,1,1,1.518-.278,87.369,87.369,0,0,1,1.268,20.3A71.685,71.685,0,0,1,160.1,106.66a27.092,27.092,0,0,1-1.972,4.431,32.032,32.032,0,0,1-2.838,4.254.774.774,0,0,1-1.217-.956,30.5,30.5,0,0,0,2.7-4.049,25.56,25.56,0,0,0,1.857-4.177,70.123,70.123,0,0,0,3.26-18.39,85.872,85.872,0,0,0-1.243-19.943m-54.722,69.3a.773.773,0,1,1,.212,1.531,114.8,114.8,0,0,1-15.4,1.137,104.487,104.487,0,0,1-14.646-.92c-1.518.962-10.409,7.106-9.295,18.442.161.507.613,2.459-2.067,2.253-1.068-.082-6.378-2.568-10.463-8.113a26.282,26.282,0,0,1-4.92-12.486.774.774,0,1,1,1.537-.187,24.756,24.756,0,0,0,4.629,11.761c3.781,5.134,8.422,7.413,9.331,7.483.533.041.491-.2.474-.261a.769.769,0,0,1-.052-.211c-1.317-12.874,9.3-19.569,10.2-20.11a.77.77,0,0,1,.56-.14,102.784,102.784,0,0,0,14.709.947,113.283,113.283,0,0,0,15.191-1.125M27.721,97.454a.772.772,0,1,1-1.519.273,87.346,87.346,0,0,1,1.4-36.363C30.49,50.06,35.613,40.321,42.4,34.722c6.081-5.014,18.714-7.416,33.307-7.866a206.745,206.745,0,0,1,51.156,5.128.772.772,0,0,1-.357,1.5A205.14,205.14,0,0,0,75.753,28.4c-14.278.44-26.575,2.737-32.369,7.515C36.859,41.293,31.914,50.74,29.1,61.745a85.779,85.779,0,0,0-1.377,35.709" transform="translate(-15.776 -16.956)" fill="#71c8e7" fill-rule="evenodd"/>
            <path id="Trazado_829338" data-name="Trazado 829338" d="M47.318,123.8C34.089,100.439,40,61.6,56.043,48.368s83.313-6.474,97.95,5.629,16.325,43.064,10.414,60.515c-7.071,20.876-49.761,31.987-82.258,27.478v0s-10.424,6.029-9.194,18.052c0,0,.615,1.367-1.161,1.23-1.641-.126-10.571-7.718-8.9-24.5-6.913-3.087-12.4-7.372-15.573-12.977" transform="translate(-25.351 -26.051)" fill="#fff" fill-rule="evenodd"/>
            <path id="Trazado_829339" data-name="Trazado 829339" d="M47.531,186.921c-4.348-7.678-6.628-17.028-7.16-26.591h0c.059.882,1.515,19.033,20.943,27.032,19.914,8.2,105.944,10.353,105.029-45.579-.006-.332.02-.639.025-.962h0c2.51,12.681,1.6,26.918-1.748,36.813-7.071,20.876-49.761,31.987-82.258,27.478v0s-10.424,6.029-9.194,18.052c0,0,.615,1.367-1.161,1.23-1.641-.126-10.571-7.718-8.9-24.5-6.913-3.087-12.4-7.372-15.573-12.977" transform="translate(-25.564 -89.172)" fill="#e2f0f0" fill-rule="evenodd"/>
            <path id="Trazado_829340" data-name="Trazado 829340" d="M316.75,45.241a1.157,1.157,0,0,1,.209-2.305c.048,0,16.364,1.342,25.27,20.092a1.159,1.159,0,0,1-2.1.99c-8.334-17.545-23.34-18.772-23.383-18.776m25.136,23a1.157,1.157,0,1,1,2.178-.78q.312.87.608,1.8.311.973.556,1.843a1.16,1.16,0,0,1-2.233.626q-.276-.978-.529-1.77-.278-.87-.58-1.714" transform="translate(-199.911 -27.185)" fill="#fff" fill-rule="evenodd"/>
            <path id="Trazado_829341" data-name="Trazado 829341" d="M51.755,262.356a1.159,1.159,0,0,1-.817,2.169,32.688,32.688,0,0,1-11.777-7.791,38.442,38.442,0,0,1-8.016-12.48,1.161,1.161,0,0,1,2.151-.871,36.126,36.126,0,0,0,7.526,11.736,30.346,30.346,0,0,0,10.933,7.238m-19.97-23.289a1.159,1.159,0,0,1-2.224.653q-.248-.835-.5-1.826-.239-.925-.449-1.87a1.157,1.157,0,0,1,2.26-.5q.206.928.431,1.8.215.835.485,1.745" transform="translate(-18.099 -148.568)" fill="#fff" fill-rule="evenodd"/>
            <path id="Trazado_829342" data-name="Trazado 829342" d="M374.844,350.159c-.217.3-.043.052-.068.075l-11.1,13.929c-.32.447-1.731-.014-3.151-1.03s-2.312-2.2-1.992-2.649l9.6-15c.013-.032-.168.215.049-.089s2.243.018,4.084,1.334,2.8,3.13,2.582,3.433" transform="translate(-226.996 -218.648)" fill="#244553" fill-rule="evenodd"/>
            <path id="Trazado_829343" data-name="Trazado 829343" d="M374.844,350.159c-.217.3-.043.052-.068.075l-11.1,13.929c-.32.447-1.731-.014-3.151-1.03s-2.312-2.2-1.992-2.649l.556-.87c2.193,1.82,4.816.414,6.539-2,1.908-2.667,3.522-5.04,1.743-6.312a3.367,3.367,0,0,0-2.7-.416l3.46-5.411c.013-.032-.168.215.049-.089s2.243.018,4.084,1.334,2.8,3.13,2.582,3.433" transform="translate(-226.996 -218.648)" fill="#0f2c39" fill-rule="evenodd"/>
            <path id="Trazado_829344" data-name="Trazado 829344" d="M409.281,341.01a.424.424,0,0,1,.074.069l5.606,5.146c.447.32-.014,1.73-1.029,3.15s-2.2,2.312-2.649,1.992l-6.681-3.643a.407.407,0,0,1-.089-.048c-.58-.415.017-2.243,1.334-4.084s2.854-3,3.434-2.582" transform="translate(-256.012 -215.887)" fill="#fff" fill-rule="evenodd"/>
            <path id="Trazado_829345" data-name="Trazado 829345" d="M414.815,356.3a8.69,8.69,0,0,1-.884,1.522c-1.016,1.42-2.2,2.312-2.649,1.992l-6.681-3.643a.422.422,0,0,1-.089-.048c-.334-.239-.278-.947.082-1.855a8.123,8.123,0,0,1,3.556,1.606c4.385,3.137,6.66.432,6.664.426" transform="translate(-256.012 -224.338)" fill="#d0c6c6" fill-rule="evenodd"/>
            <path id="Trazado_829346" data-name="Trazado 829346" d="M374.437,306.929a.953.953,0,0,1,.163.15l12.258,11.251c.978.7-.03,3.784-2.251,6.889s-4.814,5.055-5.792,4.355l-14.607-7.965a.945.945,0,0,1-.195-.106c-1.268-.907.038-4.9,2.917-8.928s6.24-6.551,7.508-5.644" transform="translate(-230.2 -194.242)" fill="#244553" fill-rule="evenodd"/>
            <path id="Trazado_829347" data-name="Trazado 829347" d="M385.071,334.6q-.222.336-.464.674c-2.22,3.1-4.814,5.055-5.792,4.355l-14.607-7.965a.945.945,0,0,1-.195-.106c-1.268-.907.038-4.9,2.917-8.928v0a37.016,37.016,0,0,1,4.026,4.019c-.9,1.244-.944,2.937-.316,3.47a48.163,48.163,0,0,0,8.982,5.291,5.525,5.525,0,0,0,5.448-.807" transform="translate(-230.2 -204.302)" fill="#132f3b" fill-rule="evenodd"/>
            <path id="Trazado_829348" data-name="Trazado 829348" d="M374.433,306.976c1.264.9-.038,4.889-2.908,8.9s-6.221,6.531-7.485,5.627.038-4.889,2.908-8.9,6.221-6.532,7.485-5.628" transform="translate(-230.218 -194.272)" fill="#092733" fill-rule="evenodd"/>
            <path id="Trazado_829349" data-name="Trazado 829349" d="M317.664,262.885s-10.043-13.135-10.755-24.443l-9.056-3.166-20.5,28.666,5.922,7.548c10.932-2.979,26.606,2.282,26.606,2.282,1.127.806,3.783-.978,5.933-3.984s2.98-6.1,1.854-6.9" transform="translate(-175.627 -148.985)" fill="#fcd000" fill-rule="evenodd"/>
            <path id="Trazado_829350" data-name="Trazado 829350" d="M286.5,278.556l-9.15,12.792,5.922,7.548c10.932-2.979,26.607,2.282,26.607,2.282,1.127.806,3.783-.978,5.933-3.984.292-.408.559-.817.8-1.222-.032.037-1.9,2.19-5.781,1.134a122.535,122.535,0,0,1-14.036-5.114c-2.239-1.1-2.141-3.464-.5-6.235.937-1.579-4.52-4.932-9.8-7.2" transform="translate(-175.627 -176.392)" fill="#f5b700" fill-rule="evenodd"/>
            <path id="Trazado_829351" data-name="Trazado 829351" d="M294.181,218.378c-4.9-3.507-15.869,3.427-24.5,15.487s-11.645,24.679-6.743,28.185,15.87-3.427,24.5-15.487,11.645-24.679,6.743-28.186" transform="translate(-165.018 -137.709)" fill="#f5b700" fill-rule="evenodd"/>
            <path id="Trazado_829352" data-name="Trazado 829352" d="M295.93,224.652c-3.652-2.612-12.858,4-20.562,14.773s-10.99,21.62-7.338,24.233,12.857-4,20.562-14.774,10.99-21.62,7.338-24.232" transform="translate(-168.782 -141.897)" fill="#ea8c00" fill-rule="evenodd"/>
            <path id="Trazado_829353" data-name="Trazado 829353" d="M280.793,270.884c4.489-1.3,11.071-7.024,16.819-15.059s9.034-16.113,8.818-20.783c-4.49,1.3-11.072,7.025-16.819,15.06s-9.034,16.113-8.818,20.783" transform="translate(-177.802 -148.837)" fill="#e07f00" fill-rule="evenodd"/>
            <path id="Trazado_829354" data-name="Trazado 829354" d="M302.666,261.136l6.776,5.228c-1.009,1.722-2.146,3.477-3.4,5.231-.912,1.275-1.845,2.491-2.788,3.641l-6.951-5.358c-5.663-4.366.7-13.109,6.362-8.741" transform="translate(-186.232 -164.608)" fill="#fff" fill-rule="evenodd"/>
            <path id="Trazado_829355" data-name="Trazado 829355" d="M303.255,277.147l-6.951-5.358c-3.407-2.627-2.46-6.838.067-8.824-.1.125-2.228,2.805,2.068,6.843,3.114,2.927,6.175,3.306,8.112,2.977q-.251.361-.508.722c-.913,1.275-1.846,2.491-2.788,3.641" transform="translate(-186.233 -166.519)" fill="#e9e5e8" fill-rule="evenodd"/>
            <path id="Trazado_829356" data-name="Trazado 829356" d="M48.1,25.489a.774.774,0,1,1,1.549,0v1h1a.775.775,0,0,1,0,1.55h-1v1a.774.774,0,1,1-1.549,0v-1h-1a.775.775,0,0,1,0-1.55h1Z" transform="translate(-29.333 -15.65)" fill="#fff" fill-rule="evenodd"/>
            <path id="Trazado_829357" data-name="Trazado 829357" d="M397.077,275.153a.775.775,0,0,1,1.549,0v1h1a.775.775,0,0,1,0,1.549h-1v1a.775.775,0,0,1-1.549,0v-1h-1a.775.775,0,1,1,0-1.549h1Z" transform="translate(-250.319 -173.746)" fill="#fff" fill-rule="evenodd"/>
            <path id="Trazado_829358" data-name="Trazado 829358" d="M374.749,21.732a.775.775,0,0,1,1.549,0v1h1a.775.775,0,0,1,0,1.549h-1v1a.775.775,0,1,1-1.549,0v-1h-1a.775.775,0,0,1,0-1.549h1Z" transform="translate(-236.18 -13.271)" fill="#fff" fill-rule="evenodd"/>
            <path id="Trazado_829359" data-name="Trazado 829359" d="M39.781,333.441a.775.775,0,0,1,1.549,0v1h1a.775.775,0,0,1,0,1.549h-1v1a.775.775,0,0,1-1.549,0v-1h-1a.775.775,0,0,1,0-1.549h1Z" transform="translate(-24.066 -210.657)" fill="#fff" fill-rule="evenodd"/>
            <path id="Trazado_829360" data-name="Trazado 829360" d="M167.113,367.02a.792.792,0,1,0-.793-.793.794.794,0,0,0,.793.793" transform="translate(-105.32 -231.407)" fill="#fff" fill-rule="evenodd"/>
            <path id="Trazado_829361" data-name="Trazado 829361" d="M423.93,302.567a.792.792,0,1,0-.792-.792.794.794,0,0,0,.792.792" transform="translate(-267.947 -190.593)" fill="#fff" fill-rule="evenodd"/>
            <path id="Trazado_829362" data-name="Trazado 829362" d="M427.521,146.2a.793.793,0,1,0-.793-.793.794.794,0,0,0,.793.793" transform="translate(-270.22 -91.573)" fill="#fff" fill-rule="evenodd"/>
            <path id="Trazado_829363" data-name="Trazado 829363" d="M13.64,154.935a.792.792,0,1,0-.793-.793.794.794,0,0,0,.793.793" transform="translate(-8.135 -97.107)" fill="#fff" fill-rule="evenodd"/>
            <path id="Trazado_829364" data-name="Trazado 829364" d="M112.1,8.225a.793.793,0,1,0-.793-.793.794.794,0,0,0,.793.793" transform="translate(-70.487 -4.205)" fill="#fff" fill-rule="evenodd"/>
            <path id="Trazado_829365" data-name="Trazado 829365" d="M13.517,1.585a.792.792,0,1,0-.793-.793.794.794,0,0,0,.793.793" transform="translate(-8.057 0)" fill="#fff" fill-rule="evenodd"/>
            <path id="Trazado_829366" data-name="Trazado 829366" d="M283.528,23.307a.792.792,0,1,0-.792-.793.794.794,0,0,0,.792.793" transform="translate(-179.039 -13.755)" fill="#fff" fill-rule="evenodd"/>
            <path id="Trazado_829367" data-name="Trazado 829367" d="M423.033,81.243a.792.792,0,1,0-.793-.793.794.794,0,0,0,.793.793" transform="translate(-267.378 -50.442)" fill="#fff" fill-rule="evenodd"/>
            <path id="Trazado_829368" data-name="Trazado 829368" d="M1.776,207.6a.775.775,0,1,1,1.549,0v1h1a.775.775,0,1,1,0,1.549h-1v1a.775.775,0,0,1-1.549,0v-1h-1a.775.775,0,1,1,0-1.549h1Z" transform="translate(0 -130.967)" fill="#fff" fill-rule="evenodd"/>
          </g>
        </g>
      </g>
    </g>
    <g id="Grupo_1078957" data-name="Grupo 1078957" transform="translate(361.123 578.243)">
      <g id="Grupo_1078956" data-name="Grupo 1078956" transform="translate(0 0)" clip-path="url(#clip-path-4)">
        <path id="Trazado_829369" data-name="Trazado 829369" d="M24.681,3.017.809,44.539a6.015,6.015,0,0,0,5.215,9.013H53.766a6.015,6.015,0,0,0,5.215-9.013L35.11,3.017a6.015,6.015,0,0,0-10.429,0" transform="translate(0 0)" fill="#ffd34d"/>
        <path id="Trazado_829370" data-name="Trazado 829370" d="M36.026,14.031a4.155,4.155,0,0,0-4.163,4.4c0,3.69,2.082,23.369,2.082,23.369s.283,1.23,2.081,1.324c1.8-.094,2.081-1.324,2.081-1.324s2.082-19.679,2.082-23.369a4.155,4.155,0,0,0-4.163-4.4" transform="translate(-6.131 -2.7)" fill="#606060"/>
        <path id="Trazado_829371" data-name="Trazado 829371" d="M39.371,55.2a3.089,3.089,0,1,1-3.089-3.089A3.089,3.089,0,0,1,39.371,55.2" transform="translate(-6.387 -10.027)" fill="#606060"/>
      </g>
    </g>
  </g>
</svg>
