<svg xmlns="http://www.w3.org/2000/svg" xmlns:xlink="http://www.w3.org/1999/xlink" width="190" height="99" viewBox="0 0 190 99">
  <defs>
    <clipPath id="clip-path">
      <rect id="Rectángulo_381826" data-name="Rectángulo 381826" width="83.771" height="99" fill="none"/>
    </clipPath>
  </defs>
  <g id="Grupo_1080032" data-name="Grupo 1080032" transform="translate(-180 -404)">
    <g id="Grupo_1080031" data-name="Grupo 1080031" transform="translate(234.5 404)">
      <g id="Grupo_1080030" data-name="Grupo 1080030" transform="translate(0 0)" clip-path="url(#clip-path)">
        <rect id="Rectángulo_381825" data-name="Rectángulo 381825" width="74.761" height="95.772" rx="5.5" transform="translate(7.38 1.614)" fill="#abe7ed"/>
        <path id="Trazado_639787" data-name="Trazado 639787" d="M72.231,99H13.616a9.7,9.7,0,0,1-9.689-9.686V9.686A9.7,9.7,0,0,1,13.616,0H72.231a9.7,9.7,0,0,1,9.686,9.686V89.313A9.7,9.7,0,0,1,72.231,99M13.616,3.228A6.465,6.465,0,0,0,7.158,9.686V89.313a6.465,6.465,0,0,0,6.459,6.459H72.231a6.466,6.466,0,0,0,6.459-6.459V9.686a6.466,6.466,0,0,0-6.459-6.459Z" transform="translate(1.837 0)" fill="#333133"/>
        <path id="Trazado_639788" data-name="Trazado 639788" d="M12.629,15.021a1.911,1.911,0,0,1-1.985,1.829H3.086A1.913,1.913,0,0,1,1.1,15.021V12.535A1.911,1.911,0,0,1,3.086,10.7h7.558a1.91,1.91,0,0,1,1.985,1.83Z" transform="translate(0.515 5.008)" fill="#fff"/>
        <path id="Trazado_639789" data-name="Trazado 639789" d="M11.159,18.98H3.6A3.529,3.529,0,0,1,0,15.536V13.051A3.529,3.529,0,0,1,3.6,9.606h7.558a3.53,3.53,0,0,1,3.6,3.445v2.485a3.53,3.53,0,0,1-3.6,3.444M3.6,12.835c-.241,0-.373.142-.373.216v2.485c0,.076.142.214.373.214h7.558c.239,0,.37-.141.37-.214V13.051c0-.087-.147-.216-.37-.216Z" transform="translate(0 4.494)" fill="#333133"/>
        <path id="Trazado_639790" data-name="Trazado 639790" d="M12.629,23.391a1.91,1.91,0,0,1-1.985,1.829H3.086A1.912,1.912,0,0,1,1.1,23.391V20.907a1.912,1.912,0,0,1,1.986-1.832h7.558a1.911,1.911,0,0,1,1.985,1.832Z" transform="translate(0.515 8.924)" fill="#fff"/>
        <path id="Trazado_639791" data-name="Trazado 639791" d="M11.159,27.35H3.6A3.528,3.528,0,0,1,0,23.905V21.42a3.529,3.529,0,0,1,3.6-3.445h7.558a3.53,3.53,0,0,1,3.6,3.445v2.485a3.529,3.529,0,0,1-3.6,3.445M3.6,21.2c-.241,0-.373.142-.373.216v2.485c0,.076.142.214.373.214h7.558c.239,0,.37-.141.37-.214V21.42c0-.087-.147-.216-.37-.216Z" transform="translate(0 8.409)" fill="#333133"/>
        <path id="Trazado_639792" data-name="Trazado 639792" d="M12.629,31.759a1.91,1.91,0,0,1-1.985,1.829H3.086A1.912,1.912,0,0,1,1.1,31.759V29.275a1.91,1.91,0,0,1,1.986-1.829h7.558a1.909,1.909,0,0,1,1.985,1.829Z" transform="translate(0.515 12.84)" fill="#fff"/>
        <path id="Trazado_639793" data-name="Trazado 639793" d="M11.159,35.719H3.6A3.528,3.528,0,0,1,0,32.274V29.789a3.529,3.529,0,0,1,3.6-3.444h7.558a3.53,3.53,0,0,1,3.6,3.444v2.485a3.529,3.529,0,0,1-3.6,3.445M3.6,29.574c-.241,0-.373.142-.373.214v2.485c0,.076.142.214.373.214h7.558c.239,0,.37-.141.37-.214V29.789c0-.085-.147-.214-.37-.214Z" transform="translate(0 12.325)" fill="#333133"/>
        <path id="Trazado_639794" data-name="Trazado 639794" d="M12.629,40.129a1.911,1.911,0,0,1-1.985,1.829H3.086A1.913,1.913,0,0,1,1.1,40.129V37.645a1.91,1.91,0,0,1,1.986-1.829h7.558a1.909,1.909,0,0,1,1.985,1.829Z" transform="translate(0.515 16.756)" fill="#fff"/>
        <path id="Trazado_639795" data-name="Trazado 639795" d="M11.159,44.089H3.6A3.529,3.529,0,0,1,0,40.644V38.159a3.529,3.529,0,0,1,3.6-3.444h7.558a3.53,3.53,0,0,1,3.6,3.444v2.485a3.53,3.53,0,0,1-3.6,3.445M3.6,37.944c-.223,0-.373.129-.373.214v2.485c0,.076.142.214.373.214h7.558c.23,0,.37-.138.37-.214V38.159c0-.085-.147-.214-.37-.214Z" transform="translate(0 16.241)" fill="#333133"/>
        <path id="Trazado_639796" data-name="Trazado 639796" d="M12.629,48.5a1.912,1.912,0,0,1-1.985,1.832H3.086A1.913,1.913,0,0,1,1.1,48.5V46.016a1.912,1.912,0,0,1,1.986-1.832h7.558a1.911,1.911,0,0,1,1.985,1.832Z" transform="translate(0.515 20.671)" fill="#fff"/>
        <path id="Trazado_639797" data-name="Trazado 639797" d="M11.159,52.458H3.6A3.528,3.528,0,0,1,0,49.013V46.53a3.528,3.528,0,0,1,3.6-3.447h7.558a3.529,3.529,0,0,1,3.6,3.447v2.484a3.529,3.529,0,0,1-3.6,3.445M3.6,46.312c-.223,0-.373.132-.373.217v2.484c0,.078.142.216.373.216h7.558c.223,0,.37-.129.37-.216V46.53c0-.085-.147-.217-.37-.217Z" transform="translate(0 20.156)" fill="#333133"/>
        <path id="Trazado_639798" data-name="Trazado 639798" d="M12.629,56.869A1.909,1.909,0,0,1,10.644,58.7H3.086A1.911,1.911,0,0,1,1.1,56.869V54.384a1.912,1.912,0,0,1,1.986-1.83h7.558a1.911,1.911,0,0,1,1.985,1.83Z" transform="translate(0.515 24.587)" fill="#fff"/>
        <path id="Trazado_639799" data-name="Trazado 639799" d="M11.159,60.828H3.6A3.528,3.528,0,0,1,0,57.384V54.9a3.529,3.529,0,0,1,3.6-3.445h7.558a3.53,3.53,0,0,1,3.6,3.445v2.485a3.529,3.529,0,0,1-3.6,3.444M3.6,54.682c-.23,0-.373.139-.373.217v2.485c0,.075.142.213.373.213h7.558c.239,0,.37-.141.37-.213V54.9c0-.087-.147-.217-.37-.217Z" transform="translate(0 24.073)" fill="#333133"/>
        <path id="Trazado_639800" data-name="Trazado 639800" d="M32.352,30.473c2.531-1.418,3-1.734,3.08-1.776,0,0,.076-.044.119-.072a.685.685,0,0,0,.257-.932L28.633,15.269a.687.687,0,0,0-.936-.25,32.1,32.1,0,0,0-6.968,4.439,11.98,11.98,0,0,0-.917.938A12.659,12.659,0,0,0,17,30.408c.583,4.92,7.369,16.048,7.369,16.048s6.243,11.436,10.212,14.4A12.435,12.435,0,0,0,45.927,63.1a32.074,32.074,0,0,0,7.328-3.813.687.687,0,0,0,.255-.934l-7.176-12.43a.683.683,0,0,0-.932-.245.581.581,0,0,0-.109.1s-.6.273-3.094,1.753c-3.178,1.882-3.263,3.646-3.263,3.646-1.469-.9-6.225-9.538-6.225-9.538s-5.1-8.437-5.146-10.161c0,0,1.64.756,4.788-1" transform="translate(7.902 6.983)" fill="#fff"/>
        <path id="Trazado_639801" data-name="Trazado 639801" d="M42.946,65.774a14.753,14.753,0,0,1-8.819-3.109C30,59.578,24.121,48.947,23.464,47.746c-.675-1.1-6.946-11.511-7.554-16.631a14.3,14.3,0,0,1,3.2-11.264,14.14,14.14,0,0,1,1.038-1.066,33.442,33.442,0,0,1,7.391-4.716,2.123,2.123,0,0,1,1.017-.241A2.3,2.3,0,0,1,30.54,14.97L37.718,27.4a2.3,2.3,0,0,1-.853,3.141c-.3.181-.945.587-3.21,1.855a10.811,10.811,0,0,1-3.291,1.252c.926,1.939,2.649,5.033,4.242,7.667,1.5,2.723,3.316,5.761,4.546,7.546a10.882,10.882,0,0,1,2.738-2.206c1.832-1.086,2.676-1.544,3.031-1.728.066-.05.131-.1.176-.126a2.349,2.349,0,0,1,3.15.832l7.176,12.428a2.312,2.312,0,0,1-.848,3.141,32.737,32.737,0,0,1-7.65,3.953,13.254,13.254,0,0,1-3.978.617M28.184,17.345a28.537,28.537,0,0,0-5.849,3.818,10.554,10.554,0,0,0-.793.81,11.094,11.094,0,0,0-2.425,8.762c.445,3.746,5.306,12.386,7.143,15.4,1.729,3.163,6.779,11.69,9.8,13.948a11.679,11.679,0,0,0,6.887,2.467,10.08,10.08,0,0,0,3.011-.468,28.554,28.554,0,0,0,6.233-3.156L45.917,48.061c-.442.242-1.186.665-2.382,1.372-2.238,1.327-2.479,2.434-2.482,2.444a1.525,1.525,0,0,1-.853,1.295,1.6,1.6,0,0,1-1.594-.107c-1.6-.981-4.944-6.77-6.795-10.133-1.955-3.232-5.3-9.026-5.347-10.9a1.615,1.615,0,0,1,2.272-1.518c-.026-.016.112.022.382.022a6.247,6.247,0,0,0,2.959-.96c1.217-.683,1.948-1.1,2.385-1.361Z" transform="translate(7.388 6.469)" fill="#333133"/>
        <path id="Trazado_639802" data-name="Trazado 639802" d="M49.08,42V77.737h2.026a8.1,8.1,0,0,0,8.073-8.073V42Z" transform="translate(22.962 19.649)" fill="#ffc8b0"/>
        <path id="Trazado_639803" data-name="Trazado 639803" d="M51.62,79.865H49.595a1.614,1.614,0,0,1-1.615-1.613V42.513A1.615,1.615,0,0,1,49.595,40.9h10.1a1.614,1.614,0,0,1,1.615,1.615V70.179a9.7,9.7,0,0,1-9.688,9.686m-.411-3.228h.411a6.467,6.467,0,0,0,6.46-6.459V44.129H51.209Z" transform="translate(22.448 19.134)" fill="#333133"/>
        <path id="Trazado_639804" data-name="Trazado 639804" d="M59.71,50.17H49.595a1.614,1.614,0,1,1,0-3.228H59.71a1.614,1.614,0,1,1,0,3.228" transform="translate(22.448 21.962)" fill="#333133"/>
        <path id="Trazado_639805" data-name="Trazado 639805" d="M59.71,56.447H49.595a1.615,1.615,0,1,1,0-3.229H59.71a1.615,1.615,0,0,1,0,3.229" transform="translate(22.448 24.898)" fill="#333133"/>
        <path id="Trazado_639806" data-name="Trazado 639806" d="M59.71,62.722H49.595a1.615,1.615,0,1,1,0-3.229H59.71a1.615,1.615,0,0,1,0,3.229" transform="translate(22.448 27.834)" fill="#333133"/>
        <path id="Trazado_639807" data-name="Trazado 639807" d="M40.835,35.839h-.021a1.616,1.616,0,0,1-1.6-1.632,12.164,12.164,0,0,0-4.886-9.877,1.614,1.614,0,1,1,1.929-2.589,15.4,15.4,0,0,1,6.188,12.5,1.615,1.615,0,0,1-1.615,1.6" transform="translate(15.759 10.021)" fill="#333133"/>
        <path id="Trazado_639808" data-name="Trazado 639808" d="M46.674,37.708h-.018a1.617,1.617,0,0,1-1.6-1.632A19.328,19.328,0,0,0,37.3,20.4a1.615,1.615,0,0,1,1.93-2.591,22.58,22.58,0,0,1,9.057,18.3,1.617,1.617,0,0,1-1.616,1.6" transform="translate(17.149 8.184)" fill="#333133"/>
        <path id="Trazado_639809" data-name="Trazado 639809" d="M46.64,37.814h-.018a1.617,1.617,0,0,1-1.6-1.632A19.351,19.351,0,0,0,37.269,20.5a1.615,1.615,0,0,1,1.93-2.589,22.6,22.6,0,0,1,9.057,18.3,1.616,1.616,0,0,1-1.616,1.6" transform="translate(17.133 8.231)" fill="#333133"/>
        <path id="Trazado_639810" data-name="Trazado 639810" d="M52.558,40.865c-.032,0-.066,0-.1,0a1.613,1.613,0,0,1-1.515-1.707A25.622,25.622,0,0,0,39.552,16.125a1.615,1.615,0,0,1,1.8-2.68,28.821,28.821,0,0,1,12.816,25.9,1.615,1.615,0,0,1-1.61,1.516" transform="translate(18.17 6.161)" fill="#333133"/>
      </g>
    </g>
    <rect id="Rectángulo_381827" data-name="Rectángulo 381827" width="190" height="99" transform="translate(180 404)" fill="none"/>
  </g>
</svg>
